<svg width="1891" height="989" viewBox="0 0 1891 989" fill="none" xmlns="http://www.w3.org/2000/svg">
<path d="M200.022 596.23V617.887H349.188V659.254H199.779V703.299C199.842 708.894 202.093 714.242 206.049 718.199C210.006 722.155 215.354 724.406 220.949 724.469H391.286V766.08H220.949C204.34 766.016 188.434 759.373 176.713 747.606C164.992 735.839 158.411 719.907 158.411 703.299V596.23C158.411 579.621 164.992 563.689 176.713 551.923C188.434 540.156 204.34 533.513 220.949 533.448H391.286V575.059H220.949C215.376 575.123 210.054 577.382 206.136 581.345C202.219 585.309 200.021 590.657 200.022 596.23Z" fill="#231F20"/>
<path d="M656.769 533.448V766.08H615.158V617.887L574.277 649.034L540.453 676.045L506.629 649.764L465.748 618.617V766.08H424.138V533.448L465.748 565.326L540.453 622.754L615.158 565.326L656.769 533.448Z" fill="#231F20"/>
<path d="M731.476 596.23V617.887H880.886V659.254H731.476V703.299C731.539 708.894 733.79 714.242 737.746 718.199C741.703 722.155 747.051 724.406 752.646 724.469H922.983V766.08H752.646C744.393 766.112 736.214 764.51 728.583 761.367C720.951 758.223 714.017 753.6 708.181 747.764C702.345 741.927 697.722 734.994 694.578 727.362C691.434 719.731 689.833 711.552 689.865 703.299V596.23C689.833 588.017 691.419 579.879 694.532 572.279C697.645 564.679 702.225 557.767 708.009 551.937C713.794 546.108 720.67 541.474 728.245 538.302C735.821 535.13 743.947 533.48 752.159 533.448H922.496V575.059H752.159C746.629 575.186 741.369 577.473 737.503 581.43C733.638 585.386 731.474 590.698 731.476 596.23Z" fill="#231F20"/>
<path d="M1143.45 724.713L1164.62 766.324H1118.14L1096.97 724.713L1074.58 681.155V679.209C1070.92 673.119 1065.75 668.079 1059.57 664.583C1053.38 661.086 1046.4 659.25 1039.3 659.255H997.929V766.324H956.318V533.692H1102.32C1118.92 533.684 1134.84 540.245 1146.61 551.943C1158.23 563.861 1164.78 579.826 1164.86 596.474C1164.89 608.5 1161.47 620.283 1155 630.421C1148.53 640.558 1139.28 648.624 1128.36 653.658C1122.68 656.347 1116.6 658.074 1110.35 658.768L1143.45 724.713ZM1102.08 617.887C1105.1 617.88 1108.09 617.215 1110.84 615.941C1114.02 614.554 1116.81 612.406 1118.97 609.687C1121.12 606.968 1122.58 603.761 1123.2 600.348C1123.83 596.935 1123.6 593.42 1122.55 590.114C1121.5 586.808 1119.65 583.811 1117.17 581.387C1115.18 579.428 1112.82 577.882 1110.23 576.838C1107.64 575.794 1104.87 575.272 1102.08 575.303H996.956V618.131L1102.08 617.887Z" fill="#231F20"/>
<path d="M1422.31 766.081H1375.83L1354.66 724.713L1303.81 624.944L1252.95 724.713L1231.78 766.324H1185.3L1206.47 724.713L1303.81 533.692L1401.14 724.713L1422.31 766.081Z" fill="#231F20"/>
<path d="M1625.5 724.713V766.324H1507.48C1496.17 766.368 1485.01 763.786 1474.87 758.78C1460.25 751.412 1448.45 739.442 1441.29 724.713C1436.32 714.648 1433.74 703.573 1433.75 692.349V533.692H1475.12V696.242C1476.1 703.407 1479.38 710.059 1484.47 715.195C1489.56 720.331 1496.19 723.671 1503.34 724.713H1625.5Z" fill="#231F20"/>
<path d="M1774.43 533.692C1789.69 533.66 1804.81 536.639 1818.92 542.457C1833.03 548.276 1845.85 556.821 1856.66 567.603C1867.46 578.384 1876.03 591.191 1881.88 605.289C1887.73 619.387 1890.74 634.501 1890.74 649.764C1890.83 677.231 1881.08 703.821 1863.24 724.712C1861.3 727.146 1858.86 729.336 1856.67 731.769C1846 742.621 1833.27 751.243 1819.24 757.133C1805.2 763.023 1790.13 766.064 1774.91 766.08H1658.6V533.448L1774.43 533.692ZM1699.72 724.712H1774.43C1794.24 724.712 1813.24 716.842 1827.25 702.832C1841.26 688.822 1849.13 669.821 1849.13 650.008C1849.13 630.195 1841.26 611.193 1827.25 597.183C1813.24 583.173 1794.24 575.303 1774.43 575.303H1699.72V724.712Z" fill="#231F20"/>
<path d="M22.3875 718.386C9.00385 631.757 46.7211 567.273 118.019 513.008C76.8951 517.875 59.6179 537.342 0 640.031C7.81896 591.327 29.0286 545.756 61.2579 508.413C93.4872 471.07 135.466 443.426 182.504 428.57C186.406 427.76 190.232 426.621 193.941 425.163C197.518 422.636 200.786 419.695 203.674 416.403C199.781 412.996 201.728 411.293 197.347 409.833C192.967 408.373 174.717 404.966 168.39 403.019C154.705 399.334 141.659 393.59 129.699 385.985C144.543 382.092 187.858 405.696 194.184 391.339V381.849C194.184 381.849 105.366 365.058 66.6749 324.908C151.843 361.408 191.264 365.302 183.964 356.785C145.273 333.668 98.309 309.334 62.2949 287.433L203.431 344.618L208.784 335.614C206.322 327.873 201.018 321.352 193.941 317.364C178.409 307.939 162.132 299.801 145.273 293.03C99.3352 275.348 58.5831 246.395 26.7674 208.835C19.6534 200.055 13.6845 190.407 9.00377 180.121C23.6041 193.261 38.2043 206.645 53.048 219.299C60.1166 226.793 68.3301 233.117 77.3818 238.036C77.3818 238.036 100.256 248.986 107.556 240.226C110.476 236.819 104.879 221.002 98.3089 214.189C83.7221 200.525 69.9881 185.978 57.1847 170.631C134.127 214.724 202.069 272.925 257.452 342.185L265.482 335.614C263.097 328.304 259.742 321.348 255.505 314.931C212.191 268.94 169.607 222.219 124.103 178.418C81.3704 140.545 45.9106 95.1895 19.4671 44.5817C13.4509 30.0129 8.17202 15.1504 3.6503 0.0507812L246.989 249.716L195.644 140.7L256.479 201.778C262.319 204.455 260.372 198.615 260.372 198.615L157.927 26.5747C157.927 26.5747 155.737 20.7345 160.847 24.6279C209.514 80.1091 258.182 135.59 308.31 190.341C316.063 198 321.672 207.559 324.575 218.063C327.479 228.567 327.576 239.649 324.857 250.203C323.112 258.937 322.216 267.82 322.18 276.727C322.18 314.201 330.697 349.728 368.658 360.678C402.239 371.142 433.872 374.305 461.613 343.645C489.354 312.984 522.448 314.201 552.865 348.025C563.498 358.522 576.789 365.925 591.312 369.438C615.646 376.009 639.98 378.929 664.314 383.552C665.774 383.552 666.991 384.769 674.534 387.932C639.25 385.985 610.293 385.012 581.335 382.335C568.617 380.685 555.69 382.531 543.943 387.676C532.195 392.821 522.072 401.07 514.661 411.536C474.458 456.942 426.71 495.058 373.525 524.202C389.098 498.408 422.192 483.077 418.542 446.577C414.599 431.981 408.878 417.924 401.508 404.723C396.161 410.232 391.278 416.173 386.908 422.486C374.571 445.701 356.076 465.068 333.453 478.461C310.831 491.854 284.956 498.755 258.669 498.408C198.661 498.032 140.777 520.597 96.8556 561.488C52.9346 602.378 26.2959 658.504 22.3875 718.386Z" fill="#006838"/>
<path d="M267.668 867.795C116.311 887.263 40.1467 810.368 71.294 653.658C85.651 786.52 152.569 851.492 267.668 867.795Z" fill="#006838"/>
<path d="M380.819 909.406V911.839C380.676 912.807 380.676 913.791 380.819 914.759C380.726 916.218 380.726 917.681 380.819 919.139C381.494 922.942 382.899 926.578 384.956 929.846C386.303 931.935 387.942 933.819 389.823 935.443C391.963 937.154 394.34 938.548 396.88 939.58C402.98 942.055 409.699 942.565 416.103 941.04C423.654 939.174 430.346 934.798 435.084 928.63C437.586 925.196 439.403 921.313 440.437 917.193C441.181 912.762 441.181 908.239 440.437 903.809C439.94 899.104 438.709 894.506 436.787 890.182C434.541 885.681 431.583 881.573 428.027 878.015C424.274 874.487 419.901 871.682 415.13 869.742L411.237 868.525H407.343C404.59 868.29 401.822 868.29 399.07 868.525C387.304 868.051 375.766 871.858 366.594 879.24C357.421 886.623 351.236 897.081 349.185 908.676C346.848 921.656 348.724 935.043 354.539 946.88C360.399 959.389 370.359 969.52 382.766 975.594C385.905 977.142 389.159 978.443 392.499 979.487H394.933H397.61H400.286H402.963H405.64H413.67C417.316 979.729 420.974 979.729 424.62 979.487C439.487 977.48 453.486 971.323 465.014 961.724C476.652 951.812 485.115 938.695 489.348 924.006C489.348 922.059 489.348 920.113 491.051 918.409C492.755 916.706 491.051 914.516 491.051 912.569V909.649C490.938 909.169 490.938 908.669 491.051 908.189V903.809C491.171 902.839 491.171 901.859 491.051 900.889C491.342 893.225 490.77 885.552 489.348 878.015C487.93 870.476 485.644 863.127 482.534 856.115C479.574 849.288 475.817 842.835 471.341 836.891C458.317 819.27 439.841 806.439 418.78 800.39L413.67 799.174H408.56H398.096C384.405 798.2 370.663 798.2 356.972 799.174L317.551 801.85C293.744 803.812 269.816 803.812 246.01 801.85C235.664 800.881 225.411 799.091 215.349 796.497L201.479 792.603L188.825 787.737C175.052 781.522 162.262 773.324 150.864 763.403L147.458 760.483L144.537 757.806L138.941 752.453L136.751 750.019L134.56 747.829L132.857 745.639L131.154 743.692L128.477 740.529L126.531 738.096L125.07 736.149L126.531 737.852L128.721 740.286L131.397 743.449L133.101 745.152L135.047 747.342L137.237 749.533L139.671 751.723L145.267 756.833L148.431 759.509L152.081 762.186C163.696 771.026 176.469 778.231 190.042 783.6L202.695 787.737L216.322 791.143C226.27 793.284 236.351 794.748 246.496 795.523C270.028 796.737 293.618 796.168 317.064 793.82L356.485 790.413C370.577 789.31 384.734 789.31 398.826 790.413C402.553 790.174 406.292 790.174 410.02 790.413H415.616L421.213 791.873C428.711 793.839 435.972 796.613 442.871 800.147C457.144 807.666 469.601 818.213 479.371 831.051C484.329 837.638 488.571 844.735 492.025 852.221C495.463 860.017 497.994 868.182 499.568 876.555C501.118 884.569 501.771 892.731 501.515 900.889C501.635 901.94 501.635 903.001 501.515 904.052V910.623V913.786C500.992 915.871 500.586 917.983 500.298 920.113C499.873 922.257 499.304 924.371 498.595 926.44C497.308 930.667 495.764 934.811 493.971 938.85C492.072 942.744 489.875 946.486 487.401 950.043C485.081 953.651 482.477 957.069 479.615 960.264C476.756 963.571 473.577 966.587 470.124 969.267C457.096 980.114 441.208 986.959 424.377 988.978H412.21H402.963H400.043H397.853H394.933H392.013H389.093C385.223 987.795 381.475 986.247 377.899 984.354C363.822 977.034 352.6 965.212 346.022 950.773C344.368 947.429 343.063 943.922 342.128 940.31C340.911 936.691 340.174 932.927 339.938 929.116C338.839 921.939 338.839 914.636 339.938 907.459C341.313 900.394 343.951 893.634 347.725 887.505C351.513 881.622 356.288 876.435 361.839 872.175C372.398 864.232 385.381 860.191 398.583 860.738C401.692 860.904 404.784 861.31 407.83 861.955H412.21C413.704 862.332 415.168 862.82 416.59 863.415C421.97 865.792 426.843 869.179 430.947 873.392C434.971 877.363 438.193 882.072 440.437 887.262C442.592 892.102 443.829 897.301 444.087 902.592V906.486C444.087 907.702 444.087 908.919 444.087 910.136V912.083V913.786V915.489V917.436C442.739 921.893 440.505 926.031 437.517 929.603C434.944 933.128 431.619 936.037 427.783 938.12L425.107 939.58L422.187 940.797H419.51H416.59H403.206H400.773H398.34H396.149C393.567 939.435 391.192 937.714 389.093 935.686C387.135 934.045 385.487 932.068 384.226 929.846C382.108 926.453 380.778 922.628 380.332 918.653C380.224 917.195 380.224 915.731 380.332 914.273C380.435 913.302 380.435 912.323 380.332 911.352L380.819 909.406Z" fill="#231F20"/>
<path d="M404.917 814.505C407.594 816.695 407.35 822.049 404.917 828.619C400.935 837.166 395.218 844.79 388.127 851.006C385.421 853.288 382.576 855.401 379.61 857.333C375.728 860.118 371.663 862.638 367.443 864.876C362.522 867.417 357.393 869.534 352.113 871.203C346.657 872.997 341.03 874.221 335.322 874.853C325.589 876.002 315.723 875.091 306.365 872.176C299.308 869.743 295.415 867.066 295.658 866.336C299.538 865.867 303.459 865.867 307.338 866.336C315.671 865.947 323.887 864.222 331.672 861.226C340.487 857.747 348.699 852.902 356.006 846.869L365.253 839.082L371.823 832.999C378.056 827.262 384.818 822.129 392.02 817.668C397.86 813.775 402.24 812.558 404.917 814.505Z" fill="#006838"/>
<path d="M102.691 607.667C100.495 606.286 98.9244 604.104 98.3107 601.584C97.8095 598.94 98.3715 596.204 99.875 593.972C101.378 591.739 103.702 590.19 106.341 589.66C108.934 589.353 111.546 590.05 113.641 591.607C115.724 593.118 117.124 595.393 117.534 597.934C117.776 599.148 117.771 600.398 117.52 601.61C117.269 602.823 116.778 603.972 116.074 604.991C114.588 606.986 112.425 608.37 109.991 608.884C107.491 609.43 104.878 608.994 102.691 607.667Z" fill="#231F20"/>
<path d="M93.4349 627.375C92.4524 627.037 91.5532 626.493 90.7978 625.78C90.0425 625.066 89.4482 624.2 89.0546 623.239C88.7006 622.131 88.7006 620.94 89.0546 619.832C88.831 618.789 88.831 617.711 89.0546 616.668C89.4538 615.574 90.1009 614.588 90.9453 613.785C91.7896 612.983 92.8082 612.388 93.9213 612.045C94.8834 611.637 95.9178 611.426 96.963 611.426C98.0081 611.426 99.0426 611.637 100.005 612.045C101.916 613.011 103.393 614.662 104.141 616.668C104.744 618.651 104.744 620.769 104.141 622.752C103.628 623.592 102.969 624.333 102.195 624.942L99.7615 626.645C98.8125 627.192 97.7618 627.539 96.6737 627.664C95.5857 627.79 94.4835 627.691 93.4349 627.375Z" fill="#231F20"/>
<path d="M88.3323 644.656C86.5594 644.122 85.0172 643.008 83.9523 641.493C83.5909 640.647 83.4043 639.736 83.4043 638.816C83.4043 637.896 83.5909 636.985 83.9523 636.139C84.2916 635.174 84.7846 634.27 85.4123 633.463C85.8749 632.712 86.5535 632.118 87.3591 631.759C88.1923 631.351 89.1079 631.139 90.0358 631.139C90.9637 631.139 91.8793 631.351 92.7125 631.759C94.4858 632.307 95.9719 633.531 96.8492 635.166C96.9524 635.892 96.9524 636.63 96.8492 637.356C96.9826 638.243 96.9826 639.145 96.8492 640.033C96.6736 640.886 96.3236 641.694 95.8211 642.406C95.3186 643.118 94.6743 643.718 93.9289 644.169C92.1828 645 90.1956 645.173 88.3323 644.656Z" fill="#231F20"/>
<path d="M86.1448 659.497C85.425 659.442 84.7251 659.235 84.0911 658.889C83.4571 658.544 82.9035 658.068 82.4667 657.494C82.0298 656.919 81.7195 656.258 81.5566 655.555C81.3937 654.851 81.3817 654.121 81.5213 653.413C81.7601 652.032 82.5311 650.8 83.6686 649.981C84.806 649.162 86.2192 648.821 87.6048 649.033C88.2787 649.122 88.928 649.345 89.5148 649.689C90.1015 650.032 90.614 650.489 91.0219 651.033C91.4298 651.577 91.725 652.197 91.8904 652.856C92.0557 653.515 92.0877 654.201 91.9847 654.873C91.802 656.251 91.0907 657.504 90.0008 658.367C88.9109 659.23 87.528 659.635 86.1448 659.497Z" fill="#231F20"/>
<path d="M85.1725 672.397C84.0972 672.276 83.1044 671.762 82.3855 670.954C81.6666 670.145 81.2727 669.099 81.2794 668.016C81.2751 667.462 81.3893 666.912 81.6147 666.405C81.8401 665.898 82.1713 665.445 82.586 665.076C83.0008 664.707 83.4896 664.432 84.0196 664.267C84.5497 664.103 85.1087 664.054 85.6593 664.123C86.7565 664.123 87.8087 664.559 88.5845 665.335C89.3603 666.111 89.796 667.163 89.796 668.26C89.796 669.357 89.3603 670.409 88.5845 671.185C87.8087 671.961 86.7565 672.397 85.6593 672.397H85.1725Z" fill="#231F20"/>
<path d="M126.775 574.816C125.648 573.704 124.217 572.951 122.662 572.65C121.108 572.349 119.499 572.515 118.038 573.126C116.577 573.737 115.33 574.767 114.453 576.085C113.575 577.403 113.107 578.951 113.107 580.534C113.107 582.117 113.575 583.665 114.453 584.983C115.33 586.302 116.577 587.331 118.038 587.942C119.499 588.553 121.108 588.719 122.662 588.418C124.217 588.118 125.648 587.364 126.775 586.253C127.533 585.505 128.135 584.615 128.546 583.633C128.956 582.652 129.168 581.598 129.168 580.534C129.168 579.47 128.956 578.416 128.546 577.435C128.135 576.453 127.533 575.563 126.775 574.816Z" fill="#231F20"/>
<path d="M139.182 560.946C138.536 560.336 137.768 559.869 136.93 559.576C136.091 559.282 135.2 559.169 134.315 559.242C133.359 559.242 132.414 559.436 131.536 559.813C130.657 560.189 129.864 560.74 129.205 561.432C128.066 562.889 127.464 564.694 127.502 566.542C127.701 568.404 128.565 570.132 129.935 571.409C130.63 572.009 131.447 572.45 132.329 572.702C133.212 572.954 134.138 573.011 135.045 572.869C135.929 572.862 136.8 572.662 137.598 572.284C138.397 571.906 139.103 571.358 139.669 570.679C140.83 569.33 141.439 567.591 141.372 565.812C141.353 564.896 141.15 563.992 140.773 563.156C140.397 562.319 139.856 561.568 139.182 560.946Z" fill="#231F20"/>
<path d="M150.139 550.725C149.69 550.175 149.136 549.719 148.509 549.385C147.882 549.051 147.196 548.845 146.488 548.779C145.067 548.831 143.7 549.343 142.595 550.239C142.071 550.717 141.653 551.3 141.367 551.949C141.08 552.599 140.933 553.301 140.933 554.01C140.933 554.72 141.08 555.422 141.367 556.071C141.653 556.721 142.071 557.303 142.595 557.782C143.071 558.268 143.639 558.653 144.265 558.917C144.892 559.18 145.565 559.316 146.245 559.316C146.925 559.316 147.598 559.18 148.225 558.917C148.851 558.653 149.419 558.268 149.895 557.782C150.431 557.392 150.866 556.879 151.162 556.286C151.459 555.694 151.609 555.038 151.599 554.375C151.657 553.695 151.554 553.011 151.301 552.377C151.047 551.744 150.65 551.178 150.139 550.725Z" fill="#231F20"/>
<path d="M160.85 543.67C160.742 543.103 160.48 542.577 160.094 542.148C159.708 541.719 159.212 541.404 158.66 541.237C157.489 540.763 156.181 540.763 155.01 541.237C154.466 541.521 154.003 541.937 153.663 542.447C153.322 542.958 153.116 543.546 153.063 544.157C152.829 544.608 152.706 545.109 152.706 545.617C152.706 546.125 152.829 546.626 153.063 547.077C153.652 547.899 154.523 548.477 155.509 548.701C156.495 548.925 157.53 548.78 158.417 548.294C158.828 548.085 159.179 547.774 159.434 547.39C159.69 547.007 159.843 546.563 159.877 546.104C160.381 545.377 160.714 544.545 160.85 543.67Z" fill="#231F20"/>
<path d="M253.314 828.376C253.314 833.486 245.527 837.38 234.576 838.596C220.197 839.98 205.688 838.322 191.992 833.729C186.825 832.062 181.784 830.029 176.905 827.646C170.258 824.617 163.834 821.12 157.682 817.182C150.484 812.606 143.65 807.481 137.241 801.852C130.698 796.048 124.748 789.608 119.478 782.628C110.437 770.736 104.048 757.045 100.74 742.478C98.307 731.041 98.7936 723.984 100.74 723.74C104.424 728.386 107.682 733.354 110.474 738.584C117.331 749.517 126.063 759.155 136.268 767.055C147.592 775.819 160.243 782.719 173.742 787.495C179.825 789.929 185.909 791.875 191.262 793.579L203.186 797.715C215.543 801.443 227.52 806.332 238.957 812.316C248.69 817.426 254.287 822.049 253.314 828.376Z" fill="#231F20"/>
<path d="M340.427 878.99C283.729 927.658 174.713 920.115 130.426 859.523C198.561 908.678 266.695 917.438 340.427 878.99Z" fill="#231F20"/>
<path d="M96.3617 581.141C32.8503 673.123 42.8274 760.725 113.639 844.433C25.0637 767.782 17.7634 648.059 96.3617 581.141Z" fill="#231F20"/>
<path d="M360.635 813.53C349.853 831.965 332.469 845.614 312.003 851.713C291.536 857.812 269.516 855.906 250.402 846.381C269.939 852.738 290.948 853 310.638 847.133C330.327 841.265 347.765 829.545 360.635 813.53Z" fill="#231F20"/>
<path d="M137.733 714.494C134.569 715.954 130.189 714.494 125.566 707.437C120.135 700.19 116.242 691.909 114.129 683.103C113.325 679.658 112.756 676.162 112.425 672.64C112.151 667.858 112.151 663.064 112.425 658.283C112.644 652.737 113.213 647.21 114.129 641.736C115.267 636.089 116.895 630.552 118.995 625.189C122.488 615.992 127.973 607.682 135.056 600.855C140.653 595.745 144.789 593.555 145.276 594.041C144.033 597.736 142.315 601.253 140.166 604.505C136.472 612.165 134.086 620.39 133.109 628.839C131.636 638.027 131.636 647.391 133.109 656.579C133.109 660.959 134.569 664.853 135.543 668.503C136.516 672.153 137.246 674.83 137.733 677.263C139.767 685.239 141.07 693.384 141.626 701.597C142.113 708.41 140.896 713.277 137.733 714.494Z" fill="#006838"/>
<path d="M1246.86 695.513H1362.93V737.124H1225.2L1246.86 695.513Z" fill="#231F20"/>
<path d="M1303.56 622.753L1252.94 722.279L1231.53 763.646H1185.05L1206.22 722.279L1301.37 535.638C1301.57 535.227 1301.88 534.88 1302.26 534.637C1302.65 534.394 1303.1 534.265 1303.56 534.265C1304.01 534.265 1304.46 534.394 1304.85 534.637C1305.24 534.88 1305.55 535.227 1305.75 535.638L1400.89 722.522L1422.31 763.89H1375.83L1354.41 722.522L1303.8 622.997L1303.56 622.753Z" fill="#231F20"/>
<path d="M528.528 788.951H543.129L571.843 895.047L612.48 788.951H615.4L655.551 895.047L684.995 788.951H699.352L658.714 930.088H656.038L614.184 834.942L571.356 930.088H568.193L528.528 788.951Z" fill="black"/>
<path d="M912.517 836.89V930.089H899.133V914.029C889.038 925.061 875.008 931.679 860.074 932.453C845.139 933.227 830.5 928.095 819.318 918.165C814.364 913.848 810.391 908.52 807.669 902.538C804.948 896.557 803.539 890.061 803.539 883.49C803.539 876.918 804.948 870.423 807.669 864.441C810.391 858.46 814.364 853.131 819.318 848.814C829.779 839.369 843.43 834.239 857.522 834.457C865.929 834.151 874.283 835.905 881.856 839.567C889.035 842.879 895.299 847.891 900.107 854.167V836.89H912.517ZM858.739 846.137C851.482 846.13 844.321 847.795 837.812 851.004C831.699 854.289 826.511 859.059 822.725 864.874C819.119 870.462 817.178 876.961 817.128 883.611C817.21 890.333 819.147 896.901 822.725 902.592C826.675 908.445 832.003 913.238 838.24 916.548C844.478 919.858 851.434 921.583 858.496 921.572C865.86 921.588 873.12 919.836 879.666 916.462C885.89 913.564 891.133 908.913 894.753 903.079C898.383 897.424 900.247 890.816 900.107 884.098C900.255 878.992 899.262 873.918 897.199 869.245C895.136 864.572 892.056 860.418 888.183 857.087C880.111 849.863 869.566 846.028 858.739 846.381V846.137Z" fill="black"/>
<path d="M938.797 788.951H952.424V930.088H938.797V788.951Z" fill="black"/>
<path d="M990.137 788.951H1003.52V837.619H1024.93V846.379H1003.52V929.114H990.137V846.379H971.644V835.916H990.137V788.951Z" fill="black"/>
<path d="M1043.19 788.951H1056.57V853.679C1061.55 847.737 1067.67 842.854 1074.58 839.322C1081.25 836.09 1088.58 834.425 1095.99 834.456C1103.23 834.41 1110.36 836.255 1116.67 839.809C1122.56 843.117 1127.31 848.12 1130.3 854.166C1133.49 863.135 1134.9 872.642 1134.44 882.15V930.818H1121.05V885.8C1121.35 878.55 1120.86 871.289 1119.59 864.143C1118.3 858.61 1115.12 853.703 1110.59 850.273C1105.46 846.947 1099.42 845.329 1093.31 845.649C1085.44 845.561 1077.75 848.038 1071.41 852.706C1065.27 857.143 1060.74 863.466 1058.52 870.713C1056.98 878.729 1056.33 886.889 1056.57 895.047V929.114H1043.19V788.951Z" fill="black"/>
<path d="M779.408 899.185L789.142 904.539C786.419 910.396 782.716 915.746 778.192 920.356C774.201 924.234 769.489 927.293 764.321 929.359C758.665 931.57 752.629 932.645 746.558 932.523C740.153 932.857 733.758 931.689 727.885 929.112C722.012 926.535 716.824 922.619 712.734 917.679C705.21 908.523 700.937 897.128 700.584 885.282C700.232 873.436 703.82 861.808 710.787 852.221C714.751 846.584 720.046 842.013 726.201 838.914C732.357 835.816 739.182 834.285 746.071 834.457C753.152 834.263 760.171 835.829 766.499 839.014C772.827 842.199 778.266 846.904 782.328 852.708C788.898 862.019 792.309 873.192 792.062 884.585H712.247C712.056 894.333 715.529 903.798 721.981 911.109C725.039 914.508 728.799 917.204 733 919.01C737.2 920.817 741.743 921.691 746.315 921.572C750.879 921.497 755.399 920.675 759.698 919.139C763.624 917.593 767.248 915.369 770.405 912.569C774.056 908.581 777.091 904.07 779.408 899.185ZM779.408 874.851C778.302 869.342 776.065 864.122 772.838 859.521C769.954 855.988 766.385 853.075 762.346 850.957C758.306 848.839 753.881 847.56 749.335 847.196C744.788 846.832 740.216 847.392 735.891 848.841C731.567 850.29 727.58 852.598 724.171 855.628C718.96 860.9 715.407 867.583 713.95 874.851H779.408Z" fill="black"/>
<path d="M1202.34 904.295L1215.48 897.238C1218.33 903.486 1222.77 908.87 1228.37 912.845C1233.97 916.819 1240.52 919.242 1247.36 919.869C1252.41 919.977 1257.41 918.893 1261.96 916.705C1266.12 914.816 1269.73 911.882 1272.42 908.189C1274.79 904.752 1276.06 900.681 1276.07 896.508C1275.81 891.579 1273.93 886.874 1270.72 883.125C1262.94 874.556 1254.01 867.105 1244.19 860.981C1235.32 855.788 1227.15 849.492 1219.86 842.244C1214.57 836.556 1211.62 829.084 1211.59 821.317C1211.55 815.52 1213.25 809.844 1216.45 805.013C1219.73 799.848 1224.48 795.78 1230.08 793.333C1235.98 790.4 1242.48 788.9 1249.06 788.953C1256.16 788.949 1263.16 790.616 1269.5 793.82C1277.27 798.35 1284.06 804.39 1289.46 811.583L1277.04 820.1C1272.86 814.794 1267.84 810.193 1262.2 806.473C1258.07 804.341 1253.47 803.255 1248.82 803.31C1243.3 803.147 1237.9 804.863 1233.49 808.177C1231.63 809.712 1230.13 811.646 1229.12 813.837C1228.11 816.028 1227.61 818.418 1227.65 820.83C1227.57 823.788 1228.24 826.718 1229.59 829.347C1231.57 832.905 1234.21 836.045 1237.38 838.594C1243.79 843.475 1250.45 848.023 1257.33 852.221C1267.8 858.727 1277.1 866.953 1284.83 876.555C1289.37 882.424 1291.92 889.581 1292.13 896.995C1292.12 902.007 1290.97 906.951 1288.78 911.459C1286.59 915.967 1283.41 919.923 1279.48 923.032C1270.79 930.371 1259.7 934.267 1248.33 933.982C1239.78 933.967 1231.39 931.701 1224 927.412C1214.87 921.745 1207.4 913.771 1202.34 904.295Z" fill="black"/>
<path d="M1408.69 836.891H1422.32V850.518C1425.88 845.724 1430.34 841.673 1435.46 838.594C1439.69 835.948 1444.58 834.517 1449.57 834.458C1453.73 834.62 1457.8 835.7 1461.49 837.621L1454.44 847.841C1452.19 846.897 1449.81 846.322 1447.38 846.138C1442.61 846.265 1438.04 848.075 1434.48 851.248C1429.86 855.196 1426.55 860.459 1424.99 866.335C1422.72 876.964 1421.82 887.841 1422.32 898.699V930.09H1408.69V836.891Z" fill="black"/>
<path d="M1468.55 836.89H1482.9L1517.94 904.781L1552.74 836.89H1567.1L1518.43 930.088H1517.21L1468.55 836.89Z" fill="black"/>
<path d="M1590.22 797.715C1593.17 797.639 1596.04 798.682 1598.25 800.635C1599.26 801.453 1600.07 802.493 1600.62 803.674C1601.17 804.855 1601.44 806.146 1601.41 807.448C1601.44 808.786 1601.17 810.113 1600.63 811.333C1600.08 812.554 1599.27 813.637 1598.25 814.505C1596.04 816.457 1593.17 817.501 1590.22 817.425C1587.35 817.463 1584.57 816.421 1582.43 814.505C1581.46 813.598 1580.68 812.507 1580.14 811.295C1579.59 810.084 1579.3 808.776 1579.27 807.448C1579.3 806.157 1579.6 804.887 1580.15 803.715C1580.69 802.543 1581.47 801.495 1582.43 800.635C1584.57 798.719 1587.35 797.676 1590.22 797.715ZM1583.65 835.919H1597.03V929.117H1583.65V835.919Z" fill="black"/>
<path d="M1716.02 856.36L1706.28 862.2C1702.29 856.874 1697.05 852.605 1691.03 849.763C1685.01 846.922 1678.38 845.595 1671.73 845.897C1666.42 845.728 1661.13 846.608 1656.16 848.487C1651.19 850.366 1646.64 853.207 1642.77 856.847C1639.03 860.169 1636.05 864.258 1634.04 868.835C1632.02 873.412 1631.02 878.37 1631.09 883.371C1631.17 890.135 1633.02 896.76 1636.44 902.595C1639.9 908.504 1644.97 913.313 1651.04 916.465C1657.47 919.913 1664.68 921.672 1671.97 921.575C1678.59 921.689 1685.13 920.251 1691.09 917.378C1697.05 914.504 1702.25 910.275 1706.28 905.028L1716.02 911.355C1711.5 918.143 1705.18 923.537 1697.77 926.928C1689.49 930.857 1680.4 932.775 1671.24 932.525C1664.37 932.762 1657.53 931.637 1651.09 929.214C1644.66 926.792 1638.77 923.12 1633.77 918.411C1628.95 914.149 1625.12 908.9 1622.51 903.022C1619.91 897.143 1618.6 890.773 1618.68 884.344C1618.66 875.407 1621.1 866.638 1625.74 858.998C1630.38 851.357 1637.03 845.141 1644.96 841.03C1653.35 836.583 1662.72 834.323 1672.22 834.46C1678.49 834.457 1684.74 835.442 1690.71 837.38C1695.99 839.068 1700.99 841.528 1705.55 844.68C1709.77 847.848 1713.33 851.817 1716.02 856.36Z" fill="black"/>
<path d="M1799.73 899.186L1809.47 904.539C1806.75 910.397 1803.04 915.746 1798.52 920.356C1794.48 924.294 1789.68 927.358 1784.4 929.36C1778.84 931.596 1772.88 932.673 1766.88 932.523C1760.48 932.858 1754.08 931.69 1748.21 929.113C1742.34 926.535 1737.15 922.62 1733.06 917.68C1725.38 908.599 1721 897.181 1720.65 885.291C1720.29 873.401 1723.98 861.743 1731.11 852.222C1735.08 846.585 1740.37 842.014 1746.53 838.915C1752.68 835.816 1759.51 834.285 1766.4 834.458C1773.44 834.283 1780.42 835.859 1786.7 839.044C1792.99 842.229 1798.39 846.924 1802.41 852.708C1809.16 861.942 1812.67 873.15 1812.39 884.586H1732.57C1732.38 894.334 1735.86 903.799 1742.31 911.11C1745.36 914.522 1749.11 917.226 1753.32 919.034C1757.52 920.841 1762.07 921.708 1766.64 921.573C1771.13 921.516 1775.57 920.693 1779.78 919.14C1783.81 917.649 1787.52 915.421 1790.73 912.57C1794.31 908.523 1797.33 904.023 1799.73 899.186ZM1799.73 874.852C1798.63 869.343 1796.39 864.123 1793.16 859.522C1790.28 855.989 1786.71 853.076 1782.67 850.958C1778.63 848.84 1774.21 847.56 1769.66 847.197C1765.11 846.833 1760.54 847.392 1756.22 848.841C1751.89 850.29 1747.91 852.599 1744.5 855.628C1739.3 860.944 1735.67 867.599 1734.03 874.852H1799.73Z" fill="black"/>
<path d="M1382.9 899.185L1392.39 904.539C1389.66 910.396 1385.96 915.746 1381.44 920.356C1377.45 924.234 1372.73 927.293 1367.57 929.359C1362 931.595 1356.04 932.672 1350.05 932.523C1343.61 932.858 1337.18 931.691 1331.26 929.115C1325.35 926.539 1320.12 922.624 1315.98 917.679C1308.11 908.164 1303.81 896.202 1303.81 883.855C1303.61 872.429 1307.3 861.273 1314.28 852.221C1318.22 846.619 1323.47 842.07 1329.58 838.972C1335.69 835.875 1342.47 834.325 1349.32 834.457C1356.4 834.263 1363.42 835.829 1369.74 839.014C1376.07 842.199 1381.51 846.904 1385.57 852.708C1392.24 861.972 1395.66 873.177 1395.31 884.585H1315.49C1315.39 894.361 1318.95 903.822 1325.47 911.109C1328.5 914.548 1332.25 917.27 1336.46 919.08C1340.67 920.89 1345.23 921.741 1349.8 921.572C1354.29 921.475 1358.72 920.653 1362.94 919.139C1366.92 917.536 1370.61 915.319 1373.89 912.569C1377.39 908.465 1380.42 903.975 1382.9 899.185ZM1382.9 874.851C1381.61 869.358 1379.3 864.156 1376.08 859.521C1372.92 855.526 1368.89 852.307 1364.29 850.114C1359.69 847.92 1354.65 846.81 1349.56 846.868C1341.16 846.716 1333.04 849.861 1326.93 855.628C1321.81 860.965 1318.27 867.62 1316.71 874.851H1382.9Z" fill="black"/>
<path d="M1882.22 846.382L1873.71 854.412C1868.02 848.849 1860.49 845.56 1852.54 845.165C1848.49 845.034 1844.53 846.325 1841.34 848.815C1839.9 849.848 1838.71 851.195 1837.87 852.755C1837.03 854.315 1836.55 856.047 1836.48 857.819C1836.63 861.125 1838.02 864.253 1840.37 866.579C1845.22 870.713 1850.73 874.003 1856.67 876.312C1864.29 879.414 1871.23 883.959 1877.11 889.696C1880.45 893.846 1882.33 898.975 1882.47 904.296C1882.53 908.033 1881.72 911.733 1880.12 915.109C1878.51 918.485 1876.15 921.447 1873.22 923.763C1867 929.265 1858.89 932.143 1850.59 931.793C1844.67 931.769 1838.8 930.613 1833.31 928.387C1828.13 926.149 1823.48 922.831 1819.69 918.653L1828.2 910.136C1830.97 913.235 1834.34 915.738 1838.1 917.495C1841.87 919.252 1845.95 920.226 1850.1 920.357C1855.13 920.512 1860.05 918.873 1863.97 915.733C1865.68 914.512 1867.08 912.907 1868.05 911.047C1869.02 909.187 1869.54 907.125 1869.57 905.026C1869.61 901.585 1868.3 898.265 1865.92 895.779C1860.76 891.645 1855.02 888.284 1848.89 885.803C1841.59 883 1835.02 878.592 1829.66 872.906C1826.32 868.875 1824.5 863.788 1824.55 858.549C1824.6 855.194 1825.33 851.884 1826.71 848.828C1828.09 845.771 1830.09 843.032 1832.58 840.785C1838.39 835.992 1845.74 833.483 1853.27 833.728C1864.12 834.351 1874.39 838.84 1882.22 846.382Z" fill="black"/>
</svg>
