<svg width="865" height="855" viewBox="0 0 865 855" fill="none" xmlns="http://www.w3.org/2000/svg">
<path d="M351.38 284.805C314.911 273.022 187.378 339.2 187.378 339.2C187.378 339.2 62.2482 409.807 52.1761 446.792C48.1852 461.43 162.93 669.899 201.619 693.705C240.301 717.515 366.168 743.557 397.198 726.757C428.229 709.958 475.232 590.33 476.438 544.92C477.647 499.513 365.816 289.467 351.38 284.805Z" fill="#F4CB78"/>
<path d="M176.557 319.165C176.575 319.156 176.601 319.143 176.636 319.125C176.706 319.089 176.81 319.035 176.948 318.964C177.223 318.822 177.632 318.611 178.168 318.338C179.239 317.79 180.816 316.99 182.838 315.975C186.881 313.945 192.704 311.059 199.82 307.639C214.054 300.798 233.464 291.817 254.168 283.254C274.873 274.691 296.869 266.548 316.276 261.382C325.979 258.799 335.032 256.961 342.951 256.187C350.872 255.413 357.646 255.703 362.798 257.367C363.283 257.524 363.887 257.903 364.604 258.508C365.318 259.11 366.135 259.928 367.048 260.951C368.875 262.997 371.078 265.854 373.598 269.42C378.637 276.551 384.941 286.508 392.04 298.471C406.239 322.399 423.619 354.344 440.445 387.737C457.27 421.13 473.539 455.969 485.515 485.682C491.503 500.539 496.417 514.112 499.791 525.581C503.166 537.055 504.995 546.411 504.824 552.836C504.137 578.609 490.448 625.478 472.514 668.302C463.549 689.711 453.526 710.1 443.543 726.329C438.552 734.443 433.572 741.515 428.74 747.153C423.908 752.792 419.23 756.989 414.845 759.363C410.461 761.736 404.389 763.359 397.026 764.323C389.664 765.286 381.02 765.591 371.497 765.334C352.45 764.822 329.898 762.068 307.071 757.872C261.409 749.478 214.679 735.319 192.723 721.806C187.249 718.436 180.415 711.79 172.652 702.692C164.892 693.596 156.213 682.062 147.046 668.926C128.713 642.655 108.434 609.987 89.6699 577.644C70.9061 545.301 53.6583 513.283 41.3848 488.313C35.248 475.828 30.3562 465.107 27.1402 456.989C25.532 452.93 24.3433 449.524 23.6283 446.876C23.2709 445.552 23.0336 444.421 22.9195 443.493C22.805 442.562 22.817 441.85 22.9509 441.358C24.374 436.134 27.8337 430.303 32.8123 424.094C37.7895 417.886 44.2775 411.31 51.7448 404.597C66.6795 391.17 85.5225 377.204 104.012 364.548C122.5 351.892 140.631 340.549 154.14 332.37C160.895 328.281 166.494 324.982 170.404 322.706C172.359 321.568 173.892 320.685 174.936 320.087C175.458 319.788 175.858 319.561 176.128 319.408C176.262 319.331 176.364 319.274 176.433 319.235C176.467 319.216 176.493 319.201 176.51 319.191L176.557 319.165Z" stroke="#1A1A1A" stroke-width="0.3"/>
<path d="M366.352 440.33L287.508 483.015L244.825 404.175L214.599 420.539L257.283 499.379L178.435 542.066L194.799 572.292L273.647 529.605L316.332 608.448L346.558 592.084L303.872 513.241L382.716 470.555L366.352 440.33Z" fill="#1A1A1A"/>
<path d="M649.083 789.936L603.042 788.773C542.895 788.773 491.467 780.635 450.155 764.551C431.714 757.204 415.897 744.503 404.741 728.084C393.586 711.665 387.603 692.281 387.565 672.431V295.54C387.565 217.449 416.825 197.916 445.116 179.275C451.61 175.129 457.86 170.613 463.835 165.75C492.436 141.722 488.328 132.266 488.289 132.188C488.136 131.888 488.056 131.556 488.056 131.219C488.056 130.882 488.136 130.55 488.289 130.25C488.457 129.968 488.695 129.734 488.98 129.571C489.266 129.407 489.588 129.321 489.917 129.32L762.131 130.483C762.469 130.485 762.801 130.576 763.093 130.745C763.386 130.915 763.629 131.159 763.798 131.452C763.968 131.739 764.058 132.067 764.058 132.401C764.058 132.735 763.968 133.063 763.798 133.351C763.798 133.661 759.922 143.195 788.252 166.913C794.241 171.758 800.49 176.273 806.971 180.438C835.3 199.312 864.522 218.805 864.522 296.896V674.02C864.486 693.866 858.504 713.246 847.348 729.659C836.192 746.072 820.373 758.766 801.932 766.102C760.736 781.797 709.27 789.936 649.083 789.936ZM492.397 132.769C492.669 137.653 489.607 148.775 466.354 168.308C460.244 173.225 453.879 177.817 447.287 182.066C419.848 200.397 391.441 219.309 391.441 295.54V672.625C391.474 691.7 397.222 710.328 407.943 726.105C418.664 741.882 433.866 754.086 451.588 761.141C492.397 777.03 543.399 785.092 603.12 785.092L649.122 786.254C708.804 786.254 759.767 778.193 800.615 762.304C818.327 755.249 833.519 743.05 844.233 727.28C854.947 711.51 860.691 692.891 860.724 673.826V296.509C860.724 220.511 832.355 201.559 804.917 183.267C798.309 179.041 791.943 174.448 785.849 169.509C762.596 150.132 759.535 138.854 759.767 133.971L492.397 132.769Z" fill="#1A1A1A"/>
<path d="M646.986 765.562L605.131 764.477C550.37 764.477 503.554 757.074 465.962 742.425C449.158 735.73 434.743 724.156 424.576 709.195C414.409 694.234 408.954 676.571 408.915 658.482V360.07C408.915 359.556 409.119 359.063 409.483 358.699C409.846 358.336 410.339 358.132 410.853 358.132C411.367 358.132 411.86 358.336 412.223 358.699C412.586 359.063 412.791 359.556 412.791 360.07V658.482C412.82 675.797 418.038 692.706 427.771 707.027C437.505 721.347 451.307 732.422 467.396 738.821C504.562 753.276 550.913 760.601 605.208 760.601L647.102 761.686C701.359 761.686 747.865 754.323 784.837 739.867C800.93 733.472 814.735 722.399 824.469 708.078C834.203 693.756 839.419 676.845 839.443 659.528V361.116C839.443 360.602 839.647 360.109 840.01 359.746C840.374 359.382 840.867 359.178 841.381 359.178C841.894 359.178 842.387 359.382 842.751 359.746C843.114 360.109 843.318 360.602 843.318 361.116V659.528C843.279 677.627 837.82 695.3 827.646 710.268C817.471 725.236 803.047 736.814 786.232 743.51C748.64 758.121 701.786 765.562 646.986 765.562Z" fill="#1A1A1A"/>
<path d="M775.105 111.651L774.912 128.083C774.952 128.366 774.952 128.653 774.912 128.935C774.736 129.343 774.501 129.722 774.214 130.059C773.504 130.832 772.665 131.475 771.734 131.958C770.423 132.674 769.063 133.295 767.664 133.819L765.92 134.439L764.564 134.865L763.169 135.253C762.82 135.396 762.456 135.501 762.084 135.563C759.022 136.376 755.379 137.19 751.232 137.965L747.667 138.547C744.14 139.167 740.226 139.748 736.04 140.291C732.863 140.678 729.53 141.066 726.003 141.415C715.152 142.5 702.75 143.43 688.759 144.089C619.815 147.305 538.739 143.236 498.861 134.904C495.334 134.167 492.079 133.354 489.249 132.578L487.815 132.152C486.924 131.92 486.072 131.648 485.296 131.377C478.282 129.052 474.949 126.688 474.988 124.401V107.892C479.251 108.977 484.018 109.984 489.327 110.876C536.53 119.441 623.148 123.432 697.324 119.944C723.43 119.251 749.44 116.477 775.105 111.651Z" fill="#F4F3F2"/>
<path d="M795.845 25.4593L794.915 101.768C794.915 105.256 787.978 108.589 775.112 111.495C749.423 116.352 723.387 119.151 697.253 119.866C623.076 123.354 536.459 119.362 489.256 110.798C483.946 109.906 479.179 108.899 474.916 107.813L471.506 106.883C460.538 103.822 455.345 100.683 455.384 97.6209L456.314 21.1963C456.363 21.7548 456.526 22.2974 456.793 22.7906C457.059 23.2838 457.424 23.7172 457.864 24.0642L458.562 24.6455C459.099 25.0777 459.669 25.4664 460.267 25.8081L461.042 26.2344L462.864 27.1258L463.871 27.5521C464.763 27.9396 465.809 28.3272 466.894 28.7147L470.46 29.8774L472.436 30.4587C512.276 41.7364 613.349 47.5108 698.183 43.6354C740.465 41.6589 770.694 37.5896 785.537 32.6677C786.013 32.5479 786.479 32.3924 786.932 32.2027C792.939 30.0324 795.807 27.7459 795.845 25.4593Z" fill="#F4CB78"/>
<path d="M795.847 25.4589C795.847 27.7454 792.746 30.0319 786.933 32.1247C786.48 32.3144 786.014 32.4699 785.538 32.5898C770.695 37.5116 740.466 41.5809 698.185 43.5574C613.35 47.4329 512.161 41.7359 472.437 30.6133L470.461 30.032L466.896 28.8693C465.81 28.4817 464.764 28.0942 463.873 27.7067L462.865 27.2803L461.044 26.389L460.268 25.9627C459.67 25.621 459.1 25.2322 458.563 24.8L457.866 24.2575C457.425 23.9105 457.06 23.4771 456.794 22.9839C456.527 22.4907 456.364 21.9481 456.315 21.3896C456.315 13.3673 492.435 6.1202 553.978 3.25234C638.851 -0.623145 740.001 5.07381 779.725 16.2352C790.692 19.2581 795.886 22.3972 795.847 25.4589Z" fill="#F4CB78"/>
<path d="M639.513 147.188C584.674 147.188 529.255 143.312 498.174 136.879C494.686 136.143 491.43 135.329 488.485 134.515C487.944 134.401 487.413 134.246 486.896 134.05L484.416 133.275C476.432 130.639 472.789 127.849 472.789 124.439V107.929C472.8 107.636 472.876 107.349 473.01 107.088C473.143 106.827 473.333 106.598 473.564 106.418C473.798 106.239 474.07 106.115 474.358 106.055C474.646 105.994 474.944 105.999 475.231 106.069C479.455 107.154 484.222 108.162 489.376 109.053C537.161 117.695 624.476 121.493 696.986 118.083C723.004 117.38 748.923 114.593 774.496 109.751C774.779 109.687 775.072 109.688 775.355 109.755C775.637 109.823 775.9 109.953 776.123 110.138C776.355 110.325 776.541 110.561 776.669 110.829C776.796 111.098 776.861 111.391 776.86 111.688L776.666 128.12C776.657 128.652 776.552 129.177 776.356 129.671C776.13 130.306 775.773 130.886 775.31 131.376C774.464 132.309 773.469 133.095 772.364 133.701C770.981 134.465 769.543 135.125 768.062 135.678H767.791C767.259 135.887 766.715 136.069 766.163 136.22L765.815 136.646L763.722 137.267L762.83 137.499H762.637C759.381 138.352 755.7 139.204 751.63 139.941L748.026 140.561C744.499 141.181 740.546 141.723 736.4 142.305C733.183 142.692 729.811 143.08 726.246 143.39C715.084 144.552 702.528 145.444 688.925 146.064C672.803 146.839 656.177 147.188 639.513 147.188ZM476.742 110.409V124.477C476.742 124.477 476.742 126.686 485.733 129.632L488.175 130.368C488.632 130.535 489.098 130.677 489.57 130.794C492.438 131.57 495.616 132.345 499.065 133.081C539.292 141.452 620.794 145.366 688.576 142.227C702.063 141.568 714.542 140.677 725.703 139.553C729.191 139.204 732.563 138.817 735.702 138.429C739.849 137.887 743.763 137.344 747.329 136.724L750.894 136.143C754.769 135.406 758.141 134.631 761.242 133.856C761.407 133.817 761.58 133.817 761.745 133.856C761.998 133.802 762.244 133.724 762.482 133.624L764.536 133.042L765.195 132.81L766.977 132.19C768.221 131.701 769.437 131.144 770.62 130.523C771.346 130.131 772.001 129.62 772.558 129.012C772.698 128.884 772.804 128.725 772.868 128.547L773.101 114.246C748.059 118.706 722.721 121.296 697.296 121.997C624.553 125.446 536.89 121.61 488.872 112.928C484.609 112.115 480.54 111.301 476.858 110.409H476.742Z" fill="#1A1A1A"/>
<path d="M641.797 123.198C583.897 123.198 525.145 119.322 488.948 112.889C483.716 111.959 478.833 110.951 474.492 109.827C473.759 109.675 473.034 109.48 472.322 109.246L471.043 108.936C458.99 105.642 453.41 101.999 453.448 97.8907L454.379 21.4273C454.398 20.9233 454.61 20.4459 454.97 20.0928C455.33 19.7398 455.812 19.5378 456.316 19.5283C456.569 19.5283 456.819 19.5787 457.052 19.6765C457.285 19.7743 457.496 19.9177 457.673 20.0982C457.85 20.2786 457.989 20.4926 458.082 20.7274C458.175 20.9623 458.22 21.2134 458.215 21.4661C458.346 22.0391 458.675 22.5473 459.145 22.9L459.688 23.3651C460.177 23.7536 460.695 24.1035 461.238 24.4114C461.441 24.5575 461.662 24.6748 461.897 24.7602L463.602 25.6128H463.99L464.494 25.8454C465.462 26.2717 466.431 26.6205 467.516 27.008C468.602 27.3956 469.725 27.7444 470.966 28.0932L472.942 28.7132C512.55 39.7584 613.545 45.5328 698.069 41.5798C738.684 39.7584 769.688 35.8829 784.919 30.7672L786.275 30.3022C793.677 27.6281 794.026 25.6516 794.026 25.4191C794.08 24.9206 794.307 24.4571 794.669 24.1098C795.03 23.7625 795.502 23.5537 796.003 23.5201C796.255 23.52 796.505 23.5704 796.738 23.6682C796.971 23.7661 797.182 23.9094 797.359 24.0899C797.536 24.2704 797.675 24.4843 797.768 24.7192C797.861 24.9541 797.907 25.2052 797.902 25.4578L796.817 101.96C796.817 106.611 789.957 110.292 775.501 113.586C749.696 118.457 723.545 121.269 697.294 121.996C679.467 122.81 660.632 123.198 641.797 123.198ZM458.215 26.9305L457.324 97.8907C457.324 98.2007 457.711 101.262 472.012 105.254L473.291 105.603L475.384 106.145C479.647 107.231 484.414 108.238 489.568 109.13C537.353 117.772 624.667 121.57 697.178 118.159C723.195 117.456 749.115 114.67 774.687 109.827C792.398 105.952 792.98 102.347 792.98 102.076L793.832 31.2323C791.864 32.425 789.772 33.3997 787.593 34.1389C787.101 34.3412 786.596 34.5095 786.081 34.6427C770.579 39.8359 739.266 43.7501 698.302 45.6879C613.429 49.5633 511.891 43.8276 471.934 32.6662L469.958 32.0074C468.602 31.6198 467.4 31.2323 466.083 30.806C464.765 30.3797 463.912 29.9921 462.943 29.6046L462.285 29.3333L461.897 29.1395L460.153 28.1319L459.262 27.6669L458.215 26.9305Z" fill="#1A1A1A"/>
<path d="M642.535 46.735C572.776 46.735 503.366 41.2318 472.013 32.4732L469.959 32.0081L467.402 31.0005L466.51 30.7292L463.294 29.489L462.635 29.2178L462.247 29.024L460.154 28.1326L459.263 27.6676C458.565 27.2413 457.907 26.7762 457.325 26.3499C457.036 26.1251 456.764 25.8789 456.511 25.6136C455.88 25.0982 455.364 24.4559 454.996 23.7281C454.629 23.0004 454.419 22.2035 454.38 21.3893C454.38 7.43753 524.139 2.70945 553.902 1.31427C638.814 -2.56121 740.352 3.17449 780.27 14.3359C792.284 17.7076 797.826 21.2343 797.787 25.4973C797.787 28.7915 794.493 31.4655 787.594 33.9846C787.103 34.1869 786.598 34.3553 786.083 34.4884C770.581 39.6816 739.267 43.5958 698.303 45.5336C680.204 46.3474 661.37 46.735 642.535 46.735ZM609.787 3.87209C590.952 3.87209 572.156 4.2984 554.096 5.11225C484.337 8.36766 458.255 16.7387 458.255 21.3505C458.386 21.9236 458.715 22.4318 459.185 22.7845L459.728 23.2495C460.217 23.6381 460.735 23.9879 461.278 24.2959C461.481 24.4419 461.702 24.5593 461.937 24.6447L463.642 25.4973H464.03L464.534 25.7298C465.503 26.1561 466.471 26.5049 467.557 26.8925L468.409 27.1638L471.044 28.0164L472.982 28.5977C512.59 39.6428 613.624 45.4173 698.109 41.4643C738.686 39.7591 769.689 35.8836 784.92 30.768L786.277 30.3029C793.64 27.6288 794.028 25.6523 794.028 25.4198C794.028 25.1873 793.795 22.0869 779.339 18.0564C748.103 9.33653 679.003 3.87209 609.787 3.87209Z" fill="#1A1A1A"/>
<path d="M472.443 108.742C471.929 108.742 471.436 108.538 471.072 108.175C470.709 107.811 470.505 107.319 470.505 106.805V30.6125C470.505 30.0986 470.709 29.6058 471.072 29.2424C471.436 28.879 471.929 28.6748 472.443 28.6748C472.957 28.6748 473.449 28.879 473.813 29.2424C474.176 29.6058 474.38 30.0986 474.38 30.6125V106.805C474.38 107.319 474.176 107.811 473.813 108.175C473.449 108.538 472.957 108.742 472.443 108.742Z" fill="#1A1A1A"/>
<path d="M625.644 123.16C625.13 123.16 624.637 122.956 624.274 122.593C623.91 122.229 623.706 121.737 623.706 121.223V44.7981C623.706 44.2842 623.91 43.7913 624.274 43.4279C624.637 43.0645 625.13 42.8604 625.644 42.8604C626.155 42.8703 626.642 43.0776 627.003 43.4389C627.364 43.8002 627.572 44.2873 627.582 44.7981V121.145C627.587 121.405 627.541 121.663 627.446 121.905C627.351 122.146 627.21 122.367 627.03 122.554C626.85 122.741 626.635 122.891 626.397 122.995C626.159 123.099 625.903 123.155 625.644 123.16Z" fill="#1A1A1A"/>
<path d="M540.42 119.362C539.906 119.362 539.413 119.158 539.05 118.794C538.687 118.431 538.482 117.938 538.482 117.424V40.7668C538.482 40.2529 538.687 39.7601 539.05 39.3967C539.413 39.0333 539.906 38.8291 540.42 38.8291C540.934 38.8291 541.427 39.0333 541.79 39.3967C542.154 39.7601 542.358 40.2529 542.358 40.7668V117.269C542.379 117.536 542.345 117.805 542.257 118.058C542.17 118.311 542.03 118.544 541.848 118.741C541.666 118.937 541.445 119.094 541.199 119.201C540.954 119.308 540.688 119.363 540.42 119.362Z" fill="#1A1A1A"/>
<path d="M583.672 121.843C583.158 121.843 582.665 121.639 582.302 121.276C581.939 120.912 581.734 120.419 581.734 119.906V43.636C581.734 43.1221 581.939 42.6292 582.302 42.2658C582.665 41.9024 583.158 41.6982 583.672 41.6982C584.186 41.6982 584.679 41.9024 585.042 42.2658C585.406 42.6292 585.61 43.1221 585.61 43.636V119.906C585.61 120.419 585.406 120.912 585.042 121.276C584.679 121.639 584.186 121.843 583.672 121.843Z" fill="#1A1A1A"/>
<path d="M502.043 114.865C501.529 114.865 501.036 114.661 500.673 114.298C500.31 113.934 500.105 113.441 500.105 112.927V36.4641C500.105 35.9502 500.31 35.4573 500.673 35.0939C501.036 34.7305 501.529 34.5264 502.043 34.5264C502.557 34.5264 503.05 34.7305 503.413 35.0939C503.777 35.4573 503.981 35.9502 503.981 36.4641V112.927C503.981 113.441 503.777 113.934 503.413 114.298C503.05 114.661 502.557 114.865 502.043 114.865Z" fill="#1A1A1A"/>
<path d="M779.456 111.883C778.945 111.874 778.458 111.666 778.097 111.305C777.736 110.944 777.528 110.457 777.519 109.946V34.8C777.528 34.2892 777.736 33.8021 778.097 33.4408C778.458 33.0796 778.945 32.8722 779.456 32.8623C779.97 32.8623 780.463 33.0665 780.826 33.4299C781.19 33.7933 781.394 34.2861 781.394 34.8V109.946C781.394 110.46 781.19 110.953 780.826 111.316C780.463 111.679 779.97 111.883 779.456 111.883Z" fill="#1A1A1A"/>
<path d="M710.168 120.912C709.654 120.912 709.161 120.708 708.798 120.345C708.435 119.981 708.23 119.489 708.23 118.975V43.2864C708.23 42.7725 708.435 42.2796 708.798 41.9162C709.161 41.5528 709.654 41.3486 710.168 41.3486C710.682 41.3486 711.175 41.5528 711.538 41.9162C711.902 42.2796 712.106 42.7725 712.106 43.2864V118.975C712.096 119.485 711.889 119.973 711.527 120.334C711.166 120.695 710.679 120.902 710.168 120.912Z" fill="#1A1A1A"/>
<path d="M666.99 122.85C666.476 122.85 665.983 122.646 665.619 122.283C665.256 121.919 665.052 121.426 665.052 120.912V44.5266C665.052 44.0127 665.256 43.5198 665.619 43.1564C665.983 42.793 666.476 42.5889 666.99 42.5889C667.503 42.5889 667.996 42.793 668.36 43.1564C668.723 43.5198 668.927 44.0127 668.927 44.5266V120.912C668.927 121.426 668.723 121.919 668.36 122.283C667.996 122.646 667.503 122.85 666.99 122.85Z" fill="#1A1A1A"/>
<path d="M748.531 117.271C748.017 117.271 747.524 117.067 747.16 116.703C746.797 116.34 746.593 115.847 746.593 115.333V39.761C746.593 39.2471 746.797 38.7542 747.16 38.3908C747.524 38.0274 748.017 37.8232 748.531 37.8232C749.044 37.8232 749.537 38.0274 749.901 38.3908C750.264 38.7542 750.468 39.2471 750.468 39.761V115.294C750.473 115.552 750.427 115.808 750.332 116.048C750.237 116.287 750.095 116.505 749.915 116.69C749.734 116.874 749.519 117.02 749.281 117.12C749.043 117.219 748.788 117.271 748.531 117.271Z" fill="#1A1A1A"/>
<path d="M447.282 680.881L438.678 664.526C427.633 643.482 429.881 615.734 447.747 588.179C479.254 539.697 547.463 509.972 599.821 521.908C622.415 527.024 638.576 539.076 646.792 555.005L655.395 571.398C647.024 555.47 631.018 543.417 608.424 538.263C556.066 526.365 487.858 556.09 456.35 604.572C438.484 632.088 436.391 659.837 447.282 680.881Z" fill="#4B9583"/>
<path d="M646.282 647.785C614.658 696.229 546.604 725.954 494.285 714.095C441.966 702.236 424.759 653.017 456.344 604.574C487.929 556.13 556.06 526.366 608.418 538.264C660.776 550.162 677.789 599.303 646.282 647.785ZM474.326 608.643C448.787 647.94 462.7 687.78 505.059 697.43C547.418 707.08 603.031 683.091 628.377 643.716C653.723 604.341 640.003 564.54 597.644 554.89C555.285 545.24 499.827 569.345 474.326 608.643Z" fill="#F4CB78"/>
<path d="M628.38 643.678C603.034 683.091 547.498 707.119 505.062 697.431C462.625 687.742 448.79 647.941 474.329 608.643C499.869 569.346 555.211 545.202 597.647 554.89C640.084 564.579 653.881 604.38 628.38 643.678Z" fill="#4B9583"/>
<path d="M447.33 682.819C446.975 682.827 446.625 682.738 446.317 682.56C446.01 682.382 445.757 682.123 445.586 681.812L436.983 665.457C425.124 642.902 428.457 614.339 446.129 587.134C478.024 538.07 547.163 507.957 600.257 520.049C622.464 525.087 639.593 537.217 648.507 554.153L657.304 570.701C657.539 571.16 657.585 571.692 657.433 572.185C657.281 572.677 656.943 573.09 656.49 573.337C656.03 573.562 655.501 573.603 655.012 573.451C654.522 573.3 654.109 572.968 653.855 572.523C645.484 556.556 629.284 545.162 608.202 540.356C556.58 528.73 489.263 557.951 458.182 605.813C441.323 631.818 438.029 658.908 449.229 680.184C449.394 680.477 449.478 680.808 449.473 681.143C449.468 681.479 449.374 681.808 449.2 682.095C449.027 682.383 448.781 682.619 448.486 682.78C448.192 682.942 447.86 683.022 447.524 683.013L447.33 682.819ZM575.454 521.212C528.522 521.212 475.854 548.534 449.384 589.226C433.224 614.146 429.542 640.111 439.114 660.962C436.866 642.902 442.176 622.866 454.616 603.488C486.783 554.424 555.766 524.196 608.899 536.403C621.796 539.07 633.8 544.979 643.779 553.572C635.098 538.884 619.479 528.342 599.443 523.769C591.567 522.025 583.521 521.168 575.454 521.212Z" fill="#1A1A1A"/>
<path d="M518.528 718.589C510.224 718.627 501.943 717.73 493.841 715.915C469.193 710.334 451.21 696.343 443.149 676.54C434.391 654.953 438.615 628.329 454.776 603.487C486.787 554.423 555.771 524.194 608.904 536.402C633.552 541.983 651.534 555.779 659.557 575.777C668.315 597.363 664.091 623.988 647.93 648.83C620.802 690.569 566.739 718.589 518.528 718.589ZM584.062 537.565C537.169 537.565 484.462 564.887 457.992 605.58C442.491 629.336 438.615 654.643 446.754 675.028C454.272 693.631 471.324 706.807 494.732 712.117C546.354 723.743 613.632 694.522 644.675 646.698C660.177 622.903 664.052 597.596 655.952 577.172C648.434 558.609 631.42 545.471 608.013 540.123C600.149 538.382 592.116 537.524 584.062 537.565Z" fill="#1A1A1A"/>
<path d="M524.725 701.498C517.973 701.53 511.239 700.802 504.65 699.328C484.536 694.755 469.771 683.322 463.26 667.161C456.129 649.566 459.384 627.825 472.716 607.595C498.643 567.639 554.876 543.184 598.088 552.989C618.202 557.562 632.967 568.995 639.439 585.156C646.609 602.751 643.315 624.492 629.983 644.761C607.932 678.71 563.945 701.498 524.725 701.498ZM577.858 554.694C539.917 554.694 497.325 576.785 475.971 609.688C463.531 628.833 460.198 649.295 466.864 665.727C472.948 680.687 486.668 691.267 505.619 695.568C547.358 705.063 601.731 681.307 626.883 642.629C639.323 623.446 642.656 603.022 635.99 586.59C629.906 571.63 616.186 561.05 597.235 556.787C590.876 555.358 584.375 554.656 577.858 554.694Z" fill="#1A1A1A"/>
<path d="M524.725 701.498C517.973 701.53 511.239 700.802 504.65 699.328C484.536 694.755 469.771 683.322 463.26 667.161C456.129 649.528 459.384 627.825 472.716 607.595C498.643 567.639 554.876 543.184 598.088 552.989C618.202 557.562 632.967 568.995 639.439 585.156C646.609 602.751 643.315 624.492 629.983 644.761C607.932 678.71 563.945 701.498 524.725 701.498ZM577.858 554.694C539.917 554.694 497.325 576.785 475.971 609.688C463.531 628.833 460.198 649.295 466.864 665.727C472.948 680.687 486.668 691.267 505.619 695.568C547.358 705.063 601.731 681.307 626.883 642.629C639.323 623.446 642.656 603.022 635.99 586.59C629.906 571.63 616.186 561.05 597.235 556.787C590.876 555.358 584.375 554.656 577.858 554.694Z" fill="#1A1A1A"/>
<path d="M520.453 667.59L503.905 664.761C502.393 664.528 501.812 663.792 502.548 663.172L508.323 658.328C496.31 656.096 484.602 652.454 473.443 647.476C472.513 647.05 472.591 646.352 473.443 645.887L494.797 636.044C495.567 635.712 496.401 635.553 497.239 635.579C498.023 635.555 498.803 635.7 499.525 636.005C503.752 638.18 508.177 639.945 512.741 641.276C516.887 642.516 520.957 643.64 524.832 644.531L535.839 635.269L535.102 635.036C523.863 631.161 516.461 627.285 513.089 622.944C509.718 618.604 510.493 614.147 515.609 609.845C523.273 604.335 532.285 601 541.691 600.195C553.668 598.659 565.794 598.659 577.771 600.195L585.755 593.53C586.986 592.783 588.455 592.533 589.863 592.832L606.411 595.661C607.923 595.932 608.504 596.63 607.768 597.25L599.784 603.955C610.007 606.149 619.962 609.449 629.47 613.798C630.478 614.263 630.323 615 629.16 615.465L605.907 624.65C605.098 624.932 604.245 625.063 603.388 625.037C602.631 625.039 601.885 624.852 601.218 624.495C595.62 621.299 589.55 619.01 583.236 617.713L573.082 626.51C584.127 629.998 591.452 633.912 594.823 638.136C598.195 642.361 597.42 646.817 592.304 651.119C584.716 656.783 575.751 660.315 566.339 661.351C554.484 663.04 542.462 663.196 530.568 661.816L524.483 666.931C523.261 667.624 521.832 667.858 520.453 667.59ZM509.369 662.94L520.453 664.838L526.382 659.839C527.541 659.129 528.924 658.881 530.258 659.142C541.679 660.666 553.251 660.666 564.672 659.142C572.793 658.266 580.523 655.198 587.034 650.267C591.491 646.391 592.188 642.864 589.204 639.105C586.22 635.346 579.477 631.742 569.284 628.525L567.269 627.866C566.184 627.556 565.874 626.936 566.532 626.432L579.515 615.542C580.081 615.157 580.733 614.917 581.414 614.845C582.235 614.707 583.074 614.707 583.895 614.845C591.097 616.26 598.081 618.618 604.667 621.859L622.96 614.612C613.754 610.612 604.155 607.586 594.32 605.582C592.963 605.272 592.459 604.613 593.157 603.993L600.908 597.444L589.824 595.545L582.073 602.133C580.904 602.816 579.531 603.063 578.198 602.831C566.638 601.158 554.906 601.054 543.318 602.521C535.273 603.174 527.563 606.03 521.034 610.775C516.577 614.651 515.88 618.216 518.864 622.053C521.848 625.89 528.746 629.804 539.094 633.06L541.613 633.873C542.659 634.222 542.931 634.803 542.349 635.346L528.746 646.701C528.198 647.091 527.556 647.332 526.886 647.399C526.078 647.535 525.253 647.535 524.445 647.399C519.445 646.314 514.175 644.957 508.943 643.523C504.834 642.288 500.819 640.759 496.929 638.95L479.838 646.701C490.786 651.273 502.213 654.601 513.903 656.622C515.337 656.894 515.919 657.591 515.182 658.211L509.369 662.94Z" fill="#1A1A1A"/>
<path d="M553.673 623.137C553.351 623.094 553.038 623.002 552.743 622.866C550.362 622.112 548.205 620.781 546.465 618.99C545.651 617.75 546.039 616.51 547.589 615.115C549.953 613.138 555.107 610.929 566.346 611.782C567.064 611.785 567.765 612.001 568.361 612.402C568.749 612.712 568.71 613.1 568.361 613.448L557.781 622.323C557.087 622.775 556.283 623.029 555.456 623.06C554.866 623.149 554.269 623.175 553.673 623.137ZM560.998 614.223C558.196 613.868 555.362 614.573 553.053 616.2C552.162 616.936 551.929 617.595 552.356 618.254C552.932 618.891 553.63 619.405 554.41 619.765L560.998 614.223Z" fill="#1A1A1A"/>
<path d="M541.813 649.762C541.306 649.714 540.823 649.526 540.417 649.219C539.991 648.909 539.991 648.522 540.417 648.134L550.687 639.531C551.384 639.085 552.186 638.831 553.013 638.794C553.916 638.703 554.828 638.809 555.687 639.104C559.058 640.5 560.919 641.74 561.423 642.98C561.926 644.22 561.423 645.46 559.717 646.855C558.012 648.251 552.974 650.537 542.51 649.956L541.813 649.762ZM554.02 642.282L547.82 647.476C550.079 647.67 552.337 647.082 554.214 645.809C555.299 644.918 555.687 644.143 555.416 643.484C555.068 642.964 554.586 642.549 554.02 642.282Z" fill="#1A1A1A"/>
<path d="M709.082 336.508C753.806 329.648 796.087 376.425 803.334 440.836C807.052 470.095 802.164 499.804 789.266 526.329C776.942 550.124 757.991 566.634 735.397 570.122C690.674 576.981 648.392 530.166 641.106 465.755C637.428 436.568 642.33 406.941 655.213 380.494C667.498 356.505 686.45 339.995 709.082 336.508ZM788.026 443.2C785.866 419.286 776.24 396.658 760.51 378.518C746.791 363.636 729.506 355.846 711.563 358.559C693.619 361.272 677.846 374.797 667.886 394.136C657.412 415.615 653.439 439.685 656.453 463.391C658.599 487.312 668.211 509.953 683.931 528.112C697.688 542.955 714.934 550.744 732.917 548.032C750.899 545.319 766.633 531.793 776.593 512.493C787.066 491 791.039 466.918 788.026 443.2Z" fill="#F4CB78"/>
<path d="M776.593 512.57C766.633 531.947 751.247 545.279 732.916 548.108C714.585 550.937 697.688 543.031 683.93 528.188C668.211 510.029 658.599 487.388 656.453 463.467C653.444 439.749 657.417 415.668 667.886 394.174C677.846 374.796 693.231 361.465 711.562 358.635C729.893 355.806 746.79 363.712 760.548 378.594C776.251 396.748 785.861 419.371 788.026 443.276C791.034 466.994 787.061 491.075 776.593 512.57Z" fill="#4B9583"/>
<path d="M713.571 336.004L731.902 334.648C774.959 331.431 814.644 377.278 821.697 439.286C825.407 468.536 820.504 498.234 807.591 524.74C795.305 548.536 776.354 565.084 753.76 568.533C752.271 568.778 750.771 568.946 749.264 569.037L730.933 570.704C732.406 570.704 733.918 570.393 735.39 570.2C757.984 566.712 776.935 550.202 789.26 526.407C802.157 499.881 807.045 470.173 803.328 440.913C796.313 378.596 756.589 332.826 713.571 336.004Z" fill="#4B9583"/>
<path d="M726.635 572.716C711.653 572.44 697.188 567.191 685.516 557.795C660.868 538.921 643.545 504.585 639.01 465.985C635.275 436.349 640.286 406.269 653.427 379.445C666.565 353.983 686.214 338.055 708.73 334.606C717.618 333.406 726.658 334.049 735.286 336.496C743.913 338.943 751.945 343.141 758.879 348.829C783.527 367.664 800.851 402 805.385 440.6C809.136 470.249 804.167 500.348 791.085 527.217C777.947 552.641 758.337 568.569 735.82 572.018C732.781 572.487 729.71 572.72 726.635 572.716ZM717.838 337.784C714.996 337.791 712.159 338.011 709.35 338.442C688.113 341.698 669.472 356.89 656.915 381.073C644.185 407.249 639.363 436.568 643.041 465.442C647.304 503.034 664.046 536.363 687.88 554.578C694.403 559.956 701.965 563.93 710.094 566.25C718.223 568.571 726.744 569.189 735.122 568.065C756.36 564.81 774.962 549.618 787.519 525.435C800.286 499.271 805.109 469.94 801.393 441.065C797.169 403.473 780.388 370.144 756.554 351.929C745.574 343.052 731.955 338.076 717.838 337.784Z" fill="#1A1A1A"/>
<path d="M725.782 550.511C710.28 550.511 695.243 543.186 682.492 529.428C667.378 513.074 657.457 489.704 654.511 463.545C651.438 439.453 655.48 414.989 666.138 393.166C676.873 372.393 692.879 359.411 711.249 356.581C729.618 353.752 747.174 361.116 761.94 377.122C776.705 393.127 787.014 416.807 789.96 443.005C793.008 467.096 788.967 491.553 778.333 513.384C767.598 534.118 751.592 547.1 733.184 549.929C730.735 550.317 728.26 550.511 725.782 550.511ZM718.612 359.992C716.342 359.988 714.075 360.156 711.83 360.496C694.739 363.131 679.702 375.378 669.587 395.026C659.284 416.171 655.391 439.867 658.387 463.196C661.216 488.464 670.788 511.058 685.515 526.793C699.39 541.791 716.17 548.651 732.757 546.17C749.345 543.69 764.885 531.288 775.039 511.678C785.342 490.534 789.235 466.838 786.239 443.509C784.122 419.981 774.628 397.724 759.111 379.912C747.097 366.851 732.951 359.992 718.612 359.992Z" fill="#1A1A1A"/>
<path d="M725.782 550.51C710.28 550.51 695.243 543.186 682.492 529.428C667.378 513.073 657.457 489.704 654.511 463.544C651.438 439.453 655.48 414.989 666.138 393.165C676.873 372.393 692.879 359.41 711.249 356.581C729.153 353.829 747.174 361.115 761.94 377.121C776.705 393.127 787.014 416.806 789.96 443.004C793.008 467.095 788.967 491.552 778.333 513.383C767.598 534.117 751.592 547.1 733.184 549.929C730.735 550.316 728.26 550.511 725.782 550.51ZM711.83 360.611C694.739 363.247 679.702 375.493 669.587 395.142C659.284 416.286 655.391 439.982 658.387 463.312C661.216 488.58 670.788 511.174 685.515 526.909C699.39 541.907 716.17 548.766 732.757 546.286C749.345 543.806 764.885 531.404 775.039 511.794C785.342 490.65 789.235 466.954 786.239 443.624C784.122 420.097 774.628 397.839 759.111 380.028C745.198 364.797 728.417 357.937 711.83 360.495V360.611Z" fill="#1A1A1A"/>
<path d="M730.931 572.561C730.417 572.561 729.925 572.357 729.561 571.994C729.198 571.631 728.994 571.138 728.994 570.624C728.994 570.11 729.198 569.617 729.561 569.254C729.925 568.89 730.417 568.686 730.931 568.686C732.326 568.686 733.722 568.415 735.156 568.182C756.393 564.927 774.996 549.735 787.552 525.552C800.319 499.388 805.143 470.057 801.426 441.183C794.567 380.221 756.083 334.917 713.763 338.056C713.249 338.056 712.756 337.852 712.393 337.488C712.029 337.125 711.825 336.632 711.825 336.118C711.825 335.604 712.029 335.111 712.393 334.748C712.756 334.384 713.249 334.18 713.763 334.18L732.133 332.824C776.546 329.53 816.851 376.307 823.943 439.361C827.73 468.994 822.773 499.087 809.681 525.939C796.195 551.324 776.546 567.175 754.184 570.701C752.634 570.934 751.084 571.089 749.534 571.205L731.203 572.6L730.931 572.561ZM735.078 336.428C770.306 346.776 799.334 388.05 805.263 440.601C809.014 470.25 804.045 500.349 790.963 527.218C781.158 546.169 767.71 559.811 752.208 566.981H753.37C774.647 563.725 793.249 548.533 805.806 524.35C818.538 498.175 823.36 468.855 819.68 439.981C813.053 380.182 776.275 335.459 735.078 336.428Z" fill="#1A1A1A"/>
<path d="M726.782 513.113L717.985 513.811C717.21 513.811 716.474 513.036 716.396 511.99L715.737 503.774C708.206 503.824 700.774 502.056 694.073 498.619C693.704 498.385 693.415 498.046 693.242 497.645C693.069 497.244 693.021 496.8 693.104 496.371L695.856 476.994C695.88 476.735 695.958 476.484 696.085 476.257C696.211 476.03 696.384 475.832 696.592 475.676C696.779 475.563 696.994 475.504 697.212 475.504C697.431 475.504 697.645 475.563 697.833 475.676C700.6 477.313 703.608 478.503 706.746 479.203C709.103 479.77 711.5 480.159 713.916 480.366L712.676 464.864H712.211C705.625 463.15 699.709 459.489 695.236 454.361C690.89 449.108 688.337 442.604 687.95 435.797C687.104 428.65 688.835 421.436 692.833 415.451C696.472 410.346 701.893 406.792 708.025 405.491L707.134 394.175C707.051 393.729 707.141 393.269 707.386 392.887C707.631 392.505 708.012 392.231 708.451 392.121L717.21 391.462C718.024 391.462 718.721 392.198 718.799 393.283L719.69 404.561C726.25 405.044 732.644 406.85 738.486 409.87C738.873 410.123 739.171 410.491 739.338 410.922C739.505 411.353 739.532 411.826 739.416 412.273L735.541 431.108C735.5 431.36 735.406 431.601 735.266 431.815C735.126 432.028 734.942 432.21 734.727 432.348C734.536 432.469 734.314 432.533 734.088 432.533C733.861 432.533 733.64 432.469 733.448 432.348C729.95 429.882 725.855 428.397 721.589 428.047L722.868 442.812C729.418 444.247 735.308 447.815 739.613 452.955C743.919 458.096 746.399 464.519 746.664 471.219C747.586 478.56 746.017 485.999 742.207 492.341C738.748 497.535 733.488 501.263 727.441 502.805L728.1 511.408C728.097 511.797 727.966 512.175 727.728 512.482C727.49 512.79 727.158 513.012 726.782 513.113ZM719.031 509.819L724.883 509.354L724.341 500.944C724.277 500.526 724.357 500.099 724.568 499.733C724.78 499.366 725.109 499.083 725.503 498.929C731.382 497.712 736.562 494.268 739.959 489.318C743.281 483.848 744.647 477.412 743.835 471.064C743.541 465.267 741.379 459.72 737.673 455.252C733.707 450.719 728.399 447.569 722.519 446.261L721.279 445.913C720.912 445.783 720.594 445.541 720.372 445.221C720.149 444.901 720.033 444.519 720.039 444.13L718.566 425.721C718.527 425.201 718.663 424.682 718.954 424.249C719.066 424.063 719.225 423.911 719.416 423.808C719.607 423.706 719.823 423.657 720.039 423.667C724.693 423.871 729.228 425.201 733.254 427.543L736.355 412.661C730.785 409.952 724.716 408.422 718.528 408.165C717.791 408.165 717.132 407.351 717.055 406.344L716.202 395.221L710.312 395.686L711.164 406.809C711.238 407.233 711.162 407.669 710.95 408.044C710.738 408.418 710.403 408.708 710.002 408.863C707.044 409.327 704.207 410.37 701.653 411.933C699.099 413.496 696.879 415.548 695.12 417.97C691.688 423.082 690.216 429.261 690.973 435.371C691.291 441.224 693.478 446.82 697.212 451.338C701.3 456.006 706.704 459.33 712.714 460.872L714.303 461.298C714.663 461.434 714.972 461.679 715.188 461.998C715.403 462.318 715.514 462.696 715.505 463.081L717.016 482.458C717.067 482.974 716.945 483.493 716.667 483.931C716.554 484.106 716.399 484.25 716.216 484.352C716.034 484.453 715.83 484.508 715.621 484.512C712.511 484.427 709.419 484.011 706.397 483.272C703.627 482.616 700.947 481.627 698.414 480.327L696.244 495.829C702.729 498.889 709.849 500.364 717.016 500.131C717.791 500.131 718.45 500.906 718.528 501.952L719.031 509.819Z" fill="#1A1A1A"/>
<path d="M712.441 443.238C712.265 443.292 712.076 443.292 711.899 443.238C709.938 442.505 708.193 441.292 706.822 439.711C705.638 438.128 704.962 436.222 704.884 434.246C704.545 432.204 704.944 430.108 706.009 428.333C707.074 426.558 708.736 425.22 710.697 424.558C710.907 424.473 711.138 424.453 711.359 424.502C711.581 424.55 711.782 424.664 711.938 424.829C712.308 425.238 712.539 425.753 712.596 426.302L713.759 441.261C713.813 441.861 713.633 442.458 713.255 442.928C713.034 443.132 712.743 443.244 712.441 443.238ZM709.884 429.053C709.097 429.575 708.48 430.315 708.108 431.182C707.736 432.05 707.626 433.007 707.791 433.936C707.815 435.011 708.166 436.052 708.798 436.921C709.321 437.518 709.936 438.029 710.62 438.432L709.884 429.053Z" fill="#1A1A1A"/>
<path d="M724.382 482.844C724.22 482.857 724.057 482.836 723.904 482.783C723.75 482.73 723.609 482.645 723.491 482.533C723.07 482.14 722.82 481.598 722.793 481.022L721.669 466.45C721.627 466.159 721.65 465.861 721.737 465.579C721.824 465.298 721.973 465.039 722.173 464.822C722.329 464.635 722.542 464.503 722.78 464.447C723.018 464.391 723.267 464.414 723.491 464.512C725.42 465.22 727.103 466.472 728.335 468.117C729.359 469.849 729.944 471.804 730.04 473.814C730.298 475.681 729.918 477.582 728.962 479.206C728.005 480.831 726.528 482.085 724.77 482.766L724.382 482.844ZM724.808 469.279L725.467 478.077C726.049 477.623 726.507 477.03 726.798 476.353C727.089 475.675 727.205 474.935 727.134 474.201C727.084 472.98 726.752 471.786 726.165 470.713C725.804 470.157 725.344 469.671 724.808 469.279Z" fill="#1A1A1A"/>
<path d="M566.809 530.823C562.933 529.234 559.058 527.568 555.182 525.824C509.8 505.594 468.41 475.442 459.962 455.406C450.815 433.82 483.835 432.463 533.596 452.422C538.285 454.282 542.936 456.297 547.548 458.39C592.038 478.659 632.227 508.268 640.559 527.839C649.55 549.425 616.609 550.782 566.809 530.823Z" fill="#4B9583"/>
<path d="M570.682 539.93C509.294 515.321 450.154 473.621 438.915 446.918C427.676 420.216 468.292 418.627 529.718 443.043C591.145 467.459 650.284 509.353 661.485 536.055C672.685 562.757 632.108 564.578 570.682 539.93ZM533.516 452.46C483.716 432.463 450.697 433.819 459.882 455.406C469.067 476.992 517.045 510.864 566.845 530.823C616.645 550.782 649.703 549.425 640.479 527.839C631.256 506.252 583.316 472.419 533.516 452.46Z" fill="#F4CB78"/>
<path d="M662.255 549.386L649.234 574.577C642.452 587.715 606.603 584.769 557.656 565.121C496.229 540.511 437.128 498.85 425.889 472.109C424.792 470.121 424.153 467.913 424.019 465.647C423.885 463.381 424.259 461.113 425.114 459.01L438.136 433.78C437.289 435.879 436.92 438.139 437.054 440.398C437.188 442.656 437.822 444.857 438.911 446.841C450.227 473.465 509.329 515.165 570.678 539.852C619.664 559.579 655.473 562.524 662.255 549.386Z" fill="#4B9583"/>
<path d="M623.549 546.905C609.636 546.905 589.56 542.022 566.114 532.604C515.732 512.491 467.444 478.348 458.065 456.18C454.771 448.429 456.941 443.856 459.344 441.414C468.374 432.191 497.091 435.717 534.257 450.638C584.639 470.79 632.927 504.895 642.267 527.062C645.561 534.813 643.391 539.387 640.988 541.828C637.655 545.238 631.648 546.905 623.549 546.905ZM476.784 440.252C469.459 440.252 464.499 441.685 462.134 444.127C459.77 446.569 459.654 450.018 461.631 454.668C470.661 475.867 518.135 509.235 567.548 529.039C607.504 545.045 631.842 545.626 638.237 539.115C640.523 536.79 640.678 533.263 638.702 528.574C629.711 507.414 582.197 474.046 532.823 454.242C507.865 444.243 488.992 440.252 476.784 440.252Z" fill="#1A1A1A"/>
<path d="M640.679 559.347C623.627 559.347 598.901 553.34 569.99 541.752C507.983 516.949 448.533 474.784 437.061 447.733C433.186 438.393 435.666 432.967 438.534 430.061C449.54 418.822 484.73 423.201 530.383 441.687C592.391 466.452 651.841 508.617 663.312 535.668C667.188 545.008 664.707 550.472 661.839 553.379C657.809 557.332 650.523 559.347 640.679 559.347ZM459.655 427.852C450.47 427.852 444.153 429.673 441.247 432.735C438.34 435.796 438.069 440.292 440.588 446.222C451.711 472.459 510.347 513.694 571.386 538.148C620.876 557.991 651.066 558.649 659.049 550.511C661.994 547.488 662.227 542.954 659.708 537.024C648.585 510.787 589.949 469.552 528.871 445.098C498.178 432.774 474.847 427.852 459.655 427.852Z" fill="#1A1A1A"/>
<path d="M623.549 546.908C609.636 546.908 589.56 542.025 566.114 532.607C515.732 512.493 467.444 478.35 458.065 456.182C454.771 448.432 456.941 443.858 459.344 441.417C468.374 432.193 497.091 435.759 534.257 450.641C584.639 470.793 632.927 504.897 642.267 527.065C645.561 534.816 643.391 539.389 640.988 541.831C637.655 545.241 631.648 546.908 623.549 546.908ZM476.784 440.254C469.459 440.254 464.499 441.688 462.134 444.13C459.77 446.571 459.654 450.02 461.631 454.671C470.661 475.87 518.135 509.238 567.548 529.042C607.504 545.047 631.842 545.629 638.237 539.118C640.523 536.793 640.678 533.266 638.702 528.577C629.711 507.416 582.197 474.048 532.823 454.245C507.865 444.246 488.992 440.254 476.784 440.254Z" fill="#1A1A1A"/>
<path d="M627.653 584.614C610.639 584.614 585.952 578.646 556.925 567.02C495.15 542.255 435.506 500.09 424.035 473C422.818 470.756 422.124 468.266 422.003 465.717C421.883 463.167 422.338 460.623 423.337 458.274L436.397 433.044C436.634 432.587 437.042 432.242 437.533 432.086C438.023 431.929 438.556 431.974 439.013 432.211C439.471 432.447 439.815 432.856 439.972 433.346C440.128 433.837 440.083 434.369 439.846 434.827C439.135 436.669 438.839 438.645 438.979 440.615C439.12 442.584 439.694 444.499 440.66 446.221C451.783 472.458 510.419 513.693 571.458 538.147C625.211 559.695 655.362 558.61 660.594 548.495C660.705 548.265 660.861 548.06 661.053 547.892C661.245 547.724 661.469 547.597 661.711 547.517C661.954 547.438 662.21 547.408 662.464 547.429C662.718 547.451 662.965 547.523 663.191 547.642C663.65 547.882 663.996 548.293 664.156 548.786C664.315 549.278 664.275 549.814 664.043 550.278L651.022 575.546C647.844 581.63 639.667 584.614 627.653 584.614ZM435.506 443.159L426.786 460.056C426.044 461.932 425.731 463.95 425.872 465.962C426.013 467.974 426.604 469.929 427.6 471.683C438.723 497.92 497.359 539.155 558.398 563.609C612.151 585.157 642.302 584.072 647.534 573.957L656.254 557.021C641.411 563.183 609.748 557.874 569.947 541.907C508.171 517.142 448.528 474.977 437.056 447.926C436.396 446.387 435.878 444.792 435.506 443.159Z" fill="#1A1A1A"/>
<path d="M617.069 531.946H607.458C606.188 531.792 604.977 531.326 603.931 530.59L595.715 524.815C585.598 524.273 575.562 522.715 565.757 520.165C564.595 519.854 563.511 519.299 562.579 518.537L548.279 505.205C547.853 504.818 547.736 504.508 547.93 504.353C548.124 504.198 548.666 504.353 549.364 504.353C553.853 505.578 558.407 506.549 563.006 507.259C566.532 507.802 569.672 508.189 572.384 508.422L556.882 497.416H556.185C546.157 495.697 536.328 492.971 526.847 489.277C517.913 485.852 509.418 481.376 501.541 475.945C493.518 470.326 489.178 465.598 488.713 461.994C488.248 458.39 491.232 456.568 497.432 455.832L486.116 448.081C485.031 447.306 484.876 446.724 485.767 446.686H495.378C496.648 446.84 497.859 447.306 498.905 448.042L510.028 455.87C519.055 456.679 527.999 458.235 536.769 460.521C537.975 460.82 539.091 461.405 540.024 462.226L552.581 475.17C552.929 475.558 553.007 475.868 552.581 475.984C552.076 476.142 551.535 476.142 551.03 475.984C545.234 474.201 539.276 472.994 533.242 472.38L548.163 482.766C557.88 484.334 567.403 486.932 576.57 490.517C585.449 493.88 593.883 498.319 601.683 503.733C610.17 509.662 614.86 514.545 615.674 518.227C616.487 521.909 613.813 523.846 607.923 524.777L616.565 530.861C617.766 531.481 617.921 531.946 617.069 531.946ZM605.171 529.272H611.604L603.233 523.381C602.264 522.723 602.032 522.141 602.691 522.025C608.814 521.289 611.566 519.273 610.868 516.057C610.17 512.84 606.179 508.771 598.66 503.5C591.954 498.874 584.72 495.062 577.112 492.145C568.765 489.02 560.115 486.773 551.302 485.44L549.519 485.169C548.421 484.938 547.38 484.49 546.457 483.851L528.049 470.907C527.506 470.52 527.157 470.171 527.119 469.9C527.08 469.628 527.351 469.512 527.894 469.551C534.292 470.064 540.625 471.194 546.806 472.923L536.885 462.653C528.729 460.658 520.419 459.362 512.043 458.777C510.828 458.599 509.672 458.134 508.671 457.421L497.51 449.67H491.077L502.238 457.421C503.207 458.118 503.44 458.7 502.703 458.777C496.27 459.358 493.208 461.257 493.596 464.397C493.983 467.536 497.471 471.411 504.602 476.333C511.37 481.016 518.684 484.856 526.382 487.766C535.038 491.133 544.01 493.626 553.162 495.207L555.41 495.594C556.493 495.812 557.522 496.247 558.433 496.873L577.81 510.399C578.353 510.786 578.663 511.135 578.701 511.406C578.74 511.677 578.701 511.755 578.004 511.755C574.71 511.561 570.718 511.096 566.145 510.399C562.295 509.804 558.303 508.99 554.17 507.957L565.796 518.615C575.004 520.867 584.419 522.165 593.893 522.49C595.136 522.657 596.319 523.122 597.343 523.846L605.171 529.272Z" fill="#1A1A1A"/>
<path d="M536.929 482.611C536.684 482.644 536.437 482.644 536.192 482.611C533.091 481.944 530.046 481.037 527.085 479.899C524.53 478.886 522.098 477.586 519.838 476.023C516.505 473.659 513.404 470.636 517.822 469.551C518.405 469.497 518.991 469.59 519.528 469.822C520.274 470.063 520.98 470.416 521.62 470.869L536.58 481.371C537.239 481.836 537.587 482.263 537.51 482.495C537.432 482.728 537.161 482.611 536.929 482.611ZM521.039 472.574C519.876 473.426 521.427 474.783 523.016 475.907C524.231 476.749 525.529 477.463 526.891 478.038C528.033 478.475 529.197 478.85 530.379 479.162L521.039 472.574Z" fill="#1A1A1A"/>
<path d="M586.807 510.862C586.343 510.849 585.885 510.757 585.451 510.591C584.693 510.332 583.975 509.967 583.319 509.506L568.747 499.275C568.089 498.848 567.74 498.422 567.817 498.151C567.895 497.88 568.36 497.841 569.096 498.151C572.144 498.8 575.127 499.721 578.01 500.902C580.533 502.024 582.936 503.401 585.179 505.01C588.125 507.064 590.876 509.777 587.156 510.979L586.807 510.862ZM574.948 501.406L583.746 507.568C584.443 506.754 583.164 505.669 582.002 504.855C580.658 503.881 579.216 503.05 577.7 502.375C576.803 501.998 575.884 501.674 574.948 501.406Z" fill="#1A1A1A"/>
<path d="M715.7 399.677L706.631 415.683C695.005 436.378 670.512 449.671 637.686 449.671C579.864 449.671 517.779 408.629 499.254 358.209C491.27 336.506 492.665 316.509 501.463 300.813L510.531 284.652C501.734 300.387 500.339 320.346 508.322 342.087C526.847 392.468 588.932 433.51 646.716 433.51C679.58 433.665 704.073 420.411 715.7 399.677Z" fill="#4B9583"/>
<path d="M579.509 250.858C637.292 250.858 699.378 291.861 717.902 342.242C736.427 392.624 704.493 433.665 646.71 433.665C588.926 433.665 526.841 392.624 508.316 342.242C489.791 291.861 521.648 250.858 579.509 250.858ZM640.354 416.38C687.209 416.38 713.136 383.129 698.099 342.242C683.062 301.356 632.719 268.104 585.71 268.104C538.7 268.104 512.928 301.356 527.926 342.242C542.924 383.129 593.344 416.38 640.315 416.38" fill="#F4CB78"/>
<path d="M640.354 416.38C593.5 416.38 543.118 383.089 527.965 342.242C512.812 301.394 538.894 268.104 585.749 268.104C632.603 268.104 682.946 301.355 698.138 342.242C713.33 383.128 687.209 416.38 640.354 416.38Z" fill="#4B9583"/>
<path d="M637.694 451.765C579.135 451.765 516.236 410.181 497.44 359.063C489.689 337.671 490.425 316.704 499.804 300.04L508.795 283.918C508.911 283.681 509.075 283.471 509.275 283.3C509.476 283.129 509.709 283.001 509.96 282.923C510.212 282.846 510.477 282.82 510.739 282.848C511.001 282.876 511.254 282.957 511.484 283.086C511.713 283.216 511.914 283.39 512.074 283.6C512.233 283.809 512.349 284.049 512.413 284.305C512.477 284.56 512.488 284.826 512.445 285.086C512.403 285.346 512.308 285.595 512.167 285.817C503.369 301.319 502.633 321.316 510.113 341.624C528.366 391.307 589.638 431.767 646.685 431.767C677.689 431.767 702.22 419.753 713.963 398.787C714.08 398.551 714.243 398.341 714.443 398.17C714.644 397.999 714.877 397.871 715.129 397.793C715.38 397.715 715.645 397.689 715.907 397.717C716.169 397.745 716.423 397.826 716.652 397.956C716.882 398.085 717.082 398.26 717.242 398.469C717.402 398.679 717.517 398.918 717.581 399.174C717.645 399.429 717.656 399.695 717.614 399.955C717.571 400.215 717.476 400.464 717.335 400.686L708.305 416.808C696.058 438.937 670.131 451.765 637.694 451.765ZM502.052 304.496C494.301 319.805 494.301 338.639 501.238 357.901C519.53 407.623 580.801 448.083 637.849 448.083C667.574 448.083 691.33 436.999 703.732 417.622C689.819 429.248 670.131 435.798 647.033 435.798C588.514 435.798 525.615 394.214 506.818 343.096C501.913 330.792 500.219 317.442 501.897 304.303L502.052 304.496Z" fill="#1A1A1A"/>
<path d="M646.716 435.602C588.197 435.602 525.297 394.018 506.501 342.9C497.782 319.182 499.681 296.394 511.888 278.955C525.259 259.848 549.868 248.881 579.516 248.881C638.035 248.881 700.935 290.465 719.731 341.582C728.451 365.3 726.513 388.088 714.305 405.528C700.973 424.634 676.325 435.602 646.716 435.602ZM579.516 252.911C551.147 252.911 527.7 263.298 515.066 281.357C503.44 297.789 501.851 319.221 510.144 341.738C528.398 391.421 589.669 431.881 646.716 431.881C675.046 431.881 698.532 421.534 711.127 403.474C722.754 387.042 724.342 365.572 716.088 343.055C697.795 293.216 636.563 252.911 579.516 252.911Z" fill="#1A1A1A"/>
<path d="M640.367 418.316C592.738 418.316 541.581 384.483 526.273 342.899C519.181 323.521 520.77 304.996 530.73 290.696C541.62 275.194 561.734 266.164 585.878 266.164C633.469 266.164 684.664 299.997 699.934 341.581C707.065 360.958 705.476 379.483 695.477 393.784C684.626 409.363 664.512 418.316 640.367 418.316ZM585.878 270.04C563.013 270.04 544.062 278.372 533.908 292.944C524.684 306.159 523.25 323.444 530.032 341.581C544.798 381.731 594.365 414.44 640.484 414.44C663.349 414.44 682.261 406.108 692.415 391.536C701.678 378.321 703.073 361.036 696.291 342.899C681.525 302.71 631.996 270.04 585.878 270.04Z" fill="#1A1A1A"/>
<path d="M640.367 418.316C592.738 418.316 541.581 384.483 526.273 342.899C519.181 323.521 520.77 304.996 530.73 290.696C541.62 275.194 561.734 266.164 585.878 266.164C633.469 266.164 684.664 299.997 699.934 341.581C707.065 360.958 705.476 379.483 695.477 393.784C684.626 409.363 664.512 418.316 640.367 418.316ZM585.878 270.04C563.013 270.04 544.062 278.372 533.908 292.944C524.684 306.159 523.25 323.444 530.032 341.581C544.798 381.731 594.365 414.44 640.484 414.44C663.349 414.44 682.261 406.108 692.415 391.536C701.678 378.321 703.073 361.036 696.291 342.899C681.525 302.71 631.996 270.04 585.878 270.04Z" fill="#1A1A1A"/>
<path d="M656.803 402.66H644.944C644.313 402.596 643.706 402.387 643.169 402.052C642.631 401.716 642.178 401.261 641.843 400.723L636.999 392.584C625.879 391.892 614.916 389.608 604.445 385.802C603.9 385.622 603.402 385.324 602.987 384.929C602.571 384.533 602.249 384.051 602.042 383.515L596.578 364.681C596.578 364.099 596.578 363.673 596.965 363.44C597.233 363.318 597.524 363.255 597.818 363.255C598.112 363.255 598.403 363.318 598.671 363.44C603.227 365.248 607.935 366.648 612.739 367.626C616.614 368.401 620.102 368.982 623.241 369.292L614.017 353.79H613.281C603.172 351.555 593.515 347.624 584.719 342.164C576.989 337.459 570.481 330.992 565.729 323.29C560.962 315.307 559.954 308.68 562.667 303.564C565.38 298.448 570.651 295.813 578.983 294.922L572.278 283.683C571.658 282.598 572.046 281.745 573.131 281.745H584.758C585.394 281.788 586.01 281.987 586.551 282.325C587.091 282.663 587.54 283.13 587.858 283.683L594.524 294.922C604.289 295.995 613.891 298.233 623.125 301.588C623.693 301.778 624.209 302.098 624.633 302.521C625.056 302.945 625.376 303.461 625.566 304.029L629.209 322.36C629.263 322.586 629.234 322.824 629.128 323.03C629.021 323.236 628.844 323.398 628.628 323.484C628.025 323.628 627.391 323.546 626.845 323.252C620.961 320.584 614.699 318.845 608.282 318.097L617.195 332.747C627.036 334.804 636.44 338.569 644.983 343.869C652.653 348.548 659.107 354.975 663.817 362.626C668.817 371.036 670.173 378.128 667.693 383.128C665.213 388.127 660.291 390.879 652.191 392.313L657.307 400.878C658.237 401.769 657.849 402.66 656.803 402.66ZM644.634 398.785H652.385L647.463 390.453C646.882 389.484 647.114 388.631 648.044 388.515C656.221 387.507 661.415 384.639 663.546 380.182C665.678 375.726 664.438 369.874 660.019 362.433C655.996 355.857 650.454 350.341 643.859 346.349C636.073 341.545 627.509 338.135 618.552 336.273L616.653 335.886C615.579 335.626 614.648 334.959 614.056 334.025L603.205 315.733C603.045 315.535 602.94 315.298 602.899 315.047C602.859 314.796 602.884 314.538 602.972 314.299C603.109 314.105 603.299 313.955 603.519 313.866C603.738 313.776 603.979 313.752 604.212 313.795C611.142 314.427 617.943 316.058 624.404 318.64L621.575 304.145C612.881 301.122 603.847 299.182 594.679 298.371C594.087 298.281 593.521 298.065 593.019 297.737C592.518 297.409 592.093 296.978 591.772 296.472L585.184 285.388H577.433L583.982 296.472C584.564 297.441 584.292 298.293 583.324 298.371C574.914 299.146 569.411 301.781 567.047 306.122C564.682 310.462 565.574 316.004 569.721 322.98C573.796 329.609 579.388 335.175 586.036 339.219C594.093 344.203 602.939 347.781 612.196 349.799L614.599 350.341C615.645 350.637 616.552 351.297 617.157 352.201L628.512 371.346C628.627 371.561 628.687 371.8 628.687 372.044C628.687 372.287 628.627 372.527 628.512 372.742C628.381 372.932 628.198 373.081 627.985 373.17C627.772 373.26 627.538 373.286 627.31 373.245C622.817 372.882 618.351 372.235 613.94 371.308C609.715 370.426 605.558 369.247 601.5 367.781L605.879 382.857C615.874 386.298 626.32 388.257 636.883 388.67C637.499 388.731 638.091 388.939 638.61 389.276C639.13 389.613 639.56 390.07 639.867 390.608L644.634 398.785Z" fill="#1A1A1A"/>
<path d="M603.36 332.554H602.546C599.462 331.671 596.515 330.367 593.787 328.678C591.632 327.243 589.819 325.351 588.478 323.136C586.501 319.803 585.494 315.385 591.849 313.99C592.508 313.91 593.174 314.046 593.748 314.378C594.393 314.745 594.938 315.264 595.337 315.889L604.174 330.771C604.561 331.391 604.6 332.011 604.174 332.36C603.933 332.517 603.645 332.585 603.36 332.554ZM592.973 318.331C590.764 319.532 591.462 321.431 592.392 323.02C593.093 324.23 594.06 325.264 595.221 326.043C596.264 326.666 597.352 327.21 598.477 327.671L592.973 318.331Z" fill="#1A1A1A"/>
<path d="M638.936 372.585C638.434 372.576 637.941 372.443 637.502 372.198C636.836 371.832 636.265 371.314 635.836 370.686L627.271 356.192C626.884 355.572 626.845 354.952 627.271 354.603C627.522 354.449 627.81 354.367 628.104 354.367C628.399 354.367 628.687 354.449 628.938 354.603C631.942 355.437 634.795 356.745 637.386 358.479C639.442 360.062 641.178 362.021 642.502 364.253C644.246 367.199 645.098 371.035 639.479 372.702L638.936 372.585ZM632.968 359.215L638.161 367.935C639.789 366.772 639.208 365.261 638.51 364.059C637.299 361.827 635.335 360.097 632.968 359.176V359.215Z" fill="#1A1A1A"/>
<path d="M753.919 548.96C786.512 580.391 774.924 642.36 728.108 687.16C707.116 707.872 680.523 721.99 651.606 727.775C625.214 732.426 600.566 727.388 584.134 711.498C551.541 680.107 563.129 618.099 609.945 573.26C630.942 552.562 657.534 538.458 686.447 532.683C712.839 528.072 737.448 533.11 753.919 548.96ZM716.947 676.425C736.324 657.978 748.144 635.926 751.826 615.348C755.275 595.389 750.974 576.864 737.952 564.307C724.93 551.751 704.623 547.333 683.23 551.092C659.801 555.819 638.255 567.265 621.222 584.034C601.845 602.481 590.218 624.532 586.343 645.111C582.855 665.031 587.157 683.595 600.178 696.151C613.2 708.708 633.508 713.126 654.9 709.328C678.333 704.633 699.884 693.198 716.908 676.425" fill="#F4CB78"/>
<path d="M751.743 615.346C748.139 635.925 736.241 657.976 716.864 676.424C699.845 693.203 678.292 704.64 654.856 709.327C633.463 713.202 613.504 709.016 600.134 696.15C586.764 683.283 582.811 665.146 586.299 645.11C591.235 621.598 603.437 600.232 621.178 584.032C638.21 567.264 659.756 555.818 683.186 551.09C704.578 547.215 724.576 551.439 737.946 564.306C751.317 577.172 755.231 595.387 751.743 615.346Z" fill="#4B9583"/>
<path d="M757.056 552.253L769.263 566.011C797.903 598.294 785.54 657.627 740.313 700.955C719.297 721.634 692.714 735.747 663.811 741.57C637.419 746.221 612.81 741.144 596.339 725.293C595.254 724.26 594.208 723.175 593.2 722.038L580.992 708.241C582 709.378 583.046 710.463 584.131 711.497C600.563 727.386 625.211 732.424 651.604 727.774C680.52 721.988 707.113 707.87 728.106 687.159C773.333 643.869 785.695 584.497 757.056 552.253Z" fill="#4B9583"/>
<path d="M633.085 731.418C612.855 731.418 595.416 725.062 582.704 712.893C576.361 706.549 571.391 698.968 568.104 690.62C564.817 682.273 563.283 673.338 563.598 664.372C563.598 633.368 580.456 598.76 608.554 571.864C629.828 550.901 656.772 536.621 686.063 530.784C714.277 525.785 738.847 531.753 755.241 547.565C761.58 553.912 766.547 561.494 769.834 569.841C773.121 578.188 774.657 587.121 774.347 596.086C774.347 627.09 757.488 661.698 729.43 688.555C708.155 709.525 681.213 723.818 651.92 729.674C645.706 730.811 639.403 731.395 633.085 731.418ZM704.937 532.916C698.854 532.95 692.786 533.507 686.8 534.582C658.274 540.268 632.032 554.17 611.305 574.577C584.177 600.737 567.628 634.298 567.551 664.295C567.241 672.738 568.67 681.154 571.751 689.021C574.831 696.888 579.496 704.038 585.456 710.025C600.958 724.946 624.21 730.527 651.339 725.799C679.883 720.093 706.129 706.148 726.833 685.687C754.194 659.528 770.51 626.005 770.588 596.009C770.898 587.566 769.468 579.15 766.388 571.283C763.308 563.415 758.643 556.266 752.683 550.278C739.655 538.462 722.512 532.228 704.937 532.916Z" fill="#1A1A1A"/>
<path d="M639.899 712.661C624.754 713.201 610.003 707.774 598.819 697.547C585.798 684.952 580.682 666.233 584.402 644.763C588.123 623.293 600.796 600.776 619.786 582.755C637.075 565.694 658.981 554.067 682.801 549.31C705.821 545.434 725.858 550.123 739.228 563.029C752.599 575.934 757.404 594.343 753.645 615.774C749.886 637.206 737.252 659.8 718.262 677.782C700.963 694.83 679.061 706.455 655.246 711.227C650.182 712.15 645.047 712.63 639.899 712.661ZM698.032 551.674C693.106 551.701 688.191 552.154 683.344 553.03C660.312 557.66 639.136 568.921 622.421 585.429C604.051 603.024 591.882 624.184 588.2 645.46C584.674 665.574 589.402 683.091 601.455 694.757C613.507 706.422 632.807 711.266 654.549 707.429C677.561 702.776 698.718 691.517 715.433 675.03C733.802 657.436 745.972 636.275 749.653 614.999C753.18 594.846 748.452 577.368 736.399 565.703C725.97 556.21 712.241 551.174 698.148 551.674H698.032Z" fill="#1A1A1A"/>
<path d="M639.899 712.661C624.754 713.201 610.003 707.774 598.819 697.547C585.798 684.952 580.682 666.233 584.402 644.763C588.123 623.293 600.796 600.776 619.786 582.755C637.075 565.694 658.981 554.067 682.801 549.31C705.821 545.434 725.858 550.123 739.228 563.029C752.289 575.585 757.404 594.343 753.645 615.774C749.886 637.206 737.252 659.8 718.262 677.782C700.963 694.83 679.061 706.455 655.246 711.227C650.182 712.15 645.047 712.63 639.899 712.661ZM698.032 551.674C693.106 551.701 688.191 552.154 683.344 553.03C660.312 557.66 639.136 568.921 622.421 585.429C604.051 603.024 591.882 624.184 588.2 645.46C584.674 665.574 589.402 683.091 601.455 694.757C613.507 706.422 632.807 711.266 654.549 707.429C677.561 702.776 698.718 691.517 715.433 675.03C733.802 657.436 745.972 636.275 749.653 614.999C753.18 594.885 748.452 577.368 736.399 565.703C725.97 556.21 712.241 551.174 698.148 551.674H698.032Z" fill="#1A1A1A"/>
<path d="M645.3 745.1C625.07 745.1 607.631 738.783 594.919 726.614C593.795 725.529 592.71 724.405 591.702 723.243L579.805 709.601C579.623 709.421 579.479 709.206 579.38 708.97C579.282 708.734 579.231 708.481 579.231 708.225C579.231 707.969 579.282 707.716 579.38 707.48C579.479 707.244 579.623 707.029 579.805 706.849C580.173 706.492 580.667 706.292 581.18 706.292C581.694 706.292 582.187 706.492 582.556 706.849C583.525 707.934 584.533 708.942 585.579 709.95C601.081 724.87 624.334 730.451 651.462 725.723C680.006 720.017 706.253 706.072 726.957 685.612C771.292 643.214 783.965 585.12 755.829 553.419C755.648 553.239 755.503 553.024 755.405 552.788C755.307 552.552 755.256 552.299 755.256 552.043C755.256 551.787 755.307 551.534 755.405 551.298C755.503 551.062 755.648 550.847 755.829 550.667C756.191 550.312 756.678 550.113 757.186 550.113C757.693 550.113 758.18 550.312 758.542 550.667L770.75 564.425C800.281 597.716 787.492 658.173 741.684 702.044C720.399 723.001 693.462 737.291 664.174 743.163C657.95 744.349 651.635 744.997 645.3 745.1ZM596.857 722.971C597.128 723.243 597.399 723.553 597.709 723.824C613.211 738.745 636.464 744.325 663.593 739.558C692.136 733.843 718.389 719.915 739.126 699.486C782.376 658.057 795.475 601.707 769.897 569.541C782.996 603.839 767.766 651.934 729.592 688.48C708.317 709.45 681.375 723.742 652.082 729.598C630.922 733.474 611.932 731.032 596.857 723.049V722.971Z" fill="#1A1A1A"/>
<path d="M655.978 685.107H643.887C643.657 685.138 643.423 685.103 643.213 685.005C643.003 684.907 642.825 684.75 642.702 684.553C642.579 684.357 642.516 684.128 642.52 683.897C642.524 683.665 642.595 683.439 642.724 683.246L646.251 675.263C637.134 674.961 628.193 672.673 620.052 668.558C619.355 668.171 619.316 667.24 620.052 666.349L634.043 647.902C634.491 647.353 635.081 646.938 635.748 646.7C636.011 646.584 636.294 646.524 636.581 646.524C636.868 646.524 637.152 646.584 637.415 646.7C640.511 648.595 643.885 649.994 647.413 650.847C650.373 651.588 653.376 652.144 656.405 652.514L663.148 637.283H662.567C655.578 635.768 649.451 631.6 645.476 625.657C644.021 622.785 643.282 619.604 643.322 616.385C643.363 613.166 644.181 610.005 645.708 607.17C649.378 599.076 655.454 592.309 663.109 587.793C670.918 583.093 679.689 580.218 688.765 579.383L693.609 568.377C693.875 567.845 694.276 567.393 694.773 567.066C695.27 566.739 695.845 566.55 696.438 566.517H708.53C709.654 566.517 710.158 567.369 709.692 568.416L704.848 579.383C712.621 580.205 720.161 582.521 727.055 586.204C727.83 586.63 727.83 587.677 727.055 588.568L711.553 606.434C711.074 606.966 710.457 607.355 709.77 607.558C709.505 607.646 709.224 607.671 708.948 607.631C708.672 607.59 708.409 607.486 708.181 607.325C704.192 604.429 699.489 602.674 694.578 602.249L688.416 616.588C695.249 617.886 701.301 621.809 705.274 627.517C706.733 630.368 707.47 633.533 707.423 636.735C707.376 639.938 706.545 643.08 705.003 645.887C701.346 654.114 695.348 661.082 687.757 665.923C680.089 670.768 671.424 673.816 662.412 674.836L658.536 683.246C658.297 683.744 657.938 684.174 657.492 684.499C657.045 684.824 656.525 685.033 655.978 685.107ZM647.568 681.231H655.668L659.272 673.092C659.514 672.597 659.874 672.168 660.32 671.844C660.766 671.52 661.284 671.31 661.83 671.232C670.512 670.498 678.894 667.708 686.285 663.094C692.858 658.939 698.03 652.903 701.128 645.77C702.467 643.364 703.186 640.662 703.22 637.908C703.253 635.154 702.601 632.436 701.321 629.997C697.668 624.778 692.093 621.224 685.819 620.115L684.308 619.727C684.124 619.678 683.954 619.587 683.812 619.459C683.67 619.332 683.561 619.173 683.493 618.995C683.424 618.817 683.399 618.626 683.42 618.436C683.441 618.247 683.506 618.065 683.61 617.906L691.555 600.001C691.828 599.415 692.274 598.928 692.834 598.606C693.34 598.244 693.96 598.079 694.578 598.141C700.043 598.486 705.352 600.105 710.08 602.869L722.21 588.723C715.493 585.48 708.22 583.547 700.779 583.026C700.561 583.019 700.349 582.954 700.164 582.838C699.979 582.723 699.828 582.561 699.726 582.368C699.624 582.175 699.574 581.959 699.582 581.742C699.59 581.524 699.655 581.312 699.771 581.127L704.577 570.315H696.477L691.671 581.127C691.426 581.635 691.055 582.072 690.594 582.397C690.133 582.723 689.597 582.926 689.036 582.987C680.267 583.545 671.76 586.203 664.233 590.738C657.688 594.551 652.508 600.327 649.429 607.248C648.109 609.688 647.418 612.419 647.418 615.193C647.418 617.967 648.109 620.697 649.429 623.137C653.083 628.457 658.626 632.184 664.931 633.563L666.83 634.066C667.011 634.12 667.176 634.215 667.314 634.344C667.451 634.473 667.556 634.633 667.62 634.81C667.684 634.988 667.706 635.178 667.683 635.365C667.66 635.552 667.593 635.731 667.488 635.888L659.195 654.606C658.927 655.183 658.495 655.668 657.955 656.002C657.435 656.333 656.826 656.495 656.211 656.467C652.287 656.154 648.397 655.506 644.584 654.529C641.409 653.788 638.346 652.629 635.477 651.08L624.315 665.807C632.285 669.511 640.951 671.48 649.739 671.581C650.785 671.581 651.25 672.434 650.824 673.441L647.568 681.231Z" fill="#1A1A1A"/>
<path d="M674.27 616.51C674.052 616.55 673.829 616.55 673.611 616.51C671.578 615.815 669.842 614.448 668.689 612.635C668.331 611.757 668.176 610.809 668.236 609.863C668.297 608.916 668.571 607.996 669.038 607.17C670.246 604.699 672.073 602.583 674.341 601.028C676.609 599.473 679.242 598.531 681.982 598.295C682.236 598.215 682.507 598.205 682.767 598.266C683.026 598.328 683.264 598.458 683.455 598.644C683.592 598.865 683.665 599.12 683.665 599.381C683.665 599.641 683.592 599.896 683.455 600.117L676.983 614.689C676.656 615.366 676.109 615.912 675.432 616.239C675.065 616.4 674.671 616.492 674.27 616.51ZM678.455 602.597C677.267 602.894 676.161 603.456 675.222 604.241C674.282 605.026 673.532 606.015 673.03 607.132C672.769 607.58 672.613 608.08 672.573 608.597C672.533 609.114 672.609 609.633 672.797 610.116C673.19 610.779 673.752 611.328 674.425 611.705L678.455 602.597Z" fill="#1A1A1A"/>
<path d="M668.922 655.691C668.692 655.723 668.458 655.688 668.248 655.59C668.038 655.492 667.86 655.335 667.737 655.138C667.614 654.941 667.551 654.713 667.555 654.481C667.559 654.249 667.63 654.023 667.759 653.831L674.037 639.647C674.379 638.967 674.939 638.421 675.626 638.096C675.931 637.959 676.261 637.889 676.595 637.889C676.929 637.889 677.259 637.959 677.564 638.096C678.531 638.415 679.426 638.922 680.197 639.587C680.969 640.252 681.602 641.062 682.06 641.972C682.508 643.889 682.232 645.904 681.285 647.63C680.144 649.868 678.469 651.789 676.406 653.223C674.344 654.656 671.959 655.557 669.464 655.846L668.922 655.691ZM676.673 642.631L672.797 651.157C673.756 650.859 674.639 650.359 675.388 649.69C676.137 649.022 676.734 648.2 677.138 647.281C677.734 646.237 677.94 645.014 677.719 643.832C677.486 643.344 677.124 642.929 676.673 642.631Z" fill="#1A1A1A"/>
<path d="M642.612 178.579C596.623 178.297 550.707 174.866 505.187 168.309C504.937 168.271 504.696 168.184 504.479 168.051C504.263 167.919 504.075 167.745 503.927 167.539C503.779 167.333 503.673 167.1 503.617 166.853C503.56 166.605 503.554 166.349 503.598 166.1C503.684 165.595 503.962 165.143 504.374 164.84C504.786 164.536 505.3 164.404 505.807 164.472C507.28 164.704 653.502 187.337 746.398 164.472C746.896 164.355 747.42 164.441 747.856 164.709C748.292 164.978 748.603 165.408 748.723 165.906C748.792 166.15 748.811 166.406 748.777 166.658C748.744 166.91 748.659 167.152 748.528 167.37C748.398 167.588 748.224 167.777 748.017 167.925C747.811 168.073 747.576 168.177 747.328 168.231C715.936 175.982 678.499 178.579 642.612 178.579Z" fill="#1A1A1A"/>
<path d="M423.921 299.067C423.436 299.079 422.965 298.905 422.605 298.58C422.245 298.256 422.022 297.807 421.983 297.323C421.983 296.471 415.511 212.063 485.269 195.592C485.768 195.475 486.292 195.561 486.728 195.829C487.163 196.098 487.475 196.528 487.595 197.026C487.658 197.273 487.671 197.53 487.632 197.782C487.594 198.034 487.505 198.276 487.371 198.493C487.237 198.71 487.061 198.898 486.853 199.045C486.645 199.193 486.41 199.297 486.161 199.351C419.657 215.163 425.781 296.238 425.858 296.975C425.879 297.229 425.85 297.486 425.772 297.729C425.694 297.972 425.568 298.197 425.402 298.392C425.237 298.586 425.034 298.746 424.806 298.862C424.579 298.978 424.33 299.048 424.076 299.067H423.921Z" fill="#1A1A1A"/>
</svg>
