<svg width="639" height="577" viewBox="0 0 639 577" fill="none" xmlns="http://www.w3.org/2000/svg">
<path d="M259.842 429.379L146.798 485.428L148.741 462.74L227.679 379.934L259.842 429.379Z" fill="#1F324F"/>
<path d="M154.271 331.364L412.904 570.474C415.705 573.063 419.112 574.918 422.816 575.871C426.52 576.824 430.404 576.845 434.118 575.932C437.832 575.019 441.259 573.201 444.088 570.643C446.918 568.084 449.062 564.865 450.325 561.276L637.185 30.437C638.565 26.5129 638.845 22.2892 637.992 18.2194C637.139 14.1496 635.187 10.3874 632.345 7.33697C629.503 4.28651 625.878 2.06298 621.86 0.905109C617.842 -0.252767 613.583 -0.301222 609.539 0.764946L17.5293 157.106C13.5513 158.158 9.92975 160.25 7.04159 163.165C4.15342 166.079 2.10426 169.71 1.10737 173.679C0.110473 177.647 0.202383 181.809 1.37338 185.731C2.54438 189.652 4.75166 193.19 7.76561 195.976L154.271 331.364Z" fill="#1F283D"/>
<path d="M557.866 76.0581L227.013 398.59L148.434 484.126C147.157 485.478 145.476 486.385 143.64 486.711C141.803 487.037 139.91 486.766 138.242 485.937C136.573 485.108 135.218 483.765 134.379 482.11C133.54 480.454 133.261 478.574 133.584 476.748L155.636 332.655L557.866 76.0581Z" fill="#2F4160"/>
</svg>
