<svg width="2989" height="3482" viewBox="0 0 2989 3482" fill="none" xmlns="http://www.w3.org/2000/svg">
<path fill-rule="evenodd" clip-rule="evenodd" d="M1465.53 20.631C1494.04 16.363 1520.61 36.0149 1524.88 64.5248C1548.89 224.916 1536.04 355.795 1494.18 463.661C1452.21 571.807 1382.57 652.992 1299.31 716.12C1162.5 819.855 983.465 877.671 826.33 928.414C796.488 938.051 767.436 947.433 739.613 956.825C581.481 1010.21 471.357 1165.92 462.202 1337.49C453.261 1505.07 541.338 1692.25 792.034 1805.98C818.287 1817.89 829.914 1848.82 818.004 1875.07C806.095 1901.33 775.158 1912.95 748.906 1901.04C462.494 1771.11 346.53 1546.08 357.956 1331.93C369.17 1121.77 503.824 926.243 706.222 857.916C736.898 847.56 767.909 837.499 798.962 827.424C956.406 776.345 1114.93 724.916 1236.24 632.935C1307 579.283 1363.09 512.903 1396.85 425.892C1430.73 338.601 1443.61 226.733 1421.64 79.9807C1417.37 51.4709 1437.02 24.8991 1465.53 20.631Z" fill="#7BD198"/>
<path fill-rule="evenodd" clip-rule="evenodd" d="M642.261 1755.09C639.471 1783.78 660.469 1809.3 689.161 1812.09C842.87 1827.04 969.84 1805.88 1075.79 1757.14C1181.63 1708.45 1263.15 1633.78 1328.4 1546.74C1436.16 1403 1503.08 1219.49 1562.43 1056.75C1573.74 1025.74 1584.78 995.485 1595.76 966.404C1659.52 797.659 1820.13 675.873 1984.63 656.447C2065.89 646.852 2147.34 662.254 2219.34 708.413C2291.36 754.583 2357.52 833.865 2403.82 958.055C2413.89 985.067 2443.95 998.801 2470.96 988.731C2497.97 978.661 2511.71 948.601 2501.64 921.589C2448.92 780.192 2370.01 681.001 2275.68 620.528C2181.33 560.045 2075.18 540.635 1972.38 552.774C1768.78 576.817 1575.5 724.683 1498.11 929.505C1486.2 961.025 1474.52 992.953 1462.8 1025C1403.18 1187.99 1342.47 1353.94 1244.88 1484.12C1187.59 1560.53 1118.9 1622.4 1032.16 1662.3C945.523 1702.16 837.549 1721.63 699.265 1708.19C670.572 1705.4 645.051 1726.39 642.261 1755.09Z" fill="#7BD198"/>
<path fill-rule="evenodd" clip-rule="evenodd" d="M1613.74 725.427C1588.23 712.011 1556.67 721.819 1543.25 747.334C1448.05 928.373 1410.32 1091.14 1416.33 1239.54C1422.34 1388.01 1471.97 1518.18 1545.31 1634.17C1666.61 1826.02 1857.12 1984.25 2027.41 2125.7C2059.94 2152.72 2091.73 2179.13 2122.16 2205.04C2300.19 2356.63 2370.65 2610.4 2309.1 2828.13C2248.92 3041.02 2060.23 3225.51 1703.53 3236.24C1674.71 3237.11 1652.06 3261.17 1652.93 3289.99C1653.79 3318.8 1677.85 3341.46 1706.67 3340.59C2105.04 3328.6 2335.97 3116.86 2409.56 2856.53C2481.78 2601.05 2400.15 2304.62 2189.84 2125.55C2157.28 2097.83 2124.03 2070.16 2090.61 2042.35C1920.16 1900.53 1745.16 1754.9 1633.54 1578.38C1567.9 1474.57 1525.76 1361.95 1520.64 1235.32C1515.51 1108.62 1547.28 963.967 1635.65 795.919C1649.06 770.404 1639.26 738.844 1613.74 725.427Z" fill="#7BD198"/>
</svg>
