<svg width="1873" height="2132" viewBox="0 0 1873 2132" fill="none" xmlns="http://www.w3.org/2000/svg">
<path d="M1867.42 523.707C1865.36 492.099 1854.87 461.618 1837.06 435.428C1819.24 409.238 1794.74 388.293 1766.1 374.767L1012.28 17.1092C988.53 5.84426 962.573 0 936.289 0C910.004 0 884.047 5.84426 860.299 17.1092L106.312 375.105C77.6691 388.631 53.1683 409.575 35.3519 435.765C17.5355 461.955 7.05286 492.437 4.99228 524.045C-65.7626 1617.12 635.201 2015.47 864.858 2116.11C887.413 2125.97 911.76 2131.05 936.373 2131.05C960.986 2131.05 985.333 2125.97 1007.89 2116.11C1237.21 2015.81 1938.17 1617.45 1867.42 523.707Z" fill="#006838"/>
<path d="M1685.21 566.94C1684.76 558.945 1682.17 551.218 1677.72 544.565C1673.26 537.912 1667.11 532.576 1659.89 529.114L955.545 194.421C949.613 191.588 943.122 190.117 936.547 190.117C929.973 190.117 923.482 191.588 917.55 194.421L212.534 529.114C205.314 532.576 199.155 537.912 194.7 544.565C190.244 551.218 187.656 558.945 187.204 566.94C166.434 974.751 260.661 1315.02 467.353 1578.78C587.496 1731.8 741.636 1854.72 917.55 1937.79C923.447 1940.54 929.873 1941.97 936.378 1941.97C942.884 1941.97 949.311 1940.54 955.207 1937.79C1131.12 1854.72 1285.26 1731.8 1405.4 1578.78C1611.76 1315.02 1705.99 974.751 1685.21 566.94Z" fill="#7BD198"/>
<path d="M941.917 1293.68C1072.88 1153.54 1199.32 1058.48 1358.14 923.872C1405.69 883.58 1413.04 812.948 1375.75 762.919C1336.11 709.717 1260.78 699.068 1209.84 741.36C1064.36 862.021 951.175 978.247 843.815 1102.38C838.165 1108.9 835.339 1112.16 832.427 1113.99C828.829 1116.29 824.653 1117.52 820.384 1117.54C816.115 1117.57 811.927 1116.38 808.304 1114.12C805.348 1112.34 802.523 1109.12 796.872 1102.73L739.672 1037.97C727.535 1024.18 712.381 1013.37 695.387 1006.39C678.394 999.41 660.019 996.444 641.692 997.723C623.365 999.001 605.58 1004.49 589.72 1013.76C573.861 1023.03 560.353 1035.84 550.249 1051.18C535.422 1073.59 528.457 1100.29 530.448 1127.08C532.438 1153.88 543.271 1179.25 561.246 1199.23L650.959 1298.76C718.026 1373.17 751.581 1410.42 791.874 1410.77C832.123 1411.12 868.721 1372 941.917 1293.68Z" fill="white"/>
</svg>
