<svg width="699" height="887" viewBox="0 0 699 887" fill="none" xmlns="http://www.w3.org/2000/svg">
<path d="M340.872 112.534H330.073C329.665 112.534 329.273 112.373 328.985 112.085C328.696 111.798 328.534 111.408 328.534 111.001V103.338C319.494 102.98 310.605 100.899 302.351 97.2066C302.015 97.0579 301.745 96.792 301.592 96.4589C301.439 96.1258 301.414 95.7485 301.52 95.3979L306.72 77.9246C306.788 77.706 306.903 77.5048 307.057 77.3354C307.211 77.1659 307.401 77.0321 307.612 76.9436C307.819 76.8456 308.045 76.7947 308.274 76.7947C308.503 76.7947 308.729 76.8456 308.935 76.9436C312.299 78.6718 315.865 79.9794 319.55 80.8368C322.509 81.5537 325.509 82.0861 328.534 82.4309V67.4712L327.765 67.2566C320.36 65.5124 313.567 61.805 308.105 56.5274C303.557 51.8944 301.035 45.6565 301.09 39.1766C300.992 35.7723 301.64 32.3877 302.99 29.2587C304.34 26.1297 306.358 23.3316 308.905 21.0595C314.444 16.412 321.313 13.623 328.534 13.0892V2.45194C328.534 2.04543 328.696 1.65557 328.985 1.36812C329.273 1.08067 329.665 0.919189 330.073 0.919189H340.872C341.28 0.919189 341.672 1.08067 341.96 1.36812C342.249 1.65557 342.411 2.04543 342.411 2.45194V13.0892C350.245 13.8809 357.896 15.9522 365.056 19.2202C365.411 19.3874 365.689 19.6838 365.832 20.0487C365.975 20.4136 365.972 20.8191 365.825 21.1822L359.241 38.165C359.155 38.3783 359.023 38.5693 358.852 38.7234C358.681 38.8775 358.477 38.9906 358.256 39.054C358.037 39.1316 357.802 39.1554 357.572 39.1234C357.342 39.0914 357.122 39.0045 356.933 38.8701C352.513 36.2012 347.552 34.5466 342.411 34.0266V48.1586H342.749C349.994 49.7129 356.656 53.2601 361.979 58.3973C364.256 60.6733 366.05 63.3822 367.255 66.3629C368.46 69.3435 369.051 72.5352 368.994 75.7481C369.134 79.228 368.55 82.6991 367.28 85.9435C366.009 89.1879 364.078 92.1354 361.61 94.6009C356.279 99.3883 349.552 102.353 342.411 103.062V111.216C342.358 111.584 342.174 111.921 341.89 112.164C341.607 112.406 341.246 112.538 340.872 112.534ZM331.642 109.469H339.365V101.498C339.369 101.127 339.509 100.77 339.758 100.494C340.007 100.218 340.348 100.041 340.718 99.9962C347.667 99.5162 354.263 96.7689 359.487 92.1792C361.623 90.0193 363.294 87.4484 364.4 84.6233C365.506 81.7983 366.022 78.7785 365.917 75.7481C365.961 72.9511 365.439 70.174 364.382 67.5826C363.324 64.9913 361.754 62.6388 359.764 60.6658C354.859 55.9292 348.719 52.6581 342.041 51.2241L340.503 50.8255C340.169 50.749 339.872 50.5616 339.659 50.2941C339.447 50.0267 339.332 49.6952 339.334 49.3541V32.3406C339.332 32.1249 339.378 31.9115 339.469 31.7155C339.559 31.5195 339.692 31.3456 339.857 31.2063C340.017 31.059 340.207 30.9472 340.414 30.8785C340.621 30.8098 340.84 30.7857 341.057 30.8078C346.634 31.2653 352.063 32.8287 357.025 35.4061L362.44 21.4887C355.56 18.4902 348.232 16.6365 340.749 16.0014C340.363 15.9706 340.002 15.7955 339.74 15.5114C339.478 15.2272 339.333 14.8548 339.334 14.4687V3.98469H331.611V14.438C331.613 14.8193 331.472 15.1877 331.216 15.4711C330.96 15.7545 330.607 15.9327 330.227 15.9708C323.17 16.249 316.401 18.8346 310.966 23.328C308.729 25.2991 306.958 27.7404 305.782 30.4758C304.607 33.2111 304.055 36.1724 304.166 39.146C304.103 41.9821 304.616 44.8016 305.673 47.4355C306.73 50.0694 308.311 52.4633 310.32 54.4735C315.405 59.338 321.705 62.757 328.565 64.3751L330.442 64.8655C330.772 64.9541 331.064 65.1499 331.27 65.422C331.476 65.694 331.585 66.0268 331.58 66.3676V84.0249C331.581 84.237 331.538 84.4468 331.453 84.6413C331.368 84.8357 331.243 85.0105 331.087 85.1545C330.931 85.2986 330.747 85.4088 330.546 85.4782C330.344 85.5476 330.131 85.5746 329.919 85.5577C326.176 85.2359 322.463 84.6313 318.812 83.749C315.47 82.9723 312.221 81.8419 309.12 80.377L304.813 94.8461C312.844 98.1996 321.43 100.039 330.134 100.272C330.532 100.288 330.907 100.456 331.183 100.742C331.458 101.028 331.611 101.409 331.611 101.805L331.642 109.469Z" fill="#1A1A1A"/>
<path d="M330.07 47.6671H329.516C327.338 46.9393 325.351 45.7347 323.701 44.1417C322.456 42.7096 321.817 40.8528 321.916 38.961C321.916 35.8955 323.27 32.125 329.762 30.7455C329.987 30.7034 330.218 30.7089 330.441 30.7617C330.664 30.8145 330.873 30.9134 331.054 31.052C331.225 31.2018 331.363 31.3855 331.458 31.5914C331.554 31.7973 331.605 32.0208 331.608 32.2476V46.0423C331.611 46.296 331.551 46.5464 331.433 46.7711C331.315 46.9958 331.142 47.1878 330.931 47.3298C330.69 47.5353 330.387 47.654 330.07 47.6671ZM328.531 34.3628C327.507 34.6187 326.6 35.2124 325.958 36.0473C325.315 36.8822 324.975 37.9091 324.993 38.961C324.922 40.0752 325.285 41.1737 326.008 42.0265C326.729 42.7648 327.586 43.358 328.531 43.7739V34.3628Z" fill="#1A1A1A"/>
<path d="M340.879 84.9437C340.545 84.9508 340.219 84.8425 339.956 84.6372C339.769 84.4913 339.616 84.3055 339.509 84.0933C339.403 83.8812 339.345 83.6481 339.341 83.411V69.8308C339.342 69.5797 339.405 69.3329 339.525 69.1118C339.644 68.8908 339.816 68.7023 340.026 68.5631C340.235 68.4238 340.476 68.338 340.727 68.3132C340.978 68.2883 341.231 68.3253 341.464 68.4207C343.575 69.0788 345.461 70.3102 346.91 71.9766C347.954 73.5104 348.482 75.3355 348.417 77.188C348.417 79.7937 347.156 83.319 341.279 84.7598L340.879 84.9437ZM342.418 72.3752V81.2958C343.296 81.0662 344.074 80.5542 344.63 79.8391C345.186 79.124 345.49 78.246 345.494 77.3413C345.598 76.292 345.354 75.2378 344.798 74.3406C344.242 73.4434 343.406 72.7528 342.418 72.3752Z" fill="#1A1A1A"/>
<path d="M433.607 112.534H422.746C422.338 112.534 421.947 112.373 421.658 112.085C421.37 111.798 421.208 111.408 421.208 111.001V103.338C412.177 102.977 403.3 100.895 395.055 97.2066C394.719 97.0579 394.449 96.792 394.296 96.4589C394.143 96.1258 394.118 95.7485 394.225 95.398L399.455 77.9246C399.511 77.7051 399.618 77.5019 399.768 77.3315C399.918 77.1611 400.106 77.0282 400.317 76.9436C400.523 76.8456 400.749 76.7947 400.978 76.7947C401.207 76.7947 401.433 76.8456 401.64 76.9436C405.012 78.6768 408.588 79.9846 412.285 80.8368C415.233 81.5562 418.223 82.0886 421.239 82.4309V67.4712L420.469 67.2566C413.065 65.5124 406.271 61.8051 400.809 56.5274C396.262 51.8944 393.74 45.6565 393.794 39.1766C393.696 35.7723 394.345 32.3877 395.694 29.2587C397.044 26.1297 399.062 23.3316 401.609 21.0595C407.151 16.4175 414.018 13.6292 421.239 13.0892V2.45194C421.239 2.04543 421.401 1.65557 421.689 1.36812C421.978 1.08067 422.369 0.919189 422.777 0.919189H433.607C434.015 0.919189 434.406 1.08067 434.695 1.36812C434.983 1.65557 435.145 2.04543 435.145 2.45194V13.0892C442.97 13.8809 450.611 15.9523 457.76 19.2202C458.116 19.3876 458.396 19.6823 458.544 20.0457C458.692 20.4091 458.698 20.8148 458.56 21.1822L451.945 38.165C451.86 38.3783 451.727 38.5693 451.556 38.7234C451.385 38.8775 451.181 38.9906 450.96 39.054C450.746 39.1316 450.516 39.1554 450.291 39.1233C450.065 39.0912 449.851 39.0043 449.668 38.8701C445.211 36.2192 440.22 34.5859 435.053 34.0879V48.1586H435.392C442.639 49.7051 449.303 53.2534 454.621 58.3973C456.909 60.6682 458.715 63.3748 459.931 66.3557C461.146 69.3366 461.748 72.5308 461.698 75.7481C461.838 79.228 461.254 82.6991 459.984 85.9435C458.713 89.1879 456.782 92.1354 454.314 94.6009C448.954 99.3668 442.205 102.299 435.053 102.97V111.124C435.024 111.494 434.861 111.84 434.596 112.099C434.33 112.359 433.979 112.513 433.607 112.534ZM424.377 109.469H431.976V101.498C431.981 101.127 432.121 100.77 432.37 100.494C432.619 100.218 432.96 100.041 433.33 99.9962C440.268 99.5096 446.852 96.7628 452.068 92.1792C454.242 90.0012 455.939 87.3972 457.052 84.5319C458.164 81.6666 458.667 78.6025 458.529 75.5335C458.573 72.7366 458.051 69.9594 456.994 67.3681C455.936 64.7767 454.366 62.4242 452.375 60.4512C447.47 55.8077 441.367 52.6132 434.746 51.2241L433.207 50.8256C432.877 50.7481 432.583 50.5595 432.375 50.2915C432.168 50.0235 432.06 49.6924 432.069 49.3541V32.3406C432.069 32.1281 432.113 31.918 432.198 31.7229C432.282 31.5279 432.406 31.3522 432.561 31.2063C432.723 31.0622 432.913 30.9524 433.12 30.8839C433.326 30.8154 433.544 30.7895 433.761 30.8078C439.338 31.2653 444.767 32.8287 449.729 35.4061L455.144 21.4887C448.312 18.5063 441.038 16.653 433.607 16.0015C433.394 16.0191 433.179 15.9912 432.977 15.9197C432.776 15.8482 432.592 15.7348 432.437 15.5869C432.283 15.439 432.162 15.26 432.083 15.0619C432.003 14.8638 431.967 14.6512 431.976 14.4381V3.98469H424.223V14.4381C424.232 14.8213 424.094 15.1936 423.836 15.4785C423.579 15.7635 423.222 15.9396 422.838 15.9708C415.782 16.249 409.013 18.8346 403.578 23.328C401.341 25.2991 399.57 27.7404 398.394 30.4758C397.218 33.2111 396.666 36.1724 396.778 39.146C396.722 41.9812 397.238 44.7987 398.295 47.4316C399.352 50.0645 400.929 52.4591 402.932 54.4735C408.017 59.338 414.317 62.757 421.177 64.3751L423.054 64.8656C423.384 64.9542 423.676 65.1499 423.882 65.422C424.088 65.694 424.197 66.0268 424.192 66.3676V84.0249C424.196 84.238 424.153 84.4493 424.069 84.6448C423.984 84.8404 423.858 85.0157 423.7 85.1592C423.541 85.2995 423.356 85.407 423.156 85.4754C422.955 85.5439 422.742 85.5718 422.531 85.5577C418.788 85.2336 415.075 84.629 411.424 83.749C408.092 82.9723 404.853 81.8418 401.763 80.377L397.424 94.8462C405.457 98.1962 414.042 100.036 422.746 100.272C423.143 100.288 423.519 100.456 423.794 100.742C424.07 101.028 424.223 101.409 424.223 101.805L424.377 109.469Z" fill="#1A1A1A"/>
<path d="M422.751 47.667H422.197C420.019 46.9392 418.032 45.7346 416.382 44.1416C415.182 42.7565 414.545 40.974 414.598 39.1449C414.598 36.0794 415.982 32.3088 422.443 30.9293C422.668 30.8872 422.9 30.8927 423.122 30.9455C423.345 30.9984 423.554 31.0973 423.736 31.2359C423.907 31.3856 424.044 31.5693 424.14 31.7752C424.235 31.9811 424.286 32.2047 424.29 32.4314V46.2262C424.292 46.4798 424.232 46.7302 424.114 46.9549C423.996 47.1797 423.824 47.3716 423.613 47.5137C423.349 47.6542 423.047 47.7078 422.751 47.667ZM421.213 34.3627C420.194 34.6245 419.294 35.2207 418.658 36.0551C418.021 36.8894 417.686 37.9131 417.705 38.9609C417.634 40.0751 417.997 41.1736 418.721 42.0264C419.448 42.7569 420.303 43.349 421.244 43.7738L421.213 34.3627Z" fill="#1A1A1A"/>
<path d="M433.612 84.9439C433.268 84.9507 432.933 84.8428 432.658 84.6374C432.474 84.4899 432.326 84.3031 432.225 84.0908C432.124 83.8785 432.072 83.6462 432.073 83.4112V69.831C432.074 69.5857 432.134 69.3441 432.246 69.1258C432.358 68.9074 432.52 68.7185 432.719 68.5742C432.943 68.461 433.191 68.4021 433.442 68.4021C433.694 68.4021 433.941 68.461 434.165 68.5742C436.277 69.2324 438.163 70.4637 439.611 72.1301C440.656 73.6639 441.184 75.489 441.119 77.3415C441.119 79.9472 439.888 83.4725 433.981 84.9133L433.612 84.9439ZM435.15 72.3754V81.296C435.997 81.0374 436.736 80.5121 437.258 79.7991C437.779 79.086 438.054 78.2237 438.042 77.3415C438.109 76.1379 437.786 74.9448 437.119 73.9388C436.577 73.2133 435.871 72.6252 435.058 72.2221L435.15 72.3754Z" fill="#1A1A1A"/>
<path d="M526.311 112.534H515.481C515.073 112.534 514.682 112.373 514.393 112.085C514.105 111.798 513.943 111.408 513.943 111.001V103.338C504.902 102.98 496.013 100.899 487.759 97.2066C487.428 97.0528 487.162 96.7862 487.01 96.4547C486.857 96.1233 486.829 95.7486 486.929 95.3979L492.159 77.9246C492.219 77.705 492.328 77.5019 492.479 77.3306C492.629 77.1592 492.817 77.0242 493.027 76.9356C493.237 76.847 493.465 76.8073 493.693 76.8193C493.921 76.8313 494.144 76.8948 494.344 77.0049C497.716 78.7381 501.292 80.0459 504.989 80.8981C507.937 81.6175 510.927 82.1499 513.943 82.4922V67.4712L513.204 67.2566C505.794 65.5269 498.997 61.8175 493.544 56.5274C488.985 51.8993 486.452 45.6609 486.498 39.1766C486.4 35.7723 487.049 32.3877 488.398 29.2587C489.748 26.1297 491.766 23.3316 494.313 21.0595C499.855 16.4174 506.722 13.6292 513.943 13.0892V2.45194C513.943 2.04543 514.105 1.65557 514.393 1.36812C514.682 1.08067 515.073 0.919189 515.481 0.919189H526.311C526.719 0.919189 527.11 1.08067 527.399 1.36812C527.687 1.65557 527.85 2.04543 527.85 2.45194V13.0892C535.675 13.8809 543.315 15.9523 550.464 19.2202C550.82 19.3876 551.1 19.6823 551.248 20.0457C551.396 20.4091 551.402 20.8148 551.264 21.1822L544.649 38.165C544.567 38.375 544.439 38.5639 544.273 38.7178C544.108 38.8717 543.911 38.9866 543.695 39.054C543.476 39.1316 543.241 39.1554 543.011 39.1234C542.781 39.0914 542.561 39.0045 542.372 38.8701C537.95 36.2058 532.99 34.5516 527.85 34.0266V48.1586H528.188C535.442 49.7122 542.114 53.2591 547.449 58.3973C549.71 60.6815 551.49 63.3932 552.684 66.3729C553.878 69.3526 554.462 72.5402 554.402 75.7481C554.55 79.2288 553.969 82.7021 552.698 85.9476C551.427 89.1931 549.493 92.1398 547.018 94.6009C541.695 99.3824 534.98 102.346 527.85 103.062V111.216C527.797 111.584 527.612 111.921 527.329 112.164C527.046 112.406 526.685 112.538 526.311 112.534ZM517.081 109.469H524.834V101.498C524.839 101.127 524.979 100.77 525.228 100.494C525.477 100.218 525.818 100.041 526.188 99.9962C533.126 99.5096 539.71 96.7627 544.926 92.1792C547.1 90.0012 548.797 87.3972 549.91 84.5319C551.022 81.6666 551.525 78.6025 551.387 75.5335C551.426 72.7373 550.901 69.9617 549.844 67.371C548.787 64.7804 547.219 62.4274 545.233 60.4512C540.248 55.785 534.059 52.5905 527.357 51.2241L525.85 50.8255C525.513 50.7543 525.213 50.5683 524.999 50.2996C524.786 50.031 524.673 49.6966 524.681 49.3541V32.3406C524.681 32.1281 524.725 31.918 524.809 31.7229C524.894 31.5279 525.018 31.3522 525.173 31.2063C525.335 31.0622 525.525 30.9524 525.732 30.8839C525.938 30.8154 526.156 30.7895 526.373 30.8078C531.95 31.2653 537.379 32.8287 542.341 35.4061L547.756 21.4887C540.926 18.4996 533.651 16.6459 526.219 16.0014C525.833 15.9706 525.472 15.7955 525.21 15.5114C524.947 15.2272 524.802 14.8548 524.804 14.4687V3.98469H517.05V14.438C517.059 14.8213 516.921 15.1936 516.664 15.4785C516.406 15.7635 516.049 15.9396 515.666 15.9708C508.61 16.2535 501.842 18.8385 496.405 23.328C494.168 25.2991 492.397 27.7404 491.221 30.4758C490.046 33.2111 489.494 36.1724 489.605 39.146C489.549 41.9811 490.065 44.7987 491.122 47.4316C492.179 50.0645 493.756 52.4591 495.759 54.4735C500.849 59.332 507.147 62.7499 514.004 64.3751L515.881 64.8655C516.211 64.9541 516.503 65.1499 516.709 65.422C516.915 65.694 517.024 66.0268 517.019 66.3676V84.0249C517.023 84.238 516.981 84.4493 516.896 84.6448C516.811 84.8404 516.685 85.0157 516.527 85.1592C516.373 85.2971 516.193 85.4034 515.998 85.4718C515.803 85.5402 515.595 85.5694 515.389 85.5577C511.645 85.2384 507.932 84.6337 504.282 83.749C500.938 82.9774 497.689 81.8467 494.59 80.377L490.436 94.8461C498.451 98.2302 507.027 100.101 515.727 100.364C516.119 100.388 516.487 100.559 516.756 100.844C517.025 101.129 517.174 101.506 517.173 101.897L517.081 109.469Z" fill="#1A1A1A"/>
<path d="M515.478 47.6671H514.924C512.746 46.9393 510.759 45.7347 509.109 44.1417C507.873 42.7066 507.244 40.8491 507.355 38.961C507.355 35.8955 508.709 32.125 515.17 30.7455C515.395 30.7034 515.627 30.7089 515.849 30.7617C516.072 30.8145 516.281 30.9134 516.463 31.052C516.638 31.1978 516.779 31.3807 516.875 31.5875C516.971 31.7943 517.019 32.0198 517.016 32.2476V46.0423C517.025 46.2459 516.991 46.4491 516.917 46.639C516.843 46.8289 516.73 47.0013 516.585 47.1454C516.441 47.2895 516.268 47.4021 516.077 47.4761C515.886 47.55 515.682 47.5838 515.478 47.5751V47.6671ZM513.94 34.3628C512.918 34.6196 512.015 35.2145 511.378 36.05C510.741 36.8855 510.407 37.9119 510.432 38.961C510.388 39.5136 510.456 40.0693 510.63 40.5957C510.804 41.122 511.082 41.6085 511.448 42.0265C512.155 42.7663 513.002 43.36 513.94 43.7739V34.3628Z" fill="#1A1A1A"/>
<path d="M526.316 84.9437C525.972 84.9504 525.637 84.8425 525.362 84.6371C525.178 84.4897 525.03 84.3028 524.929 84.0905C524.828 83.8782 524.776 83.6459 524.777 83.4109V69.8308C524.777 69.5818 524.838 69.3366 524.957 69.1172C525.075 68.8978 525.246 68.7111 525.454 68.5739C525.673 68.461 525.916 68.4021 526.162 68.4021C526.408 68.4021 526.651 68.461 526.87 68.5739C528.981 69.2321 530.867 70.4635 532.315 72.1299C533.374 73.6571 533.904 75.4869 533.823 77.3412C533.823 79.9469 532.592 83.4722 526.685 84.913L526.316 84.9437ZM527.854 72.3751V81.2957C528.701 81.0371 529.44 80.5118 529.962 79.7988C530.483 79.0858 530.759 78.2234 530.746 77.3412C530.814 76.1376 530.49 74.9445 529.823 73.9385C529.307 73.224 528.633 72.6367 527.854 72.2218V72.3751Z" fill="#1A1A1A"/>
<path d="M556.635 127.786H302.71V869.634H556.635V127.786Z" fill="#B9FFD5"/>
<path d="M556.629 127.786H513.019V869.634H556.629V127.786Z" fill="#202020"/>
<path d="M556.664 871.286H302.706C302.277 871.278 301.869 871.104 301.566 870.802C301.262 870.5 301.088 870.093 301.08 869.666V127.656C301.088 127.229 301.262 126.822 301.566 126.52C301.869 126.218 302.277 126.044 302.706 126.036H556.664C557.093 126.044 557.502 126.218 557.805 126.52C558.108 126.822 558.282 127.229 558.29 127.656V869.666C558.282 870.093 558.108 870.5 557.805 870.802C557.502 871.104 557.093 871.278 556.664 871.286ZM304.332 868.046H555.038V129.276H304.332V868.046Z" fill="#202020"/>
<path d="M556.658 871.286H513.015C512.586 871.278 512.177 871.104 511.874 870.802C511.571 870.5 511.397 870.093 511.389 869.666V127.656C511.397 127.229 511.571 126.822 511.874 126.52C512.177 126.218 512.586 126.044 513.015 126.036H556.658C557.087 126.044 557.496 126.218 557.799 126.52C558.102 126.822 558.276 127.229 558.284 127.656V869.666C558.276 870.093 558.102 870.5 557.799 870.802C557.496 871.104 557.087 871.278 556.658 871.286ZM514.641 868.046H555.032V129.276H514.641V868.046Z" fill="#202020"/>
<path d="M289.015 410.267H131.564V870.26H289.015V410.267Z" fill="#B9FFD5"/>
<path d="M289.017 410.267H261.976V870.26H289.017V410.267Z" fill="#202020"/>
<path d="M289.039 871.285H131.569C131.303 871.28 131.05 871.172 130.862 870.985C130.674 870.798 130.566 870.545 130.561 870.28V410.186C130.566 409.921 130.674 409.669 130.862 409.482C131.05 409.294 131.303 409.187 131.569 409.182H289.039C289.305 409.187 289.559 409.294 289.746 409.482C289.934 409.669 290.042 409.921 290.048 410.186V870.28C290.042 870.545 289.934 870.798 289.746 870.985C289.559 871.172 289.305 871.28 289.039 871.285ZM132.577 869.276H288.031V411.191H132.577V869.276Z" fill="#202020"/>
<path d="M289.042 871.285H261.98C261.714 871.28 261.461 871.172 261.273 870.985C261.085 870.798 260.977 870.545 260.972 870.28V410.186C260.977 409.921 261.085 409.669 261.273 409.481C261.461 409.294 261.714 409.187 261.98 409.181H289.042C289.307 409.187 289.561 409.294 289.749 409.481C289.937 409.669 290.045 409.921 290.05 410.186V870.28C290.045 870.545 289.937 870.798 289.749 870.985C289.561 871.172 289.307 871.28 289.042 871.285ZM262.988 869.276H288.033V411.191H262.988V869.276Z" fill="#202020"/>
<path d="M102.255 573.81H0.65918V870.625H102.255V573.81Z" fill="#B9FFD5"/>
<path d="M102.254 573.81H84.8057V870.625H102.254V573.81Z" fill="#202020"/>
<path d="M102.264 871.286H0.654497C0.482992 871.282 0.319437 871.213 0.198142 871.092C0.0768475 870.971 0.00723737 870.808 0.00390625 870.638V573.758C0.00723737 573.587 0.0768475 573.424 0.198142 573.303C0.319437 573.182 0.482992 573.113 0.654497 573.109H102.264C102.435 573.113 102.599 573.182 102.72 573.303C102.841 573.424 102.911 573.587 102.914 573.758V870.638C102.911 870.808 102.841 870.971 102.72 871.092C102.599 871.213 102.435 871.282 102.264 871.286ZM1.30509 869.989H101.613V574.406H1.30509V869.989Z" fill="#202020"/>
<path d="M102.263 871.286H84.801C84.6295 871.282 84.4659 871.213 84.3446 871.092C84.2233 870.971 84.1537 870.808 84.1504 870.638V573.758C84.1537 573.587 84.2233 573.424 84.3446 573.303C84.4659 573.182 84.6295 573.113 84.801 573.109H102.263C102.434 573.113 102.598 573.182 102.719 573.303C102.84 573.424 102.91 573.587 102.913 573.758V870.638C102.91 870.808 102.84 870.971 102.719 871.092C102.598 871.213 102.434 871.282 102.263 871.286ZM85.4516 869.989H101.612V574.406H85.4516V869.989Z" fill="#202020"/>
<path d="M561.355 614.886C534.595 614.88 508.434 622.78 486.181 637.589C463.928 652.398 446.582 673.449 436.339 698.081C426.095 722.713 423.413 749.818 428.632 775.968C433.851 802.118 446.737 826.139 465.659 844.992C484.582 863.845 508.691 876.684 534.937 881.884C561.183 887.084 588.388 884.412 613.11 874.205C637.832 863.999 658.961 846.717 673.824 824.546C688.687 802.374 696.617 776.309 696.611 749.647C696.568 713.919 682.304 679.667 656.948 654.404C631.592 629.141 597.214 614.929 561.355 614.886ZM561.355 858.939C539.66 858.939 518.451 852.529 500.412 840.52C482.373 828.511 468.313 811.442 460.011 791.471C451.708 771.5 449.536 749.525 453.769 728.325C458.001 707.124 468.449 687.65 483.79 672.365C499.131 657.08 518.676 646.671 539.955 642.454C561.233 638.237 583.289 640.401 603.333 648.673C623.377 656.946 640.509 670.954 652.562 688.927C664.616 706.9 671.049 728.031 671.049 749.647C671.015 778.622 659.446 806.401 638.882 826.89C618.318 847.379 590.437 858.905 561.355 858.939Z" fill="#F4CB78"/>
<path d="M668.019 775.118C682.141 716.42 645.831 657.43 586.917 643.359C528.004 629.289 468.797 665.466 454.675 724.164C440.553 782.862 476.863 841.852 535.777 855.923C594.69 869.993 653.897 833.815 668.019 775.118Z" fill="#B9FFD5"/>
<path d="M561.351 886.061C534.271 886.067 507.796 878.072 485.277 863.087C462.757 848.101 445.203 826.799 434.836 801.873C424.468 776.947 421.752 749.518 427.031 723.055C432.31 696.591 445.348 672.281 464.494 653.2C483.641 634.119 508.036 621.124 534.596 615.858C561.156 610.592 588.686 613.291 613.706 623.615C638.726 633.939 660.111 651.423 675.156 673.857C690.202 696.291 698.233 722.666 698.233 749.648C698.198 785.811 683.767 820.483 658.105 846.057C632.443 871.631 597.647 886.018 561.351 886.061ZM561.351 616.507C534.912 616.501 509.066 624.306 487.08 638.937C465.095 653.568 447.958 674.366 437.837 698.702C427.717 723.037 425.067 749.817 430.223 775.653C435.38 801.489 448.11 825.221 466.805 843.848C485.5 862.474 509.319 875.158 535.25 880.296C561.181 885.433 588.059 882.793 612.484 872.71C636.909 862.626 657.784 845.552 672.468 823.647C687.153 801.742 694.987 775.99 694.981 749.648C694.938 714.35 680.845 680.51 655.794 655.55C630.743 630.591 596.779 616.55 561.351 616.507Z" fill="#202020"/>
<path d="M561.352 860.56C539.335 860.56 517.813 854.056 499.506 841.868C481.2 829.681 466.932 812.359 458.506 792.092C450.08 771.826 447.876 749.525 452.171 728.01C456.467 706.495 467.069 686.732 482.637 671.221C498.206 655.709 518.041 645.146 539.635 640.866C561.229 636.587 583.612 638.783 603.953 647.178C624.294 655.573 641.68 669.789 653.912 688.028C666.144 706.268 672.672 727.711 672.672 749.648C672.638 779.053 660.899 807.244 640.029 828.037C619.16 848.83 590.866 860.526 561.352 860.56ZM561.352 641.975C539.978 641.975 519.085 648.29 501.313 660.121C483.541 671.953 469.69 688.769 461.511 708.443C453.331 728.118 451.191 749.767 455.361 770.654C459.531 791.54 469.823 810.725 484.937 825.784C500.05 840.842 519.306 851.097 540.269 855.251C561.232 859.406 582.961 857.274 602.708 849.124C622.455 840.975 639.333 827.174 651.208 809.467C663.082 791.761 669.42 770.943 669.42 749.648C669.386 721.102 657.989 693.735 637.73 673.55C617.471 653.365 590.003 642.01 561.352 641.975Z" fill="#202020"/>
<path d="M561.352 860.56C539.335 860.56 517.813 854.056 499.506 841.868C481.2 829.681 466.932 812.359 458.506 792.092C450.08 771.826 447.876 749.525 452.171 728.01C456.467 706.495 467.069 686.732 482.637 671.221C498.206 655.709 518.041 645.146 539.635 640.866C561.229 636.587 583.612 638.783 603.953 647.178C624.294 655.573 641.68 669.789 653.912 688.028C666.144 706.268 672.672 727.711 672.672 749.648C672.638 779.053 660.899 807.244 640.029 828.037C619.16 848.83 590.866 860.526 561.352 860.56ZM561.352 641.975C539.978 641.975 519.085 648.29 501.313 660.121C483.541 671.953 469.69 688.769 461.511 708.443C453.331 728.118 451.191 749.767 455.361 770.654C459.531 791.54 469.823 810.725 484.937 825.784C500.05 840.842 519.306 851.097 540.269 855.251C561.232 859.406 582.961 857.274 602.708 849.124C622.455 840.975 639.333 827.174 651.208 809.467C663.082 791.761 669.42 770.943 669.42 749.648C669.386 721.102 657.989 693.735 637.73 673.55C617.471 653.365 590.003 642.01 561.352 641.975Z" fill="#202020"/>
<path d="M603.434 749.551C595.133 741.534 584.747 735.99 573.45 733.544L573.222 712.483C580.97 713.327 588.434 715.872 595.076 719.936C595.426 720.156 595.82 720.297 596.231 720.347C596.641 720.397 597.058 720.356 597.451 720.227C597.85 720.112 598.216 719.906 598.521 719.624C598.826 719.343 599.061 718.995 599.207 718.607L609.451 692.329C609.699 691.669 609.689 690.94 609.425 690.286C609.16 689.632 608.658 689.101 608.02 688.797C597.022 683.711 585.271 680.429 573.222 679.076V662.875C573.214 662.147 572.92 661.452 572.403 660.937C571.887 660.422 571.188 660.13 570.458 660.121H553.677C552.946 660.13 552.248 660.422 551.732 660.937C551.215 661.452 550.921 662.147 550.913 662.875V679.076C539.764 679.991 529.175 684.326 520.603 691.486C516.624 695.054 513.47 699.439 511.359 704.34C509.248 709.241 508.23 714.54 508.375 719.871C508.328 724.883 509.278 729.854 511.17 734.498C513.063 739.141 515.86 743.366 519.4 746.927C527.893 755.181 538.485 760.973 550.035 763.678L550.913 763.97V786.295C546.397 785.714 541.914 784.903 537.481 783.865C531.836 782.521 526.376 780.497 521.221 777.838C520.844 777.662 520.433 777.571 520.018 777.571C519.602 777.571 519.191 777.662 518.814 777.838C518.447 778.002 518.12 778.243 517.856 778.545C517.592 778.847 517.397 779.203 517.286 779.588L509.188 806.676C508.997 807.305 509.044 807.982 509.319 808.579C509.595 809.176 510.08 809.652 510.684 809.916C523.393 815.655 537.074 818.953 551.01 819.637V831.334C551.01 832.065 551.301 832.765 551.82 833.282C552.338 833.798 553.041 834.088 553.775 834.088H570.555C571.286 834.08 571.984 833.787 572.501 833.272C573.017 832.758 573.311 832.062 573.32 831.334V819.021C584.313 817.862 594.652 813.256 602.849 805.866C606.72 802.022 609.747 797.42 611.74 792.35C613.733 787.28 614.648 781.853 614.427 776.413C614.475 771.432 613.528 766.492 611.641 761.881C609.754 757.269 606.964 753.078 603.434 749.551ZM598.946 801.945C592.247 808.426 582.686 812.476 570.133 813.967C569.457 814.032 568.831 814.348 568.379 814.852C567.927 815.357 567.682 816.012 567.694 816.688V828.645H556.474V817.142C556.451 816.435 556.166 815.762 555.673 815.253C555.18 814.744 554.515 814.436 553.807 814.388C540.487 814.021 527.352 811.186 515.074 806.028L521.579 784.416C526.286 786.576 531.2 788.259 536.246 789.438C541.916 790.841 547.691 791.784 553.514 792.257C553.891 792.279 554.269 792.226 554.625 792.1C554.98 791.974 555.307 791.778 555.586 791.525C555.865 791.271 556.09 790.964 556.248 790.623C556.406 790.281 556.494 789.911 556.506 789.535V762.058C556.498 761.458 556.294 760.877 555.924 760.403C555.554 759.929 555.039 759.589 554.457 759.434L551.498 758.656C540.92 756.094 531.213 750.783 523.367 743.265C520.316 740.209 517.907 736.578 516.282 732.583C514.657 728.588 513.849 724.31 513.904 720C513.74 715.441 514.587 710.903 516.386 706.708C518.185 702.513 520.891 698.765 524.31 695.731C531.4 689.251 541.351 685.589 553.905 684.455C554.598 684.391 555.243 684.075 555.717 683.567C556.191 683.059 556.461 682.395 556.474 681.701V665.824H567.694V681.701C567.682 682.386 567.93 683.049 568.389 683.56C568.847 684.07 569.481 684.39 570.165 684.455C581.592 685.399 592.787 688.201 603.304 692.75L595.239 713.455C587.591 709.594 579.263 707.25 570.718 706.553C570.333 706.512 569.943 706.552 569.573 706.669C569.204 706.786 568.863 706.978 568.572 707.234C568.297 707.499 568.078 707.817 567.927 708.167C567.777 708.517 567.697 708.894 567.694 709.275V735.553C567.687 736.165 567.885 736.761 568.256 737.248C568.627 737.734 569.15 738.085 569.742 738.243L572.117 738.794C582.382 741.02 591.833 746.02 599.434 753.245C602.473 756.278 604.868 759.89 606.477 763.864C608.086 767.839 608.876 772.095 608.8 776.38C609.048 781.092 608.298 785.802 606.6 790.206C604.903 794.61 602.295 798.61 598.946 801.945Z" fill="#202020"/>
<path d="M555.468 707.202C555.135 706.957 554.756 706.782 554.354 706.687C553.951 706.593 553.534 706.58 553.126 706.651C542.85 708.854 540.703 714.978 540.703 719.612C540.617 722.543 541.638 725.399 543.565 727.615C546.131 730.121 549.233 732.015 552.639 733.156C552.971 733.283 553.323 733.348 553.679 733.35C554.23 733.333 554.767 733.177 555.24 732.897C555.617 732.641 555.926 732.298 556.141 731.898C556.357 731.497 556.471 731.051 556.476 730.596V709.211C556.45 708.826 556.347 708.451 556.174 708.106C556.001 707.761 555.761 707.454 555.468 707.202ZM550.915 726.449C549.701 725.869 548.599 725.079 547.663 724.116C546.648 722.961 546.103 721.47 546.134 719.936C546.031 718.457 546.44 716.989 547.292 715.774C548.144 714.559 549.388 713.672 550.817 713.261L550.915 726.449Z" fill="#202020"/>
<path d="M580.02 770.548C577.767 767.887 574.801 765.92 571.467 764.877C571.042 764.703 570.58 764.642 570.124 764.699C569.668 764.756 569.235 764.929 568.866 765.201C568.498 765.446 568.198 765.779 567.993 766.17C567.788 766.561 567.686 766.996 567.695 767.437V788.239C567.694 788.66 567.787 789.076 567.967 789.457C568.147 789.838 568.41 790.175 568.736 790.443C569.231 790.816 569.838 791.01 570.459 790.993C570.675 791.025 570.894 791.025 571.11 790.993C580.476 788.563 582.459 783.055 582.459 778.875C582.592 775.907 581.734 772.979 580.02 770.548ZM573.223 784.319V771.779C574.123 772.298 574.926 772.966 575.598 773.755C576.554 775.251 577.02 777.007 576.931 778.778C576.964 779.97 576.625 781.143 575.961 782.135C575.297 783.127 574.341 783.89 573.223 784.319Z" fill="#202020"/>
<path d="M607.92 763.388C606.203 759.223 603.697 755.428 600.538 752.209C592.718 744.753 582.983 739.595 572.407 737.304L570.098 736.785C569.849 736.716 569.629 736.568 569.47 736.363C569.312 736.159 569.224 735.909 569.22 735.651V709.341C569.227 709.056 569.33 708.782 569.513 708.563C569.786 708.338 570.134 708.223 570.488 708.239C578.812 708.937 586.926 711.213 594.391 714.946L596.017 715.821L605.319 691.876L603.888 691.26C593.203 686.64 581.834 683.784 570.228 682.803C570.087 682.795 569.949 682.759 569.822 682.698C569.695 682.636 569.581 682.55 569.488 682.445C569.394 682.34 569.322 682.217 569.276 682.084C569.23 681.951 569.211 681.81 569.22 681.669V664.172H554.748V681.669C554.752 681.814 554.728 681.958 554.676 682.093C554.625 682.229 554.547 682.353 554.447 682.458C554.348 682.563 554.228 682.648 554.096 682.707C553.963 682.767 553.82 682.799 553.675 682.803C540.666 684.002 530.422 687.955 523.137 694.533C519.544 697.706 516.701 701.633 514.812 706.03C512.923 710.428 512.034 715.188 512.21 719.969C512.12 724.479 512.937 728.961 514.612 733.151C516.288 737.341 518.789 741.155 521.967 744.368C530.016 752.059 539.97 757.482 550.813 760.083L553.74 760.86C553.978 760.923 554.189 761.062 554.342 761.254C554.494 761.447 554.58 761.684 554.585 761.929V789.439C554.567 789.759 554.428 790.06 554.195 790.281C554.08 790.38 553.945 790.452 553.798 790.491C553.652 790.53 553.499 790.536 553.35 790.508C547.613 790.065 541.923 789.144 536.341 787.754C531.404 786.604 526.599 784.953 521.999 782.829L520.276 782.051L512.861 806.839L514.194 807.39C526.628 812.651 539.943 815.542 553.447 815.912C553.746 815.92 554.031 816.042 554.243 816.253C554.455 816.464 554.577 816.747 554.585 817.046V830.104H569.057V816.527C569.063 816.253 569.169 815.991 569.354 815.788C569.54 815.586 569.792 815.457 570.066 815.426C582.814 813.903 592.83 809.723 599.822 802.983C603.316 799.508 606.04 795.343 607.821 790.756C609.602 786.169 610.401 781.261 610.164 776.349C610.255 771.925 609.494 767.525 607.92 763.388ZM554.748 730.726C554.759 730.909 554.723 731.091 554.643 731.255C554.564 731.42 554.443 731.561 554.293 731.666C553.95 731.832 553.564 731.889 553.187 731.828C550.009 730.76 547.109 729 544.699 726.676C543.032 724.768 542.15 722.303 542.227 719.774C542.227 713.683 546 709.827 553.415 708.239H553.61C553.762 708.23 553.914 708.252 554.056 708.306C554.199 708.36 554.328 708.443 554.436 708.55C554.543 708.657 554.627 708.786 554.681 708.928C554.735 709.07 554.758 709.222 554.748 709.373V730.726ZM571.009 790.897L570.358 789.342C570.119 789.359 569.881 789.302 569.675 789.18C569.523 789.067 569.399 788.921 569.314 788.752C569.23 788.583 569.186 788.397 569.187 788.208V767.438C569.189 767.254 569.234 767.073 569.318 766.91C569.403 766.746 569.525 766.605 569.675 766.498C569.877 766.36 570.114 766.281 570.358 766.271H570.749C573.786 767.243 576.504 769.011 578.619 771.391C580.102 773.539 580.844 776.109 580.732 778.714C580.732 783.963 577.48 787.527 570.586 789.245L571.009 790.897Z" fill="#F4CB78"/>
</svg>
