<svg width="1100" height="806" viewBox="0 0 1100 806" fill="none" xmlns="http://www.w3.org/2000/svg">
<path d="M1075.18 424.533L1077.34 408.349L1075.18 399.715L1071.95 381.373V366.267C1071.95 366.267 1068.71 361.951 1068.71 345.767C1068.71 329.583 1066.55 341.451 1068.71 329.583C1070.87 317.714 1070.87 317.714 1070.87 317.714L1069.79 309.083L1074.1 306.925L752.575 92.2144L495.784 220.611C495.784 220.611 388.965 133.215 359.835 94.3727C357.501 91.26 313.438 141.848 310.202 164.506C310.202 164.506 254.097 181.77 201.228 178.533C148.359 175.295 136.49 174.216 136.49 174.216L123.543 152.637C123.543 152.637 118.15 137.532 123.543 104.085L113.833 105.162L110.596 57.6883L103.042 71.7146L105.2 37.1885C105.2 37.1885 103.042 11.293 96.5694 22.0831C96.5694 22.0831 91.1737 8.05687 95.4902 1.5833C99.8043 -4.8915 83.621 16.6887 72.8321 28.5579C62.0408 40.4259 51.2531 93.2948 66.3573 115.953C66.3573 115.953 44.7783 112.715 28.5938 123.507L2.69824 112.717L22.119 144.005C22.119 144.005 54.4893 245.428 99.8043 273.482C145.122 301.533 199.069 317.717 227.122 316.641C255.174 315.562 272.437 309.087 272.437 309.087L318.834 290.745L333.939 315.562L125.701 415.904L131.097 427.773L122.464 436.404L131.097 447.195L128.938 455.825L131.097 462.3L133.255 473.089L131.097 484.958L135.413 492.51V502.222L133.255 509.774L138.648 515.169L141.886 525.96C141.886 525.96 181.807 579.909 238.992 645.723C296.177 711.541 388.967 796.778 388.967 796.778L392.204 803.251L751.494 631.693C751.494 631.693 831.339 590.692 832.417 587.455C833.496 584.22 1085.97 442.876 1085.97 442.876L1075.18 424.533ZM258.92 265.923C268.43 264.421 302.464 244.902 303.968 244.902L306.971 265.923L267.429 277.936H250.913L279.943 267.425L258.92 265.923ZM259.922 294.953C271.435 291.95 309.474 274.432 309.474 274.432L315.981 284.943C298.961 292.95 259.922 294.953 259.922 294.953Z" fill="#4B9583"/>
<path d="M594.372 300.81C531.561 258.677 359.195 96.1152 359.195 96.1152C334.918 117.884 320.526 141.646 312.575 165.036C315.653 164.582 318.735 164.354 321.827 164.398C330.925 162.861 350.782 156.942 356.385 150.364C362.871 142.753 363.756 152.81 361.737 161.374C360.315 167.392 357.412 172.831 353.667 177.88C353.202 190.32 342.118 199.118 331.244 207.724C330.439 217.284 322.397 223.133 313.202 226.277C312.95 226.748 312.492 227.029 312.272 227.527C310.586 231.245 307.671 232.53 304.706 232.324C305.539 242.939 308.962 256.527 310.944 265.277C346.397 248.037 317.053 267.428 312.99 272.146C317.643 287.34 322.64 301.531 322.64 301.531C322.64 301.531 504.839 464.101 563.8 503.103C498.817 421.89 574.124 320.119 594.372 300.81Z" fill="#F4CB78"/>
<path d="M832.784 580.671L833.275 449.618L507.485 215.27L499.588 220.991L594.381 300.811L563.967 350.607L744.838 498.164L751.497 631.693L832.784 580.671Z" fill="#F4F3F2"/>
<path d="M440.985 411.579L257.351 497.859L384.548 618.769L587.492 522.041C587.492 522.041 507.662 464.821 440.985 411.579Z" fill="#F4F3F2"/>
<path d="M360.241 339.795C374.511 356.698 405.928 383.59 440.98 411.581L440.984 411.578L360.241 339.795Z" fill="#F4F3F2"/>
<path d="M585.467 524.623L388.712 615.45L173.923 423.492L358.227 336.671L333.935 315.559L122.544 420.473L375.389 667.786L651.659 538.448L585.467 524.623Z" fill="#F4CB78"/>
<path d="M752.576 92.2109L506.107 215.958L519.867 222.964L734.279 119.508C734.279 119.508 741.55 124.205 749.588 122.274C757.625 120.345 764.385 114.847 764.385 114.847C764.385 114.847 978.425 285.162 1034.38 296.108C1037.98 296.108 1018.65 312.552 1034.38 318.971C1021.71 327.785 823.525 443.527 823.525 443.527L833.856 453.367L1074.11 306.924L752.576 92.2109Z" fill="#F4CB78"/>
<path d="M359.216 96.1176C336.101 114.234 319.675 141.105 310.586 169.013C311.151 168.836 311.716 168.65 312.286 168.485C313.297 168.086 314.313 167.701 315.33 167.319C318.652 157.243 322.938 147.467 328.156 138.169C336.705 122.938 347.849 109.319 359.874 96.7103C360.293 96.2719 359.636 95.7879 359.216 96.1176Z" fill="#BDD7D2"/>
<path d="M319.546 282.564C318.481 279.788 317.488 276.979 316.56 274.136C316.026 272.5 315.522 270.857 315.029 269.212C313.718 270.358 312.363 271.432 310.964 272.447C312.469 276.619 314.159 280.722 315.98 284.767C317.173 284.044 318.365 283.315 319.546 282.564Z" fill="#BDD7D2"/>
<path d="M338.089 317.433C334.297 310.457 329.689 303.965 325.993 296.921C324.367 293.824 322.896 290.676 321.537 287.481C320.351 288.014 319.176 288.564 318.008 289.129C318.96 291.125 319.931 293.115 320.934 295.086C325.138 303.344 329.856 311.935 336.304 318.673C337.127 319.532 338.682 318.521 338.089 317.433Z" fill="#BDD7D2"/>
<path d="M313.544 264.066C310.561 253.098 308.497 241.905 307.601 230.556C307.53 230.85 307.371 231.127 307.092 231.351C305.706 232.464 304.267 233.484 302.785 234.429C303.68 245.242 305.711 255.929 308.896 266.239C310.448 265.52 311.999 264.794 313.544 264.066Z" fill="#BDD7D2"/>
<path d="M319.764 282.427C318.366 279.29 317.065 276.111 315.873 272.886C315.458 271.764 315.072 270.635 314.687 269.505C312.169 271.669 309.485 273.584 306.671 275.302C308.159 279.378 309.823 283.387 311.617 287.338C314.364 285.751 317.087 284.131 319.764 282.427Z" fill="#5D5D5D"/>
<path d="M531.978 220.48C531.623 220.499 531.268 220.519 530.912 220.537C530.635 220.551 530.632 220.918 530.912 220.932C531.268 220.95 531.623 220.97 531.978 220.989C532.338 221.009 532.338 220.461 531.978 220.48Z" fill="#BDD7D2"/>
<path d="M748.461 129.281C744.772 129.636 744.595 134.769 748.461 134.649C756.804 134.393 764.679 140.979 764.55 149.667C764.426 158.183 756.474 165.641 748.016 165.47C739.467 165.297 731.785 157.729 730.838 149.359C729.85 140.611 735.378 131.978 743.105 128.208C743.922 127.808 743.296 126.574 742.483 126.879C732.767 130.523 726.041 140.33 727.54 150.871C729.03 161.333 739.015 169.979 749.662 169.541C760.22 169.105 769.915 159.89 769.949 149.12C769.982 138.109 759.447 128.222 748.461 129.281Z" fill="#5D5D5D"/>
<path d="M437.51 411.997C422.908 420.354 407.071 426.826 391.844 433.958C377.008 440.903 362.137 447.778 347.264 454.641C332.381 461.51 317.399 468.165 302.503 475.015C287.207 482.048 271.425 488.56 256.687 496.714C255.862 497.172 256.566 498.145 257.351 497.86C273.238 492.097 288.58 484.498 303.997 477.592C318.961 470.886 333.838 463.992 348.811 457.307C363.793 450.619 378.782 443.94 393.803 437.334C409.265 430.536 424.633 422.869 440.6 417.328C444.577 415.946 441.073 409.956 437.51 411.997Z" fill="#5D5D5D"/>
<path d="M590.564 517.21C520.718 471.273 454.424 420.409 391.842 365.209C382.931 357.349 374.1 349.397 365.3 341.415C356.513 333.444 348.032 324.942 338.596 317.71C338.422 317.575 338.049 317.752 338.224 317.975C344.614 326.037 352.233 333.182 359.586 340.378C366.954 347.589 374.405 354.709 381.964 361.722C397.465 376.104 413.295 390.124 429.411 403.831C461.648 431.248 494.988 457.356 529.357 482.12C548.432 495.862 567.812 509.17 587.5 522.041C590.617 524.076 593.888 519.397 590.564 517.21Z" fill="#5D5D5D"/>
<path d="M749.27 492.806C726.055 473.646 701.929 455.501 678.238 436.929C654.306 418.169 630.388 399.376 606.282 380.837C592.574 370.294 578.849 359.873 564.655 349.99C564.218 349.685 563.488 350.179 563.97 350.607C586.39 370.589 610.116 389.031 633.581 407.762C657.314 426.708 681.136 445.539 704.938 464.395C718.39 475.052 731.706 485.952 745.421 496.269C747.887 498.124 751.992 495.053 749.27 492.806Z" fill="#5D5D5D"/>
<path d="M752.408 563.46C752.277 553.249 752.148 543.039 752.018 532.83C751.951 527.592 751.843 522.357 751.741 517.12C751.645 512.172 751.993 506.96 751.042 502.092C750.967 501.705 750.249 501.7 750.179 502.092C749.346 506.724 749.728 511.641 749.706 516.335C749.68 521.571 749.646 526.808 749.657 532.044C749.679 542.515 749.7 552.987 749.723 563.46C749.769 584.37 749.275 605.396 750.058 626.292C750.122 628.014 752.965 628.024 753.004 626.292C753.477 605.386 752.672 584.369 752.408 563.46Z" fill="#5D5D5D"/>
<path d="M744.843 498.163C734.621 504.605 724.992 511.249 713.874 516.177C702.947 521.019 691.472 524.591 679.753 526.924C656.57 531.535 630.434 532.482 607.368 526.615C607.257 526.587 607.201 526.744 607.317 526.776C619.473 530.169 631.392 533.068 644.056 533.82C656.266 534.543 668.461 533.685 680.487 531.497C692.511 529.309 704.276 525.789 715.553 521.081C726.916 516.339 739.048 510.437 748.48 502.404C751.077 500.195 747.464 496.511 744.843 498.163Z" fill="#5D5D5D"/>
<path d="M733.028 486.129C698.681 521.23 644.567 528.686 599.136 513.622C585.819 509.207 572.118 502.976 560.726 494.704C560.497 494.54 560.119 494.824 560.374 495.02C570.361 502.75 580.433 509.555 592.181 514.393C603.613 519.1 615.587 522.206 627.86 523.695C652.715 526.709 678.085 522.232 700.927 512.154C713.964 506.403 726.456 499 737.861 490.478C741.267 487.933 735.906 483.187 733.028 486.129Z" fill="#5D5D5D"/>
<path d="M338.104 317.887C328.94 320.728 320.222 325.84 311.552 329.963C302.278 334.37 293.002 338.778 283.727 343.187C265.511 351.844 247.276 360.463 229.09 369.19C192.427 386.778 155.802 404.416 119.423 422.611C119.302 422.674 119.417 422.824 119.529 422.775C156.524 406.451 193.271 389.589 230.004 372.661C248.01 364.364 265.969 355.964 283.946 347.6L311.905 334.591C321.041 330.341 331.171 326.741 339.619 321.193C341.437 320.003 340.216 317.232 338.104 317.887Z" fill="#5D5D5D"/>
<path d="M146.029 519.168C142.787 520.591 139.738 522.452 136.666 524.205C136.517 524.29 136.659 524.467 136.798 524.408C140.09 523.033 143.458 521.748 146.593 520.037C147.24 519.682 146.627 518.905 146.029 519.168Z" fill="#5D5D5D"/>
<path d="M135.269 515.126C134.058 516.016 133.17 517.219 132.073 518.242C131.95 518.36 132.141 518.499 132.259 518.41C133.475 517.48 134.828 516.79 135.928 515.723C136.371 515.293 135.692 514.814 135.269 515.126Z" fill="#5D5D5D"/>
<path d="M136.744 503.863C134.643 505.466 132.59 507.117 130.541 508.784C130.388 508.909 130.615 509.071 130.751 508.975C132.938 507.446 135.107 505.908 137.245 504.313C137.606 504.044 137.07 503.614 136.744 503.863Z" fill="#5D5D5D"/>
<path d="M135.242 494.324C134.179 495.389 133.118 496.452 132.055 497.514C131.986 497.582 132.098 497.671 132.158 497.609C133.223 496.546 134.286 495.484 135.348 494.421C135.417 494.353 135.304 494.263 135.242 494.324Z" fill="#5D5D5D"/>
<path d="M135.319 481.742C133.125 484.33 131.031 486.989 128.933 489.655C128.817 489.803 129.082 489.917 129.19 489.791C131.407 487.205 133.616 484.626 135.736 481.961C135.926 481.724 135.493 481.535 135.319 481.742Z" fill="#5D5D5D"/>
<path d="M133.797 473.743L130.635 480.117C130.563 480.263 130.792 480.371 130.86 480.237C131.957 478.134 133.054 476.033 134.15 473.929C134.27 473.701 133.901 473.533 133.797 473.743Z" fill="#5D5D5D"/>
<path d="M132.009 464.097C131.479 465.16 130.946 466.222 130.416 467.286C130.352 467.41 130.552 467.503 130.609 467.386C131.139 466.323 131.672 465.261 132.205 464.198C132.266 464.075 132.069 463.981 132.009 464.097Z" fill="#5D5D5D"/>
<path d="M129.685 454.423C129.013 457.597 128.402 460.768 127.974 463.984C127.955 464.12 128.195 464.141 128.229 464.016C129.06 460.895 129.706 457.748 130.296 454.573C130.364 454.203 129.76 454.063 129.685 454.423Z" fill="#5D5D5D"/>
<path d="M132.191 440.426C130.035 443.037 128.105 445.826 126.125 448.571C126 448.745 126.298 448.868 126.415 448.724C128.584 446.097 130.81 443.512 132.802 440.747C133.067 440.383 132.441 440.125 132.191 440.426Z" fill="#5D5D5D"/>
<path d="M128.636 432.177C125.927 435.845 123.406 439.622 120.874 443.414C120.797 443.531 120.992 443.616 121.067 443.516C123.844 439.876 126.612 436.25 129.215 432.482C129.453 432.135 128.861 431.871 128.636 432.177Z" fill="#5D5D5D"/>
<path d="M125.492 424.248C123.351 426.875 121.31 429.58 119.241 432.262C119.124 432.41 119.392 432.525 119.497 432.396C121.669 429.776 123.872 427.178 125.973 424.502C126.189 424.228 125.691 424.004 125.492 424.248Z" fill="#5D5D5D"/>
<path d="M153.488 482.589C143.724 471.683 133.803 460.932 123.34 450.688C123.302 450.65 123.212 450.702 123.254 450.751C132.661 461.97 142.624 472.683 152.75 483.253C153.173 483.697 153.928 483.082 153.488 482.589Z" fill="#5D5D5D"/>
<path d="M144.819 453.05C142.309 448.968 139.671 444.972 137.046 440.962C134.687 437.358 132.565 433.218 129.556 430.122C128.694 429.235 127.191 430.274 127.741 431.383C129.714 435.359 133.162 438.909 135.871 442.431C138.675 446.074 141.466 449.721 144.367 453.288C144.551 453.511 144.996 453.337 144.819 453.05Z" fill="#5D5D5D"/>
<path d="M137.301 506.126C137.716 505.516 138.127 504.903 138.516 504.276C139.868 502.104 136.113 500.35 134.973 502.413C133.983 504.207 133.16 506.076 132.158 507.87C131.278 509.446 133.276 510.667 134.53 509.973C133.256 511.809 132.014 513.665 130.894 515.604C130.73 515.888 131.117 516.076 131.331 515.909C131.811 515.539 132.276 515.152 132.744 514.77C132.64 514.966 132.537 515.161 132.437 515.362C131.871 516.488 131.177 517.819 131.134 519.086C131.099 520.052 132.309 520.459 133.05 520.076C134.224 519.469 135.223 518.276 136.067 517.272C137.002 516.161 137.896 515.072 138.557 513.776C139.327 512.26 138.4 511.169 137.182 510.915C138.07 510.109 138.954 509.299 139.844 508.491C141.572 506.919 138.839 504.802 137.301 506.126Z" fill="#5D5D5D"/>
<path d="M133.694 496.169C132.63 496.995 132.115 498.225 131.475 499.38C130.826 500.55 130.176 501.718 129.527 502.888C128.885 504.042 130.571 504.695 131.297 503.818C132.168 502.767 133.039 501.713 133.91 500.661C134.751 499.646 135.725 498.717 136.083 497.42C136.477 495.995 134.648 495.431 133.694 496.169Z" fill="#5D5D5D"/>
<path d="M133.943 489.624C132.754 490.424 132.144 491.541 131.469 492.776L129.423 496.503C128.716 497.795 130.604 498.551 131.408 497.548C132.264 496.484 133.119 495.422 133.974 494.36C134.774 493.365 135.77 492.34 135.998 491.045C136.183 489.983 134.951 488.946 133.943 489.624Z" fill="#5D5D5D"/>
<path d="M133.648 485.076C131.681 486.392 129.672 487.731 127.942 489.351C127.679 489.597 127.982 489.92 128.276 489.863C130.558 489.427 132.778 488.663 134.964 487.886C137.411 487.021 135.519 483.827 133.648 485.076Z" fill="#5D5D5D"/>
<path d="M133.744 479.855C133.023 479.003 131.75 479.007 130.916 479.683C129.371 480.931 127.855 482.196 126.361 483.504C125.52 484.238 126.669 485.088 127.453 484.775C129.391 484.007 131.304 483.2 133.212 482.362C134.199 481.931 134.401 480.634 133.744 479.855Z" fill="#5D5D5D"/>
<path d="M133.459 471.496C131.922 471.596 130.711 472.44 129.402 473.196C128.13 473.932 126.909 474.686 125.705 475.525C125.232 475.856 125.808 476.406 126.217 476.32C127.716 476.007 129.168 475.604 130.636 475.17C131.94 474.784 133.4 474.511 134.404 473.548C135.202 472.78 134.569 471.424 133.459 471.496Z" fill="#5D5D5D"/>
<path d="M129.743 464.572C127.451 465.165 125.301 466.302 123.24 467.451C121.586 468.374 122.892 470.228 124.437 470.007C126.844 469.659 129.237 469.24 131.49 468.303C133.935 467.287 132.012 463.987 129.743 464.572Z" fill="#5D5D5D"/>
<path d="M131.184 458.15C130.537 457.148 129.224 456.988 128.208 457.447C126.775 458.097 125.52 459.01 124.214 459.883C123.574 460.309 123.158 461.004 123.527 461.769C123.861 462.458 124.75 462.887 125.508 462.643C127.172 462.102 128.844 461.628 130.405 460.828C131.373 460.33 131.789 459.087 131.184 458.15Z" fill="#5D5D5D"/>
<path d="M129.194 446.81C128.895 446.345 128.462 446.068 127.986 445.945C128.867 444.733 128.874 443.083 127.98 441.816C126.99 440.414 125.044 439.466 123.346 440.104C122.782 440.317 122.295 440.54 121.955 441.067C121.813 441.287 121.709 441.561 121.663 441.844C121.383 442.049 121.146 442.331 120.995 442.706C120.431 444.084 121.143 445.67 122.277 446.516C122.926 447.003 123.699 447.3 124.482 447.394C123.74 447.956 122.998 448.52 122.256 449.083C121.304 449.804 122.437 450.982 123.345 450.766C124.861 450.404 126.377 450.045 127.894 449.686C129.156 449.386 129.933 447.958 129.194 446.81Z" fill="#5D5D5D"/>
<path d="M124.669 429.904C125.674 429.554 126.486 428.783 126.316 427.632C126.164 426.614 125.115 425.748 124.057 425.84C121.345 426.069 119.226 427.64 118.047 430.096C117.464 431.313 117.17 432.414 117.591 433.71C117.8 434.352 118.031 435.569 118.458 436.479C118.912 437.445 120.284 437.295 120.914 436.595L120.92 436.603C121.219 436.89 121.613 437.038 122.016 437.071C122.283 437.219 122.582 437.298 122.883 437.263C123.507 437.195 124.062 437.054 124.544 436.624C124.875 436.325 125.162 435.889 125.275 435.453C125.562 434.341 125.139 433.16 124.056 432.656C123.283 432.295 122.419 432.308 121.692 432.645C121.788 432.456 121.887 432.261 121.982 432.084C122.544 431.006 123.535 430.298 124.669 429.904Z" fill="#5D5D5D"/>
<path d="M391.293 667.407C387.509 668.783 383.649 670.361 380.142 672.348C379.886 672.492 380.07 672.862 380.343 672.778C384.199 671.599 388.019 669.906 391.626 668.112C392.057 667.897 391.729 667.247 391.293 667.407Z" fill="#5D5D5D"/>
<path d="M391.306 680.183C386.984 681.536 382.827 683.498 378.65 685.235C378.591 685.26 378.636 685.347 378.693 685.328C382.996 683.886 387.434 682.627 391.592 680.795C391.983 680.625 391.682 680.066 391.306 680.183Z" fill="#5D5D5D"/>
<path d="M391.264 689.565C386.383 690.922 381.727 692.845 377.028 694.723C376.887 694.777 377 694.972 377.13 694.936C382.045 693.611 386.948 692.338 391.696 690.485C392.298 690.25 391.825 689.408 391.264 689.565Z" fill="#5D5D5D"/>
<path d="M391.234 700.657C387.417 702.077 383.775 703.877 380.108 705.634C379.919 705.725 380.065 706.011 380.252 705.94C384.061 704.509 387.895 703.135 391.566 701.363C392 701.153 391.666 700.496 391.234 700.657Z" fill="#5D5D5D"/>
<path d="M345.591 689.864C334.201 677.403 321.449 666.059 309.297 654.348C297.29 642.779 285.274 631.222 273.241 619.681C248.982 596.412 224.675 573.19 200.365 549.973C186.58 536.81 172.787 523.657 158.998 510.501C158.92 510.425 158.781 510.535 158.867 510.618C206.866 557.626 254.837 604.662 303.066 651.434C316.702 664.658 329.937 678.61 344.38 690.954C345.14 691.604 346.332 690.673 345.591 689.864Z" fill="#5D5D5D"/>
<path d="M384.59 691.964C383.855 687.242 383.025 682.534 382.24 677.823C382.091 676.925 381.313 676.206 380.478 675.768C380.272 675.011 379.876 674.29 379.348 673.662C379.715 672.869 380.072 672.07 380.431 671.266C381.663 668.505 377.477 666.526 375.394 667.781C373.639 668.839 371.73 669.754 370.719 671.58C370.437 672.089 370.558 672.822 371.152 673.071C371.187 673.085 371.219 673.092 371.252 673.106C371.234 673.138 371.213 673.169 371.194 673.199C370.186 674.914 370.851 676.616 372.171 677.577C372.004 679.214 373.312 680.965 375.001 681.419L375.096 681.445C375.723 685.155 376.427 688.878 376.853 692.603C377.264 696.202 375.926 699.966 375.702 703.577C375.478 707.238 381.291 707.517 382.355 704.387C383.635 700.63 385.207 695.922 384.59 691.964Z" fill="#5D5D5D"/>
<path d="M383.861 706.154C382.167 706.395 380.805 707.62 379.48 708.615L375.426 711.667C373.432 713.165 376.211 716.065 378.099 714.785C378.199 714.717 378.301 714.647 378.404 714.579C377.862 715.465 377.321 716.351 376.78 717.237C376.591 717.547 377.001 717.875 377.291 717.695C378.947 716.673 380.604 715.65 382.261 714.631C383.199 714.052 383.513 712.835 382.633 712.039C382.561 711.975 382.48 711.923 382.398 711.872C382.449 711.836 382.502 711.802 382.554 711.766C384.027 710.768 385.44 709.92 386.194 708.255C386.848 706.8 384.934 706.001 383.861 706.154Z" fill="#5D5D5D"/>
<path d="M378.383 721.788C378.131 721.266 377.632 720.978 377.088 720.917C376.829 720.615 376.509 720.412 376.141 720.301C376.156 720.25 376.198 720.2 376.337 720.136C376.942 719.858 376.631 718.922 375.989 718.988C375.39 719.048 374.861 719.293 374.536 719.823C374.397 720.048 374.282 720.268 374.165 720.584C374.147 720.627 374.139 720.656 374.133 720.677C374.129 720.681 374.125 720.687 374.125 720.687C374.079 720.761 374.04 720.822 374.004 720.886C373.939 721.013 373.88 721.142 373.823 721.271C374.005 720.871 373.984 720.912 373.759 721.396C373.62 721.855 373.688 722.371 373.947 722.773C374.193 723.154 374.63 723.463 375.022 723.663C375.854 724.089 376.916 724.097 377.72 723.609C378.353 723.224 378.729 722.503 378.383 721.788Z" fill="#5D5D5D"/>
<path d="M382.054 724.821C381.053 724.829 380.379 725.124 379.526 725.605C378.814 726.007 378.042 726.266 377.278 726.557C375.823 727.115 376.955 729.242 378.333 728.806C379.122 728.556 379.896 728.276 380.715 728.141C381.681 727.981 382.354 727.787 383.132 727.159C384.19 726.304 383.215 724.811 382.054 724.821Z" fill="#5D5D5D"/>
<path d="M382.05 729.059C380.446 730.151 379.136 731.616 377.616 732.829C376.783 733.492 376.864 734.797 377.616 735.478C378.494 736.273 379.67 736.106 380.56 735.478C382.019 734.449 383.687 733.707 385.062 732.571C387.227 730.787 384.18 727.609 382.05 729.059Z" fill="#5D5D5D"/>
<path d="M389.028 738.09C388.122 736.685 386.398 736.57 384.991 737.135C382.105 738.293 379.506 740.219 376.932 741.932C374.971 743.238 376.26 746.408 378.632 745.561C381.759 744.446 385.119 743.458 387.97 741.723C389.227 740.957 389.892 739.424 389.028 738.09Z" fill="#5D5D5D"/>
<path d="M394.706 764.78C394.18 763.964 393.233 763.704 392.355 763.881C393.04 763.118 393.723 762.355 394.388 761.573C395.059 760.784 394.687 759.462 393.994 758.836C393.55 758.433 392.866 758.183 392.202 758.166C392.546 757.1 392.681 755.962 392.568 754.835C392.704 754.669 392.851 754.51 392.973 754.33C394.056 752.739 392.573 750.95 390.942 750.728C390.814 750.568 390.679 750.416 390.539 750.273C390.929 749.837 391.283 749.378 391.571 748.877C392.654 746.988 390.288 745.07 388.51 746.122C387.597 746.662 386.806 747.358 386.081 748.135C384.735 747.99 383.329 748.188 382.02 748.745C378.522 750.229 376.154 753.977 377.456 757.765C378.633 761.183 382.103 763.339 385.602 763.125C385.645 763.267 385.701 763.408 385.786 763.538C386.19 764.162 386.85 764.418 387.526 764.407C387.874 765.09 388.658 765.592 389.471 765.706C388.317 766.529 387.144 767.292 385.866 768.004C384.471 768.782 385.791 770.467 387.09 769.888C389.167 768.964 391.198 768.297 393.391 767.7C394.649 767.352 395.474 765.969 394.706 764.78ZM385.707 754.797C384.66 756.036 383.616 757.273 382.568 758.51C382.436 758.667 382.362 758.845 382.317 759.031C380.688 757.331 380.495 754.31 382.565 752.779C382.426 753.39 382.752 754.085 383.256 754.427C384.013 754.94 384.954 754.859 385.663 754.298C386.086 753.964 386.533 753.632 386.986 753.297C386.558 753.786 386.137 754.288 385.707 754.797Z" fill="#5D5D5D"/>
<path d="M389.767 782.034C389.28 781.222 387.889 781.222 387.401 782.034C387.212 782.348 386.985 782.723 387.006 783.108C387.021 783.427 387.125 783.748 387.202 784.055C387.509 785.3 389.657 785.3 389.964 784.055C390.035 783.77 390.177 783.397 390.161 783.108C390.143 782.704 389.97 782.37 389.767 782.034Z" fill="#5D5D5D"/>
<path d="M388.018 785.841C386.806 787.547 385.33 789.075 383.953 790.649C383.73 790.903 384.035 791.26 384.328 791.088C386.259 789.96 388.16 788.738 390.186 787.791C392.335 786.787 389.527 783.717 388.018 785.841Z" fill="#5D5D5D"/>
<path d="M390.686 788.345C389.706 789.353 389.117 790.77 388.276 791.928C388.104 792.165 388.454 792.379 388.659 792.273C388.905 792.144 389.163 792.032 389.416 791.918C389.377 792.063 389.338 792.209 389.298 792.351C388.939 793.625 388.371 794.709 387.797 795.9C387.048 797.452 389.575 798.286 390.069 796.763C390.508 795.408 390.87 794.174 391.539 792.911C392.11 791.836 392.701 790.774 393.2 789.663C393.816 788.292 391.551 787.46 390.686 788.345Z" fill="#5D5D5D"/>
<path d="M1065.73 306.821C1059.41 310.282 1053.7 314.696 1047.72 318.699C1041.74 322.699 1025.23 334.368 1019.21 338.321C1007.19 346.224 995.119 354.054 982.989 361.797C958.94 377.151 934.656 392.13 910.146 406.733C882.689 423.093 854.932 438.938 826.933 454.345C826.943 454.451 826.964 454.555 826.954 454.667C826.939 454.86 826.911 455.046 826.89 455.235C827.113 455.777 827.066 456.399 826.591 456.965C826.572 457.05 826.544 457.131 826.523 457.217C825.949 456.897 825.207 456.791 824.562 457.064C821.598 458.313 818.985 460.592 816.373 462.451C813.514 464.484 810.624 466.456 807.7 468.394C802.059 472.139 796.381 475.831 790.705 479.52C779.803 486.609 768.592 493.39 758.121 501.105C758.051 501.156 758.146 501.245 758.213 501.209C770.12 494.799 781.486 487.276 793.002 480.188C798.771 476.637 804.546 473.099 810.348 469.602C815.635 466.414 822.292 463.89 826.866 459.75C827.143 459.501 827.303 459.245 827.391 458.993C827.547 458.908 827.701 458.824 827.857 458.739C878.535 430.931 928.344 401.542 977.189 370.627C990.816 362.002 1004.37 353.263 1017.82 344.373C1024.45 339.996 1041.56 327.897 1048.15 323.463C1054.86 318.948 1061.93 314.818 1068.13 309.614C1069.89 308.136 1067.48 305.864 1065.73 306.821Z" fill="#5D5D5D"/>
<path d="M751.946 494.242C740.468 500.139 728.952 505.965 717.431 511.776C703.683 518.711 689.536 525.224 676.323 533.169C677.044 532.005 676.334 530.085 674.594 530.276C652.131 532.741 629.176 531.905 607.732 524.237C588.99 517.535 571.917 505.787 559.602 490.08C531.116 453.751 536.43 405.262 555.376 365.834C566.381 342.932 581.427 322.329 596.214 301.775C596.996 300.689 595.117 299.873 594.38 300.81C565.427 337.671 535.953 378.913 534.317 427.581C533.586 449.342 539.17 470.927 551.713 488.846C563.261 505.342 579.709 518.561 598.215 526.474C622.2 536.73 649.404 539.429 674.907 534.015C674.637 534.181 674.36 534.338 674.09 534.505C673.916 534.612 674.037 534.88 674.234 534.811C687.447 530.3 700.136 524.104 712.715 518.083C725.706 511.867 738.618 505.502 751.47 499.003C752.159 498.655 752.844 498.297 753.533 497.949C752.758 496.856 752.19 495.67 751.946 494.242Z" fill="#5D5D5D"/>
<path d="M596.428 293.533C531.896 248.975 470.758 199.815 413.156 146.612C404.955 139.038 396.829 131.376 388.734 123.686C380.647 116.006 372.857 107.83 364.156 100.84C363.996 100.712 363.643 100.871 363.806 101.084C369.648 108.812 376.654 115.692 383.41 122.615C390.181 129.553 397.032 136.404 403.984 143.16C418.239 157.008 432.809 170.521 447.651 183.739C477.341 210.184 508.076 235.406 539.797 259.374C557.403 272.673 575.3 285.568 593.491 298.053C596.371 300.03 599.499 295.653 596.428 293.533Z" fill="#5D5D5D"/>
<path d="M747.66 93.5796C683.054 126.255 618.444 158.952 553.839 191.644C535.548 200.899 516.615 209.585 498.991 220.06C498.312 220.464 498.951 221.261 499.592 220.988C516.331 213.888 532.511 205.009 548.735 196.807C565.008 188.582 581.281 180.355 597.554 172.129C629.621 155.916 661.664 139.655 693.67 123.321C712.041 113.945 730.553 104.886 748.956 95.5774C750.445 94.8255 749.028 92.887 747.66 93.5796Z" fill="#5D5D5D"/>
<path d="M1075.33 303.598C1036.65 276.705 974.784 237.242 935.529 211.197C896.693 185.43 857.857 159.661 819.009 133.913C807.972 126.598 796.954 119.253 785.875 112.002C774.821 104.768 763.881 97.1556 752.36 90.682C751.859 90.4017 751.128 91.082 751.66 91.4994C769.959 105.88 790.077 118.258 809.384 131.228C828.729 144.225 848.074 157.22 867.426 170.207C906.568 196.475 945.712 222.744 984.853 249.013C1006.83 263.761 1050.74 292.869 1073.04 307.135C1075.36 308.62 1077.71 305.253 1075.33 303.598Z" fill="#5D5D5D"/>
<path d="M649.547 535.204C576.548 570 503.651 605.005 430.873 640.263C410.296 650.232 389.77 660.304 369.285 670.458C368.929 670.634 369.266 671.079 369.591 670.929C443.243 637.276 516.429 602.585 589.601 567.917C610.296 558.111 630.98 548.281 651.663 538.445C654.113 537.281 651.796 534.133 649.547 535.204Z" fill="#5D5D5D"/>
<path d="M376.351 662.43C313.801 600.963 251.057 539.671 188.009 478.713C170.159 461.456 152.506 443.824 133.779 427.511C133.666 427.411 133.484 427.553 133.595 427.678C148.425 444.127 164.397 459.574 180.02 475.265C195.294 490.606 210.692 505.824 226.035 521.093C257.103 552.013 288.381 582.724 319.511 613.579C337.142 631.053 354.798 648.499 372.502 665.896C374.767 668.12 378.833 664.869 376.351 662.43Z" fill="#5D5D5D"/>
<path d="M833.277 449.615C823.219 441.157 812.076 433.845 801.425 426.154C791.14 418.73 780.856 411.303 770.571 403.878C749.582 388.722 728.633 373.51 707.675 358.311C665.753 327.911 623.889 297.421 581.796 267.256C558.492 250.557 535.252 233.709 511.27 217.989C510.888 217.74 510.328 218.299 510.727 218.621C550.959 250.943 593.355 280.669 635.014 311.108C676.8 341.639 718.735 371.966 760.517 402.499C772.025 410.908 783.533 419.319 795.042 427.727C806.688 436.237 818.101 445.393 830.341 453.04C832.435 454.35 835.413 451.41 833.277 449.615Z" fill="#5D5D5D"/>
<path d="M837.196 578.614C835.683 579.172 834.22 579.882 832.785 580.668C832.71 559.872 833.344 539.042 833.303 518.255C833.278 506.096 833.24 493.936 833.246 481.777C833.252 469.226 834.297 456.152 832.607 443.712C832.581 443.521 832.24 443.435 832.203 443.663C830.247 455.587 830.878 468.12 830.552 480.19C830.217 492.615 829.841 505.039 829.475 517.463C828.83 539.418 828.932 561.44 828.179 583.397C827.321 583.923 826.465 584.445 825.609 584.945C821.52 587.332 817.427 589.713 813.348 592.116C805.19 596.923 797.037 601.733 788.882 606.544C780.954 611.218 773.049 615.93 765.174 620.692C757.378 625.408 749.16 630.055 742.056 635.78C741.981 635.84 742.081 635.911 742.144 635.887C750.68 632.528 758.859 627.745 766.879 623.32C775.183 618.74 783.449 614.108 791.699 609.435C799.716 604.895 807.736 600.36 815.752 595.817C819.643 593.611 823.524 591.383 827.407 589.163C831.376 586.895 835.86 584.906 839.354 581.952C841.022 580.541 839.105 577.91 837.196 578.614Z" fill="#5D5D5D"/>
<path d="M408.204 716.73C403.222 718.002 398.386 720.443 393.665 722.459C388.527 724.653 383.455 726.957 378.446 729.428C378.047 729.624 378.347 730.201 378.747 730.071C384.086 728.343 389.351 726.447 394.592 724.443C399.368 722.615 404.575 721.003 409.009 718.448C410.042 717.852 409.29 716.454 408.204 716.73Z" fill="#5D5D5D"/>
<path d="M399.208 731.134C396.987 732.672 394.931 734.381 392.86 736.112C392.505 736.41 393.004 736.932 393.358 736.694C395.594 735.171 397.817 733.669 399.908 731.95C400.412 731.536 399.7 730.79 399.208 731.134Z" fill="#5D5D5D"/>
<path d="M397.745 740.92C395.078 742.489 392.475 744.15 389.859 745.801C389.717 745.892 389.855 746.082 389.991 746.003C392.666 744.449 395.344 742.908 397.971 741.268C398.214 741.115 397.976 740.783 397.745 740.92Z" fill="#5D5D5D"/>
<path d="M406.909 751.471C401.487 753.864 396.251 756.673 391.02 759.455C390.136 759.924 390.975 761.027 391.791 760.644C397.156 758.124 402.551 755.623 407.72 752.717C408.641 752.198 407.768 751.092 406.909 751.471Z" fill="#5D5D5D"/>
<path d="M410.274 772.429C404.935 775.027 399.708 777.739 394.514 780.615C394.343 780.71 394.506 780.92 394.666 780.848C400.101 778.408 405.426 775.846 410.726 773.124C411.243 772.858 410.75 772.195 410.274 772.429Z" fill="#5D5D5D"/>
<path d="M407.045 785.084C403.815 787.178 400.758 789.47 397.693 791.795C397.59 791.873 397.731 792.011 397.829 791.954C401.142 790.023 404.425 788.092 407.589 785.922C408.16 785.532 407.594 784.727 407.045 785.084Z" fill="#5D5D5D"/>
<path d="M754.506 626.062C659.773 673.064 564.357 718.708 469.402 765.265C442.884 778.267 415.912 790.707 390.009 804.913C389.857 804.997 390.002 805.175 390.141 805.116C414.513 794.798 438.269 782.843 462.147 771.439C486.03 760.033 509.915 748.625 533.798 737.218C581.548 714.414 629.189 691.381 676.84 668.373C703.537 655.483 730.254 642.653 757.064 630.003C760.026 628.606 757.225 624.713 754.506 626.062Z" fill="#5D5D5D"/>
<path d="M1087.08 434.06C1078.56 438.224 1070.59 443.748 1062.46 448.625C1054.52 453.393 1046.57 458.159 1038.62 462.926C1022.73 472.459 1006.83 481.993 990.937 491.526C958.922 510.729 926.906 529.932 894.928 549.193C876.79 560.121 858.562 570.917 840.648 582.209C839.774 582.759 840.616 583.931 841.457 583.455C874.19 564.958 906.359 545.404 938.675 526.191C970.996 506.973 1003.32 487.756 1035.64 468.539C1044.75 463.125 1053.85 457.712 1062.96 452.297C1071.68 447.112 1080.92 442.404 1089.16 436.485C1090.81 435.296 1088.57 433.33 1087.08 434.06Z" fill="#5D5D5D"/>
<path d="M1073.81 314.473C1071.88 315.516 1070.18 316.616 1068.41 317.946C1066.75 319.205 1064.66 320.378 1063.43 322.075C1062.76 322.987 1064.1 323.769 1064.88 323.382C1066.76 322.449 1068.28 320.627 1069.82 319.214C1071.39 317.773 1072.73 316.332 1074.03 314.678C1074.15 314.541 1073.93 314.409 1073.81 314.473Z" fill="#5D5D5D"/>
<path d="M1072.37 325.821C1070.07 327.21 1067.69 328.555 1065.58 330.241C1065.01 330.703 1065.82 331.548 1066.37 331.164C1068.58 329.645 1070.53 327.777 1072.51 325.978C1072.6 325.893 1072.47 325.761 1072.37 325.821Z" fill="#5D5D5D"/>
<path d="M1081.69 339.484C1076.44 340.649 1071.07 343.29 1066.05 345.765C1068.71 343.382 1071.27 340.894 1073.95 338.516C1074.02 338.451 1073.91 338.366 1073.84 338.421C1070.08 341.496 1066.16 344.325 1062.51 347.515C1062.12 347.862 1062.57 348.463 1063.03 348.311C1069.28 346.247 1076.69 344.316 1082.34 340.863C1083.16 340.362 1082.57 339.289 1081.69 339.484Z" fill="#5D5D5D"/>
<path d="M1070.65 351.138C1066.85 354.241 1063.05 357.344 1059.25 360.446C1058.79 360.819 1059.5 361.406 1059.91 361.039C1063.53 357.78 1067.16 354.517 1070.78 351.258C1070.87 351.175 1070.73 351.07 1070.65 351.138Z" fill="#5D5D5D"/>
<path d="M1084.97 354.319C1079.1 359.599 1072.81 364.441 1067.09 369.884C1066.5 370.444 1067.43 371.172 1067.99 370.69C1073.92 365.531 1079.31 359.758 1085.1 354.436C1085.19 354.357 1085.05 354.247 1084.97 354.319Z" fill="#5D5D5D"/>
<path d="M1081.34 371.416C1078.69 373.532 1076.1 375.711 1073.5 377.884C1072.95 378.35 1073.79 378.985 1074.29 378.596C1077 376.529 1079.71 374.467 1082.37 372.339C1083.09 371.76 1081.99 370.889 1081.34 371.416Z" fill="#5D5D5D"/>
<path d="M1080.35 378.31C1077.19 380.932 1074.71 384.578 1072.13 387.745C1071.87 388.064 1072.47 388.437 1072.72 388.15C1075.38 385.086 1078.57 382.026 1080.58 378.473C1080.66 378.323 1080.46 378.216 1080.35 378.31Z" fill="#5D5D5D"/>
<path d="M1083.21 392.183C1077.1 396.103 1070.84 400.101 1065.26 404.757C1064.2 405.642 1065.67 407.136 1066.73 406.471C1072.87 402.612 1078.6 397.936 1084.21 393.345C1084.93 392.752 1083.93 391.726 1083.21 392.183Z" fill="#5D5D5D"/>
<path d="M1081.74 398.747C1076.91 401.604 1072.7 405.786 1068.65 409.631C1068.02 410.231 1069 410.967 1069.6 410.484C1073.91 407.009 1078.63 403.42 1082.04 399.024C1082.18 398.841 1081.9 398.652 1081.74 398.747Z" fill="#5D5D5D"/>
<path d="M1089.71 406.792C1084.22 411.341 1078.66 415.921 1073.51 420.848C1073.01 421.331 1073.8 421.941 1074.27 421.537C1079.69 416.944 1084.81 411.924 1089.89 406.959C1090.01 406.839 1089.82 406.696 1089.71 406.792Z" fill="#5D5D5D"/>
<path d="M1091.91 418.679C1085.25 423.535 1078.3 428.415 1072.2 433.959C1071.53 434.572 1072.55 435.286 1073.18 434.837C1079.83 430.057 1086.02 424.332 1092.12 418.871C1092.26 418.74 1092.04 418.583 1091.91 418.679Z" fill="#5D5D5D"/>
<path d="M1091.1 430.534C1083.78 435.732 1075.56 440.553 1068.94 446.61C1068.39 447.113 1069.15 447.864 1069.73 447.532C1077.58 443.049 1084.73 436.733 1091.99 431.34C1092.64 430.856 1091.68 430.118 1091.1 430.534Z" fill="#5D5D5D"/>
<path d="M389.247 797.321C380.995 788.533 371.741 780.586 362.96 772.332C354.137 764.042 345.394 755.667 336.731 747.21C319.75 730.636 303.055 713.765 286.677 696.595C253.686 662.008 222.013 626.163 191.422 589.442C174.313 568.904 158.136 547.529 140.667 527.302C140.582 527.202 140.384 527.323 140.462 527.444C153.569 547.634 168.826 566.596 183.837 585.387C198.437 603.661 213.439 621.602 228.762 639.272C260.16 675.481 293.188 710.348 327.397 743.907C337.076 753.405 346.858 762.798 356.738 772.088C366.58 781.342 376.354 791.042 387.086 799.266C388.47 800.329 390.611 798.773 389.247 797.321Z" fill="#5D5D5D"/>
<path d="M358.237 336.668C350.291 338.67 342.694 343.193 335.267 346.609C327.38 350.238 319.496 353.865 311.609 357.494C296.328 364.525 281.049 371.554 265.768 378.585C234.796 392.836 203.392 406.522 173.137 422.264C172.203 422.751 173.094 423.82 173.929 423.49C205.771 410.916 236.833 396.164 268.034 382.087C283.383 375.162 298.73 368.237 314.08 361.312C322.003 357.737 329.924 354.164 337.846 350.59C345.261 347.242 353.573 344.48 360.251 339.791C362.063 338.519 359.889 336.252 358.237 336.668Z" fill="#5D5D5D"/>
<path d="M589.247 521.695C575.955 526.281 563.175 533.22 550.415 539.115C537.024 545.304 523.63 551.492 510.238 557.68C483.942 569.832 457.705 582.109 431.453 594.357C424.062 597.805 416.708 601.333 409.341 604.834C402.543 608.064 394.776 610.891 388.718 615.449C388.648 615.37 388.59 615.288 388.506 615.21C361.457 589.986 333.793 565.384 306.398 540.538C278.986 515.679 251.598 490.796 224.08 466.058C216.21 458.983 208.317 451.941 200.412 444.91C192.915 438.24 185.427 430.863 176.979 425.413C176.404 425.042 175.388 425.763 175.883 426.399C181.358 433.432 188.476 439.486 194.99 445.544C201.562 451.657 208.125 457.782 214.729 463.86C228.335 476.379 241.941 488.899 255.602 501.358C282.931 526.288 310.265 551.211 337.622 576.108C353.254 590.335 368.739 604.744 384.55 618.77C386.368 620.385 389.164 618.948 389.334 617.097C395.981 615.635 402.368 612.122 408.551 609.364C415.059 606.457 421.566 603.553 428.074 600.648C441.319 594.736 454.487 588.653 467.688 582.649C494.079 570.645 520.429 558.546 546.778 546.445C553.963 543.145 561.145 539.847 568.317 536.522C575.903 533.005 583.881 529.874 591.085 525.62C593.354 524.28 591.742 520.833 589.247 521.695Z" fill="#5D5D5D"/>
<path d="M362.507 677.656C348.85 662.531 334.332 648.115 320.145 633.487C306.121 619.027 292.063 604.606 277.95 590.234C249.542 561.304 221.662 531.857 193.164 503.016C177.138 486.795 161.027 470.655 144.854 454.579C144.761 454.487 144.598 454.618 144.694 454.721C199.869 514.109 256.296 572.343 312.546 630.708C328.345 647.1 343.865 663.881 360.24 679.7C361.596 681.01 363.867 679.165 362.507 677.656Z" fill="#5D5D5D"/>
<path d="M379.975 679.625C375.545 673.284 368.946 668.001 363.414 662.63C357.786 657.167 352.145 651.718 346.459 646.314C334.708 635.142 322.69 624.217 311.107 612.878C311.029 612.802 310.891 612.912 310.976 612.995C322.444 624.394 333.502 636.236 344.802 647.805C350.276 653.407 355.791 658.964 361.324 664.509C366.806 670.008 372.19 676.442 378.596 680.864C379.338 681.374 380.538 680.43 379.975 679.625Z" fill="#5D5D5D"/>
<path d="M377.345 708.977C321.26 651.414 264.807 594.104 207.876 537.375C191.761 521.318 175.643 505.263 159.589 489.141C159.544 489.096 159.461 489.162 159.51 489.213C215.469 546.903 271.327 604.683 327.759 661.91C343.725 678.099 359.44 694.536 375.446 710.683C376.55 711.797 378.539 710.203 377.345 708.977Z" fill="#5D5D5D"/>
<path d="M394.036 741.495C389.14 737.21 383.457 733.721 378.22 729.858C373.31 726.238 368.46 722.538 363.674 718.757C353.552 710.762 343.71 702.412 334.17 693.726C314.948 676.22 296.803 657.46 279.927 637.681C279.86 637.602 279.693 637.674 279.766 637.767C295.744 658.052 313.176 677.071 332.089 694.658C341.695 703.591 351.62 712.185 361.841 720.408C366.95 724.518 372.132 728.538 377.385 732.464C382.297 736.134 387.267 740.164 392.679 743.078C393.664 743.607 395.024 742.361 394.036 741.495Z" fill="#5D5D5D"/>
<path d="M238.963 613.437C205.62 575.259 170.243 538.88 135.886 501.635C135.812 501.553 135.674 501.666 135.754 501.752C169.818 539.262 202.931 577.711 238.013 614.29C238.562 614.862 239.52 614.074 238.963 613.437Z" fill="#5D5D5D"/>
<path d="M267.592 630.952C255.12 617.979 242.002 605.603 229.2 592.959C229.137 592.898 229.028 592.987 229.093 593.055C241.732 605.85 254.1 618.96 267.063 631.425C267.378 631.727 267.921 631.294 267.592 630.952Z" fill="#5D5D5D"/>
<path d="M390.273 791.353C358.059 755.199 324.662 720.097 291.492 684.822C258.497 649.733 225.851 614.315 192.842 579.24C174.159 559.384 155.401 539.604 136.619 519.842C136.499 519.714 136.282 519.891 136.409 520.031C169.017 555.841 201.854 591.415 234.914 626.81C267.785 662.007 300.078 697.747 332.827 733.054C351.37 753.046 369.906 773.026 388.903 792.587C389.698 793.406 391.089 792.27 390.273 791.353Z" fill="#5D5D5D"/>
<path d="M399.271 774.579C357.841 732.238 316.431 689.715 273.661 648.722C273.582 648.646 273.448 648.754 273.529 648.841C313.746 692.288 355.521 734.397 397.111 776.525C398.363 777.793 400.637 775.974 399.271 774.579Z" fill="#5D5D5D"/>
<path d="M726.837 516.235C639.477 556.498 551.596 595.633 464.134 635.671C452.13 641.167 440.152 646.723 428.173 652.268C415.745 658.022 403.135 663.501 391.064 669.977C390.555 670.251 391.039 670.818 391.496 670.644C414.204 662.016 436.257 651.223 458.383 641.21C480.057 631.404 501.725 621.582 523.395 611.768C567.195 591.934 610.883 571.854 654.579 551.794C679.069 540.549 703.557 529.289 728.133 518.234C729.649 517.553 728.227 515.595 726.837 516.235Z" fill="#5D5D5D"/>
<path d="M739.085 532.668C728.051 538.292 717.479 544.959 706.679 551.029C695.638 557.231 684.515 563.28 673.336 569.229C651.194 581.013 628.85 592.414 606.315 603.425C561.253 625.446 515.454 645.982 469.006 664.907C442.411 675.746 415.623 686.095 388.72 696.149C387.918 696.448 388.284 697.591 389.075 697.313C436.492 680.717 483.128 661.873 529.081 641.585C575.185 621.228 620.542 599.18 665.087 575.601C677.594 568.981 690.02 562.206 702.434 555.407C715.008 548.52 728.017 541.953 740.025 534.116C741.034 533.459 740.084 532.157 739.085 532.668Z" fill="#5D5D5D"/>
<path d="M736.697 519.558C704.6 536.706 671.555 552.231 638.95 568.383C606.309 584.555 573.683 600.757 541.095 617.038C522.686 626.233 504.318 635.509 485.96 644.808C485.225 645.181 485.924 646.122 486.6 645.794C552.203 614.02 617.481 581.588 682.796 549.229C701.246 540.09 719.63 530.685 738.353 522.109C740.264 521.232 738.447 518.622 736.697 519.558Z" fill="#5D5D5D"/>
<path d="M742.403 565.797C720.54 576.385 698.976 587.663 677.245 598.529C655.494 609.407 633.668 620.139 611.869 630.922C568.773 652.24 525.926 674.061 483.01 695.735C458.513 708.108 433.982 720.448 409.8 733.425C409.584 733.541 409.789 733.807 409.988 733.715C454.057 713.116 497.397 690.91 540.941 669.232C583.98 647.806 626.757 625.874 669.71 604.278C694.25 591.938 719.043 580.012 743.422 567.36C744.585 566.758 743.479 565.277 742.403 565.797Z" fill="#5D5D5D"/>
<path d="M744.058 545.772C736.891 548.125 730.6 552.833 724.127 556.587C717.262 560.566 710.171 564.138 703.14 567.809C688.823 575.289 674.456 582.666 660.09 590.053C631.596 604.702 603.071 619.296 574.696 634.172C558.77 642.522 542.858 650.897 527.131 659.623C526.94 659.73 527.122 659.97 527.302 659.884C585.085 632.143 641.412 601.415 698.474 572.236C706.255 568.257 713.974 564.107 721.878 560.382C729.801 556.648 738.844 553.907 745.911 548.634C747.464 547.469 745.638 545.253 744.058 545.772Z" fill="#5D5D5D"/>
<path d="M612.998 648.032C556.368 676.497 500.161 705.836 443.859 734.948C427.923 743.187 412.076 751.591 396.287 760.113C396.053 760.24 396.276 760.537 396.496 760.432C453.595 732.797 509.918 703.541 566.449 674.773C582.457 666.625 598.476 658.496 614.408 650.205C616.022 649.367 614.486 647.285 612.998 648.032Z" fill="#5D5D5D"/>
<path d="M592.852 676.215C539.456 704.353 485.809 732.024 432.223 759.795C427.536 762.224 422.844 764.649 418.156 767.073C417.867 766.957 417.524 766.95 417.18 767.134C412.243 769.79 407.335 772.538 402.397 775.239C397.125 777.972 391.85 780.702 386.586 783.451C384.598 784.403 386.494 787.079 388.312 786.109C441.491 757.714 494.524 729.042 547.653 700.551C562.738 692.461 577.833 684.394 592.962 676.389C593.093 676.321 592.969 676.155 592.852 676.215Z" fill="#5D5D5D"/>
<path d="M617.858 676.154C556.701 707.24 495.24 737.726 434.124 768.895C416.92 777.67 399.559 786.199 382.579 795.405C380.911 796.31 382.495 798.416 384.048 797.665C414.988 782.672 445.307 766.275 475.796 750.39C506.057 734.62 536.331 718.877 566.558 703.044C583.662 694.083 600.764 685.119 617.912 676.243C617.98 676.207 617.917 676.123 617.858 676.154Z" fill="#5D5D5D"/>
<path d="M747.101 585.461C741.324 587.56 736.144 591.72 730.952 594.958C725.574 598.313 720.153 601.583 714.711 604.834C703.6 611.471 692.433 618.016 681.256 624.541C658.895 637.598 636.435 650.486 614.041 663.487C613.854 663.596 614.035 663.846 614.209 663.748C636.778 651.025 659.282 638.176 681.886 625.513C692.963 619.308 704.045 613.109 715.182 607.012C720.756 603.959 726.334 600.92 731.967 597.974C737.577 595.041 744.205 592.606 749.079 588.519C750.616 587.229 748.844 584.828 747.101 585.461Z" fill="#5D5D5D"/>
<path d="M744.846 608.795C744.122 609.111 743.475 609.469 742.829 609.855C725.8 618.755 708.946 628.004 692.016 637.088C674.433 646.523 656.815 655.921 639.608 666.027C639.395 666.152 639.594 666.41 639.795 666.317C657.958 657.858 675.772 648.666 693.595 639.52C711.392 630.388 729.296 621.434 746.977 612.076C749.437 610.773 747.105 607.807 744.846 608.795Z" fill="#5D5D5D"/>
<path d="M747.884 594.455C746.656 594.874 745.449 595.338 744.238 595.8C743.697 596.006 743.481 596.35 743.481 596.713C730.095 603.82 716.939 611.44 703.635 618.694C689.007 626.671 674.388 634.656 659.911 642.903C659.762 642.988 659.904 643.175 660.042 643.107C675.024 635.702 689.87 628.034 704.712 620.354C719.533 612.686 734.626 605.416 749.294 597.467C751.097 596.489 749.766 593.812 747.884 594.455Z" fill="#5D5D5D"/>
<path d="M744.879 574.791C734.414 578.569 724.426 584.693 714.467 589.653C704.069 594.83 693.659 599.985 683.253 605.153C662.457 615.48 641.587 625.677 621.007 636.43C620.117 636.896 620.962 637.988 621.78 637.619C642.776 628.154 663.521 618.132 684.321 608.238C694.592 603.35 704.865 598.46 715.14 593.578C720.399 591.079 725.666 588.596 730.928 586.108C736.118 583.655 741.731 581.493 746.589 578.441C748.627 577.162 747.225 573.945 744.879 574.791Z" fill="#5D5D5D"/>
<path d="M497.698 672.057L440.563 697.127C421.562 705.464 402.724 714.605 383.401 722.16C381.636 722.849 383.269 725.345 384.927 724.507C403.392 715.16 422.732 707.256 441.574 698.682C460.464 690.087 479.355 681.492 498.243 672.897C498.885 672.606 498.282 671.8 497.698 672.057Z" fill="#5D5D5D"/>
<path d="M459.899 652.386C453.264 654.026 446.945 657.249 440.702 659.973C434.451 662.701 428.23 665.501 421.995 668.265C409.094 673.988 395.823 679.247 383.219 685.602C381.25 686.596 383.12 688.9 384.894 688.183C397.956 682.889 410.637 676.39 423.422 670.461C429.593 667.6 435.78 664.77 441.934 661.873C448.004 659.015 454.509 656.428 460.008 652.554C460.105 652.487 459.988 652.366 459.899 652.386Z" fill="#5D5D5D"/>
<path d="M1034.14 353.582C1006.87 366.427 980.708 381.952 954.252 396.383C927.981 410.714 901.692 425.016 875.462 439.421C860.416 447.685 844.987 455.528 830.328 464.469C828.817 465.388 830.247 467.302 831.703 466.584C845.212 459.914 858.283 452.192 871.475 444.919C884.69 437.633 897.896 430.335 911.092 423.011C937.245 408.497 963.398 393.982 989.553 379.468C1004.57 371.135 1019.82 363.06 1034.31 353.845C1034.5 353.726 1034.32 353.497 1034.14 353.582Z" fill="#5D5D5D"/>
<path d="M1042.66 365.39C985.41 397.825 928.85 431.571 872.193 465.035C864.229 469.739 856.264 474.443 848.3 479.148C844.206 481.568 840.111 483.986 836.039 486.443C832.36 488.662 828.36 490.59 825.278 493.621C824.553 494.333 825.352 495.488 826.294 495.19C833.48 492.922 840.229 487.777 846.679 483.925C853.712 479.725 860.745 475.525 867.775 471.326C882.066 462.79 896.331 454.213 910.601 445.642C938.686 428.773 966.777 411.92 994.808 394.966C1010.86 385.258 1026.94 375.617 1042.87 365.71C1043.1 365.571 1042.88 365.269 1042.66 365.39Z" fill="#5D5D5D"/>
<path d="M1077.72 366.371C1045.11 384.957 1013.01 404.439 980.744 423.624C948.482 442.809 916.182 461.925 883.987 481.223C874.921 486.658 865.853 492.093 856.786 497.529C848.159 502.701 838.888 507.431 830.879 513.525C829.59 514.506 831.343 515.962 832.505 515.422C841.068 511.46 849.083 505.886 857.166 501.023C865.09 496.254 873.017 491.483 880.941 486.715C896.79 477.178 912.61 467.591 928.428 457.997C960.284 438.674 992.14 419.349 1024 400.026C1042.07 389.063 1060.16 378.131 1078.02 366.835C1078.35 366.63 1078.04 366.193 1077.72 366.371Z" fill="#5D5D5D"/>
<path d="M1073.04 397.345C1009.41 431.672 946.929 468.232 884.003 503.823C866.257 513.86 848.614 524.081 830.938 534.241C829.517 535.059 830.896 536.96 832.217 536.212C895.137 500.617 957.726 464.451 1020.39 428.415C1038.07 418.254 1055.74 408.119 1073.2 397.605C1073.39 397.494 1073.21 397.25 1073.04 397.345Z" fill="#5D5D5D"/>
<path d="M1071.07 413.551C1039.99 430.298 1009.88 449.032 979.467 466.951C949.478 484.623 919.465 502.251 889.522 520.002C872.364 530.172 854.424 539.635 838.027 550.994C836.93 551.754 837.948 553.186 839.082 552.616C854.812 544.711 869.727 534.875 884.861 525.882C900.045 516.86 915.215 507.809 930.377 498.745C960.248 480.891 990.117 463.037 1019.99 445.182C1037.17 434.914 1054.54 424.85 1071.31 413.929C1071.57 413.758 1071.33 413.411 1071.07 413.551Z" fill="#5D5D5D"/>
<path d="M1074.72 427.16C1057.97 435.468 1042.04 445.871 1025.92 455.338C1009.72 464.849 993.546 474.386 977.325 483.854C944.883 502.791 912.445 521.727 880.018 540.689C870.884 546.029 861.748 551.365 852.615 556.712C843.913 561.806 834.636 566.471 826.479 572.406C825.122 573.394 826.964 574.947 828.173 574.383C836.737 570.386 844.787 564.904 852.921 560.093C860.888 555.379 868.844 550.653 876.807 545.932C892.729 536.492 908.658 527.059 924.575 517.606C956.634 498.567 988.703 479.54 1020.81 460.583C1029.93 455.208 1039.03 449.829 1048.14 444.452C1057.22 439.096 1066.58 433.957 1075.25 427.969C1075.8 427.59 1075.29 426.879 1074.72 427.16Z" fill="#5D5D5D"/>
<path d="M1068.32 358.276C1054.54 365.891 1041.35 374.854 1027.85 382.989C1014.76 390.877 1001.67 398.755 988.584 406.657C961.975 422.729 935.676 439.309 909.12 455.457C908.935 455.568 909.116 455.82 909.288 455.717C936.011 439.807 962.995 424.329 989.676 408.338C1002.79 400.48 1015.88 392.6 1028.98 384.731C1042.5 376.613 1056.6 369.153 1069.79 360.537C1071.35 359.516 1069.86 357.425 1068.32 358.276Z" fill="#5D5D5D"/>
<path d="M1065.18 340.94C1059.42 343.195 1054.01 347.096 1048.64 350.15C1043.38 353.136 1038.13 356.121 1032.87 359.107C1022.13 365.209 1011.39 371.308 1000.67 377.441C979.25 389.703 957.669 401.732 936.654 414.686C936.406 414.839 936.64 415.157 936.879 415.034C959.106 403.609 980.833 391.213 1002.67 379.077C1013.47 373.076 1024.26 367.035 1035.04 361C1040.54 357.918 1046.05 354.836 1051.56 351.754C1056.61 348.925 1062.31 346.483 1066.89 342.943C1068.3 341.86 1066.38 340.471 1065.18 340.94Z" fill="#5D5D5D"/>
<path d="M1057.8 324.873C1048.15 331.007 1039.1 338.363 1029.86 345.099C1020.27 352.085 1010.76 359.174 1001.16 366.147C1001.04 366.232 1001.21 366.404 1001.32 366.331C1011.25 359.728 1021.26 353.245 1031.19 346.656C1040.76 340.311 1050.85 334.372 1059.99 327.429C1061.63 326.184 1059.37 323.877 1057.8 324.873Z" fill="#5D5D5D"/>
<path d="M1077.51 313.657C1073.95 315.715 1070.02 318.073 1066.62 320.797C1068.08 319.394 1069.39 317.773 1070.69 316.39C1073.42 313.493 1076.05 310.528 1078.55 307.434C1078.91 306.989 1078.19 306.498 1077.79 306.745C1074.3 308.893 1070.92 311.201 1067.59 313.598C1064.61 315.745 1060.44 317.868 1059.07 321.411C1058.47 322.986 1060.43 324.241 1061.79 323.853C1062.91 323.537 1063.92 322.98 1064.86 322.29C1064.11 322.973 1063.37 323.67 1062.71 324.396C1062.34 324.801 1062.73 325.373 1063.25 325.238C1063.59 325.152 1063.93 325.037 1064.27 324.94C1062.56 326.501 1060.93 328.118 1059.44 329.845C1057.32 332.316 1060.64 334.652 1062.96 333.011C1069.32 328.507 1074.63 322.268 1080.42 317.056C1082.47 315.214 1079.65 312.421 1077.51 313.657Z" fill="#5D5D5D"/>
<path d="M1075.69 327.856C1071.39 330.754 1066.83 334.054 1063.24 337.8C1061.81 339.284 1064.05 340.946 1065.48 339.816C1069.49 336.636 1073.18 332.474 1076.41 328.505C1076.74 328.094 1076.06 327.602 1075.69 327.856Z" fill="#5D5D5D"/>
<path d="M1082.1 331.132C1077.89 332.953 1074.03 335.325 1070.12 337.689C1066.64 339.792 1062.31 341.716 1059.63 344.8C1057.84 346.859 1060.22 348.914 1062.41 348.051C1066.21 346.557 1069.51 343.223 1072.69 340.685C1076.18 337.888 1079.67 335.147 1082.74 331.877C1083.16 331.423 1082.59 330.918 1082.1 331.132Z" fill="#5D5D5D"/>
<path d="M1083.11 337.394C1078.27 339.8 1073.85 342.679 1069.4 345.744C1065.02 348.765 1060.27 351.64 1056.26 355.131C1054.11 357 1057.11 360.102 1059.31 358.689C1063.65 355.895 1067.58 352.34 1071.58 349.089C1075.85 345.619 1079.96 342.124 1083.67 338.052C1084.03 337.66 1083.55 337.174 1083.11 337.394Z" fill="#5D5D5D"/>
<path d="M1082.18 344.504C1078.72 346.533 1075.46 348.778 1071.94 350.739C1068.84 352.461 1065.67 354.055 1062.92 356.314C1062.53 356.63 1062.99 357.099 1063.37 357.016C1063.54 356.978 1063.71 356.931 1063.88 356.891C1062.49 357.945 1061.16 359.064 1059.93 360.325C1057.29 363.049 1060.87 366.508 1063.93 364.98C1067.95 362.967 1071.34 360.109 1074.9 357.379C1078.58 354.557 1082.29 351.756 1085.79 348.714C1088.37 346.474 1084.81 342.955 1082.18 344.504Z" fill="#5D5D5D"/>
<path d="M1086.25 355.29C1081.94 357.477 1077.78 359.79 1073.63 362.263C1070.13 364.351 1065.89 366.135 1063.29 369.32C1061.95 370.97 1064.35 373.194 1066.06 372.568C1069.97 371.141 1073.03 367.895 1076.23 365.286C1079.89 362.293 1083.4 359.236 1086.85 355.993C1087.27 355.595 1086.69 355.062 1086.25 355.29Z" fill="#5D5D5D"/>
<path d="M1088.27 362.525C1083.57 364.712 1079.18 367.555 1074.81 370.321C1070.72 372.903 1066.39 375.383 1062.61 378.397C1060.26 380.264 1063.49 383.452 1065.77 382.086C1069.91 379.612 1073.73 376.459 1077.57 373.551C1081.63 370.48 1085.78 367.429 1089.4 363.844C1090.18 363.068 1089.12 362.127 1088.27 362.525Z" fill="#5D5D5D"/>
<path d="M1087.59 377.692C1084.63 379.175 1081.7 380.675 1078.78 382.222C1078.81 382.207 1078.82 382.19 1078.84 382.175C1082.46 379.327 1085.97 376.331 1089.53 373.404C1090.66 372.469 1089.12 371.096 1088.02 371.647C1083.79 373.78 1079.51 375.846 1075.32 378.066C1071.73 379.976 1067.65 381.723 1065.21 385.082C1063.74 387.1 1066.35 389.164 1068.3 388.696C1068.46 388.657 1068.61 388.61 1068.77 388.565C1068.89 388.991 1069.32 389.336 1069.88 389.167C1070.85 388.868 1071.8 388.545 1072.77 388.233C1070.34 390.061 1067.97 391.96 1065.57 393.823C1063.32 395.563 1060.94 397.068 1059.49 399.556C1058.33 401.533 1060.44 403.844 1062.58 403.17C1067.82 401.516 1072.33 396.79 1076.6 393.436C1081.48 389.608 1086.21 385.598 1090.84 381.478C1093.19 379.379 1089.98 376.492 1087.59 377.692Z" fill="#5D5D5D"/>
<path d="M1086.65 390.697C1083.25 393.275 1079.84 395.845 1076.44 398.429C1073.44 400.719 1069.52 402.962 1067.54 406.225C1066.25 408.364 1068.95 410.048 1070.82 409.171C1074.27 407.552 1076.99 404.01 1079.64 401.303C1082.57 398.303 1085.48 395.289 1088.4 392.281C1089.54 391.113 1087.77 389.845 1086.65 390.697Z" fill="#5D5D5D"/>
<path d="M1086.05 400.257C1081.68 402.766 1077.48 405.526 1073.28 408.306C1069.75 410.639 1065.21 412.908 1062.7 416.358C1061.44 418.084 1063.7 420.267 1065.5 419.645C1069.65 418.215 1073.13 414.813 1076.54 412.112C1080.45 409.016 1084.34 405.931 1088.04 402.586C1089.45 401.322 1087.52 399.416 1086.05 400.257Z" fill="#5D5D5D"/>
<path d="M1090.25 406.557C1080.98 412.208 1072.03 418.972 1063.47 425.647C1060.56 427.915 1064.92 431.374 1067.55 429.325C1075.89 422.824 1084.43 415.971 1091.95 408.532C1093.06 407.433 1091.52 405.786 1090.25 406.557Z" fill="#5D5D5D"/>
<path d="M1090.55 414.399C1085.5 417.715 1080.57 421.104 1075.7 424.681C1070.99 428.146 1065.09 431.449 1061.39 435.992C1059.74 438.02 1063 439.916 1064.74 439.016C1069.73 436.434 1073.97 431.61 1078.16 427.909C1082.73 423.879 1087.12 419.733 1091.45 415.452C1092.04 414.871 1091.21 413.963 1090.55 414.399Z" fill="#5D5D5D"/>
<path d="M1097.61 425.577C1093.3 427.306 1089.16 429.538 1085.05 431.777C1088.86 428.666 1092.63 425.541 1096.31 422.293C1097.92 420.88 1095.67 418.531 1094.02 419.614C1089.75 422.411 1085.58 425.314 1081.43 428.266C1077.5 431.053 1072.23 433.677 1069.5 437.713C1069 438.469 1069.11 439.317 1069.56 439.979C1067.44 441.033 1065.31 442.135 1063.7 443.835C1062.7 444.893 1062.89 446.209 1063.68 447.026C1061 448.411 1058.32 449.795 1055.65 451.178C1055 451.508 1055.62 452.363 1056.21 452.047C1058.98 450.564 1061.74 449.08 1064.51 447.598C1065.01 447.811 1065.59 447.875 1066.21 447.714C1069.28 446.919 1071.77 444.984 1074.43 443.295C1077.3 441.463 1080.17 439.632 1083.04 437.796C1088.39 434.378 1094.05 431.183 1099.01 427.202C1100.12 426.307 1098.59 425.183 1097.61 425.577Z" fill="#5D5D5D"/>
<path d="M393.507 769.907C392.061 769.583 390.858 770.043 389.495 770.471C388.264 770.858 387.252 771.219 386.292 772.111C385.27 773.059 385.916 774.386 387.074 774.774C388.289 775.181 389.325 775.101 390.584 774.98C392.111 774.834 393.381 774.768 394.66 773.833C396.261 772.661 395.161 770.276 393.507 769.907Z" fill="#5D5D5D"/>
<path d="M312.996 264.322C309.732 253.729 307.521 242.825 306.525 231.784C303.762 233.936 300.813 235.765 297.691 237.259C298.884 247.782 301.103 258.201 304.298 268.345C307.207 267.025 310.105 265.683 312.996 264.322Z" fill="#5D5D5D"/>
<path d="M339.195 315.307C335.254 308.31 330.025 302.059 326.07 295.011C324.64 292.465 323.311 289.871 322.034 287.251C319.141 288.533 316.309 289.93 313.502 291.377C314.251 292.918 315.014 294.452 315.809 295.97C319.204 302.456 322.971 309.521 327.677 315.453C272.428 342.616 216.422 368.23 161.445 395.957C153.468 399.982 145.5 404.02 137.556 408.11C130.103 411.951 121.987 415.36 115.297 420.47C114.225 421.287 115.493 422.649 116.536 422.386C118.571 421.871 120.574 421.21 122.554 420.47C122.505 420.508 122.455 420.545 122.406 420.583C122.059 420.85 122.15 421.212 122.402 421.446C122.313 422.182 122.768 423.012 123.595 423.148C124.075 423.227 124.501 423.407 125.001 423.437C125.371 423.459 125.751 423.434 126.122 423.433C127.034 423.43 127.929 423.476 128.805 423.183C129.788 422.854 130.617 422.062 130.432 420.944C130.243 419.808 129.277 419.272 128.203 419.173C128.034 419.156 127.87 419.167 127.705 419.172C129.05 418.598 130.39 418.017 131.706 417.375C132.149 417.159 132.124 416.753 131.895 416.473C133.794 415.599 135.683 414.718 137.566 413.882C144.816 410.662 152.064 407.431 159.287 404.148C173.711 397.598 188.062 390.902 202.411 384.193C231.065 370.794 259.555 357.044 288.099 343.412C303.461 336.076 318.776 328.627 334.203 321.428C337.487 322.06 341.21 318.888 339.195 315.307Z" fill="#5D5D5D"/>
<path d="M359.987 93.4349C346.227 101.278 334.904 113.711 325.856 126.572C316.387 140.035 308.949 155.001 303.987 170.697C303.895 170.992 303.807 171.289 303.717 171.584C306.494 170.362 309.353 169.327 312.276 168.485C312.914 168.233 313.557 167.995 314.197 167.749C317.843 156.869 322.635 146.361 328.511 136.455C337.653 121.047 349.454 108.195 361.08 94.7104C361.72 93.9646 360.849 92.9423 359.987 93.4349Z" fill="#5D5D5D"/>
<path d="M761.096 114.782C756.861 118.044 752.917 120.27 747.409 120.519C741.824 120.771 738.091 118.308 733.147 116.43C732.727 116.271 732.242 116.569 732.468 117.041C732.513 117.14 732.575 117.229 732.624 117.324C732.297 117.292 731.947 117.342 731.598 117.519C676.811 145.271 621.191 171.35 566.297 198.892C550.709 206.713 535.082 214.431 519.873 222.969C519.334 223.27 519.845 223.906 520.342 223.693C548.623 211.643 576.151 197.701 603.735 184.146C631.285 170.609 658.657 156.695 686.262 143.272C701.985 135.626 717.667 127.89 733.449 120.37C733.91 120.15 734.169 119.845 734.284 119.512C737.684 122.795 743.748 124.078 747.941 124.22C753.994 124.425 760.893 122.122 764.854 117.392C766.691 115.194 762.818 113.453 761.096 114.782Z" fill="#5D5D5D"/>
<path d="M1040.97 294.735C964.359 256.79 891.856 211.706 824.013 159.693C804.692 144.879 785.933 129.272 766.273 114.911C766.017 114.726 765.622 115 765.878 115.267C780.741 130.838 797.407 144.681 814.129 158.196C830.926 171.769 848.257 184.709 865.826 197.267C900.444 222.012 936.33 244.876 973.189 266.133C994.192 278.245 1015.59 289.604 1037.33 300.336C1041.17 302.235 1045.16 296.812 1040.97 294.735Z" fill="#5D5D5D"/>
<path d="M1032.8 304.651C1034.58 303.536 1036.45 303.896 1038.41 303.53C1040.79 303.086 1040.71 300.346 1039.04 299.185C1035.94 297.033 1031.14 298.755 1028.44 300.85C1025.52 303.107 1023.61 306.603 1023.96 310.338C1024.31 314.081 1028.24 318.428 1032.36 319.576C1026.47 322.061 1020.91 326.052 1015.49 329.187L994.171 341.499C980.191 349.572 966.209 357.647 952.226 365.722C924.498 381.736 896.874 397.927 869.232 414.094C861.467 418.636 853.733 423.23 845.993 427.812C842.122 430.101 838.288 432.445 834.456 434.799C831.281 436.749 827.675 438.378 825.573 441.559C825.548 441.597 825.584 441.648 825.584 441.648C828.786 441.332 831.184 439.897 833.956 438.397C837.453 436.504 840.967 434.637 844.442 432.703C851.613 428.705 858.757 424.657 865.906 420.618C879.968 412.673 893.977 404.635 908.012 396.64C935.845 380.788 963.579 364.764 991.324 348.759C999.12 344.263 1006.92 339.766 1014.71 335.268C1018.61 333.019 1022.51 330.773 1026.4 328.523C1030.18 326.344 1034.29 324.394 1037.48 321.386C1038.28 320.631 1038.13 319.608 1037.53 318.955C1037.93 318.698 1038.32 318.39 1038.69 318.008C1038.92 317.77 1038.82 317.38 1038.48 317.308C1034.55 316.481 1029.79 314.781 1029.74 309.916C1029.71 307.79 1031.03 305.757 1032.8 304.651Z" fill="#5D5D5D"/>
<path d="M755.298 610.458C755.089 604.936 754.9 599.412 754.663 593.89C754.178 582.582 753.645 571.272 753.094 559.967C752.142 540.455 750.999 520.625 747.316 501.378C748.639 500.074 748.973 498.105 746.99 496.274C746.692 496.001 746.39 495.737 746.092 495.464C745.958 494.856 745.83 494.246 745.688 493.639C745.625 493.368 745.234 493.462 745.202 493.698C745.16 493.985 745.127 494.272 745.086 494.56C734.388 484.882 722.819 476.045 711.688 466.885C699.855 457.15 688.02 447.413 676.187 437.677C652.483 418.175 628.65 398.866 604.639 379.748C591.257 369.094 578.14 357.756 563.449 348.921C562.264 348.209 560.971 349.677 561.905 350.722C572.061 362.076 584.086 371.646 595.65 381.511C607.081 391.263 618.41 401.13 629.96 410.739C653.308 430.165 676.742 449.486 700.166 468.82C713.582 479.894 726.686 491.634 740.703 501.934C741.742 502.697 742.951 502.946 744.103 502.836C742.166 522.285 742.704 542.076 743.44 561.546C743.856 572.591 744.222 583.639 744.693 594.681C745.176 605.954 744.82 617.772 746.713 628.901C747.534 633.726 755.249 632.221 755.624 627.816C756.118 622.078 755.518 616.206 755.298 610.458Z" fill="#5D5D5D"/>
<path d="M682.239 446.024C678.457 445.406 675.391 446.789 671.809 447.88C667.943 449.055 664.051 450.149 660.134 451.143C652.337 453.121 644.41 454.705 636.437 455.801C621.334 457.878 605.593 457.726 590.807 453.731C566.51 447.163 542.907 428.655 535.47 403.808C535.434 403.687 535.233 403.733 535.26 403.859C538.068 417.232 543.8 427.94 553.671 437.512C563.038 446.596 574.508 453.296 586.785 457.613C601.869 462.916 618.207 464.265 634.085 463.184C642.507 462.608 650.838 461.317 659.082 459.52C663.598 458.536 668.083 457.405 672.538 456.169C676.35 455.111 681.068 454.558 683.872 451.596C685.608 449.764 685.035 446.479 682.239 446.024Z" fill="#5D5D5D"/>
<path d="M738.182 297.975C712.414 269.424 675.847 251.521 637.54 248.53C614.617 246.739 590.105 249.652 569.51 260.322C569.06 260.555 569.399 261.168 569.849 261.047C589.037 255.874 608.375 252.128 628.342 252.868C647.555 253.582 666.598 258.098 684.005 266.281C714.86 280.787 742.985 307.384 755.342 339.611C762.457 358.165 763.955 379.307 754.579 397.352C752.684 400.998 758.072 403.423 760.255 400.339C783.231 367.881 761.397 323.696 738.182 297.975Z" fill="#5D5D5D"/>
<path d="M848.433 264.917C850.633 266.43 853.974 263.022 851.596 261.228C849.09 259.339 846.549 257.487 843.994 255.655C843.667 253.798 843.092 251.946 842.241 250.148C837.285 239.654 825.771 235.386 814.759 235.48C806.199 229.605 797.452 223.983 788.808 218.232C796.719 215.811 805.831 216.405 812.778 219.872C813.477 220.22 814.153 219.31 813.438 218.857C805.184 213.634 794.931 212.993 785.889 216.279C783.411 214.613 780.939 212.938 778.489 211.234C778.233 211.053 777.804 211.373 778.094 211.589C780.348 213.268 782.581 214.979 784.807 216.697C783.721 217.134 782.649 217.617 781.606 218.17C779.109 219.494 776.388 221.563 774.011 224.06C770.67 221.816 767.323 219.58 763.968 217.354C763.702 217.18 763.312 217.571 763.591 217.794C766.702 220.283 769.822 222.763 772.946 225.234C768.022 230.953 765.163 238.498 770.308 244.667C774.16 249.285 780.702 249.852 786.21 248.534C790.189 247.582 793.932 245.978 797.716 244.473C800.183 246.351 802.65 248.233 805.129 250.097C812.059 255.303 818.983 260.515 825.913 265.718C828.136 267.386 830.373 269.034 832.608 270.687C828.954 273.052 824.069 273.617 819.464 272.563C810.762 270.568 805.169 263.62 798.131 258.792C796.043 257.359 792.237 260.138 794.094 262.427C802.22 272.447 816.442 281.335 829.788 278.062C832.755 277.335 835.308 276.014 837.418 274.279C840.453 276.618 843.51 279.168 846.914 280.843C849.038 281.89 851.544 279.527 849.701 277.592C847.153 274.921 843.847 272.825 840.747 270.705C842.576 268.126 843.726 265.101 844.14 261.913C845.564 262.926 846.995 263.927 848.433 264.917ZM834.671 249.114C831.257 246.76 827.827 244.425 824.403 242.089C826.323 242.736 828.17 243.6 829.905 244.723C831.744 245.914 833.357 247.411 834.671 249.114ZM787.12 243.392C783.427 244.772 779.04 245.834 775.368 243.753C771.374 241.489 771.261 236.641 772.606 232.772C773.313 230.731 774.3 228.892 775.499 227.25C781.353 231.864 787.229 236.443 793.14 240.981C791.154 241.803 789.158 242.63 787.12 243.392ZM796.691 239.531C790.041 234.912 783.353 230.351 776.636 225.828C779.472 222.562 783.236 220.198 787.401 218.702C794.728 224.407 801.975 230.235 809.35 235.882C809.083 235.92 808.817 235.956 808.553 235.998C804.375 236.671 800.508 238.014 796.691 239.531ZM837.942 262.947C837.558 264.645 836.895 266.11 836.035 267.367C833.604 265.62 831.174 263.869 828.732 262.138C821.4 256.949 814.069 251.76 806.738 246.57C805.041 245.367 803.33 244.184 801.629 242.99C803.687 242.267 805.78 241.642 807.959 241.237C810.458 240.772 813.027 240.546 815.582 240.602C823.113 246.283 830.608 252.062 838.226 257.644C838.428 259.376 838.349 261.16 837.942 262.947Z" fill="#5D5D5D"/>
<path d="M985.619 289.331C982.452 289.856 983.261 294.56 986.379 294.386C995.777 293.86 1001.66 303.749 998.705 312.188C995.811 320.473 987.065 325.733 978.551 326.076C969.331 326.447 960.631 321.063 958.67 311.672C956.633 301.924 966.002 292.109 975.907 295.306C976.312 295.437 976.499 294.859 976.088 294.713C968.538 292.012 959.974 295.566 956.506 302.839C952.763 310.691 956.029 320.426 962.605 325.684C977.424 337.538 1005.5 327.215 1005.37 306.933C1005.3 296.643 995.955 287.623 985.619 289.331Z" fill="#5D5D5D"/>
<path d="M1069.59 306.647C1065.27 308.565 1061.48 311.699 1057.51 314.274C1053.52 316.87 1049.43 319.309 1045.37 321.792C1037.47 326.618 1029.57 331.443 1021.67 336.27C1005.87 345.921 990.071 355.574 974.271 365.227C942.451 384.664 910.593 404.06 879.135 424.079C870.213 429.759 861.316 435.479 852.409 441.18C848.176 443.887 843.991 446.666 839.801 449.437C835.566 452.238 830.987 454.859 827.623 458.706C827.129 459.271 827.641 460.07 828.379 459.874C836.949 457.62 845.046 451.818 852.683 447.427C860.715 442.808 868.712 438.126 876.728 433.478C892.978 424.048 909.12 414.431 925.21 404.729C957.375 385.33 989.468 365.811 1021.56 346.289C1030.6 340.791 1039.64 335.293 1048.68 329.794C1052.97 327.182 1057.23 324.504 1061.6 322.01C1066.29 319.327 1071.41 317.076 1075.61 313.674C1080.31 309.87 1073.9 304.732 1069.59 306.647Z" fill="#5D5D5D"/>
<path d="M732.363 501.552C714.67 522.361 687.383 532.184 660.621 533.16C630.59 534.252 601.274 523.535 575.496 508.922C546.925 492.727 520.587 472.69 494.939 452.271C468.11 430.916 442.191 408.416 416.731 385.455C402.325 372.459 388.123 359.236 373.998 345.935C359.864 332.625 345.781 318.779 329.898 307.569C328.829 306.816 326.44 307.721 327.556 309.195C337.827 322.789 350.284 334.874 362.572 346.677C356.707 349.124 351.221 352.822 345.574 355.695C338.978 359.051 332.388 362.418 325.803 365.795C313.102 372.306 300.416 378.842 287.697 385.313C261.792 398.493 235.886 411.656 210.231 425.317C210.051 425.412 210.222 425.639 210.388 425.557C236.394 413.063 262.151 400.082 287.92 387.105C300.68 380.679 313.471 374.32 326.249 367.931C332.639 364.739 339.026 361.542 345.403 358.33C351.733 355.143 358.875 352.678 364.842 348.85C368.489 352.348 372.156 355.826 375.816 359.312C349.31 373.133 322.549 386.369 295.73 399.572C282.282 406.19 268.801 412.746 255.413 419.485C241.921 426.274 227.669 432.451 214.842 440.445C214.171 440.864 214.802 441.607 215.438 441.364C229.593 435.897 243.155 428.258 256.76 421.558C270.197 414.944 283.546 408.143 296.923 401.41C323.862 387.851 350.794 374.358 378.045 361.438C386.125 369.12 394.228 376.782 402.379 384.39C428.523 408.791 455.227 432.566 482.998 455.104C509.522 476.63 536.797 498.19 566.622 515.009C593.806 530.336 624.362 541.447 655.884 540.969C687.331 540.492 718.677 529.715 739.499 505.31C742.802 501.434 735.392 497.986 732.363 501.552Z" fill="#5D5D5D"/>
<path d="M322.418 405.472C304.319 413.83 286.48 422.637 268.682 431.616C259.926 436.035 251.151 440.416 242.45 444.944C238.221 447.144 233.994 449.343 229.765 451.543C225.522 453.751 220.913 455.678 217.016 458.455C216.268 458.988 217.152 460.062 217.894 459.811C222.207 458.349 226.262 455.905 230.334 453.872C234.606 451.738 238.877 449.607 243.15 447.473C252.161 442.978 261.099 438.338 270.051 433.727C287.706 424.636 305.245 415.415 322.573 405.713C322.752 405.614 322.583 405.395 322.418 405.472Z" fill="#5D5D5D"/>
<path d="M383.823 390.174C370.814 397.132 357.446 403.48 344.401 410.389C331.369 417.291 318.337 424.189 305.345 431.165C279.379 445.108 253.547 459.287 227.645 473.349C226.829 473.792 227.61 474.858 228.366 474.46C254.468 460.71 280.629 447.077 306.67 433.204C319.679 426.271 332.647 419.265 345.616 412.261C358.567 405.266 371.228 397.69 384.197 390.754C384.623 390.526 384.214 389.963 383.823 390.174Z" fill="#5D5D5D"/>
<path d="M415.753 397.688C364.778 423.071 313.371 447.572 262.384 472.934C261.877 473.187 262.357 473.828 262.824 473.61C314.55 449.533 365.871 424.594 417.605 400.536C419.748 399.542 417.721 396.71 415.753 397.688Z" fill="#5D5D5D"/>
<path d="M395.017 374.286C389.804 376.264 384.909 379.203 379.869 381.592C374.419 384.177 368.97 386.761 363.521 389.346C352.632 394.51 341.804 399.804 330.956 405.051C330.626 405.212 330.937 405.62 331.236 405.487C342.04 400.654 352.867 395.869 363.632 390.952C368.891 388.549 374.148 386.149 379.407 383.746C384.867 381.253 390.739 379.256 395.973 376.331C397.176 375.658 396.292 373.801 395.017 374.286Z" fill="#5D5D5D"/>
<path d="M416.647 384.806C408.772 387.831 401.165 391.545 393.685 395.441C393.16 395.714 393.554 396.503 394.092 396.311C402.124 393.416 410.117 390.328 417.775 386.547C419.117 385.884 417.839 384.348 416.647 384.806Z" fill="#5D5D5D"/>
<path d="M425.923 403.569C367.097 433.583 307.086 461.21 248.165 491.035C247.729 491.255 248.143 491.798 248.541 491.614C308.685 464.016 367.792 434.21 428.025 406.804C430.455 405.699 428.157 402.429 425.923 403.569Z" fill="#5D5D5D"/>
<path d="M223.788 191.714C218.999 188.825 213.194 187.089 207.92 185.272C202.984 183.572 198.018 181.97 192.981 180.601C181.646 177.526 170.028 175.518 158.323 174.59C135.839 172.805 113.164 174.899 91.6175 181.67C91.1483 181.818 91.4694 182.405 91.8916 182.305C113.672 177.079 136.262 175.047 158.589 177.165C169.134 178.166 179.597 180.051 189.825 182.799C195.451 184.309 201.04 186.057 206.464 188.187C211.573 190.193 216.461 193.058 221.609 194.873C223.532 195.552 226.011 193.053 223.788 191.714Z" fill="#BDD7D2"/>
<path d="M261.473 263.505C246.222 264.485 231.385 264.342 216.41 260.845C201.606 257.388 186.018 251.397 173.462 242.696C173.341 242.611 173.174 242.77 173.305 242.864C179.529 247.368 185.532 251.705 192.394 255.226C199.469 258.857 206.878 261.666 214.522 263.842C221.932 265.948 229.734 267.526 237.601 268.301C231.818 268.916 226.006 269.265 220.192 269.352C207.876 269.536 195.558 268.489 183.436 266.331C159.049 261.988 136.906 252.763 114.768 241.995C114.473 241.852 114.165 242.24 114.448 242.459C133.84 257.435 158.744 266.172 182.743 270.466C194.81 272.625 207.097 273.628 219.352 273.533C225.839 273.482 232.328 273.103 238.778 272.391C244.287 271.783 251.087 271.63 256.114 269.174C256.459 269.006 256.671 268.747 256.781 268.451C258.548 268.288 260.303 268.082 262.044 267.809C265.08 267.337 264.448 263.314 261.473 263.505Z" fill="#BDD7D2"/>
<path d="M310.147 238.736C311.678 237.134 309.388 234.497 307.232 235.197C300.15 237.498 293.493 240.812 286.271 242.836C278.847 244.915 271.271 246.378 263.6 247.166C248.335 248.732 233.314 247.181 218.25 244.635C217.764 244.551 217.482 245.246 217.993 245.426C232.621 250.599 248.66 251.768 264.065 250.697C271.688 250.169 279.284 249.007 286.71 247.203C289.163 246.607 291.715 245.978 294.275 245.265C289.759 247.294 285.232 249.297 280.755 251.406C271.752 255.646 262.763 259.838 254.068 264.69C253.624 264.938 254.075 265.525 254.486 265.385C264.353 262.013 273.952 257.981 283.549 253.917C288.102 251.99 292.612 249.961 297.138 247.974C301.74 245.954 306.731 244.236 311.015 241.596C312.502 240.674 311.494 238.991 310.147 238.736Z" fill="#BDD7D2"/>
<path d="M329.972 207.235C321.498 209.906 313.4 213.552 304.815 215.985C295.983 218.491 286.989 220.398 277.902 221.693C259.832 224.27 241.804 224.149 223.634 222.926C222.977 222.882 222.803 223.734 223.477 223.863C241.657 227.38 260.712 227.268 279.04 224.955C288.033 223.822 296.958 222.107 305.733 219.836C314.552 217.555 324.045 215.089 332.154 210.851C334.527 209.609 332.092 206.564 329.972 207.235Z" fill="#BDD7D2"/>
<path d="M330.808 215.034C321.543 220.551 312.56 227.026 304.106 233.712C303.886 233.886 304.144 234.159 304.363 234.035C313.832 228.793 323.321 223.002 332.023 216.562C333.084 215.777 331.829 214.427 330.808 215.034Z" fill="#BDD7D2"/>
<path d="M361.309 143.858C347.943 150.44 334.749 156.814 320.627 161.661C306.79 166.411 292.611 170.197 278.238 172.927C264.139 175.605 249.878 177.417 235.545 178.199C228.27 178.596 220.997 178.643 213.712 178.649C206.137 178.656 198.262 178.979 190.724 178.351C190.529 178.333 190.478 178.603 190.677 178.625C196.553 179.303 202.303 180.452 208.234 180.878C213.822 181.279 219.399 181.447 225.002 181.428C236.853 181.384 248.702 180.656 260.469 179.254C283.472 176.517 306.193 171.05 327.987 163.203C340.263 158.783 352.678 154.041 364.214 147.905C360.841 168.661 350.368 186.38 336.026 201.495C335.017 202.557 336.859 203.704 337.811 202.852C353.435 188.87 362.334 168.221 364.665 147.642C367.231 145.972 363.91 142.576 361.309 143.858Z" fill="#BDD7D2"/>
<path d="M83.6804 10.3927C76.4512 15.2069 70.7048 23.9078 66.429 31.3185C61.889 39.1848 58.5652 47.7537 56.4711 56.588C52.267 74.3332 53.1794 93.5922 60.6037 110.363C61.126 111.546 63.1028 111.003 62.6768 109.68C57.2651 92.8699 56.4291 75.0703 60.6926 57.8968C62.7447 49.6243 65.9932 41.6395 70.2863 34.2744C72.5754 30.3481 75.172 26.6057 78.044 23.0806C80.7924 19.7086 84.194 16.8996 86.9129 13.5474C88.5686 11.504 85.7004 9.04938 83.6804 10.3927Z" fill="#BDD7D2"/>
<path d="M92.1462 81.8857C91.251 76.4209 89.2162 71.2253 88.5137 65.6765C87.8037 60.0771 87.8111 54.4542 88.347 48.8388C89.4298 37.5203 93.3488 27.0697 98.7062 17.1217C98.8507 16.855 98.4123 16.6315 98.2345 16.8476C90.8794 25.7239 86.6085 36.9338 84.8503 48.2523C83.9761 53.8789 83.8811 59.6869 84.3885 65.3542C84.8886 70.9561 85.7344 77.6383 88.5717 82.5982C89.4125 84.0662 92.5043 84.0699 92.1462 81.8857Z" fill="#BDD7D2"/>
<path d="M102.414 91.428C102.393 86.2262 102.307 81.0256 102.209 75.825C102.014 65.43 101.42 55.0733 100.839 44.6931C100.822 44.382 100.249 44.3412 100.226 44.666C99.4627 55.256 98.7033 65.8189 98.3329 76.43C98.1514 81.6232 97.9946 86.8114 97.8884 92.0046C97.7958 96.6101 97.0365 101.772 98.3416 106.227C98.8626 107.999 101.399 107.395 101.849 105.969C103.242 101.556 102.431 96.0075 102.414 91.428Z" fill="#BDD7D2"/>
<path d="M111.518 111.375C111.249 106.394 110.935 101.413 110.644 96.4322C110.061 86.4533 108.715 76.5645 108.009 66.6128C107.983 66.251 107.394 66.293 107.394 66.6622C107.398 76.6818 106.76 86.6854 106.887 96.7248C106.947 101.46 106.997 106.196 107.068 110.93C107.136 115.566 106.497 121.13 108.076 125.503C108.682 127.183 111.143 126.766 111.582 125.247C112.79 121.062 111.752 115.713 111.518 111.375Z" fill="#BDD7D2"/>
<path d="M118.054 131.888L118.433 120.28C118.662 113.253 119.03 106.161 118.338 99.1551C118.296 98.7353 117.629 98.718 117.539 99.1205C115.913 106.362 115.437 113.843 114.779 121.224C114.183 127.921 112.347 135.805 113.501 142.465C113.838 144.4 116.583 144.421 117.126 142.628C118.167 139.188 117.936 135.458 118.054 131.888Z" fill="#BDD7D2"/>
<path d="M83.5393 132.693C80.4859 126.08 75.2396 120.487 68.8623 116.99C57.2104 110.601 38.7429 111.753 30.3074 123.101C30.1592 123.3 30.4111 123.501 30.6049 123.391C41.7482 117.108 54.9484 114.139 66.5757 121.292C71.6515 124.413 75.452 129.171 77.8979 134.555C80.6131 140.531 80.2476 146.181 80.8983 152.498C81.1193 154.638 84.6271 155.289 85.5099 153.269C88.2744 146.933 86.3335 138.743 83.5393 132.693Z" fill="#BDD7D2"/>
<path d="M27.6274 130.301C24.19 126.996 19.8129 124.556 15.8693 121.896C14.9148 121.253 13.9604 120.612 13.0072 119.969C18.0238 121.317 23.1195 122.408 28.1521 122.362C28.3694 122.361 28.4966 122.042 28.2916 121.919C20.771 117.409 11.2329 115.767 2.85173 113.419C1.04165 112.91 -0.29677 115.46 1.30341 116.557C5.50018 119.437 9.72782 122.27 13.9555 125.105C17.8571 127.719 21.6946 130.741 25.9938 132.67C27.6064 133.394 28.8967 131.52 27.6274 130.301Z" fill="#BDD7D2"/>
<path d="M130.377 287.227C120.273 280.809 109.868 275.039 100.322 267.754C90.5408 260.288 81.42 251.934 73.2129 242.761C56.9999 224.642 44.4701 203.709 35.6222 181.095C30.4673 167.928 27.467 154.266 24.0098 140.606C23.9555 140.389 23.5233 140.301 23.5172 140.585C22.9838 164.903 32.2033 190.138 43.591 211.283C55.4763 233.348 71.7436 253.306 91.2643 269.067C102.164 277.868 114.369 286.442 127.651 291.174C130.07 292.037 133.115 288.964 130.377 287.227Z" fill="#BDD7D2"/>
<path d="M137.093 173.288C134.893 170.463 131.993 168.049 129.439 165.535C127.05 163.185 124.636 160.92 121.892 158.987C121.587 158.771 120.933 159.002 121.168 159.448C122.663 162.296 124.524 164.869 126.487 167.415C128.642 170.209 130.651 173.312 133.153 175.797C135.082 177.712 139.093 175.858 137.093 173.288Z" fill="#BDD7D2"/>
<path d="M183.847 285.784C173.726 288.869 163.447 291.254 152.785 290.339C142.169 289.43 132.777 285.544 123.792 279.984C120.708 278.075 116.619 281.623 119.862 284.272C136.602 297.936 167.081 300.681 184.295 286.526C184.699 286.193 184.326 285.639 183.847 285.784Z" fill="#BDD7D2"/>
<path d="M253.481 313.333C231.591 315.006 209.36 311.945 187.969 307.28C177.332 304.959 166.819 302.079 156.575 298.377C146.237 294.644 136.116 290.296 125.802 286.547C125.026 286.266 124.216 287.145 124.969 287.755C129.226 291.191 133.327 294.277 138.236 296.818C143.313 299.445 148.54 301.732 153.864 303.811C164.355 307.905 175.175 311.177 186.214 313.418C208.56 317.956 231.096 317.062 253.582 314.117C254.139 314.043 254.018 313.292 253.481 313.333Z" fill="#BDD7D2"/>
<path d="M331.424 277.729C320.905 281.399 310.83 285.758 299.999 288.599C288.941 291.503 277.639 293.462 266.25 294.471C243.681 296.468 221.259 294.627 199.032 290.467C198.903 290.442 198.825 290.637 198.964 290.679C220.691 297.316 243.991 298.98 266.574 296.916C277.955 295.875 289.257 293.899 300.315 291.009C306.417 289.415 312.773 287.647 318.917 285.427C311.838 289.874 304.563 293.986 296.94 297.488C291.6 299.941 286.081 302.04 280.516 303.923C277.51 304.941 274.466 305.798 271.437 306.739C268.909 307.524 265.927 308.034 263.829 309.662C263.581 309.854 263.68 310.222 263.993 310.272C269.042 311.05 275.469 308.091 280.154 306.486C286.37 304.359 292.424 301.86 298.423 299.191C309.869 294.104 320.966 287.995 331.024 280.503C331.253 280.333 331.39 280.137 331.465 279.937C331.791 279.763 332.12 279.593 332.442 279.415C333.516 278.815 332.422 277.38 331.424 277.729Z" fill="#BDD7D2"/>
<path d="M329.635 258.997C330.693 258.037 329.162 256.108 327.755 256.647C312.645 262.444 297.788 268.342 282.079 272.417C274.179 274.465 266.184 276.169 258.146 277.589C256.04 277.962 253.921 278.288 251.801 278.598C257.319 277.185 262.775 275.563 268.184 273.753C272.459 272.319 276.538 270.622 280.588 268.84C281.945 268.612 283.25 268.229 284.399 267.502C284.58 267.388 284.66 267.21 284.662 267.03C286.746 266.095 288.834 265.158 290.952 264.236C291.172 264.141 291.024 263.838 290.814 263.92C288.557 264.793 286.244 265.573 283.908 266.309C280.927 265.273 277.572 265.933 274.462 266.132C270.571 266.38 266.679 266.629 262.786 266.877C258.896 267.125 255.005 267.388 251.116 267.65C247.362 267.902 243.39 267.767 239.761 268.8C237.83 269.351 238.348 272.102 240.208 272.311C243.979 272.733 247.873 271.981 251.643 271.624C255.519 271.256 259.393 270.89 263.269 270.509C266.378 270.203 269.486 269.898 272.595 269.591C271.197 269.981 269.802 270.372 268.423 270.77C260.935 272.934 253.346 274.774 245.726 276.394C238.057 278.024 230.315 279.294 222.534 280.245C218.558 280.731 214.582 281.197 210.594 281.554C206.954 281.877 203.182 281.807 199.63 282.695C197.897 283.127 198.479 285.489 200.014 285.718C207.28 286.797 215.815 285.175 223.055 284.181C227.314 283.598 231.558 282.893 235.786 282.102C251.569 282.664 268.079 279.005 283.305 275.23C297.775 271.641 312.505 267.192 326.06 260.801C316.187 269.244 304.89 275.946 293.142 281.439C287.201 284.216 281.078 286.612 274.837 288.619C268.745 290.578 261.963 291.633 256.171 294.313C255.872 294.451 255.862 294.938 256.255 294.96C262.287 295.315 268.968 293.287 274.699 291.567C281.608 289.494 288.373 286.914 294.927 283.9C307.611 278.069 319.153 270.281 330.105 261.676C331.335 260.708 330.699 259.406 329.635 258.997Z" fill="#BDD7D2"/>
<path d="M366.487 145.978C365.837 142.816 360.604 142.131 359.977 145.687C359.278 149.638 359.975 153.806 359.426 157.836C358.851 162.061 357.927 166.24 356.455 170.247C353.623 177.968 349.462 185.191 344.055 191.395C334.126 202.782 321.486 210.858 307.41 216.159C307.144 216.261 307.266 216.613 307.531 216.595C315.062 216.093 322.455 213.995 329.248 210.648C322.412 218.384 314.548 225.113 305.675 230.501C300.144 233.859 294.389 236.805 288.449 239.374C282.736 241.842 276.386 244.421 270.346 245.868C270.133 245.918 270.245 246.209 270.437 246.194C277.246 245.657 283.446 245.036 290.074 243.106C296.241 241.312 302.229 238.707 307.818 235.53C306.594 236.56 305.411 237.654 304.164 238.611C301.76 240.45 299.29 242.206 296.762 243.873C291.722 247.199 286.454 250.223 281.023 252.862C275.416 255.585 269.624 258.016 263.72 260.018C258.147 261.906 251.947 262.944 246.612 265.393C246.093 265.631 246.114 266.4 246.75 266.472C252.431 267.115 258.636 265.556 264.14 264.215C270.676 262.621 277.076 260.485 283.222 257.756C288.995 255.19 294.587 252.264 299.927 248.887C302.67 247.151 305.351 245.315 307.955 243.378C310.49 241.494 313.581 239.611 315.457 237.051C317.189 234.684 314.948 232.398 312.581 232.649C322.738 226.122 331.783 217.863 339.047 208.216C339.992 206.963 339.704 205.654 338.901 204.74C342.643 201.95 346.069 198.752 349.052 195.197C354.65 188.527 359.015 180.818 361.857 172.59C363.33 168.33 364.566 163.953 365.359 159.514C366.109 155.327 367.354 150.188 366.487 145.978Z" fill="#BDD7D2"/>
<path d="M294.566 501.818C225.295 469.673 163.595 421.704 115.355 362.507C101.751 345.814 88.903 328.254 77.6622 309.878C77.624 309.817 77.5141 309.868 77.5548 309.934C116.767 376.047 170.612 431.979 235.806 472.89C254.271 484.477 273.556 494.642 293.469 503.509C294.639 504.031 295.852 502.416 294.566 501.818Z" fill="#BDD7D2"/>
<path d="M438.155 523.715C358.492 506.712 284.938 466.902 228.582 407.851C212.752 391.264 198.345 373.343 185.298 354.494C184.936 353.972 183.962 354.408 184.333 355.003C205.945 389.536 233.958 419.857 265.618 445.409C297.507 471.145 333.3 492.04 371.49 506.923C392.897 515.266 414.898 521.714 437.509 525.818C438.96 526.081 439.703 524.046 438.155 523.715Z" fill="#BDD7D2"/>
<path d="M525.712 501.744C483.27 493.853 441.824 481.071 402.966 462.174C364.105 443.279 327.96 418.823 296.045 389.686C277.845 373.068 260.968 354.958 245.711 335.605C245.644 335.523 245.48 335.596 245.55 335.689C271.787 370.425 303.288 400.897 338.612 426.323C373.74 451.611 412.445 471.85 453.286 486.186C476.625 494.378 500.521 500.497 525.001 504.063C526.59 504.296 527.438 502.066 525.712 501.744Z" fill="#BDD7D2"/>
<path d="M20.4904 136.404C17.7234 132.249 14.2181 128.476 11.0424 124.625C8.06429 121.015 5.09605 117.619 1.47588 114.63C1.35241 114.528 1.15363 114.641 1.23142 114.798C3.48229 119.332 6.43941 123.191 9.53112 127.182C12.3438 130.813 15.0305 134.666 18.1975 137.997C19.2075 139.062 21.3991 137.77 20.4904 136.404Z" fill="#BDD7D2"/>
<path d="M49.5998 131.777C49.0553 130.875 48.0083 130.378 46.9736 130.35C46.0686 130.325 45.1425 130.617 44.4536 131.213C43.9449 131.65 43.5942 132.222 43.6078 132.917C43.6177 133.368 43.7856 133.897 44.077 134.246C44.1449 134.33 44.2165 134.401 44.2894 134.473C44.3363 134.6 44.3931 134.725 44.4696 134.844C44.9993 135.689 45.9821 136.147 46.9662 136.101C48.0219 136.054 48.9442 135.49 49.5369 134.621C50.111 133.775 50.1246 132.644 49.5998 131.777Z" fill="#BDD7D2"/>
</svg>
