<svg width="3903" height="3081" viewBox="0 0 3903 3081" fill="none" xmlns="http://www.w3.org/2000/svg">
<path d="M3523.84 429.379L3410.8 485.428L3412.74 462.74L3491.68 379.934L3523.84 429.379Z" fill="#1F324F"/>
<path d="M3418.27 331.364L3676.9 570.474C3679.71 573.063 3683.11 574.918 3686.82 575.871C3690.52 576.824 3694.4 576.845 3698.12 575.932C3701.83 575.019 3705.26 573.201 3708.09 570.643C3710.92 568.084 3713.06 564.865 3714.33 561.276L3901.18 30.437C3902.57 26.5129 3902.84 22.2892 3901.99 18.2194C3901.14 14.1496 3899.19 10.3874 3896.34 7.33697C3893.5 4.28651 3889.88 2.06298 3885.86 0.905109C3881.84 -0.252767 3877.58 -0.301222 3873.54 0.764946L3281.53 157.106C3277.55 158.158 3273.93 160.25 3271.04 163.165C3268.15 166.079 3266.1 169.71 3265.11 173.679C3264.11 177.647 3264.2 181.809 3265.37 185.731C3266.54 189.652 3268.75 193.19 3271.77 195.976L3418.27 331.364Z" fill="#1F283D"/>
<path d="M3821.87 76.0581L3491.01 398.59L3412.43 484.126C3411.16 485.478 3409.48 486.385 3407.64 486.711C3405.8 487.037 3403.91 486.766 3402.24 485.937C3400.57 485.108 3399.22 483.765 3398.38 482.11C3397.54 480.454 3397.26 478.574 3397.58 476.748L3419.64 332.655L3821.87 76.0581Z" fill="#2F4160"/>
<path opacity="0.74" d="M550.749 3076.69C549.991 3077.15 549.153 3077.46 548.279 3077.61C546.385 3077.95 544.439 3077.53 542.866 3076.44C541.293 3075.34 540.223 3073.67 539.891 3071.78C538.627 3064.46 537.388 3057.03 536.257 3049.74C536.016 3047.87 536.517 3045.97 537.654 3044.46C538.791 3042.95 540.474 3041.93 542.343 3041.63C544.213 3041.33 546.121 3041.77 547.662 3042.86C549.203 3043.95 550.254 3045.59 550.591 3047.44C551.727 3054.65 552.937 3061.98 554.205 3069.22C554.453 3070.67 554.256 3072.15 553.639 3073.49C553.021 3074.82 552.014 3075.94 550.749 3076.69ZM1921.93 2246.83L1921.54 2247.07C1912.68 2251.66 1903.48 2256 1894.16 2259.97C1892.4 2260.68 1890.42 2260.68 1888.67 2259.95C1886.91 2259.23 1885.52 2257.85 1884.78 2256.1C1884.05 2254.36 1884.03 2252.39 1884.73 2250.63C1885.44 2248.86 1886.81 2247.44 1888.55 2246.66C1897.55 2242.83 1906.4 2238.75 1914.97 2234.19C1915.8 2233.73 1916.72 2233.43 1917.66 2233.31C1918.61 2233.2 1919.57 2233.27 1920.48 2233.53C1921.4 2233.78 1922.26 2234.21 1923 2234.8C1923.75 2235.39 1924.38 2236.11 1924.84 2236.94C1925.3 2237.77 1925.6 2238.68 1925.71 2239.62C1925.82 2240.57 1925.74 2241.52 1925.48 2242.44C1925.22 2243.36 1924.78 2244.21 1924.19 2244.96C1923.59 2245.71 1922.86 2246.33 1922.03 2246.8L1921.93 2246.83ZM1983.94 2206.2C1983.15 2206.74 1982.27 2207.13 1981.34 2207.34C1980.4 2207.55 1979.44 2207.57 1978.5 2207.41C1976.6 2207.08 1974.92 2206.01 1973.81 2204.44C1972.71 2202.87 1972.28 2200.92 1972.63 2199.03C1972.97 2197.13 1974.05 2195.45 1975.63 2194.34C1983.09 2188.32 1990.49 2181.87 1997.58 2175.18C1998.98 2173.86 2000.86 2173.14 2002.78 2173.2C2004.71 2173.25 2006.53 2174.06 2007.85 2175.46C2009.16 2176.85 2009.87 2178.71 2009.8 2180.63C2009.74 2182.55 2008.92 2184.37 2007.51 2185.69C2000.14 2192.62 1992.48 2199.3 1984.75 2205.57C1984.49 2205.8 1984.22 2206.01 1983.94 2206.2ZM1824.54 2282.27C1823.88 2282.66 1823.17 2282.94 1822.42 2283.12C1812.79 2285.33 1802.85 2287.32 1792.87 2288.96C1791.02 2289.17 1789.16 2288.67 1787.68 2287.55C1786.2 2286.44 1785.21 2284.8 1784.91 2282.97C1784.62 2281.14 1785.04 2279.26 1786.09 2277.72C1787.14 2276.18 1788.74 2275.1 1790.56 2274.71C1800.23 2273.08 1809.89 2271.18 1819.22 2269.03C1820.9 2268.65 1822.66 2268.87 1824.19 2269.66C1825.71 2270.46 1826.9 2271.77 1827.54 2273.36C1828.18 2274.95 1828.23 2276.72 1827.68 2278.35C1827.13 2279.99 1826.02 2281.37 1824.54 2282.27ZM2055.56 2131.32C2054.11 2132.2 2052.41 2132.54 2050.74 2132.3C2049.08 2132.07 2047.55 2131.26 2046.42 2130.01C2045.29 2128.77 2044.64 2127.17 2044.56 2125.49C2044.49 2123.81 2045.01 2122.16 2046.03 2120.81C2051.78 2113.12 2057.41 2105.05 2062.67 2096.78C2063.18 2095.95 2063.85 2095.23 2064.64 2094.66C2065.43 2094.1 2066.32 2093.69 2067.27 2093.47C2068.21 2093.26 2069.19 2093.23 2070.15 2093.4C2071.1 2093.56 2072.02 2093.92 2072.83 2094.44C2073.64 2094.97 2074.34 2095.65 2074.88 2096.45C2075.42 2097.25 2075.8 2098.15 2075.98 2099.1C2076.17 2100.05 2076.16 2101.03 2075.96 2101.98C2075.76 2102.92 2075.37 2103.82 2074.81 2104.62C2069.31 2113.06 2063.51 2121.37 2057.58 2129.32C2057.03 2130.1 2056.34 2130.77 2055.54 2131.3L2055.56 2131.32ZM1721.72 2295.3C1720.65 2295.93 1719.44 2296.28 1718.2 2296.31C1708.35 2296.61 1698.29 2296.76 1688.23 2296.65C1687.27 2296.65 1686.32 2296.46 1685.44 2296.09C1684.55 2295.73 1683.75 2295.19 1683.08 2294.51C1682.41 2293.83 1681.88 2293.02 1681.53 2292.13C1681.17 2291.25 1681 2290.3 1681.01 2289.34C1681.03 2288.38 1681.24 2287.44 1681.62 2286.56C1682.01 2285.68 1682.56 2284.89 1683.25 2284.22C1683.95 2283.56 1684.77 2283.03 1685.66 2282.68C1686.56 2282.34 1687.51 2282.17 1688.47 2282.19C1698.33 2282.28 1708.24 2282.17 1717.8 2281.87C1719.41 2281.81 1720.99 2282.29 1722.29 2283.23C1723.59 2284.16 1724.54 2285.51 1724.98 2287.04C1725.43 2288.58 1725.35 2290.23 1724.76 2291.72C1724.17 2293.21 1723.1 2294.47 1721.72 2295.3ZM2420.25 1861.1C2418.6 1862.09 2416.62 1862.39 2414.75 1861.93C2412.89 1861.47 2411.29 1860.29 2410.3 1858.65C2409.31 1857.01 2409.03 1855.04 2409.5 1853.18C2409.97 1851.31 2411.16 1849.71 2412.81 1848.72C2421.12 1843.73 2429.47 1838.43 2437.68 1833C2439.29 1831.94 2441.25 1831.55 2443.14 1831.93C2445.02 1832.31 2446.68 1833.42 2447.73 1835.02C2448.79 1836.62 2449.17 1838.57 2448.78 1840.46C2448.39 1842.34 2447.26 1843.99 2445.65 1845.06C2437.28 1850.59 2428.73 1855.98 2420.27 1861.09L2420.25 1861.1ZM2354.68 1895.84C2354.46 1896 2354.22 1896.14 2353.97 1896.27C2348.59 1898.74 2343.08 1901.18 2337.61 1903.51C2333.88 1905.1 2330.12 1906.66 2326.3 1908.2C2325.41 1908.55 2324.46 1908.72 2323.51 1908.7C2322.56 1908.69 2321.62 1908.48 2320.74 1908.11C2319.87 1907.73 2319.08 1907.18 2318.42 1906.5C2317.76 1905.81 2317.25 1905.01 2316.9 1904.12C2316.56 1903.24 2316.39 1902.3 2316.41 1901.35C2316.43 1900.4 2316.64 1899.46 2317.02 1898.59C2317.41 1897.71 2317.96 1896.92 2318.65 1896.26C2319.34 1895.6 2320.15 1895.08 2321.04 1894.73C2324.7 1893.26 2328.37 1891.74 2331.99 1890.2C2337.35 1887.92 2342.73 1885.55 2347.98 1883.13C2349.68 1882.23 2351.68 1882.03 2353.52 1882.59C2355.36 1883.15 2356.89 1884.42 2357.79 1886.11C2358.69 1887.81 2358.87 1889.79 2358.3 1891.63C2357.73 1893.47 2356.45 1895.01 2354.75 1895.91L2354.68 1895.84ZM2108.42 2042.24C2107.08 2043.04 2105.53 2043.4 2103.99 2043.26C2102.44 2043.11 2100.99 2042.48 2099.84 2041.45C2098.68 2040.42 2097.89 2039.05 2097.59 2037.54C2097.28 2036.02 2097.46 2034.45 2098.12 2033.04C2102.16 2024.29 2106.05 2015.25 2109.7 2006.18C2110.02 2005.25 2110.52 2004.39 2111.18 2003.66C2111.84 2002.93 2112.64 2002.34 2113.54 2001.92C2114.43 2001.51 2115.4 2001.28 2116.38 2001.25C2117.37 2001.22 2118.34 2001.38 2119.26 2001.74C2120.17 2002.1 2121 2002.64 2121.7 2003.33C2122.39 2004.02 2122.94 2004.85 2123.3 2005.75C2123.67 2006.66 2123.84 2007.64 2123.82 2008.62C2123.79 2009.6 2123.57 2010.57 2123.16 2011.46C2119.43 2020.77 2115.46 2030.12 2111.27 2039.04C2110.63 2040.34 2109.61 2041.41 2108.34 2042.12L2108.42 2042.24ZM2505.29 1801.47C2504.5 1802.01 2503.62 1802.4 2502.68 1802.6C2501.75 1802.81 2500.79 1802.83 2499.85 1802.66C2498.91 1802.5 2498.01 1802.15 2497.21 1801.64C2496.41 1801.12 2495.72 1800.46 2495.17 1799.68C2494.63 1798.9 2494.25 1798.02 2494.05 1797.09C2493.85 1796.16 2493.83 1795.2 2494 1794.26C2494.17 1793.32 2494.53 1792.43 2495.05 1791.63C2495.57 1790.82 2496.24 1790.13 2497.02 1789.58C2504.66 1783.48 2512.2 1777.21 2519.66 1770.82C2521.14 1769.67 2523 1769.13 2524.85 1769.31C2526.71 1769.49 2528.43 1770.37 2529.64 1771.79C2530.85 1773.2 2531.47 1775.02 2531.36 1776.88C2531.25 1778.74 2530.43 1780.49 2529.06 1781.77C2521.42 1788.33 2513.66 1794.75 2506 1800.87C2505.75 1801.04 2505.49 1801.2 2505.21 1801.34L2505.29 1801.47ZM538.208 2981.65C537.264 2982.22 536.208 2982.56 535.116 2982.67C533.204 2982.84 531.304 2982.25 529.834 2981.03C528.364 2979.81 527.443 2978.05 527.272 2976.15C526.405 2966.28 525.636 2956.3 525.104 2946.57C525 2945.59 525.094 2944.61 525.383 2943.67C525.671 2942.73 526.146 2941.86 526.78 2941.11C527.414 2940.36 528.194 2939.75 529.072 2939.31C529.949 2938.86 530.907 2938.6 531.887 2938.54C532.867 2938.47 533.848 2938.61 534.772 2938.94C535.695 2939.26 536.542 2939.77 537.261 2940.43C537.979 2941.1 538.554 2941.9 538.952 2942.79C539.349 2943.68 539.56 2944.65 539.572 2945.63C540.163 2955.27 540.898 2965.1 541.758 2974.86C541.828 2976.19 541.531 2977.51 540.899 2978.68C540.267 2979.85 539.325 2980.83 538.175 2981.51L538.208 2981.65ZM2256.76 1930.73C2256.16 1931.09 2255.51 1931.35 2254.83 1931.52C2245.21 1934.04 2235.38 1936.35 2225.58 1938.38C2224.65 1938.58 2223.69 1938.58 2222.75 1938.4C2221.82 1938.23 2220.93 1937.87 2220.13 1937.34C2219.34 1936.82 2218.66 1936.15 2218.13 1935.36C2217.59 1934.58 2217.22 1933.69 2217.04 1932.76C2216.85 1931.83 2216.85 1930.87 2217.03 1929.94C2217.21 1929 2217.58 1928.12 2218.11 1927.32C2218.64 1926.53 2219.32 1925.84 2220.11 1925.31C2220.9 1924.78 2221.79 1924.4 2222.72 1924.21C2232.26 1922.21 2241.87 1919.96 2251.25 1917.52C2252.95 1917.07 2254.74 1917.25 2256.31 1918.01C2257.87 1918.78 2259.11 1920.09 2259.78 1921.69C2260.45 1923.3 2260.52 1925.1 2259.96 1926.75C2259.41 1928.41 2258.28 1929.82 2256.78 1930.71L2256.76 1930.73ZM2582.63 1732.22C2581.11 1733.12 2579.31 1733.44 2577.58 1733.12C2575.84 1732.79 2574.29 1731.85 2573.21 1730.46C2572.13 1729.07 2571.6 1727.34 2571.71 1725.58C2571.83 1723.82 2572.58 1722.16 2573.83 1720.91C2580.66 1714.17 2587.59 1707.03 2594.62 1700C2595.28 1699.3 2596.07 1698.73 2596.95 1698.33C2597.83 1697.93 2598.77 1697.71 2599.74 1697.68C2600.7 1697.65 2601.66 1697.81 2602.56 1698.15C2603.45 1698.49 2604.27 1699.01 2604.97 1699.68C2605.66 1700.34 2606.21 1701.13 2606.59 1702.02C2606.97 1702.9 2607.17 1703.84 2607.18 1704.8C2607.19 1705.76 2607.01 1706.72 2606.64 1707.61C2606.28 1708.5 2605.74 1709.31 2605.06 1709.99C2598.1 1717.23 2591.07 1724.35 2584.08 1731.24C2583.64 1731.57 2583.16 1731.85 2582.65 1732.07L2582.63 1732.22ZM1618.01 2291.2C1616.66 2292.01 1615.07 2292.36 1613.5 2292.2C1603.81 2291.17 1593.85 2289.96 1583.84 2288.59C1582 2288.25 1580.37 2287.22 1579.28 2285.71C1578.2 2284.2 1577.74 2282.33 1578 2280.49C1578.27 2278.64 1579.24 2276.96 1580.71 2275.81C1582.18 2274.65 1584.03 2274.1 1585.89 2274.27C1595.74 2275.6 1605.56 2276.81 1615.09 2277.82C1616.6 2277.98 1618.02 2278.61 1619.15 2279.61C1620.28 2280.62 1621.06 2281.96 1621.38 2283.44C1621.7 2284.91 1621.55 2286.46 1620.95 2287.85C1620.34 2289.24 1619.32 2290.41 1618.01 2291.2ZM2653.56 1656.3C2652.08 1657.18 2650.33 1657.51 2648.64 1657.23C2646.94 1656.95 2645.4 1656.08 2644.29 1654.76C2643.19 1653.45 2642.59 1651.79 2642.61 1650.07C2642.62 1648.35 2643.25 1646.69 2644.38 1645.38C2650.67 1638.16 2657.11 1630.58 2663.58 1622.91C2664.81 1621.42 2666.58 1620.48 2668.5 1620.3C2670.42 1620.11 2672.33 1620.69 2673.81 1621.91C2675.3 1623.13 2676.23 1624.89 2676.41 1626.81C2676.58 1628.72 2675.99 1630.63 2674.76 1632.11C2668.15 1639.93 2661.73 1647.49 2655.39 1654.78C2654.86 1655.32 2654.25 1655.78 2653.58 1656.14L2653.56 1656.3ZM2154.54 1948.25C2153.58 1948.83 2152.51 1949.18 2151.39 1949.27C2141.44 1950.11 2131.38 1950.71 2121.39 1951.06C2120.44 1951.09 2119.49 1950.94 2118.6 1950.6C2117.71 1950.27 2116.89 1949.76 2116.2 1949.11C2115.5 1948.47 2114.95 1947.69 2114.56 1946.82C2114.17 1945.96 2113.95 1945.02 2113.93 1944.07C2113.9 1943.12 2114.06 1942.17 2114.4 1941.28C2114.74 1940.39 2115.25 1939.58 2115.91 1938.89C2116.56 1938.19 2117.35 1937.63 2118.22 1937.24C2119.09 1936.84 2120.03 1936.63 2120.98 1936.59C2124.8 1936.45 2128.63 1936.29 2132.49 1936.09C2134.86 1926.91 2137.03 1917.55 2138.98 1908.27C2139.43 1906.45 2140.57 1904.88 2142.15 1903.88C2143.74 1902.88 2145.65 1902.52 2147.48 1902.89C2149.32 1903.26 2150.93 1904.32 2151.99 1905.85C2153.05 1907.38 2153.48 1909.27 2153.17 1911.11C2151.52 1919.09 2149.73 1927.22 2147.76 1935.03L2150.29 1934.83C2151.93 1934.69 2153.55 1935.1 2154.91 1936.01C2156.27 1936.91 2157.28 1938.25 2157.78 1939.8C2158.28 1941.35 2158.23 1943.03 2157.65 1944.56C2157.07 1946.09 2155.99 1947.38 2154.58 1948.23L2154.54 1948.25ZM2719.52 1576.03C2718.06 1576.91 2716.35 1577.25 2714.67 1577C2713 1576.75 2711.47 1575.92 2710.35 1574.66C2709.23 1573.4 2708.59 1571.78 2708.54 1570.09C2708.49 1568.4 2709.04 1566.75 2710.09 1565.41C2716.18 1557.62 2722.22 1549.81 2728.21 1542C2728.78 1541.21 2729.5 1540.53 2730.33 1540.02C2731.16 1539.51 2732.08 1539.16 2733.04 1539.01C2734.01 1538.86 2734.99 1538.91 2735.94 1539.14C2736.88 1539.38 2737.76 1539.8 2738.54 1540.39C2739.31 1540.98 2739.96 1541.71 2740.44 1542.56C2740.92 1543.4 2741.22 1544.33 2741.34 1545.3C2741.45 1546.26 2741.36 1547.24 2741.08 1548.17C2740.81 1549.11 2740.35 1549.98 2739.73 1550.73C2733.7 1558.58 2727.63 1566.43 2721.51 1574.27C2720.95 1574.92 2720.28 1575.46 2719.54 1575.88L2719.52 1576.03ZM534.231 2878.25C533.072 2878.94 531.742 2879.3 530.392 2879.29C529.438 2879.29 528.494 2879.1 527.615 2878.73C526.737 2878.36 525.94 2877.82 525.272 2877.15C524.603 2876.47 524.076 2875.67 523.72 2874.79C523.364 2873.91 523.187 2872.97 523.198 2872.01C523.375 2862.05 523.723 2852.04 524.194 2842.24C524.24 2841.29 524.473 2840.36 524.88 2839.5C525.286 2838.64 525.859 2837.86 526.564 2837.22C527.27 2836.58 528.094 2836.08 528.991 2835.75C529.888 2835.43 530.84 2835.28 531.792 2835.32C532.744 2835.36 533.677 2835.59 534.539 2835.99C535.401 2836.39 536.175 2836.96 536.815 2837.66C537.456 2838.36 537.952 2839.18 538.273 2840.07C538.595 2840.96 538.737 2841.91 538.692 2842.86C538.208 2852.5 537.882 2862.35 537.704 2872.17C537.684 2873.39 537.355 2874.59 536.748 2875.65C536.141 2876.71 535.275 2877.61 534.231 2878.25ZM1515.51 2274.93C1513.96 2275.84 1512.13 2276.14 1510.37 2275.79C1501.13 2273.95 1491.59 2271.99 1481.33 2269.76C1479.44 2269.36 1477.8 2268.23 1476.76 2266.62C1475.72 2265.01 1475.37 2263.05 1475.78 2261.17C1476.2 2259.29 1477.34 2257.65 1478.96 2256.61C1480.58 2255.56 1482.55 2255.2 1484.43 2255.6C1494.73 2257.84 1504.16 2259.75 1513.42 2261.52C1514.85 2261.8 1516.16 2262.51 1517.18 2263.55C1518.2 2264.59 1518.88 2265.91 1519.13 2267.34C1519.38 2268.78 1519.19 2270.25 1518.58 2271.58C1517.98 2272.91 1516.99 2274.03 1515.74 2274.79L1515.51 2274.93ZM2050.76 1947.88C2049.44 1948.67 2047.9 1949.02 2046.36 1948.89C2036.44 1948.03 2026.38 1946.85 2016.56 1945.56C2015.62 1945.43 2014.71 1945.12 2013.89 1944.64C2013.07 1944.16 2012.35 1943.52 2011.78 1942.77C2011.21 1942.01 2010.79 1941.15 2010.55 1940.23C2010.32 1939.31 2010.26 1938.35 2010.4 1937.41C2010.53 1936.47 2010.85 1935.56 2011.34 1934.74C2011.82 1933.92 2012.46 1933.2 2013.22 1932.63C2013.99 1932.05 2014.85 1931.63 2015.78 1931.39C2016.7 1931.15 2017.66 1931.09 2018.6 1931.22C2028.22 1932.55 2037.99 1933.62 2047.68 1934.48C2049.21 1934.6 2050.66 1935.21 2051.81 1936.21C2052.97 1937.21 2053.77 1938.55 2054.12 1940.04C2054.46 1941.52 2054.32 1943.08 2053.71 1944.49C2053.11 1945.9 2052.08 1947.09 2050.76 1947.88ZM2782.25 1493.04C2780.81 1493.91 2779.12 1494.26 2777.45 1494.02C2775.79 1493.79 2774.27 1492.98 2773.14 1491.75C2772.01 1490.52 2771.35 1488.93 2771.27 1487.26C2771.19 1485.58 2771.69 1483.93 2772.69 1482.58C2778.57 1474.64 2784.39 1466.68 2790.22 1458.69C2790.77 1457.91 2791.48 1457.24 2792.29 1456.73C2793.11 1456.22 2794.02 1455.87 2794.97 1455.71C2795.91 1455.55 2796.88 1455.58 2797.82 1455.8C2798.75 1456.01 2799.64 1456.41 2800.41 1456.97C2801.19 1457.53 2801.85 1458.24 2802.34 1459.06C2802.84 1459.88 2803.17 1460.79 2803.31 1461.73C2803.45 1462.68 2803.41 1463.65 2803.17 1464.58C2802.93 1465.51 2802.51 1466.38 2801.94 1467.15C2796.11 1475.14 2790.26 1483.13 2784.37 1491.12C2783.8 1491.9 2783.08 1492.55 2782.25 1493.04ZM2160.59 1842.58C2159.28 1843.37 2157.75 1843.73 2156.23 1843.6C2155.28 1843.52 2154.36 1843.26 2153.51 1842.82C2152.67 1842.39 2151.92 1841.79 2151.31 1841.06C2150.7 1840.34 2150.24 1839.5 2149.95 1838.6C2149.67 1837.69 2149.56 1836.74 2149.65 1835.79C2150.51 1826.17 2151.15 1816.36 2151.54 1806.58C2151.75 1804.75 2152.64 1803.08 2154.04 1801.88C2155.44 1800.69 2157.23 1800.06 2159.07 1800.13C2160.9 1800.2 2162.64 1800.96 2163.93 1802.26C2165.21 1803.56 2165.96 1805.3 2166 1807.13C2165.58 1817.1 2164.91 1827.13 2164.12 1836.93C2164.03 1838.08 2163.65 1839.2 2163.04 1840.19C2162.42 1841.18 2161.57 1842 2160.57 1842.6L2160.59 1842.58ZM2842.99 1408.81C2841.56 1409.66 2839.89 1410.01 2838.24 1409.78C2836.6 1409.55 2835.09 1408.77 2833.96 1407.56C2832.83 1406.35 2832.15 1404.79 2832.04 1403.14C2831.93 1401.49 2832.39 1399.84 2833.34 1398.48C2839.04 1390.4 2844.71 1382.32 2850.34 1374.24C2851.44 1372.65 2853.13 1371.57 2855.02 1371.21C2856.92 1370.86 2858.87 1371.28 2860.45 1372.36C2862.03 1373.45 2863.11 1375.12 2863.46 1377.01C2863.8 1378.9 2863.37 1380.85 2862.27 1382.43C2856.6 1390.55 2850.91 1398.65 2845.19 1406.73C2844.61 1407.58 2843.85 1408.29 2842.97 1408.82L2842.99 1408.81ZM1414.36 2252.87C1412.75 2253.83 1410.82 2254.14 1409 2253.73L1380.13 2247.2C1379.18 2247.02 1378.27 2246.64 1377.47 2246.1C1376.67 2245.56 1375.98 2244.87 1375.46 2244.06C1374.93 2243.25 1374.58 2242.34 1374.41 2241.39C1374.24 2240.44 1374.27 2239.46 1374.48 2238.52C1374.7 2237.57 1375.11 2236.68 1375.67 2235.9C1376.24 2235.11 1376.96 2234.44 1377.79 2233.94C1378.62 2233.43 1379.54 2233.09 1380.5 2232.95C1381.46 2232.8 1382.44 2232.85 1383.38 2233.09C1393.12 2235.19 1402.66 2237.43 1412.3 2239.61C1413.71 2239.93 1414.99 2240.67 1415.98 2241.72C1416.96 2242.77 1417.61 2244.1 1417.83 2245.52C1418.05 2246.95 1417.84 2248.41 1417.22 2249.72C1416.6 2251.03 1415.6 2252.12 1414.36 2252.87ZM542.185 2775.09C540.771 2775.93 539.113 2776.27 537.484 2776.06C535.583 2775.8 533.866 2774.8 532.709 2773.28C531.552 2771.76 531.05 2769.84 531.311 2767.94C532.679 2758.08 534.25 2748.18 535.986 2738.46C536.127 2737.5 536.46 2736.58 536.964 2735.75C537.469 2734.92 538.135 2734.2 538.924 2733.63C539.712 2733.06 540.606 2732.65 541.554 2732.43C542.501 2732.21 543.482 2732.18 544.438 2732.34C545.395 2732.51 546.307 2732.86 547.121 2733.39C547.936 2733.91 548.635 2734.59 549.178 2735.39C549.722 2736.19 550.098 2737.1 550.284 2738.05C550.47 2739 550.463 2739.97 550.263 2740.92C548.519 2750.39 547.028 2760.19 545.677 2769.84C545.525 2770.93 545.131 2771.96 544.522 2772.87C543.914 2773.78 543.108 2774.54 542.164 2775.1L542.185 2775.09ZM1948.9 1930.09C1948.06 1930.6 1947.12 1930.93 1946.15 1931.07C1945.18 1931.21 1944.2 1931.15 1943.25 1930.9C1933.59 1928.28 1923.93 1925.46 1914.51 1922.42C1912.68 1921.82 1911.16 1920.53 1910.3 1918.82C1909.43 1917.11 1909.29 1915.12 1909.89 1913.3C1910.5 1911.47 1911.8 1909.95 1913.52 1909.08C1915.24 1908.21 1917.24 1908.05 1919.06 1908.65C1928.22 1911.57 1937.63 1914.34 1947.09 1916.92C1948.01 1917.16 1948.87 1917.59 1949.63 1918.17C1950.38 1918.75 1951.01 1919.47 1951.48 1920.3C1951.96 1921.12 1952.26 1922.03 1952.38 1922.98C1952.49 1923.92 1952.42 1924.88 1952.17 1925.8C1951.67 1927.6 1950.49 1929.14 1948.88 1930.11L1948.9 1930.09ZM2901.91 1323.28C2900.49 1324.14 2898.83 1324.49 2897.19 1324.28C2895.55 1324.07 2894.03 1323.3 2892.89 1322.11C2891.76 1320.92 2891.06 1319.37 2890.93 1317.73C2890.8 1316.08 2891.23 1314.44 2892.16 1313.07C2897.66 1304.88 2903.11 1296.7 2908.5 1288.52C2909.03 1287.72 2909.71 1287.04 2910.5 1286.51C2911.29 1285.97 2912.18 1285.6 2913.12 1285.4C2914.05 1285.21 2915.02 1285.2 2915.95 1285.38C2916.89 1285.56 2917.78 1285.92 2918.57 1286.44C2919.37 1286.97 2920.05 1287.64 2920.58 1288.43C2921.11 1289.21 2921.48 1290.1 2921.67 1291.03C2921.86 1291.96 2921.86 1292.92 2921.68 1293.85C2921.49 1294.79 2921.12 1295.68 2920.6 1296.47C2915.11 1304.71 2909.6 1312.94 2904.08 1321.16C2903.52 1322.02 2902.77 1322.75 2901.89 1323.29L2901.91 1323.28ZM2161.55 1739.25C2160.48 1739.88 2159.27 1740.24 2158.03 1740.28C2156.79 1740.32 2155.56 1740.04 2154.47 1739.47C2153.37 1738.91 2152.44 1738.07 2151.76 1737.03C2151.08 1736 2150.68 1734.81 2150.6 1733.58C2149.93 1723.9 2149.02 1714.11 2147.94 1704.46C2147.8 1703.5 2147.86 1702.52 2148.11 1701.58C2148.35 1700.64 2148.79 1699.76 2149.38 1698.99C2149.98 1698.22 2150.72 1697.57 2151.57 1697.09C2152.41 1696.61 2153.35 1696.31 2154.32 1696.19C2155.28 1696.08 2156.26 1696.16 2157.19 1696.43C2158.12 1696.7 2158.99 1697.16 2159.74 1697.77C2160.49 1698.39 2161.11 1699.14 2161.56 1700C2162.01 1700.86 2162.28 1701.8 2162.36 1702.76C2163.47 1712.62 2164.39 1722.63 2165.07 1732.5C2165.16 1733.84 2164.88 1735.17 2164.26 1736.36C2163.64 1737.56 2162.7 1738.55 2161.55 1739.25ZM1313.03 2231.03C1311.49 2231.94 1309.66 2232.26 1307.91 2231.92C1297.96 2229.97 1288.21 2228.19 1278.93 2226.57C1277.97 2226.44 1277.05 2226.11 1276.22 2225.61C1275.39 2225.11 1274.67 2224.45 1274.1 2223.67C1273.53 2222.89 1273.13 2222 1272.91 2221.06C1272.7 2220.11 1272.67 2219.13 1272.84 2218.18C1273.01 2217.23 1273.38 2216.31 1273.91 2215.5C1274.44 2214.68 1275.12 2213.98 1275.93 2213.44C1276.73 2212.89 1277.64 2212.51 1278.59 2212.32C1279.55 2212.13 1280.53 2212.13 1281.48 2212.32C1290.92 2213.93 1300.72 2215.76 1310.76 2217.71C1312.2 2217.98 1313.52 2218.68 1314.55 2219.72C1315.57 2220.76 1316.25 2222.09 1316.51 2223.53C1316.76 2224.97 1316.57 2226.45 1315.96 2227.78C1315.35 2229.11 1314.35 2230.23 1313.09 2230.99L1313.03 2231.03ZM2958.82 1236.57C2957.42 1237.42 2955.77 1237.77 2954.14 1237.57C2952.51 1237.37 2951.01 1236.62 2949.87 1235.45C2948.73 1234.28 2948.02 1232.76 2947.86 1231.14C2947.7 1229.51 2948.1 1227.87 2948.99 1226.5C2954.32 1218.22 2959.63 1209.9 2964.91 1201.55C2965.41 1200.71 2966.07 1199.98 2966.85 1199.4C2967.63 1198.82 2968.52 1198.4 2969.46 1198.17C2970.4 1197.93 2971.39 1197.89 2972.34 1198.05C2973.3 1198.2 2974.22 1198.54 2975.04 1199.05C2975.86 1199.57 2976.57 1200.24 2977.12 1201.03C2977.68 1201.83 2978.06 1202.72 2978.26 1203.67C2978.46 1204.61 2978.47 1205.59 2978.28 1206.54C2978.09 1207.5 2977.72 1208.4 2977.17 1209.21C2971.89 1217.56 2966.55 1225.93 2961.16 1234.29C2960.56 1235.22 2959.76 1236 2958.82 1236.57ZM563.381 2673.89C562.132 2674.64 560.686 2675.01 559.231 2674.93C557.776 2674.86 556.38 2674.35 555.224 2673.47C554.068 2672.59 553.207 2671.38 552.752 2670.01C552.296 2668.63 552.268 2667.14 552.671 2665.74C555.394 2656.16 558.395 2646.53 561.504 2637.16C562.144 2635.39 563.456 2633.92 565.158 2633.09C566.861 2632.25 568.819 2632.11 570.616 2632.7C572.413 2633.28 573.905 2634.54 574.775 2636.22C575.644 2637.89 575.822 2639.84 575.27 2641.64C572.274 2650.77 569.315 2660.24 566.643 2669.62C566.148 2671.37 565.013 2672.88 563.464 2673.84L563.381 2673.89ZM1851.77 1894.36C1850.73 1894.99 1849.56 1895.35 1848.35 1895.41C1847.14 1895.46 1845.94 1895.22 1844.85 1894.7C1835.85 1890.39 1826.92 1885.81 1818.22 1880.98C1816.54 1880.06 1815.3 1878.5 1814.78 1876.66C1814.25 1874.81 1814.49 1872.83 1815.43 1871.15C1816.36 1869.47 1817.93 1868.23 1819.79 1867.69C1821.64 1867.16 1823.62 1867.38 1825.3 1868.31C1833.74 1872.95 1842.47 1877.46 1851.21 1881.67C1852.39 1882.23 1853.38 1883.1 1854.1 1884.19C1854.81 1885.27 1855.22 1886.53 1855.28 1887.83C1855.33 1889.13 1855.04 1890.42 1854.42 1891.57C1853.8 1892.72 1852.89 1893.68 1851.77 1894.36ZM3014.01 1148.68C3012.61 1149.52 3010.98 1149.88 3009.36 1149.69C3007.75 1149.49 3006.25 1148.77 3005.11 1147.62C3003.96 1146.47 3003.24 1144.98 3003.05 1143.37C3002.87 1141.76 3003.23 1140.13 3004.08 1138.74C3009.23 1130.32 3014.36 1121.88 3019.47 1113.45C3019.94 1112.59 3020.57 1111.83 3021.34 1111.22C3022.11 1110.62 3022.99 1110.17 3023.94 1109.91C3024.88 1109.65 3025.87 1109.59 3026.84 1109.72C3027.81 1109.85 3028.74 1110.17 3029.58 1110.67C3030.41 1111.17 3031.14 1111.83 3031.71 1112.62C3032.29 1113.41 3032.69 1114.31 3032.91 1115.26C3033.12 1116.21 3033.14 1117.19 3032.96 1118.15C3032.79 1119.11 3032.42 1120.03 3031.88 1120.85C3026.77 1129.32 3021.64 1137.78 3016.46 1146.22C3015.85 1147.18 3015.02 1147.97 3014.04 1148.54L3014.01 1148.68ZM1210.58 2215.56C1209.23 2216.37 1207.66 2216.73 1206.1 2216.57C1196.21 2215.58 1186.37 2214.77 1176.86 2214.17C1175.9 2214.11 1174.96 2213.87 1174.1 2213.45C1173.24 2213.03 1172.48 2212.45 1171.84 2211.73C1171.21 2211.01 1170.73 2210.18 1170.42 2209.28C1170.11 2208.37 1169.99 2207.42 1170.05 2206.46C1170.11 2205.51 1170.37 2204.58 1170.79 2203.72C1171.22 2202.86 1171.8 2202.09 1172.53 2201.45C1173.25 2200.82 1174.09 2200.33 1174.99 2200.02C1175.9 2199.71 1176.86 2199.58 1177.82 2199.64C1187.51 2200.25 1197.53 2201.08 1207.56 2202.11C1209.07 2202.26 1210.5 2202.88 1211.63 2203.89C1212.77 2204.89 1213.55 2206.23 1213.88 2207.71C1214.21 2209.19 1214.06 2210.74 1213.45 2212.14C1212.85 2213.53 1211.82 2214.71 1210.51 2215.49L1210.58 2215.56ZM599.41 2576.78C598.08 2577.57 596.534 2577.92 594.997 2577.77C593.46 2577.63 592.012 2577 590.864 2575.97C589.716 2574.95 588.928 2573.58 588.615 2572.08C588.301 2570.57 588.479 2569 589.122 2567.6C593.295 2558.55 597.738 2549.48 602.288 2540.68C603.186 2539 604.712 2537.73 606.536 2537.15C608.36 2536.57 610.334 2536.74 612.03 2537.6C613.726 2538.47 615.007 2539.97 615.595 2541.78C616.183 2543.59 616.031 2545.56 615.171 2547.27C610.704 2555.87 606.386 2564.73 602.296 2573.58C601.651 2574.89 600.628 2575.97 599.361 2576.69L599.41 2576.78ZM2146.66 1637.11C2146.01 1637.51 2145.29 1637.79 2144.53 1637.94C2142.66 1638.37 2140.69 1638.04 2139.07 1637.03C2137.44 1636.02 2136.29 1634.4 2135.86 1632.53C2133.74 1623.08 2131.37 1613.53 2128.83 1604.16C2128.58 1603.24 2128.51 1602.29 2128.64 1601.34C2128.76 1600.4 2129.07 1599.49 2129.54 1598.66C2130.02 1597.84 2130.65 1597.11 2131.41 1596.53C2132.16 1595.94 2133.03 1595.51 2133.95 1595.26C2134.87 1595.01 2135.83 1594.94 2136.78 1595.05C2137.72 1595.17 2138.63 1595.47 2139.46 1595.94C2140.29 1596.41 2141.01 1597.04 2141.59 1597.79C2142.17 1598.54 2142.6 1599.4 2142.85 1600.32C2145.48 1609.97 2147.86 1619.63 2150.02 1629.28C2150.33 1630.76 2150.17 1632.31 2149.56 1633.69C2148.95 1635.08 2147.92 1636.25 2146.61 1637.03L2146.66 1637.11ZM3067.19 1059.43C3065.81 1060.27 3064.19 1060.62 3062.59 1060.44C3060.99 1060.25 3059.5 1059.54 3058.35 1058.42C3057.21 1057.29 3056.47 1055.82 3056.26 1054.22C3056.06 1052.63 3056.39 1051.01 3057.2 1049.62C3062.14 1041.04 3067.07 1032.47 3071.97 1023.91C3072.93 1022.26 3074.51 1021.05 3076.36 1020.55C3078.21 1020.05 3080.17 1020.3 3081.83 1021.24C3083.49 1022.18 3084.71 1023.73 3085.22 1025.57C3085.73 1027.4 3085.49 1029.37 3084.55 1031.04C3079.62 1039.61 3074.67 1048.2 3069.71 1056.8C3069.11 1057.88 3068.24 1058.79 3067.19 1059.43ZM1763.6 1840.61C1762.36 1841.36 1760.92 1841.73 1759.47 1841.66C1758.03 1841.58 1756.63 1841.08 1755.48 1840.21C1747.54 1834.2 1739.62 1827.92 1732.11 1821.48C1731.39 1820.87 1730.79 1820.12 1730.36 1819.27C1729.93 1818.43 1729.67 1817.5 1729.6 1816.56C1729.53 1815.61 1729.64 1814.66 1729.94 1813.75C1730.23 1812.85 1730.71 1812.01 1731.33 1811.28C1731.95 1810.56 1732.7 1809.96 1733.55 1809.53C1734.4 1809.09 1735.33 1808.83 1736.28 1808.75C1737.23 1808.67 1738.19 1808.78 1739.09 1809.07C1740 1809.36 1740.84 1809.83 1741.56 1810.44C1748.91 1816.7 1756.55 1822.81 1764.28 1828.67C1765.81 1829.82 1766.82 1831.54 1767.07 1833.44C1767.33 1835.34 1766.82 1837.26 1765.65 1838.8C1765.09 1839.51 1764.42 1840.12 1763.65 1840.59L1763.6 1840.61ZM1107 2213.44C1106.04 2214.01 1104.97 2214.36 1103.87 2214.45C1094.3 2215.26 1084.51 2216.37 1074.83 2217.85C1072.92 2218.13 1070.99 2217.63 1069.45 2216.48C1067.92 2215.33 1066.91 2213.62 1066.64 2211.72C1066.38 2209.82 1066.88 2207.89 1068.04 2206.35C1069.21 2204.81 1070.93 2203.8 1072.84 2203.52C1082.83 2202.1 1092.89 2200.97 1102.76 2200.13C1104.39 2199.99 1106.02 2200.41 1107.38 2201.31C1108.74 2202.22 1109.75 2203.56 1110.25 2205.11C1110.74 2206.67 1110.69 2208.35 1110.11 2209.88C1109.52 2211.41 1108.44 2212.7 1107.02 2213.54L1107 2213.44ZM650.349 2486.38C648.931 2487.24 647.266 2487.58 645.629 2487.37C643.992 2487.15 642.481 2486.38 641.347 2485.19C640.212 2484 639.522 2482.45 639.391 2480.81C639.259 2479.17 639.694 2477.53 640.624 2476.16C646.213 2467.92 652.077 2459.71 658.019 2451.68C658.576 2450.88 659.289 2450.2 660.114 2449.68C660.94 2449.16 661.861 2448.81 662.823 2448.65C663.785 2448.49 664.768 2448.52 665.714 2448.75C666.659 2448.98 667.548 2449.4 668.327 2449.98C669.105 2450.56 669.758 2451.29 670.247 2452.12C670.735 2452.96 671.048 2453.89 671.168 2454.85C671.287 2455.82 671.211 2456.8 670.944 2457.73C670.676 2458.67 670.223 2459.54 669.61 2460.3C663.802 2468.08 658.055 2476.11 652.603 2484.16C652.01 2485.07 651.219 2485.85 650.287 2486.42L650.349 2486.38ZM3118.56 969.089C3117.19 969.909 3115.59 970.258 3114.01 970.083C3112.42 969.908 3110.95 969.218 3109.8 968.12C3108.66 967.022 3107.91 965.576 3107.67 964.007C3107.44 962.438 3107.72 960.832 3108.49 959.437C3113.25 950.796 3118 942.142 3122.74 933.473C3123.15 932.555 3123.75 931.732 3124.49 931.054C3125.24 930.376 3126.11 929.86 3127.07 929.538C3128.02 929.215 3129.03 929.093 3130.03 929.18C3131.04 929.268 3132.01 929.562 3132.89 930.044C3133.77 930.526 3134.53 931.185 3135.14 931.98C3135.75 932.776 3136.18 933.689 3136.42 934.663C3136.65 935.637 3136.68 936.65 3136.5 937.638C3136.32 938.626 3135.94 939.566 3135.38 940.401C3130.62 949.099 3125.85 957.773 3121.08 966.422C3120.46 967.539 3119.57 968.476 3118.47 969.139L3118.56 969.089ZM1004.9 2232.11C1004.33 2232.46 1003.72 2232.72 1003.08 2232.89C993.758 2235.48 984.295 2238.36 974.982 2241.34C974.068 2241.68 973.097 2241.82 972.126 2241.78C971.156 2241.73 970.206 2241.49 969.332 2241.07C968.459 2240.65 967.68 2240.06 967.042 2239.33C966.403 2238.61 965.919 2237.76 965.617 2236.84C965.314 2235.92 965.201 2234.95 965.283 2233.98C965.365 2233.02 965.641 2232.08 966.094 2231.22C966.547 2230.36 967.168 2229.6 967.92 2228.98C968.672 2228.36 969.541 2227.9 970.473 2227.62C979.908 2224.51 989.644 2221.53 999.111 2218.85C1000.8 2218.38 1002.6 2218.53 1004.18 2219.29C1005.76 2220.04 1007.01 2221.34 1007.69 2222.94C1008.38 2224.55 1008.46 2226.35 1007.92 2228.01C1007.38 2229.68 1006.25 2231.09 1004.75 2232L1004.9 2232.11ZM715.437 2405.71C713.929 2406.61 712.15 2406.93 710.428 2406.62C708.707 2406.31 707.158 2405.39 706.069 2404.03C704.98 2402.67 704.424 2400.96 704.502 2399.22C704.581 2397.47 705.289 2395.81 706.497 2394.54C713.453 2387.3 720.496 2380.21 727.699 2373.39C728.383 2372.69 729.198 2372.14 730.096 2371.77C730.995 2371.4 731.959 2371.21 732.93 2371.21C733.902 2371.21 734.862 2371.41 735.753 2371.79C736.644 2372.18 737.448 2372.73 738.118 2373.43C738.787 2374.13 739.308 2374.96 739.65 2375.86C739.992 2376.77 740.148 2377.73 740.108 2378.7C740.068 2379.67 739.833 2380.62 739.418 2381.5C739.003 2382.38 738.415 2383.16 737.69 2383.81C730.611 2390.56 723.635 2397.53 716.912 2404.55C716.478 2405 715.982 2405.4 715.437 2405.71ZM907.552 2268.19L906.887 2268.59C898.06 2272.71 889.199 2277.1 880.562 2281.59C879.717 2282.03 878.793 2282.31 877.844 2282.39C876.895 2282.48 875.939 2282.38 875.03 2282.1C874.122 2281.82 873.279 2281.36 872.549 2280.76C871.819 2280.15 871.217 2279.4 870.778 2278.56C870.338 2277.72 870.069 2276.8 869.986 2275.86C869.904 2274.91 870.009 2273.96 870.295 2273.05C870.582 2272.14 871.045 2271.3 871.658 2270.57C872.27 2269.84 873.021 2269.23 873.866 2268.79C882.699 2264.16 891.759 2259.67 900.773 2255.44C902.476 2254.53 904.467 2254.34 906.309 2254.89C908.15 2255.45 909.69 2256.71 910.591 2258.4C911.491 2260.1 911.679 2262.08 911.111 2263.92C910.543 2265.76 909.268 2267.3 907.564 2268.21L907.552 2268.19ZM793.149 2336.89C791.548 2337.97 789.586 2338.37 787.696 2338.01C785.806 2337.64 784.143 2336.54 783.071 2334.95C782 2333.36 781.609 2331.41 781.983 2329.52C782.358 2327.64 783.468 2325.97 785.07 2324.9C793.064 2318.92 801.281 2313.03 809.498 2307.42C811.094 2306.33 813.054 2305.92 814.947 2306.28C816.839 2306.63 818.508 2307.72 819.588 2309.3C820.668 2310.89 821.069 2312.84 820.704 2314.73C820.338 2316.62 819.236 2318.29 817.639 2319.38C809.618 2324.84 801.554 2330.61 793.793 2336.5L793.149 2336.89ZM2116.43 1538.26C2116.1 1538.51 2115.75 1538.72 2115.38 1538.9C2114.49 1539.25 2113.54 1539.42 2112.59 1539.41C2111.63 1539.39 2110.69 1539.19 2109.82 1538.81C2108.95 1538.43 2108.16 1537.89 2107.5 1537.2C2106.84 1536.52 2106.32 1535.71 2105.98 1534.83C2102.43 1525.72 2098.7 1516.73 2094.78 1507.86C2094 1506.09 2093.96 1504.09 2094.67 1502.28C2095.02 1501.39 2095.54 1500.57 2096.2 1499.87C2096.87 1499.18 2097.66 1498.62 2098.54 1498.23C2099.42 1497.84 2100.37 1497.63 2101.33 1497.6C2102.29 1497.58 2103.24 1497.74 2104.13 1498.08C2105.03 1498.43 2105.85 1498.94 2106.54 1499.6C2107.23 1500.26 2107.79 1501.05 2108.17 1501.92C2112.15 1510.99 2116.01 1520.24 2119.6 1529.46C2120.19 1531.06 2120.21 1532.82 2119.63 1534.43C2119.05 1536.04 2117.92 1537.4 2116.43 1538.26ZM1687.76 1770.65C1686.31 1771.52 1684.61 1771.86 1682.94 1771.61C1681.26 1771.37 1679.74 1770.54 1678.61 1769.29C1672.08 1761.98 1665.51 1754.19 1659.27 1746.48C1658.68 1745.74 1658.23 1744.89 1657.97 1743.98C1657.71 1743.07 1657.63 1742.11 1657.74 1741.17C1657.85 1740.22 1658.14 1739.31 1658.6 1738.47C1659.07 1737.64 1659.69 1736.9 1660.43 1736.31C1661.18 1735.71 1662.04 1735.27 1662.95 1735C1663.87 1734.74 1664.83 1734.65 1665.77 1734.75C1666.72 1734.86 1667.64 1735.14 1668.47 1735.6C1669.31 1736.06 1670.04 1736.67 1670.63 1737.41C1676.69 1745.01 1683 1752.45 1689.44 1759.65C1690.07 1760.35 1690.56 1761.18 1690.87 1762.08C1691.18 1762.97 1691.31 1763.92 1691.26 1764.87C1691.2 1765.82 1690.96 1766.75 1690.54 1767.61C1690.12 1768.47 1689.54 1769.23 1688.82 1769.87C1688.49 1770.15 1688.14 1770.41 1687.76 1770.65ZM3167.72 877.765C3166.37 878.572 3164.79 878.92 3163.22 878.754C3161.66 878.588 3160.19 877.919 3159.04 876.846C3157.9 875.774 3157.14 874.357 3156.87 872.809C3156.61 871.262 3156.86 869.668 3157.58 868.27C3162.18 859.541 3166.73 850.787 3171.26 842.006C3171.69 841.15 3172.28 840.386 3173.01 839.76C3173.74 839.133 3174.59 838.657 3175.5 838.357C3176.41 838.058 3177.38 837.941 3178.33 838.015C3179.29 838.088 3180.22 838.35 3181.07 838.786C3181.92 839.221 3182.68 839.821 3183.29 840.551C3183.91 841.281 3184.38 842.126 3184.66 843.038C3184.95 843.95 3185.05 844.91 3184.96 845.863C3184.87 846.816 3184.59 847.743 3184.14 848.59C3179.6 857.379 3175.03 866.152 3170.42 874.911C3169.8 876.089 3168.86 877.076 3167.72 877.765ZM3214.95 785.383C3213.61 786.203 3212.03 786.565 3210.47 786.416C3208.9 786.266 3207.43 785.613 3206.28 784.554C3205.12 783.496 3204.34 782.089 3204.06 780.547C3203.78 779.005 3204.01 777.411 3204.72 776.005C3209.13 767.175 3213.5 758.327 3217.82 749.462C3218.75 747.894 3220.23 746.728 3221.98 746.195C3223.72 745.662 3225.6 745.802 3227.24 746.586C3228.88 747.371 3230.16 748.742 3230.82 750.428C3231.49 752.115 3231.49 753.993 3230.83 755.689C3226.47 764.58 3222.09 773.453 3217.69 782.311C3217.09 783.574 3216.14 784.641 3214.95 785.383ZM2071.74 1445.24L2071.63 1445.31C2069.98 1446.26 2068.02 1446.53 2066.18 1446.06C2064.34 1445.59 2062.76 1444.42 2061.79 1442.79C2059.83 1439.53 2057.88 1436.29 2055.93 1433.03C2052.89 1427.98 2049.8 1422.84 2046.55 1417.89C2046.04 1417.09 2045.69 1416.2 2045.53 1415.26C2045.36 1414.32 2045.39 1413.37 2045.6 1412.44C2045.81 1411.51 2046.19 1410.63 2046.74 1409.85C2047.29 1409.07 2047.99 1408.4 2048.79 1407.89C2049.6 1407.38 2050.5 1407.03 2051.44 1406.86C2052.38 1406.69 2053.34 1406.71 2054.27 1406.91C2055.2 1407.11 2056.08 1407.5 2056.86 1408.04C2057.64 1408.58 2058.3 1409.28 2058.81 1410.08C2062.07 1415.17 2065.21 1420.27 2068.39 1425.55C2070.38 1428.87 2072.38 1432.2 2074.37 1435.52C2075.28 1437.16 2075.52 1439.09 2075.02 1440.9C2074.53 1442.72 2073.35 1444.27 2071.74 1445.24ZM1626.58 1687.58C1624.93 1688.57 1622.95 1688.87 1621.09 1688.41C1619.22 1687.95 1617.62 1686.77 1616.63 1685.13C1611.53 1676.63 1606.6 1667.86 1601.95 1659.08C1601.5 1658.24 1601.23 1657.32 1601.14 1656.37C1601.05 1655.43 1601.15 1654.47 1601.44 1653.56C1601.72 1652.65 1602.18 1651.8 1602.79 1651.07C1603.4 1650.33 1604.15 1649.73 1604.99 1649.28C1605.83 1648.83 1606.76 1648.55 1607.71 1648.46C1608.66 1648.37 1609.62 1648.46 1610.53 1648.74C1611.44 1649.01 1612.29 1649.47 1613.02 1650.07C1613.75 1650.67 1614.36 1651.42 1614.8 1652.26C1619.3 1660.79 1624.13 1669.34 1629.11 1677.64C1629.6 1678.45 1629.93 1679.36 1630.06 1680.3C1630.2 1681.24 1630.15 1682.2 1629.91 1683.12C1629.68 1684.05 1629.26 1684.92 1628.69 1685.68C1628.12 1686.45 1627.4 1687.09 1626.58 1687.58ZM3260.12 691.967C3258.79 692.763 3257.24 693.113 3255.7 692.968C3254.16 692.822 3252.71 692.188 3251.56 691.158C3250.41 690.128 3249.62 688.756 3249.31 687.244C3249 685.732 3249.19 684.158 3249.84 682.754C3254.04 673.834 3258.21 664.89 3262.35 655.924C3262.73 655.017 3263.28 654.194 3263.98 653.504C3264.67 652.814 3265.5 652.271 3266.42 651.909C3267.33 651.547 3268.3 651.372 3269.28 651.395C3270.26 651.419 3271.23 651.64 3272.12 652.046C3273.01 652.452 3273.8 653.033 3274.46 653.756C3275.12 654.479 3275.62 655.327 3275.93 656.25C3276.25 657.173 3276.38 658.152 3276.3 659.127C3276.23 660.102 3275.96 661.053 3275.51 661.923C3271.37 670.904 3267.19 679.869 3262.98 688.819C3262.36 690.127 3261.37 691.224 3260.12 691.967ZM3303.23 597.602C3301.9 598.396 3300.36 598.75 3298.83 598.615C3297.3 598.479 3295.85 597.861 3294.7 596.849C3293.55 595.836 3292.75 594.483 3292.42 592.985C3292.09 591.486 3292.26 589.92 3292.88 588.513C3296.89 579.514 3300.88 570.473 3304.85 561.391C3305.63 559.652 3307.07 558.289 3308.85 557.596C3310.64 556.902 3312.62 556.935 3314.36 557.688C3316.11 558.44 3317.49 559.85 3318.2 561.614C3318.91 563.377 3318.89 565.352 3318.14 567.109C3314.17 576.177 3310.19 585.232 3306.2 594.272C3305.58 595.664 3304.54 596.829 3303.23 597.602ZM2013.36 1360.13C2011.85 1361.05 2010.06 1361.4 2008.33 1361.1C2006.59 1360.81 2005.02 1359.89 2003.92 1358.52C1997.8 1350.97 1991.49 1343.53 1985.02 1336.18C1983.77 1334.74 1983.14 1332.87 1983.27 1330.96C1983.4 1329.06 1984.28 1327.28 1985.72 1326.01C1987.16 1324.74 1989.04 1324.09 1990.95 1324.19C1992.86 1324.3 1994.65 1325.16 1995.92 1326.57C2002.44 1333.89 2008.95 1341.63 2015.24 1349.34C2016.44 1350.83 2017 1352.74 2016.79 1354.64C2016.58 1356.55 2015.62 1358.3 2014.12 1359.51L2013.36 1360.13ZM1582.03 1594.53C1581.66 1594.79 1581.27 1595.02 1580.87 1595.23C1579.97 1595.56 1579.02 1595.71 1578.07 1595.68C1577.11 1595.64 1576.18 1595.42 1575.31 1595.03C1574.45 1594.63 1573.67 1594.07 1573.03 1593.37C1572.38 1592.67 1571.88 1591.86 1571.55 1590.96C1568.2 1581.75 1564.91 1572.1 1562 1562.64C1561.73 1561.73 1561.63 1560.78 1561.72 1559.83C1561.81 1558.89 1562.09 1557.97 1562.53 1557.12C1562.98 1556.28 1563.59 1555.54 1564.32 1554.93C1565.06 1554.32 1565.91 1553.86 1566.82 1553.57C1567.73 1553.29 1568.69 1553.19 1569.63 1553.27C1570.58 1553.36 1571.5 1553.63 1572.35 1554.07C1573.19 1554.51 1573.93 1555.11 1574.54 1555.84C1575.15 1556.57 1575.6 1557.41 1575.88 1558.32C1578.63 1567.6 1581.84 1576.84 1585.17 1585.93C1585.72 1587.5 1585.71 1589.21 1585.13 1590.78C1584.56 1592.34 1583.46 1593.67 1582.03 1594.53ZM1942.3 1285.27C1940.96 1286.07 1939.41 1286.42 1937.87 1286.27C1936.33 1286.13 1934.88 1285.49 1933.73 1284.46C1926.46 1277.96 1919 1271.6 1911.5 1265.52C1910.72 1264.94 1910.07 1264.2 1909.58 1263.35C1909.09 1262.51 1908.78 1261.57 1908.67 1260.6C1908.55 1259.63 1908.64 1258.64 1908.92 1257.7C1909.2 1256.76 1909.66 1255.89 1910.29 1255.13C1910.92 1254.38 1911.69 1253.75 1912.56 1253.3C1913.43 1252.85 1914.39 1252.58 1915.37 1252.51C1916.35 1252.43 1917.33 1252.56 1918.26 1252.88C1919.18 1253.19 1920.03 1253.69 1920.76 1254.35C1928.42 1260.56 1936.04 1267.1 1943.47 1273.73C1944.32 1274.48 1944.98 1275.42 1945.39 1276.48C1945.8 1277.53 1945.96 1278.67 1945.85 1279.8C1945.74 1280.93 1945.36 1282.02 1944.75 1282.98C1944.14 1283.94 1943.31 1284.75 1942.33 1285.33L1942.3 1285.27ZM1555.83 1494.72C1555.04 1495.19 1554.17 1495.51 1553.27 1495.67C1551.37 1495.98 1549.42 1495.53 1547.87 1494.41C1546.31 1493.29 1545.27 1491.6 1544.96 1489.71C1543.38 1479.88 1542.05 1469.89 1541.04 1460.03C1540.93 1459.08 1541.01 1458.11 1541.28 1457.19C1541.54 1456.27 1541.99 1455.41 1542.59 1454.66C1543.19 1453.91 1543.94 1453.29 1544.78 1452.82C1545.62 1452.36 1546.55 1452.07 1547.51 1451.97C1548.46 1451.86 1549.43 1451.95 1550.35 1452.22C1551.26 1452.49 1552.12 1452.94 1552.86 1453.55C1553.6 1454.15 1554.22 1454.9 1554.66 1455.74C1555.11 1456.59 1555.39 1457.51 1555.47 1458.46C1556.46 1468.06 1557.75 1477.79 1559.28 1487.34C1559.51 1488.77 1559.31 1490.24 1558.69 1491.56C1558.08 1492.87 1557.08 1493.97 1555.83 1494.72ZM1859.6 1223.6C1858.48 1224.28 1857.2 1224.64 1855.89 1224.65C1854.58 1224.66 1853.3 1224.31 1852.17 1223.66C1843.57 1218.74 1835.09 1214.03 1826.62 1209.94C1825.09 1209 1823.98 1207.53 1823.48 1205.81C1822.98 1204.1 1823.15 1202.25 1823.94 1200.64C1824.73 1199.02 1826.09 1197.76 1827.75 1197.08C1829.42 1196.41 1831.28 1196.37 1832.96 1196.98C1841.74 1201.25 1850.67 1206 1859.52 1211.24C1861.17 1212.22 1862.36 1213.81 1862.83 1215.66C1863.3 1217.52 1863.01 1219.49 1862.02 1221.14C1861.43 1222.15 1860.6 1222.99 1859.6 1223.6ZM1550.16 1391.74C1549.03 1392.43 1547.73 1392.79 1546.4 1392.79C1545.08 1392.8 1543.78 1392.44 1542.65 1391.76C1541.52 1391.08 1540.6 1390.1 1539.99 1388.93C1539.38 1387.77 1539.1 1386.45 1539.19 1385.14C1539.87 1375.04 1540.99 1364.94 1542.47 1355.08C1542.76 1353.19 1543.8 1351.48 1545.35 1350.33C1546.9 1349.19 1548.84 1348.7 1550.74 1348.98C1552.65 1349.26 1554.36 1350.28 1555.5 1351.82C1556.64 1353.36 1557.11 1355.3 1556.82 1357.19C1555.37 1366.63 1554.21 1376.37 1553.64 1386C1553.54 1387.15 1553.17 1388.27 1552.55 1389.25C1551.94 1390.23 1551.1 1391.05 1550.1 1391.64L1550.16 1391.74ZM1763.64 1185.77C1762.11 1186.69 1760.3 1187.02 1758.55 1186.69C1749.19 1184.92 1739.71 1183.82 1730.19 1183.42C1729.2 1183.44 1728.23 1183.25 1727.32 1182.88C1726.41 1182.5 1725.58 1181.94 1724.9 1181.24C1724.21 1180.54 1723.68 1179.7 1723.33 1178.78C1722.98 1177.86 1722.83 1176.88 1722.87 1175.9C1722.92 1174.92 1723.16 1173.95 1723.59 1173.07C1724.02 1172.18 1724.63 1171.39 1725.38 1170.74C1726.12 1170.09 1726.99 1169.6 1727.93 1169.3C1728.88 1169 1729.87 1168.89 1730.85 1168.99C1741.05 1169.44 1751.21 1170.62 1761.23 1172.53C1762.68 1172.8 1764 1173.5 1765.03 1174.54C1766.07 1175.58 1766.75 1176.91 1767.01 1178.35C1767.26 1179.8 1767.07 1181.29 1766.46 1182.62C1765.84 1183.96 1764.84 1185.08 1763.57 1185.84L1763.64 1185.77ZM1573.12 1291.08C1571.81 1291.86 1570.28 1292.21 1568.76 1292.08C1567.24 1291.95 1565.8 1291.34 1564.65 1290.34C1563.51 1289.35 1562.7 1288.01 1562.36 1286.53C1562.02 1285.05 1562.16 1283.5 1562.75 1282.09C1566.79 1272.67 1571.45 1263.52 1576.71 1254.7C1577.19 1253.88 1577.84 1253.17 1578.6 1252.59C1579.36 1252.02 1580.23 1251.6 1581.16 1251.36C1582.08 1251.12 1583.04 1251.07 1583.99 1251.2C1584.93 1251.33 1585.84 1251.64 1586.66 1252.12C1587.48 1252.61 1588.19 1253.24 1588.76 1254C1589.33 1254.76 1589.75 1255.62 1589.98 1256.54C1590.22 1257.46 1590.27 1258.42 1590.13 1259.36C1590 1260.31 1589.68 1261.21 1589.19 1262.03C1584.33 1270.26 1580.02 1278.8 1576.28 1287.59C1575.64 1289.07 1574.53 1290.3 1573.12 1291.08ZM1661.9 1195.65L1661.11 1196.13L1659.2 1196.99C1651.27 1200.64 1643.67 1204.99 1636.51 1209.97C1635.72 1210.52 1634.84 1210.91 1633.9 1211.12C1632.97 1211.32 1632.01 1211.35 1631.07 1211.18C1630.13 1211.02 1629.23 1210.67 1628.43 1210.16C1627.62 1209.65 1626.93 1208.98 1626.39 1208.2C1625.84 1207.42 1625.46 1206.55 1625.26 1205.62C1625.05 1204.69 1625.04 1203.73 1625.21 1202.79C1625.38 1201.85 1625.73 1200.95 1626.25 1200.15C1626.76 1199.35 1627.43 1198.65 1628.22 1198.1C1636.1 1192.61 1644.45 1187.83 1653.18 1183.82L1655.39 1182.8C1656.24 1182.36 1657.17 1182.09 1658.12 1182.01C1659.07 1181.92 1660.03 1182.03 1660.94 1182.31C1661.85 1182.6 1662.69 1183.06 1663.42 1183.67C1664.14 1184.28 1664.74 1185.03 1665.18 1185.88C1665.62 1186.72 1665.88 1187.64 1665.96 1188.59C1666.04 1189.54 1665.93 1190.49 1665.64 1191.4C1665.34 1192.31 1664.88 1193.15 1664.26 1193.88C1663.64 1194.61 1662.89 1195.21 1662.04 1195.65L1661.9 1195.65Z" fill="#1F324F"/>
</svg>
