<svg width="1021" height="2622" viewBox="0 0 1021 2622" fill="none" xmlns="http://www.w3.org/2000/svg">
<path fill-rule="evenodd" clip-rule="evenodd" d="M198.741 6.42712C173.226 -6.98938 141.665 2.81858 128.249 28.3338C33.0543 209.373 -4.67548 372.14 1.32994 520.54C7.33835 669.014 56.9665 799.177 130.309 915.173C251.611 1107.02 442.116 1265.25 612.41 1406.7C644.939 1433.72 676.729 1460.13 707.16 1486.04C885.194 1637.63 955.65 1891.4 894.101 2109.13C833.923 2322.02 645.227 2506.51 288.529 2517.24C259.714 2518.11 237.059 2542.17 237.926 2570.99C238.793 2599.8 262.854 2622.46 291.669 2621.59C690.044 2609.6 920.969 2397.86 994.558 2137.53C1066.78 1882.05 985.145 1585.62 774.838 1406.55C742.278 1378.83 709.03 1351.16 675.607 1323.35C505.163 1181.53 330.156 1035.9 218.545 859.382C152.903 755.566 110.763 642.946 105.639 516.319C100.511 389.619 132.284 244.967 220.648 76.9193C234.064 51.404 224.256 19.8436 198.741 6.42712Z" fill="#7BD198"/>
</svg>
