<svg width="2796" height="2521" viewBox="0 0 2796 2521" fill="none" xmlns="http://www.w3.org/2000/svg">
<path opacity="0.74" d="M27.749 2519.69C26.9908 2520.15 26.1525 2520.46 25.279 2520.61C23.3854 2520.95 21.4386 2520.53 19.8658 2519.44C18.2931 2518.34 17.2231 2516.67 16.8906 2514.78C15.6268 2507.46 14.3879 2500.03 13.2567 2492.74C13.0157 2490.87 13.5173 2488.97 14.6543 2487.46C15.7913 2485.95 17.4739 2484.93 19.3434 2484.63C21.213 2484.33 23.1214 2484.77 24.6621 2485.86C26.2029 2486.95 27.2539 2488.59 27.5912 2490.44C28.7268 2497.65 29.9368 2504.98 31.2051 2512.22C31.4533 2513.67 31.2557 2515.15 30.6386 2516.49C30.0214 2517.82 29.0138 2518.94 27.749 2519.69ZM1398.93 1689.83L1398.54 1690.07C1389.68 1694.66 1380.48 1699 1371.16 1702.97C1369.4 1703.68 1367.42 1703.68 1365.67 1702.95C1363.91 1702.23 1362.52 1700.85 1361.78 1699.1C1361.05 1697.36 1361.03 1695.39 1361.73 1693.63C1362.44 1691.86 1363.81 1690.44 1365.55 1689.66C1374.55 1685.83 1383.4 1681.75 1391.97 1677.19C1392.8 1676.73 1393.72 1676.43 1394.66 1676.31C1395.61 1676.2 1396.57 1676.27 1397.48 1676.53C1398.4 1676.78 1399.26 1677.21 1400 1677.8C1400.75 1678.39 1401.38 1679.11 1401.84 1679.94C1402.3 1680.77 1402.6 1681.68 1402.71 1682.62C1402.82 1683.57 1402.74 1684.52 1402.48 1685.44C1402.22 1686.36 1401.78 1687.21 1401.19 1687.96C1400.59 1688.71 1399.86 1689.33 1399.03 1689.8L1398.93 1689.83ZM1460.94 1649.2C1460.15 1649.74 1459.27 1650.13 1458.34 1650.34C1457.4 1650.55 1456.44 1650.57 1455.5 1650.41C1453.6 1650.08 1451.92 1649.01 1450.81 1647.44C1449.71 1645.87 1449.28 1643.92 1449.63 1642.03C1449.97 1640.13 1451.05 1638.45 1452.63 1637.34C1460.09 1631.32 1467.49 1624.87 1474.58 1618.18C1475.98 1616.86 1477.86 1616.14 1479.78 1616.2C1481.71 1616.25 1483.53 1617.06 1484.85 1618.46C1486.16 1619.85 1486.87 1621.71 1486.8 1623.63C1486.74 1625.55 1485.92 1627.37 1484.51 1628.69C1477.14 1635.62 1469.48 1642.3 1461.75 1648.57C1461.49 1648.8 1461.22 1649.01 1460.94 1649.2ZM1301.54 1725.27C1300.88 1725.66 1300.17 1725.94 1299.42 1726.12C1289.79 1728.33 1279.85 1730.32 1269.87 1731.96C1268.02 1732.17 1266.16 1731.67 1264.68 1730.55C1263.2 1729.44 1262.21 1727.8 1261.91 1725.97C1261.62 1724.14 1262.04 1722.26 1263.09 1720.72C1264.14 1719.18 1265.74 1718.1 1267.56 1717.71C1277.23 1716.08 1286.89 1714.18 1296.22 1712.03C1297.9 1711.65 1299.66 1711.87 1301.19 1712.66C1302.71 1713.46 1303.9 1714.77 1304.54 1716.36C1305.18 1717.95 1305.23 1719.72 1304.68 1721.35C1304.13 1722.99 1303.02 1724.37 1301.54 1725.27ZM1532.56 1574.32C1531.11 1575.2 1529.41 1575.54 1527.74 1575.3C1526.08 1575.07 1524.55 1574.26 1523.42 1573.01C1522.29 1571.77 1521.64 1570.17 1521.56 1568.49C1521.49 1566.81 1522.01 1565.16 1523.03 1563.81C1528.78 1556.12 1534.41 1548.05 1539.67 1539.78C1540.18 1538.95 1540.85 1538.23 1541.64 1537.66C1542.43 1537.1 1543.32 1536.69 1544.27 1536.47C1545.21 1536.26 1546.19 1536.23 1547.15 1536.4C1548.1 1536.56 1549.02 1536.92 1549.83 1537.44C1550.64 1537.97 1551.34 1538.65 1551.88 1539.45C1552.42 1540.25 1552.8 1541.15 1552.98 1542.1C1553.17 1543.05 1553.16 1544.03 1552.96 1544.98C1552.76 1545.92 1552.37 1546.82 1551.81 1547.62C1546.31 1556.06 1540.51 1564.37 1534.58 1572.32C1534.03 1573.1 1533.34 1573.77 1532.54 1574.3L1532.56 1574.32ZM1198.72 1738.3C1197.65 1738.93 1196.44 1739.28 1195.2 1739.31C1185.35 1739.61 1175.29 1739.76 1165.23 1739.65C1164.27 1739.65 1163.32 1739.46 1162.44 1739.09C1161.55 1738.73 1160.75 1738.19 1160.08 1737.51C1159.41 1736.83 1158.88 1736.02 1158.53 1735.13C1158.17 1734.25 1158 1733.3 1158.01 1732.34C1158.03 1731.38 1158.24 1730.44 1158.62 1729.56C1159.01 1728.68 1159.56 1727.89 1160.25 1727.22C1160.95 1726.56 1161.77 1726.03 1162.66 1725.68C1163.56 1725.34 1164.51 1725.17 1165.47 1725.19C1175.33 1725.28 1185.24 1725.17 1194.8 1724.87C1196.41 1724.81 1197.99 1725.29 1199.29 1726.23C1200.59 1727.16 1201.54 1728.51 1201.98 1730.04C1202.43 1731.58 1202.35 1733.23 1201.76 1734.72C1201.17 1736.21 1200.1 1737.47 1198.72 1738.3ZM1897.25 1304.1C1895.6 1305.09 1893.62 1305.39 1891.75 1304.93C1889.89 1304.47 1888.29 1303.29 1887.3 1301.65C1886.31 1300.01 1886.03 1298.04 1886.5 1296.18C1886.97 1294.31 1888.16 1292.71 1889.81 1291.72C1898.12 1286.73 1906.47 1281.43 1914.68 1276C1916.29 1274.94 1918.25 1274.55 1920.14 1274.93C1922.02 1275.31 1923.68 1276.42 1924.73 1278.02C1925.79 1279.62 1926.17 1281.57 1925.78 1283.46C1925.39 1285.34 1924.26 1286.99 1922.65 1288.06C1914.28 1293.59 1905.73 1298.98 1897.27 1304.09L1897.25 1304.1ZM1831.68 1338.84C1831.46 1339 1831.22 1339.14 1830.97 1339.27C1825.59 1341.74 1820.08 1344.18 1814.61 1346.51C1810.88 1348.1 1807.12 1349.66 1803.3 1351.2C1802.41 1351.55 1801.46 1351.72 1800.51 1351.7C1799.56 1351.69 1798.62 1351.48 1797.74 1351.11C1796.87 1350.73 1796.08 1350.18 1795.42 1349.5C1794.76 1348.81 1794.25 1348.01 1793.9 1347.12C1793.56 1346.24 1793.39 1345.3 1793.41 1344.35C1793.43 1343.4 1793.64 1342.46 1794.02 1341.59C1794.41 1340.71 1794.96 1339.92 1795.65 1339.26C1796.34 1338.6 1797.15 1338.08 1798.04 1337.73C1801.7 1336.26 1805.37 1334.74 1808.99 1333.2C1814.35 1330.92 1819.73 1328.55 1824.98 1326.13C1826.68 1325.23 1828.68 1325.03 1830.52 1325.59C1832.36 1326.15 1833.89 1327.42 1834.79 1329.11C1835.69 1330.81 1835.87 1332.79 1835.3 1334.63C1834.73 1336.47 1833.45 1338.01 1831.75 1338.91L1831.68 1338.84ZM1585.42 1485.24C1584.08 1486.04 1582.53 1486.4 1580.99 1486.26C1579.44 1486.11 1577.99 1485.48 1576.84 1484.45C1575.68 1483.42 1574.89 1482.05 1574.59 1480.54C1574.28 1479.02 1574.46 1477.45 1575.12 1476.04C1579.16 1467.29 1583.05 1458.25 1586.7 1449.18C1587.02 1448.25 1587.52 1447.39 1588.18 1446.66C1588.84 1445.93 1589.64 1445.34 1590.54 1444.92C1591.43 1444.51 1592.4 1444.28 1593.38 1444.25C1594.37 1444.22 1595.34 1444.38 1596.26 1444.74C1597.17 1445.1 1598 1445.64 1598.7 1446.33C1599.39 1447.02 1599.94 1447.85 1600.3 1448.75C1600.67 1449.66 1600.84 1450.64 1600.82 1451.62C1600.79 1452.6 1600.57 1453.57 1600.16 1454.46C1596.43 1463.77 1592.46 1473.12 1588.27 1482.04C1587.63 1483.34 1586.61 1484.41 1585.34 1485.12L1585.42 1485.24ZM1982.29 1244.47C1981.5 1245.01 1980.62 1245.4 1979.68 1245.6C1978.75 1245.81 1977.79 1245.83 1976.85 1245.66C1975.91 1245.5 1975.01 1245.15 1974.21 1244.64C1973.41 1244.12 1972.72 1243.46 1972.17 1242.68C1971.63 1241.9 1971.25 1241.02 1971.05 1240.09C1970.85 1239.16 1970.83 1238.2 1971 1237.26C1971.17 1236.32 1971.53 1235.43 1972.05 1234.63C1972.57 1233.82 1973.24 1233.13 1974.02 1232.58C1981.66 1226.48 1989.2 1220.21 1996.66 1213.82C1998.14 1212.67 2000 1212.13 2001.85 1212.31C2003.71 1212.49 2005.43 1213.37 2006.64 1214.79C2007.85 1216.2 2008.47 1218.02 2008.36 1219.88C2008.25 1221.74 2007.43 1223.49 2006.06 1224.77C1998.42 1231.33 1990.66 1237.75 1983 1243.87C1982.75 1244.04 1982.49 1244.2 1982.21 1244.34L1982.29 1244.47ZM15.2082 2424.65C14.2643 2425.22 13.2081 2425.56 12.1159 2425.67C10.2035 2425.84 8.3043 2425.25 6.83421 2424.03C5.36413 2422.81 4.44297 2421.05 4.27246 2419.15C3.40455 2409.28 2.63643 2399.3 2.10413 2389.57C1.99969 2388.59 2.09445 2387.61 2.38252 2386.67C2.6706 2385.73 3.14604 2384.86 3.78013 2384.11C4.41423 2383.36 5.19374 2382.75 6.07151 2382.31C6.94929 2381.86 7.90709 2381.6 8.88688 2381.54C9.86667 2381.47 10.848 2381.61 11.7717 2381.94C12.6954 2382.26 13.5422 2382.77 14.2607 2383.43C14.9791 2384.1 15.5544 2384.9 15.9518 2385.79C16.3491 2386.68 16.5602 2387.65 16.5723 2388.63C17.1629 2398.27 17.8982 2408.1 18.758 2417.86C18.828 2419.19 18.5307 2420.51 17.8988 2421.68C17.2668 2422.85 16.3246 2423.83 15.1753 2424.51L15.2082 2424.65ZM1733.76 1373.73C1733.16 1374.09 1732.51 1374.35 1731.83 1374.52C1722.21 1377.04 1712.38 1379.35 1702.58 1381.38C1701.65 1381.58 1700.69 1381.58 1699.75 1381.4C1698.82 1381.23 1697.93 1380.87 1697.13 1380.34C1696.34 1379.82 1695.66 1379.15 1695.13 1378.36C1694.59 1377.58 1694.22 1376.69 1694.04 1375.76C1693.85 1374.83 1693.85 1373.87 1694.03 1372.94C1694.21 1372 1694.58 1371.12 1695.11 1370.32C1695.64 1369.53 1696.32 1368.84 1697.11 1368.31C1697.9 1367.78 1698.79 1367.4 1699.72 1367.21C1709.26 1365.21 1718.87 1362.96 1728.25 1360.52C1729.95 1360.07 1731.74 1360.25 1733.31 1361.01C1734.87 1361.78 1736.11 1363.09 1736.78 1364.69C1737.45 1366.3 1737.52 1368.1 1736.96 1369.75C1736.41 1371.41 1735.28 1372.82 1733.78 1373.71L1733.76 1373.73ZM2059.63 1175.22C2058.11 1176.12 2056.31 1176.44 2054.58 1176.12C2052.84 1175.79 2051.29 1174.85 2050.21 1173.46C2049.13 1172.07 2048.6 1170.34 2048.71 1168.58C2048.83 1166.82 2049.58 1165.16 2050.83 1163.91C2057.66 1157.17 2064.59 1150.03 2071.62 1143C2072.28 1142.3 2073.07 1141.73 2073.95 1141.33C2074.83 1140.93 2075.77 1140.71 2076.74 1140.68C2077.7 1140.65 2078.66 1140.81 2079.56 1141.15C2080.45 1141.49 2081.27 1142.01 2081.97 1142.68C2082.66 1143.34 2083.21 1144.13 2083.59 1145.02C2083.97 1145.9 2084.17 1146.84 2084.18 1147.8C2084.19 1148.76 2084.01 1149.72 2083.64 1150.61C2083.28 1151.5 2082.74 1152.31 2082.06 1152.99C2075.1 1160.23 2068.07 1167.35 2061.08 1174.24C2060.64 1174.57 2060.16 1174.85 2059.65 1175.07L2059.63 1175.22ZM1095.01 1734.2C1093.66 1735.01 1092.07 1735.36 1090.5 1735.2C1080.81 1734.17 1070.85 1732.96 1060.84 1731.59C1059 1731.25 1057.37 1730.22 1056.28 1728.71C1055.2 1727.2 1054.74 1725.33 1055 1723.49C1055.27 1721.64 1056.24 1719.96 1057.71 1718.81C1059.18 1717.65 1061.03 1717.1 1062.89 1717.27C1072.74 1718.6 1082.56 1719.81 1092.09 1720.82C1093.6 1720.98 1095.02 1721.61 1096.15 1722.61C1097.28 1723.62 1098.06 1724.96 1098.38 1726.44C1098.7 1727.91 1098.55 1729.46 1097.95 1730.85C1097.34 1732.24 1096.32 1733.41 1095.01 1734.2ZM2130.56 1099.3C2129.08 1100.18 2127.33 1100.51 2125.64 1100.23C2123.94 1099.95 2122.4 1099.08 2121.29 1097.76C2120.19 1096.45 2119.59 1094.79 2119.61 1093.07C2119.62 1091.35 2120.25 1089.69 2121.38 1088.38C2127.67 1081.16 2134.11 1073.58 2140.58 1065.91C2141.81 1064.42 2143.58 1063.48 2145.5 1063.3C2147.42 1063.11 2149.33 1063.69 2150.81 1064.91C2152.3 1066.13 2153.23 1067.89 2153.41 1069.81C2153.58 1071.72 2152.99 1073.63 2151.76 1075.11C2145.15 1082.93 2138.73 1090.49 2132.39 1097.78C2131.86 1098.32 2131.25 1098.78 2130.58 1099.14L2130.56 1099.3ZM1631.54 1391.25C1630.58 1391.83 1629.51 1392.18 1628.39 1392.27C1618.44 1393.11 1608.38 1393.71 1598.39 1394.06C1597.44 1394.09 1596.49 1393.94 1595.6 1393.6C1594.71 1393.27 1593.89 1392.76 1593.2 1392.11C1592.5 1391.47 1591.95 1390.69 1591.56 1389.82C1591.17 1388.96 1590.95 1388.02 1590.93 1387.07C1590.9 1386.12 1591.06 1385.17 1591.4 1384.28C1591.74 1383.39 1592.25 1382.58 1592.91 1381.89C1593.56 1381.19 1594.35 1380.63 1595.22 1380.24C1596.09 1379.84 1597.03 1379.63 1597.98 1379.59C1601.8 1379.45 1605.63 1379.29 1609.49 1379.09C1611.86 1369.91 1614.03 1360.55 1615.98 1351.27C1616.43 1349.45 1617.57 1347.88 1619.15 1346.88C1620.74 1345.88 1622.65 1345.52 1624.48 1345.89C1626.32 1346.26 1627.93 1347.32 1628.99 1348.85C1630.05 1350.38 1630.48 1352.27 1630.17 1354.11C1628.52 1362.09 1626.73 1370.22 1624.76 1378.03L1627.29 1377.83C1628.93 1377.69 1630.55 1378.1 1631.91 1379.01C1633.27 1379.91 1634.28 1381.25 1634.78 1382.8C1635.28 1384.35 1635.23 1386.03 1634.65 1387.56C1634.07 1389.09 1632.99 1390.38 1631.58 1391.23L1631.54 1391.25ZM2196.52 1019.03C2195.06 1019.91 2193.35 1020.25 2191.67 1020C2190 1019.75 2188.47 1018.92 2187.35 1017.66C2186.23 1016.4 2185.59 1014.78 2185.54 1013.09C2185.49 1011.4 2186.04 1009.75 2187.09 1008.41C2193.18 1000.62 2199.22 992.813 2205.21 985.003C2205.78 984.208 2206.5 983.533 2207.33 983.019C2208.16 982.505 2209.08 982.163 2210.04 982.012C2211.01 981.862 2211.99 981.906 2212.94 982.143C2213.88 982.38 2214.76 982.804 2215.54 983.391C2216.31 983.977 2216.96 984.714 2217.44 985.557C2217.92 986.4 2218.22 987.331 2218.34 988.296C2218.45 989.261 2218.36 990.24 2218.08 991.173C2217.81 992.106 2217.35 992.976 2216.73 993.729C2210.7 1001.58 2204.63 1009.43 2198.51 1017.27C2197.95 1017.92 2197.28 1018.46 2196.54 1018.88L2196.52 1019.03ZM11.231 2321.25C10.0716 2321.94 8.74213 2322.3 7.39223 2322.29C6.43761 2322.29 5.49394 2322.1 4.61529 2321.73C3.73663 2321.36 2.94026 2320.82 2.27188 2320.15C1.6035 2319.47 1.07617 2318.67 0.720214 2317.79C0.364261 2316.91 0.18669 2315.97 0.197574 2315.01C0.375008 2305.05 0.722571 2295.04 1.19408 2285.24C1.23993 2284.29 1.47286 2283.36 1.87951 2282.5C2.28616 2281.64 2.85858 2280.86 3.56412 2280.22C4.26965 2279.58 5.09442 2279.08 5.99143 2278.75C6.88844 2278.43 7.84015 2278.28 8.79207 2278.32C9.744 2278.36 10.6775 2278.59 11.5394 2278.99C12.4013 2279.39 13.1747 2279.96 13.8154 2280.66C14.4561 2281.36 14.9515 2282.18 15.2735 2283.07C15.5954 2283.96 15.7375 2284.91 15.6916 2285.86C15.2081 2295.5 14.8816 2305.35 14.7045 2315.17C14.6842 2316.39 14.3552 2317.59 13.7479 2318.65C13.1406 2319.71 12.2748 2320.61 11.231 2321.25ZM992.507 1717.93C990.959 1718.84 989.13 1719.14 987.375 1718.79C978.135 1716.95 968.593 1714.99 958.325 1712.76C956.443 1712.36 954.803 1711.23 953.763 1709.62C952.724 1708.01 952.372 1706.05 952.784 1704.17C953.196 1702.29 954.339 1700.65 955.961 1699.61C957.582 1698.56 959.551 1698.2 961.432 1698.6C971.733 1700.84 981.163 1702.75 990.42 1704.52C991.852 1704.8 993.163 1705.51 994.181 1706.55C995.2 1707.59 995.878 1708.91 996.129 1710.34C996.379 1711.78 996.189 1713.25 995.583 1714.58C994.978 1715.91 993.985 1717.03 992.736 1717.79L992.507 1717.93ZM1527.76 1390.88C1526.44 1391.67 1524.9 1392.02 1523.36 1391.89C1513.44 1391.03 1503.38 1389.85 1493.56 1388.56C1492.62 1388.43 1491.71 1388.12 1490.89 1387.64C1490.07 1387.16 1489.35 1386.52 1488.78 1385.77C1488.21 1385.01 1487.79 1384.15 1487.55 1383.23C1487.32 1382.31 1487.26 1381.35 1487.4 1380.41C1487.53 1379.47 1487.85 1378.56 1488.34 1377.74C1488.82 1376.92 1489.46 1376.2 1490.22 1375.63C1490.99 1375.05 1491.85 1374.63 1492.78 1374.39C1493.7 1374.15 1494.66 1374.09 1495.6 1374.22C1505.22 1375.55 1514.99 1376.62 1524.68 1377.48C1526.21 1377.6 1527.66 1378.21 1528.81 1379.21C1529.97 1380.21 1530.77 1381.55 1531.12 1383.04C1531.46 1384.52 1531.32 1386.08 1530.71 1387.49C1530.11 1388.9 1529.08 1390.09 1527.76 1390.88ZM2259.25 936.043C2257.81 936.913 2256.12 937.259 2254.45 937.024C2252.79 936.788 2251.27 935.985 2250.14 934.75C2249.01 933.516 2248.35 931.928 2248.27 930.256C2248.19 928.584 2248.69 926.933 2249.69 925.583C2255.57 917.642 2261.39 909.684 2267.22 901.693C2267.77 900.908 2268.48 900.24 2269.29 899.727C2270.11 899.215 2271.02 898.869 2271.97 898.709C2272.91 898.549 2273.88 898.578 2274.82 898.796C2275.75 899.013 2276.64 899.413 2277.41 899.974C2278.19 900.534 2278.85 901.244 2279.34 902.061C2279.84 902.878 2280.17 903.787 2280.31 904.734C2280.45 905.681 2280.41 906.648 2280.17 907.578C2279.93 908.509 2279.51 909.384 2278.94 910.153C2273.11 918.144 2267.26 926.133 2261.37 934.122C2260.8 934.896 2260.08 935.549 2259.25 936.043ZM1637.59 1285.58C1636.28 1286.37 1634.75 1286.73 1633.23 1286.6C1632.28 1286.52 1631.36 1286.26 1630.51 1285.82C1629.67 1285.39 1628.92 1284.79 1628.31 1284.06C1627.7 1283.34 1627.24 1282.5 1626.95 1281.6C1626.67 1280.69 1626.56 1279.74 1626.65 1278.79C1627.51 1269.17 1628.15 1259.36 1628.54 1249.58C1628.75 1247.75 1629.64 1246.08 1631.04 1244.88C1632.44 1243.69 1634.23 1243.06 1636.07 1243.13C1637.9 1243.2 1639.64 1243.96 1640.93 1245.26C1642.21 1246.56 1642.96 1248.3 1643 1250.13C1642.58 1260.1 1641.91 1270.13 1641.12 1279.93C1641.03 1281.08 1640.65 1282.2 1640.04 1283.19C1639.42 1284.18 1638.57 1285 1637.57 1285.6L1637.59 1285.58ZM2319.99 851.806C2318.56 852.662 2316.89 853.006 2315.24 852.779C2313.6 852.552 2312.09 851.769 2310.96 850.56C2309.83 849.352 2309.15 847.791 2309.04 846.138C2308.93 844.486 2309.39 842.843 2310.34 841.483C2316.04 833.402 2321.71 825.319 2327.34 817.235C2328.44 815.652 2330.13 814.565 2332.02 814.214C2333.92 813.863 2335.87 814.276 2337.45 815.363C2339.03 816.45 2340.11 818.121 2340.46 820.009C2340.8 821.897 2340.37 823.847 2339.27 825.43C2333.6 833.553 2327.91 841.652 2322.19 849.728C2321.61 850.577 2320.85 851.291 2319.97 851.819L2319.99 851.806ZM891.358 1695.87C889.746 1696.83 887.824 1697.14 885.997 1696.73L857.127 1690.2C856.176 1690.02 855.273 1689.64 854.471 1689.1C853.669 1688.56 852.985 1687.87 852.459 1687.06C851.933 1686.25 851.575 1685.34 851.408 1684.39C851.24 1683.44 851.266 1682.46 851.483 1681.52C851.701 1680.57 852.106 1679.68 852.674 1678.9C853.242 1678.11 853.962 1677.44 854.792 1676.94C855.621 1676.43 856.543 1676.09 857.502 1675.95C858.462 1675.8 859.44 1675.85 860.379 1676.09C870.116 1678.19 879.658 1680.43 889.303 1682.61C890.713 1682.93 891.993 1683.67 892.977 1684.72C893.962 1685.77 894.606 1687.1 894.827 1688.52C895.047 1689.95 894.835 1691.41 894.217 1692.72C893.599 1694.03 892.603 1695.12 891.358 1695.87ZM19.1851 2218.09C17.7706 2218.93 16.1129 2219.27 14.4838 2219.06C12.5831 2218.8 10.8661 2217.8 9.70923 2216.28C8.55231 2214.76 8.04972 2212.84 8.31144 2210.94C9.67891 2201.08 11.2497 2191.18 12.9859 2181.46C13.127 2180.5 13.4598 2179.58 13.9644 2178.75C14.469 2177.92 15.1352 2177.2 15.9236 2176.63C16.7119 2176.06 17.6062 2175.65 18.5535 2175.43C19.5008 2175.21 20.4818 2175.18 21.4383 2175.34C22.3947 2175.51 23.3072 2175.86 24.1215 2176.39C24.9358 2176.91 25.6352 2177.59 26.1785 2178.39C26.7218 2179.19 27.0978 2180.1 27.2841 2181.05C27.4705 2182 27.4634 2182.97 27.2633 2183.92C25.5194 2193.39 24.0277 2203.19 22.6773 2212.84C22.5255 2213.93 22.1307 2214.96 21.5223 2215.87C20.9139 2216.78 20.1078 2217.54 19.1643 2218.1L19.1851 2218.09ZM1425.9 1373.09C1425.06 1373.6 1424.12 1373.93 1423.15 1374.07C1422.18 1374.21 1421.2 1374.15 1420.25 1373.9C1410.59 1371.28 1400.93 1368.46 1391.51 1365.42C1389.68 1364.82 1388.16 1363.53 1387.3 1361.82C1386.43 1360.11 1386.29 1358.12 1386.89 1356.3C1387.5 1354.47 1388.8 1352.95 1390.52 1352.08C1392.24 1351.21 1394.24 1351.05 1396.06 1351.65C1405.22 1354.57 1414.63 1357.34 1424.09 1359.92C1425.01 1360.16 1425.87 1360.59 1426.63 1361.17C1427.38 1361.75 1428.01 1362.47 1428.48 1363.3C1428.96 1364.12 1429.26 1365.03 1429.38 1365.98C1429.49 1366.92 1429.42 1367.88 1429.17 1368.8C1428.67 1370.6 1427.49 1372.14 1425.88 1373.11L1425.9 1373.09ZM2378.91 766.277C2377.49 767.137 2375.83 767.491 2374.19 767.278C2372.55 767.065 2371.03 766.299 2369.89 765.108C2368.76 763.916 2368.06 762.37 2367.93 760.726C2367.8 759.082 2368.23 757.439 2369.16 756.07C2374.66 747.882 2380.11 739.698 2385.5 731.518C2386.03 730.724 2386.71 730.039 2387.5 729.505C2388.29 728.971 2389.18 728.596 2390.12 728.404C2391.05 728.211 2392.02 728.204 2392.95 728.382C2393.89 728.561 2394.78 728.921 2395.57 729.444C2396.37 729.966 2397.05 730.64 2397.58 731.426C2398.11 732.213 2398.48 733.097 2398.67 734.029C2398.86 734.96 2398.86 735.92 2398.68 736.854C2398.49 737.788 2398.12 738.678 2397.6 739.473C2392.11 747.711 2386.6 755.939 2381.08 764.157C2380.52 765.02 2379.77 765.748 2378.89 766.29L2378.91 766.277ZM1638.55 1182.25C1637.48 1182.88 1636.27 1183.24 1635.03 1183.28C1633.79 1183.32 1632.56 1183.04 1631.47 1182.47C1630.37 1181.91 1629.44 1181.07 1628.76 1180.03C1628.08 1179 1627.68 1177.81 1627.6 1176.58C1626.93 1166.9 1626.02 1157.11 1624.94 1147.46C1624.8 1146.5 1624.86 1145.52 1625.11 1144.58C1625.35 1143.64 1625.79 1142.76 1626.38 1141.99C1626.98 1141.22 1627.72 1140.57 1628.57 1140.09C1629.41 1139.61 1630.35 1139.31 1631.32 1139.19C1632.28 1139.08 1633.26 1139.16 1634.19 1139.43C1635.12 1139.7 1635.99 1140.16 1636.74 1140.77C1637.49 1141.39 1638.11 1142.14 1638.56 1143C1639.01 1143.86 1639.28 1144.8 1639.36 1145.76C1640.47 1155.62 1641.39 1165.63 1642.07 1175.5C1642.16 1176.84 1641.88 1178.17 1641.26 1179.36C1640.64 1180.56 1639.7 1181.55 1638.55 1182.25ZM790.029 1674.03C788.487 1674.94 786.663 1675.26 784.909 1674.92C774.956 1672.97 765.21 1671.19 755.932 1669.57C754.971 1669.44 754.048 1669.11 753.218 1668.61C752.387 1668.11 751.667 1667.45 751.099 1666.67C750.531 1665.89 750.128 1665 749.912 1664.06C749.696 1663.11 749.673 1662.13 749.844 1661.18C750.014 1660.23 750.376 1659.31 750.905 1658.5C751.435 1657.68 752.124 1656.98 752.929 1656.44C753.734 1655.89 754.641 1655.51 755.594 1655.32C756.548 1655.13 757.529 1655.13 758.48 1655.32C767.919 1656.93 777.723 1658.76 787.763 1660.71C789.202 1660.98 790.52 1661.68 791.546 1662.72C792.571 1663.76 793.254 1665.09 793.507 1666.53C793.759 1667.97 793.567 1669.45 792.957 1670.78C792.348 1672.11 791.349 1673.23 790.091 1673.99L790.029 1674.03ZM2435.82 679.568C2434.42 680.419 2432.77 680.772 2431.14 680.57C2429.51 680.367 2428.01 679.621 2426.87 678.453C2425.73 677.284 2425.02 675.763 2424.86 674.137C2424.7 672.51 2425.1 670.875 2425.99 669.497C2431.32 661.221 2436.63 652.904 2441.91 644.546C2442.41 643.709 2443.07 642.979 2443.85 642.399C2444.63 641.818 2445.52 641.399 2446.46 641.167C2447.4 640.935 2448.39 640.893 2449.34 641.046C2450.3 641.198 2451.22 641.541 2452.04 642.054C2452.86 642.567 2453.57 643.24 2454.12 644.033C2454.68 644.825 2455.06 645.721 2455.26 646.668C2455.46 647.615 2455.47 648.593 2455.28 649.544C2455.09 650.496 2454.72 651.401 2454.17 652.206C2448.89 660.565 2443.55 668.927 2438.16 677.294C2437.56 678.218 2436.76 678.995 2435.82 679.568ZM40.3809 2116.89C39.132 2117.64 37.6859 2118.01 36.2311 2117.93C34.7762 2117.86 33.3799 2117.35 32.2242 2116.47C31.0685 2115.59 30.2069 2114.38 29.7516 2113.01C29.2962 2111.63 29.2683 2110.14 29.6714 2108.74C32.3944 2099.16 35.3954 2089.53 38.5035 2080.16C39.1442 2078.39 40.4558 2076.92 42.1583 2076.09C43.8609 2075.25 45.8195 2075.11 47.6161 2075.7C49.4128 2076.28 50.9051 2077.54 51.7746 2079.22C52.6442 2080.89 52.8219 2082.84 52.2701 2084.64C49.2745 2093.77 46.3154 2103.24 43.6426 2112.62C43.148 2114.37 42.0135 2115.88 40.464 2116.84L40.3809 2116.89ZM1328.77 1337.36C1327.73 1337.99 1326.56 1338.35 1325.35 1338.41C1324.14 1338.46 1322.94 1338.22 1321.85 1337.7C1312.85 1333.39 1303.92 1328.81 1295.22 1323.98C1293.54 1323.06 1292.3 1321.5 1291.78 1319.66C1291.25 1317.81 1291.49 1315.83 1292.43 1314.15C1293.36 1312.47 1294.93 1311.23 1296.79 1310.69C1298.64 1310.16 1300.62 1310.38 1302.3 1311.31C1310.74 1315.95 1319.47 1320.46 1328.21 1324.67C1329.39 1325.23 1330.38 1326.1 1331.1 1327.19C1331.81 1328.27 1332.22 1329.53 1332.28 1330.83C1332.33 1332.13 1332.04 1333.42 1331.42 1334.57C1330.8 1335.72 1329.89 1336.68 1328.77 1337.36ZM2491.01 591.677C2489.61 592.522 2487.98 592.877 2486.36 592.685C2484.75 592.493 2483.25 591.766 2482.11 590.621C2480.96 589.475 2480.24 587.977 2480.05 586.367C2479.87 584.757 2480.23 583.128 2481.08 581.743C2486.23 573.316 2491.36 564.884 2496.47 556.446C2496.94 555.588 2497.57 554.832 2498.34 554.225C2499.11 553.618 2499.99 553.171 2500.94 552.911C2501.88 552.652 2502.87 552.586 2503.84 552.716C2504.81 552.847 2505.74 553.172 2506.58 553.671C2507.41 554.17 2508.14 554.834 2508.71 555.622C2509.29 556.411 2509.69 557.307 2509.91 558.257C2510.12 559.208 2510.14 560.193 2509.96 561.153C2509.79 562.113 2509.42 563.029 2508.88 563.845C2503.77 572.319 2498.64 580.778 2493.46 589.221C2492.85 590.176 2492.02 590.973 2491.04 591.544L2491.01 591.677ZM687.582 1658.56C686.234 1659.37 684.661 1659.73 683.1 1659.57C673.207 1658.58 663.372 1657.77 653.855 1657.17C652.898 1657.11 651.963 1656.87 651.104 1656.45C650.244 1656.03 649.476 1655.45 648.844 1654.73C648.213 1654.01 647.729 1653.18 647.422 1652.28C647.114 1651.37 646.988 1650.42 647.051 1649.46C647.115 1648.51 647.366 1647.58 647.79 1646.72C648.215 1645.86 648.805 1645.09 649.526 1644.45C650.247 1643.82 651.086 1643.33 651.994 1643.02C652.902 1642.71 653.862 1642.58 654.819 1642.64C664.51 1643.25 674.532 1644.08 684.558 1645.11C686.072 1645.26 687.497 1645.88 688.632 1646.89C689.767 1647.89 690.553 1649.23 690.88 1650.71C691.206 1652.19 691.057 1653.74 690.453 1655.14C689.848 1656.53 688.819 1657.71 687.512 1658.49L687.582 1658.56ZM76.4102 2019.78C75.0803 2020.57 73.5342 2020.92 71.997 2020.77C70.4598 2020.63 69.0118 2020 67.8638 2018.97C66.7159 2017.95 65.9279 2016.58 65.6146 2015.08C65.3013 2013.57 65.4791 2012 66.1221 2010.6C70.2953 2001.55 74.7382 1992.48 79.2882 1983.68C80.1858 1982 81.7121 1980.73 83.536 1980.15C85.3599 1979.57 87.3341 1979.74 89.0302 1980.6C90.7263 1981.47 92.0073 1982.97 92.5952 1984.78C93.1832 1986.59 93.0306 1988.56 92.1705 1990.27C87.7039 1998.87 83.386 2007.73 79.2961 2016.58C78.6513 2017.89 77.6284 2018.97 76.3606 2019.69L76.4102 2019.78ZM1623.66 1080.11C1623.01 1080.51 1622.29 1080.79 1621.53 1080.94C1619.66 1081.37 1617.69 1081.04 1616.07 1080.03C1614.44 1079.02 1613.29 1077.4 1612.86 1075.53C1610.74 1066.08 1608.37 1056.53 1605.83 1047.16C1605.58 1046.24 1605.51 1045.29 1605.64 1044.34C1605.76 1043.4 1606.07 1042.49 1606.54 1041.66C1607.02 1040.84 1607.65 1040.11 1608.41 1039.53C1609.16 1038.94 1610.03 1038.51 1610.95 1038.26C1611.87 1038.01 1612.83 1037.94 1613.78 1038.05C1614.72 1038.17 1615.63 1038.47 1616.46 1038.94C1617.29 1039.41 1618.01 1040.04 1618.59 1040.79C1619.17 1041.54 1619.6 1042.4 1619.85 1043.32C1622.48 1052.97 1624.86 1062.63 1627.02 1072.28C1627.33 1073.76 1627.17 1075.31 1626.56 1076.69C1625.95 1078.08 1624.92 1079.25 1623.61 1080.03L1623.66 1080.11ZM2544.19 502.432C2542.81 503.266 2541.19 503.62 2539.59 503.436C2537.99 503.252 2536.5 502.541 2535.35 501.417C2534.21 500.292 2533.47 498.817 2533.26 497.225C2533.06 495.632 2533.39 494.013 2534.2 492.622C2539.14 484.039 2544.07 475.468 2548.97 466.91C2549.93 465.26 2551.51 464.055 2553.36 463.555C2555.21 463.055 2557.17 463.301 2558.83 464.24C2560.49 465.179 2561.71 466.735 2562.22 468.569C2562.73 470.403 2562.49 472.368 2561.55 474.036C2556.62 482.611 2551.67 491.198 2546.71 499.798C2546.11 500.878 2545.24 501.785 2544.19 502.432ZM1240.6 1283.61C1239.36 1284.36 1237.92 1284.73 1236.47 1284.66C1235.03 1284.58 1233.63 1284.08 1232.48 1283.21C1224.54 1277.2 1216.62 1270.92 1209.11 1264.48C1208.39 1263.87 1207.79 1263.12 1207.36 1262.27C1206.93 1261.43 1206.67 1260.5 1206.6 1259.56C1206.53 1258.61 1206.64 1257.66 1206.94 1256.75C1207.23 1255.85 1207.71 1255.01 1208.33 1254.28C1208.95 1253.56 1209.7 1252.96 1210.55 1252.53C1211.4 1252.09 1212.33 1251.83 1213.28 1251.75C1214.23 1251.67 1215.19 1251.78 1216.09 1252.07C1217 1252.36 1217.84 1252.83 1218.56 1253.44C1225.91 1259.7 1233.55 1265.81 1241.28 1271.67C1242.81 1272.82 1243.82 1274.54 1244.07 1276.44C1244.33 1278.34 1243.82 1280.26 1242.65 1281.8C1242.09 1282.51 1241.42 1283.12 1240.65 1283.59L1240.6 1283.61ZM583.995 1656.44C583.043 1657.01 581.974 1657.36 580.87 1657.45C571.296 1658.26 561.506 1659.37 551.831 1660.85C549.923 1661.13 547.989 1660.63 546.453 1659.48C544.918 1658.33 543.906 1656.62 543.642 1654.72C543.378 1652.82 543.882 1650.89 545.044 1649.35C546.206 1647.81 547.93 1646.8 549.837 1646.52C559.831 1645.1 569.891 1643.97 579.756 1643.13C581.39 1642.99 583.021 1643.41 584.382 1644.31C585.742 1645.22 586.753 1646.56 587.248 1648.11C587.743 1649.67 587.694 1651.35 587.108 1652.88C586.523 1654.41 585.436 1655.7 584.024 1656.54L583.995 1656.44ZM127.349 1929.38C125.931 1930.24 124.266 1930.58 122.629 1930.37C120.992 1930.15 119.481 1929.38 118.347 1928.19C117.212 1927 116.522 1925.45 116.391 1923.81C116.259 1922.17 116.694 1920.53 117.624 1919.16C123.213 1910.92 129.077 1902.71 135.019 1894.68C135.576 1893.88 136.289 1893.2 137.114 1892.68C137.94 1892.16 138.861 1891.81 139.823 1891.65C140.785 1891.49 141.768 1891.52 142.714 1891.75C143.659 1891.98 144.548 1892.4 145.327 1892.98C146.105 1893.56 146.758 1894.29 147.247 1895.12C147.735 1895.96 148.048 1896.89 148.168 1897.85C148.287 1898.82 148.211 1899.8 147.944 1900.73C147.676 1901.67 147.223 1902.54 146.61 1903.3C140.802 1911.08 135.055 1919.11 129.603 1927.16C129.01 1928.07 128.219 1928.85 127.287 1929.42L127.349 1929.38ZM2595.56 412.089C2594.19 412.909 2592.59 413.258 2591.01 413.083C2589.42 412.908 2587.95 412.218 2586.8 411.12C2585.66 410.022 2584.91 408.576 2584.67 407.007C2584.44 405.438 2584.72 403.832 2585.49 402.437C2590.25 393.796 2595 385.142 2599.74 376.473C2600.15 375.555 2600.75 374.732 2601.49 374.054C2602.24 373.376 2603.11 372.86 2604.07 372.538C2605.02 372.215 2606.03 372.093 2607.03 372.18C2608.04 372.268 2609.01 372.562 2609.89 373.044C2610.77 373.526 2611.53 374.185 2612.14 374.98C2612.75 375.776 2613.18 376.689 2613.42 377.663C2613.65 378.637 2613.68 379.65 2613.5 380.638C2613.32 381.626 2612.94 382.566 2612.38 383.401C2607.62 392.099 2602.85 400.773 2598.08 409.422C2597.46 410.539 2596.57 411.476 2595.47 412.139L2595.56 412.089ZM481.898 1675.11C481.332 1675.46 480.72 1675.72 480.079 1675.89C470.758 1678.48 461.295 1681.36 451.982 1684.34C451.068 1684.68 450.097 1684.82 449.126 1684.78C448.156 1684.73 447.206 1684.49 446.332 1684.07C445.459 1683.65 444.68 1683.06 444.042 1682.33C443.403 1681.61 442.919 1680.76 442.617 1679.84C442.314 1678.92 442.201 1677.95 442.283 1676.98C442.365 1676.02 442.641 1675.08 443.094 1674.22C443.547 1673.36 444.168 1672.6 444.92 1671.98C445.672 1671.36 446.541 1670.9 447.473 1670.62C456.908 1667.51 466.644 1664.53 476.111 1661.85C477.802 1661.38 479.603 1661.53 481.181 1662.29C482.759 1663.04 484.007 1664.34 484.694 1665.94C485.382 1667.55 485.462 1669.35 484.921 1671.01C484.379 1672.68 483.252 1674.09 481.749 1675L481.898 1675.11ZM192.437 1848.71C190.929 1849.61 189.15 1849.93 187.428 1849.62C185.707 1849.31 184.158 1848.39 183.069 1847.03C181.98 1845.67 181.424 1843.96 181.502 1842.22C181.581 1840.47 182.289 1838.81 183.497 1837.54C190.453 1830.3 197.496 1823.21 204.699 1816.39C205.383 1815.69 206.198 1815.14 207.096 1814.77C207.995 1814.4 208.959 1814.21 209.93 1814.21C210.902 1814.21 211.862 1814.41 212.753 1814.79C213.644 1815.18 214.448 1815.73 215.118 1816.43C215.787 1817.13 216.308 1817.96 216.65 1818.86C216.992 1819.77 217.148 1820.73 217.108 1821.7C217.068 1822.67 216.833 1823.62 216.418 1824.5C216.003 1825.38 215.415 1826.16 214.69 1826.81C207.611 1833.56 200.635 1840.53 193.912 1847.55C193.478 1848 192.982 1848.4 192.437 1848.71ZM384.552 1711.19L383.887 1711.59C375.06 1715.71 366.199 1720.1 357.562 1724.59C356.717 1725.03 355.793 1725.31 354.844 1725.39C353.895 1725.48 352.939 1725.38 352.03 1725.1C351.122 1724.82 350.279 1724.36 349.549 1723.76C348.819 1723.15 348.217 1722.4 347.778 1721.56C347.338 1720.72 347.069 1719.8 346.986 1718.86C346.904 1717.91 347.009 1716.96 347.295 1716.05C347.582 1715.14 348.045 1714.3 348.658 1713.57C349.27 1712.84 350.021 1712.23 350.866 1711.79C359.699 1707.16 368.759 1702.67 377.773 1698.44C379.476 1697.53 381.467 1697.34 383.309 1697.89C385.15 1698.45 386.69 1699.71 387.591 1701.4C388.491 1703.1 388.679 1705.08 388.111 1706.92C387.543 1708.76 386.268 1710.3 384.564 1711.21L384.552 1711.19ZM270.149 1779.89C268.548 1780.97 266.586 1781.37 264.696 1781.01C262.806 1780.64 261.143 1779.54 260.071 1777.95C259 1776.36 258.609 1774.41 258.983 1772.52C259.358 1770.64 260.468 1768.97 262.07 1767.9C270.064 1761.92 278.281 1756.03 286.498 1750.42C288.094 1749.33 290.054 1748.92 291.947 1749.28C293.839 1749.63 295.508 1750.72 296.588 1752.3C297.668 1753.89 298.069 1755.84 297.704 1757.73C297.338 1759.62 296.236 1761.29 294.639 1762.38C286.618 1767.84 278.554 1773.61 270.793 1779.5L270.149 1779.89ZM1593.43 981.263C1593.1 981.506 1592.75 981.718 1592.38 981.899C1591.49 982.249 1590.54 982.421 1589.59 982.406C1588.63 982.391 1587.69 982.188 1586.82 981.81C1585.95 981.432 1585.16 980.885 1584.5 980.202C1583.84 979.519 1583.32 978.712 1582.98 977.827C1579.43 968.725 1575.7 959.735 1571.78 950.857C1571 949.091 1570.96 947.085 1571.67 945.28C1572.02 944.386 1572.54 943.568 1573.2 942.874C1573.87 942.179 1574.66 941.621 1575.54 941.231C1576.42 940.842 1577.37 940.628 1578.33 940.603C1579.29 940.577 1580.24 940.741 1581.13 941.083C1582.03 941.426 1582.85 941.941 1583.54 942.6C1584.23 943.259 1584.79 944.048 1585.17 944.922C1589.15 953.99 1593.01 963.24 1596.6 972.458C1597.19 974.056 1597.21 975.816 1596.63 977.428C1596.05 979.04 1594.92 980.398 1593.43 981.263ZM1164.76 1213.65C1163.31 1214.52 1161.61 1214.86 1159.94 1214.61C1158.26 1214.37 1156.74 1213.54 1155.61 1212.29C1149.08 1204.98 1142.51 1197.19 1136.27 1189.48C1135.68 1188.74 1135.23 1187.89 1134.97 1186.98C1134.71 1186.07 1134.63 1185.11 1134.74 1184.17C1134.85 1183.22 1135.14 1182.31 1135.6 1181.47C1136.07 1180.64 1136.69 1179.9 1137.43 1179.31C1138.18 1178.71 1139.04 1178.27 1139.95 1178C1140.87 1177.74 1141.83 1177.65 1142.77 1177.75C1143.72 1177.86 1144.64 1178.14 1145.47 1178.6C1146.31 1179.06 1147.04 1179.67 1147.63 1180.41C1153.69 1188.01 1160 1195.45 1166.44 1202.65C1167.07 1203.35 1167.56 1204.18 1167.87 1205.08C1168.18 1205.97 1168.31 1206.92 1168.26 1207.87C1168.2 1208.82 1167.96 1209.75 1167.54 1210.61C1167.12 1211.47 1166.54 1212.23 1165.82 1212.87C1165.49 1213.15 1165.14 1213.41 1164.76 1213.65ZM2644.72 320.765C2643.37 321.572 2641.79 321.92 2640.22 321.754C2638.66 321.588 2637.19 320.919 2636.04 319.846C2634.9 318.774 2634.14 317.357 2633.87 315.809C2633.61 314.262 2633.86 312.668 2634.58 311.27C2639.18 302.541 2643.73 293.787 2648.26 285.006C2648.69 284.15 2649.28 283.386 2650.01 282.76C2650.74 282.133 2651.59 281.657 2652.5 281.357C2653.41 281.058 2654.38 280.941 2655.33 281.015C2656.29 281.088 2657.22 281.35 2658.07 281.786C2658.92 282.221 2659.68 282.821 2660.29 283.551C2660.91 284.281 2661.38 285.126 2661.66 286.038C2661.95 286.95 2662.05 287.91 2661.96 288.863C2661.87 289.816 2661.59 290.743 2661.14 291.59C2656.6 300.379 2652.03 309.152 2647.42 317.911C2646.8 319.089 2645.86 320.076 2644.72 320.765ZM2691.95 228.383C2690.61 229.203 2689.03 229.565 2687.47 229.416C2685.9 229.266 2684.43 228.613 2683.28 227.554C2682.12 226.496 2681.34 225.089 2681.06 223.547C2680.78 222.005 2681.01 220.411 2681.72 219.005C2686.13 210.175 2690.5 201.327 2694.82 192.462C2695.75 190.894 2697.23 189.728 2698.98 189.195C2700.72 188.662 2702.6 188.802 2704.24 189.586C2705.88 190.371 2707.16 191.742 2707.82 193.428C2708.49 195.115 2708.49 196.993 2707.83 198.689C2703.47 207.58 2699.09 216.453 2694.69 225.311C2694.09 226.574 2693.14 227.641 2691.95 228.383ZM1548.74 888.244L1548.63 888.306C1546.98 889.26 1545.02 889.532 1543.18 889.062C1541.34 888.592 1539.76 887.418 1538.79 885.794C1536.83 882.534 1534.88 879.294 1532.93 876.034C1529.89 870.978 1526.8 865.84 1523.55 860.888C1523.04 860.088 1522.69 859.195 1522.53 858.26C1522.36 857.324 1522.39 856.365 1522.6 855.437C1522.81 854.508 1523.19 853.629 1523.74 852.849C1524.29 852.069 1524.99 851.403 1525.79 850.891C1526.6 850.377 1527.5 850.027 1528.44 849.859C1529.38 849.691 1530.34 849.709 1531.27 849.911C1532.2 850.114 1533.08 850.498 1533.86 851.041C1534.64 851.584 1535.3 852.275 1535.81 853.075C1539.07 858.168 1542.21 863.268 1545.39 868.551C1547.38 871.873 1549.38 875.196 1551.37 878.518C1552.28 880.156 1552.52 882.087 1552.02 883.902C1551.53 885.717 1550.35 887.274 1548.74 888.244ZM1103.58 1130.58C1101.93 1131.57 1099.95 1131.87 1098.09 1131.41C1096.22 1130.95 1094.62 1129.77 1093.63 1128.13C1088.53 1119.63 1083.6 1110.86 1078.95 1102.08C1078.5 1101.24 1078.23 1100.32 1078.14 1099.37C1078.05 1098.43 1078.15 1097.47 1078.44 1096.56C1078.72 1095.65 1079.18 1094.8 1079.79 1094.07C1080.4 1093.33 1081.15 1092.73 1081.99 1092.28C1082.83 1091.83 1083.76 1091.55 1084.71 1091.46C1085.66 1091.37 1086.62 1091.46 1087.53 1091.74C1088.44 1092.01 1089.29 1092.47 1090.02 1093.07C1090.75 1093.67 1091.36 1094.42 1091.8 1095.26C1096.3 1103.79 1101.13 1112.34 1106.11 1120.64C1106.6 1121.45 1106.93 1122.36 1107.06 1123.3C1107.2 1124.24 1107.15 1125.2 1106.91 1126.12C1106.68 1127.05 1106.26 1127.92 1105.69 1128.68C1105.12 1129.45 1104.4 1130.09 1103.58 1130.58ZM2737.12 134.967C2735.79 135.763 2734.24 136.113 2732.7 135.968C2731.16 135.822 2729.71 135.188 2728.56 134.158C2727.41 133.128 2726.62 131.756 2726.31 130.244C2726 128.732 2726.19 127.158 2726.84 125.754C2731.04 116.834 2735.21 107.89 2739.35 98.9237C2739.73 98.0171 2740.28 97.1939 2740.98 96.5039C2741.67 95.814 2742.5 95.2714 2743.42 94.909C2744.33 94.5466 2745.3 94.3718 2746.28 94.3954C2747.26 94.419 2748.23 94.6404 2749.12 95.0461C2750.01 95.4518 2750.8 96.0334 2751.46 96.756C2752.12 97.4785 2752.62 98.3272 2752.93 99.2502C2753.25 100.173 2753.38 101.152 2753.3 102.127C2753.23 103.102 2752.96 104.053 2752.51 104.923C2748.37 113.904 2744.19 122.869 2739.98 131.819C2739.36 133.127 2738.37 134.224 2737.12 134.967ZM2780.23 40.6021C2778.9 41.3957 2777.36 41.7503 2775.83 41.6149C2774.3 41.4794 2772.85 40.8608 2771.7 39.8486C2770.55 38.8364 2769.75 37.4831 2769.42 35.9845C2769.09 34.486 2769.26 32.9199 2769.88 31.513C2773.89 22.5135 2777.88 13.4729 2781.85 4.3909C2782.63 2.65237 2784.07 1.28871 2785.85 0.595522C2787.64 -0.0976671 2789.62 -0.0645595 2791.36 0.687613C2793.11 1.43978 2794.49 2.85042 2795.2 4.6139C2795.91 6.37737 2795.89 8.3516 2795.14 10.1087C2791.17 19.177 2787.19 28.2315 2783.2 37.2723C2782.58 38.664 2781.54 39.829 2780.23 40.6021ZM1490.36 803.128C1488.85 804.052 1487.06 804.399 1485.33 804.104C1483.59 803.809 1482.02 802.892 1480.92 801.525C1474.8 793.969 1468.49 786.525 1462.02 779.181C1460.77 777.745 1460.14 775.869 1460.27 773.963C1460.4 772.058 1461.28 770.277 1462.72 769.009C1464.16 767.741 1466.04 767.089 1467.95 767.195C1469.86 767.301 1471.65 768.156 1472.92 769.574C1479.44 776.893 1485.95 784.634 1492.24 792.338C1493.44 793.828 1494 795.736 1493.79 797.643C1493.58 799.549 1492.62 801.298 1491.12 802.505L1490.36 803.128ZM1059.03 1037.53C1058.66 1037.79 1058.27 1038.02 1057.87 1038.23C1056.97 1038.56 1056.02 1038.71 1055.07 1038.68C1054.11 1038.64 1053.18 1038.42 1052.31 1038.03C1051.45 1037.63 1050.67 1037.07 1050.03 1036.37C1049.38 1035.67 1048.88 1034.86 1048.55 1033.96C1045.2 1024.75 1041.91 1015.1 1039 1005.64C1038.73 1004.73 1038.63 1003.78 1038.72 1002.83C1038.81 1001.89 1039.09 1000.97 1039.53 1000.12C1039.98 999.283 1040.59 998.536 1041.32 997.927C1042.06 997.318 1042.91 996.858 1043.82 996.574C1044.73 996.291 1045.69 996.189 1046.63 996.274C1047.58 996.359 1048.5 996.629 1049.35 997.07C1050.19 997.511 1050.93 998.113 1051.54 998.843C1052.15 999.572 1052.6 1000.41 1052.88 1001.32C1055.63 1010.6 1058.84 1019.84 1062.17 1028.93C1062.72 1030.5 1062.71 1032.21 1062.13 1033.78C1061.56 1035.34 1060.46 1036.67 1059.03 1037.53ZM1419.3 728.27C1417.96 729.066 1416.41 729.416 1414.87 729.271C1413.33 729.125 1411.88 728.492 1410.73 727.462C1403.46 720.96 1396 714.604 1388.5 708.52C1387.72 707.936 1387.07 707.198 1386.58 706.352C1386.09 705.506 1385.78 704.569 1385.67 703.598C1385.55 702.627 1385.64 701.642 1385.92 700.703C1386.2 699.764 1386.66 698.889 1387.29 698.133C1387.92 697.377 1388.69 696.754 1389.56 696.303C1390.43 695.852 1391.39 695.581 1392.37 695.508C1393.35 695.434 1394.33 695.559 1395.26 695.875C1396.18 696.192 1397.03 696.692 1397.76 697.347C1405.42 703.558 1413.04 710.096 1420.47 716.726C1421.32 717.479 1421.98 718.421 1422.39 719.476C1422.8 720.532 1422.96 721.67 1422.85 722.8C1422.74 723.93 1422.36 725.019 1421.75 725.98C1421.14 726.941 1420.31 727.747 1419.33 728.332L1419.3 728.27ZM1032.83 937.723C1032.04 938.192 1031.17 938.515 1030.27 938.674C1028.37 938.985 1026.42 938.531 1024.87 937.412C1023.31 936.293 1022.27 934.601 1021.96 932.708C1020.38 922.876 1019.05 912.894 1018.04 903.027C1017.93 902.077 1018.01 901.113 1018.28 900.192C1018.54 899.27 1018.99 898.41 1019.59 897.66C1020.19 896.91 1020.94 896.286 1021.78 895.823C1022.62 895.361 1023.55 895.069 1024.51 894.966C1025.46 894.862 1026.43 894.949 1027.35 895.22C1028.26 895.492 1029.12 895.943 1029.86 896.547C1030.6 897.152 1031.22 897.898 1031.66 898.742C1032.11 899.586 1032.39 900.511 1032.47 901.464C1033.46 911.062 1034.75 920.788 1036.28 930.343C1036.51 931.772 1036.31 933.24 1035.69 934.555C1035.08 935.871 1034.08 936.975 1032.83 937.723ZM1336.6 666.603C1335.48 667.278 1334.2 667.64 1332.89 667.649C1331.58 667.658 1330.3 667.315 1329.17 666.655C1320.57 661.741 1312.09 657.034 1303.62 652.942C1302.09 652.004 1300.98 650.533 1300.48 648.815C1299.98 647.096 1300.15 645.251 1300.94 643.638C1301.73 642.025 1303.09 640.758 1304.75 640.082C1306.42 639.406 1308.28 639.369 1309.96 639.979C1318.74 644.252 1327.67 649 1336.52 654.24C1338.17 655.216 1339.36 656.807 1339.83 658.663C1340.3 660.519 1340.01 662.488 1339.02 664.139C1338.43 665.147 1337.6 665.993 1336.6 666.603ZM1027.16 834.742C1026.03 835.428 1024.73 835.792 1023.4 835.795C1022.08 835.798 1020.78 835.44 1019.65 834.76C1018.52 834.079 1017.6 833.102 1016.99 831.935C1016.38 830.767 1016.1 829.454 1016.19 828.136C1016.87 818.036 1017.99 807.935 1019.47 798.085C1019.76 796.186 1020.8 794.476 1022.35 793.332C1023.9 792.187 1025.84 791.7 1027.74 791.98C1029.65 792.26 1031.36 793.282 1032.5 794.823C1033.64 796.363 1034.11 798.295 1033.82 800.194C1032.37 809.63 1031.21 819.368 1030.64 829.004C1030.54 830.154 1030.17 831.266 1029.55 832.246C1028.94 833.226 1028.1 834.047 1027.1 834.639L1027.16 834.742ZM1240.64 628.766C1239.11 629.688 1237.3 630.018 1235.55 629.692C1226.19 627.917 1216.71 626.824 1207.19 626.42C1206.2 626.436 1205.23 626.25 1204.32 625.875C1203.41 625.5 1202.58 624.944 1201.9 624.24C1201.21 623.536 1200.68 622.7 1200.33 621.782C1199.98 620.863 1199.83 619.883 1199.87 618.9C1199.92 617.917 1200.16 616.953 1200.59 616.066C1201.02 615.178 1201.63 614.387 1202.38 613.74C1203.12 613.093 1203.99 612.604 1204.93 612.302C1205.88 612.001 1206.87 611.894 1207.85 611.987C1218.05 612.441 1228.21 613.625 1238.23 615.529C1239.68 615.798 1241 616.499 1242.03 617.539C1243.07 618.579 1243.75 619.909 1244.01 621.353C1244.26 622.796 1244.07 624.285 1243.46 625.622C1242.84 626.959 1241.84 628.08 1240.57 628.837L1240.64 628.766ZM1050.12 734.081C1048.81 734.863 1047.28 735.213 1045.76 735.081C1044.24 734.948 1042.8 734.341 1041.65 733.345C1040.51 732.349 1039.7 731.015 1039.36 729.533C1039.02 728.051 1039.16 726.497 1039.75 725.092C1043.79 715.668 1048.45 706.518 1053.71 697.703C1054.19 696.883 1054.84 696.166 1055.6 695.592C1056.36 695.019 1057.23 694.601 1058.16 694.361C1059.08 694.122 1060.04 694.066 1060.99 694.197C1061.93 694.328 1062.84 694.643 1063.66 695.124C1064.48 695.605 1065.19 696.243 1065.76 697.001C1066.33 697.76 1066.75 698.624 1066.98 699.544C1067.22 700.464 1067.27 701.422 1067.13 702.364C1067 703.305 1066.68 704.212 1066.19 705.032C1061.33 713.261 1057.02 721.798 1053.28 730.586C1052.64 732.066 1051.53 733.296 1050.12 734.081ZM1138.9 638.653L1138.11 639.127L1136.2 639.993C1128.27 643.643 1120.67 647.988 1113.51 652.975C1112.72 653.522 1111.84 653.91 1110.9 654.117C1109.97 654.324 1109.01 654.345 1108.07 654.181C1107.13 654.017 1106.23 653.669 1105.43 653.158C1104.62 652.648 1103.93 651.983 1103.39 651.204C1102.84 650.425 1102.46 649.545 1102.26 648.616C1102.05 647.687 1102.04 646.725 1102.21 645.788C1102.38 644.85 1102.73 643.954 1103.25 643.15C1103.76 642.347 1104.43 641.652 1105.22 641.105C1113.1 635.61 1121.45 630.829 1130.18 626.818L1132.39 625.798C1133.24 625.358 1134.17 625.088 1135.12 625.005C1136.07 624.922 1137.03 625.026 1137.94 625.312C1138.85 625.598 1139.69 626.06 1140.42 626.671C1141.14 627.283 1141.74 628.032 1142.18 628.876C1142.62 629.72 1142.88 630.643 1142.96 631.591C1143.04 632.539 1142.93 633.494 1142.64 634.402C1142.34 635.31 1141.88 636.152 1141.26 636.882C1140.64 637.611 1139.89 638.213 1139.04 638.653L1138.9 638.653Z" fill="#1F324F"/>
</svg>
