<svg width="1180" height="1886" viewBox="0 0 1180 1886" fill="none" xmlns="http://www.w3.org/2000/svg">
<path fill-rule="evenodd" clip-rule="evenodd" d="M1108.53 0.63104C1137.04 -3.63701 1163.61 16.0149 1167.88 44.5248C1191.89 204.916 1179.04 335.795 1137.18 443.661C1095.21 551.807 1025.57 632.992 942.311 696.12C805.5 799.855 626.465 857.671 469.33 908.414C439.488 918.051 410.436 927.433 382.613 936.825C224.481 990.209 114.357 1145.92 105.202 1317.49C96.2605 1485.07 184.338 1672.25 435.034 1785.98C461.287 1797.89 472.914 1828.82 461.004 1855.07C449.095 1881.33 418.158 1892.95 391.906 1881.04C105.494 1751.11 -10.4702 1526.08 0.956487 1311.93C12.1699 1101.77 146.824 906.243 349.222 837.916C379.898 827.56 410.909 817.499 441.962 807.424C599.406 756.345 757.927 704.916 879.237 612.935C949.996 559.283 1006.09 492.903 1039.85 405.892C1073.73 318.601 1086.61 206.733 1064.64 59.9807C1060.37 31.4709 1080.02 4.89909 1108.53 0.63104Z" fill="#7BD198"/>
</svg>
