<svg width="1863" height="1268" viewBox="0 0 1863 1268" fill="none" xmlns="http://www.w3.org/2000/svg">
<path fill-rule="evenodd" clip-rule="evenodd" d="M0.260842 1206.09C-2.52915 1234.78 18.4688 1260.3 47.161 1263.09C200.87 1278.04 327.84 1256.88 433.786 1208.14C539.628 1159.45 621.15 1084.78 686.402 997.739C794.162 854.003 861.084 670.493 920.434 507.747C931.742 476.739 942.775 446.485 953.764 417.404C1017.52 248.659 1178.13 126.873 1342.63 107.447C1423.89 97.8517 1505.34 113.254 1577.34 159.413C1649.36 205.583 1715.52 284.865 1761.82 409.055C1771.89 436.067 1801.95 449.801 1828.96 439.731C1855.97 429.661 1869.71 399.601 1859.64 372.589C1806.92 231.192 1728.01 132.001 1633.68 71.5285C1539.33 11.0451 1433.18 -8.36453 1330.38 3.77389C1126.78 27.8167 933.498 175.683 856.108 380.505C844.199 412.025 832.52 443.953 820.799 475.995C761.178 638.985 700.475 804.935 602.876 935.118C545.589 1011.53 476.895 1073.4 390.157 1113.3C303.523 1153.16 195.549 1172.63 57.2645 1159.19C28.5722 1156.4 3.05084 1177.39 0.260842 1206.09Z" fill="#7BD198"/>
</svg>
